  0
SECTION
  2
HEADER
  9
$ACADVER
  1
AC1015
  9
$ACADMAINTVER
 70
     6
  9
$DWGCODEPAGE
  3
ANSI_1252
  9
$INSBASE
 10
0.0
 20
0.0
 30
0.0
  9
$EXTMIN
 10
0.0
 20
0.0
 30
0.0
  9
$EXTMAX
 10
594.0
 20
420.0
 30
0.0
  9
$LIMMIN
 10
0.0
 20
0.0
  9
$LIMMAX
 10
594.0
 20
420.0
  9
$ORTHOMODE
 70
     0
  9
$REGENMODE
 70
     1
  9
$FILLMODE
 70
     1
  9
$QTEXTMODE
 70
     0
  9
$MIRRTEXT
 70
     1
  9
$LTSCALE
 40
1.0
  9
$ATTMODE
 70
     1
  9
$TEXTSIZE
 40
3.5
  9
$TRACEWID
 40
1.0
  9
$TEXTSTYLE
  7
Standard
  9
$CLAYER
  8
0
  9
$CELTYPE
  6
ByLayer
  9
$CECOLOR
 62
   256
  9
$CELTSCALE
 40
1.0
  9
$DISPSILH
 70
     0
  9
$DIMSCALE
 40
1.0
  9
$DIMASZ
 40
3.302
  9
$DIMEXO
 40
1.0
  9
$DIMDLI
 40
3.75
  9
$DIMRND
 40
0.0
  9
$DIMDLE
 40
0.0
  9
$DIMEXE
 40
1.0
  9
$DIMTP
 40
0.0
  9
$DIMTM
 40
0.0
  9
$DIMTXT
 40
3.5
  9
$DIMCEN
 40
2.5
  9
$DIMTSZ
 40
0.0
  9
$DIMTOL
 70
     0
  9
$DIMLIM
 70
     0
  9
$DIMTIH
 70
     1
  9
$DIMTOH
 70
     1
  9
$DIMSE1
 70
     0
  9
$DIMSE2
 70
     0
  9
$DIMTAD
 70
     1
  9
$DIMZIN
 70
     0
  9
$DIMBLK
  1

  9
$DIMASO
 70
     1
  9
$DIMSHO
 70
     1
  9
$DIMPOST
  1

  9
$DIMAPOST
  1

  9
$DIMALT
 70
     0
  9
$DIMALTD
 70
     3
  9
$DIMALTF
 40
0.0393700787
  9
$DIMLFAC
 40
10.0
  9
$DIMTOFL
 70
     1
  9
$DIMTVP
 40
0.0
  9
$DIMTIX
 70
     0
  9
$DIMSOXD
 70
     0
  9
$DIMSAH
 70
     0
  9
$DIMBLK1
  1

  9
$DIMBLK2
  1

  9
$DIMSTYLE
  2
ISO-25
  9
$DIMCLRD
 70
     0
  9
$DIMCLRE
 70
     0
  9
$DIMCLRT
 70
     0
  9
$DIMTFAC
 40
1.0
  9
$DIMGAP
 40
1.524
  9
$DIMJUST
 70
     0
  9
$DIMSD1
 70
     0
  9
$DIMSD2
 70
     0
  9
$DIMTOLJ
 70
     0
  9
$DIMTZIN
 70
     0
  9
$DIMALTZ
 70
     0
  9
$DIMALTTZ
 70
     0
  9
$DIMUPT
 70
     0
  9
$DIMDEC
 70
     2
  9
$DIMTDEC
 70
     2
  9
$DIMALTU
 70
     2
  9
$DIMALTTD
 70
     3
  9
$DIMTXSTY
  7
Standard
  9
$DIMAUNIT
 70
     0
  9
$DIMADEC
 70
     2
  9
$DIMALTRND
 40
0.0
  9
$DIMAZIN
 70
     0
  9
$DIMDSEP
 70
    44
  9
$DIMATFIT
 70
     3
  9
$DIMFRAC
 70
     0
  9
$DIMLDRBLK
  1

  9
$DIMLUNIT
 70
     2
  9
$DIMLWD
 70
    -2
  9
$DIMLWE
 70
    -2
  9
$DIMTMOVE
 70
     0
  9
$LUNITS
 70
     2
  9
$LUPREC
 70
     2
  9
$SKETCHINC
 40
1.0
  9
$FILLETRAD
 40
10.0
  9
$AUNITS
 70
     0
  9
$AUPREC
 70
     2
  9
$MENU
  1
.
  9
$ELEVATION
 40
0.0
  9
$PELEVATION
 40
0.0
  9
$THICKNESS
 40
0.0
  9
$LIMCHECK
 70
     0
  9
$CHAMFERA
 40
0.0
  9
$CHAMFERB
 40
0.0
  9
$CHAMFERC
 40
0.0
  9
$CHAMFERD
 40
0.0
  9
$SKPOLY
 70
     0
  9
$TDCREATE
 40
2457652.660213947
  9
$TDUCREATE
 40
2457652.576880613
  9
$TDUPDATE
 40
2457652.660219966
  9
$TDUUPDATE
 40
2457652.576886632
  9
$TDINDWG
 40
0.0000000116
  9
$TDUSRTIMER
 40
0.0000000116
  9
$USRTIMER
 70
     1
  9
$ANGBASE
 50
0.0
  9
$ANGDIR
 70
     0
  9
$PDMODE
 70
     0
  9
$PDSIZE
 40
-1.0
  9
$PLINEWID
 40
0.0
  9
$SPLFRAME
 70
     0
  9
$SPLINETYPE
 70
     6
  9
$SPLINESEGS
 70
     8
  9
$HANDSEED
  5
29F
  9
$SURFTAB1
 70
     6
  9
$SURFTAB2
 70
     6
  9
$SURFTYPE
 70
     6
  9
$SURFU
 70
     6
  9
$SURFV
 70
     6
  9
$UCSBASE
  2

  9
$UCSNAME
  2

  9
$UCSORG
 10
0.0
 20
0.0
 30
0.0
  9
$UCSXDIR
 10
1.0
 20
0.0
 30
0.0
  9
$UCSYDIR
 10
0.0
 20
1.0
 30
0.0
  9
$UCSORTHOREF
  2

  9
$UCSORTHOVIEW
 70
     0
  9
$UCSORGTOP
 10
0.0
 20
0.0
 30
0.0
  9
$UCSORGBOTTOM
 10
0.0
 20
0.0
 30
0.0
  9
$UCSORGLEFT
 10
0.0
 20
0.0
 30
0.0
  9
$UCSORGRIGHT
 10
0.0
 20
0.0
 30
0.0
  9
$UCSORGFRONT
 10
0.0
 20
0.0
 30
0.0
  9
$UCSORGBACK
 10
0.0
 20
0.0
 30
0.0
  9
$PUCSBASE
  2

  9
$PUCSNAME
  2

  9
$PUCSORG
 10
0.0
 20
0.0
 30
0.0
  9
$PUCSXDIR
 10
1.0
 20
0.0
 30
0.0
  9
$PUCSYDIR
 10
0.0
 20
1.0
 30
0.0
  9
$PUCSORTHOREF
  2

  9
$PUCSORTHOVIEW
 70
     0
  9
$PUCSORGTOP
 10
0.0
 20
0.0
 30
0.0
  9
$PUCSORGBOTTOM
 10
0.0
 20
0.0
 30
0.0
  9
$PUCSORGLEFT
 10
0.0
 20
0.0
 30
0.0
  9
$PUCSORGRIGHT
 10
0.0
 20
0.0
 30
0.0
  9
$PUCSORGFRONT
 10
0.0
 20
0.0
 30
0.0
  9
$PUCSORGBACK
 10
0.0
 20
0.0
 30
0.0
  9
$USERI1
 70
     0
  9
$USERI2
 70
     0
  9
$USERI3
 70
     0
  9
$USERI4
 70
     0
  9
$USERI5
 70
     0
  9
$USERR1
 40
0.0
  9
$USERR2
 40
0.0
  9
$USERR3
 40
0.0
  9
$USERR4
 40
0.0
  9
$USERR5
 40
0.0
  9
$WORLDVIEW
 70
     1
  9
$SHADEDGE
 70
     3
  9
$SHADEDIF
 70
    70
  9
$TILEMODE
 70
     1
  9
$MAXACTVP
 70
    64
  9
$PINSBASE
 10
0.0
 20
0.0
 30
0.0
  9
$PLIMCHECK
 70
     0
  9
$PEXTMIN
 10
1.0000000000E+20
 20
1.0000000000E+20
 30
1.0000000000E+20
  9
$PEXTMAX
 10
-1.0000000000E+20
 20
-1.0000000000E+20
 30
-1.0000000000E+20
  9
$PLIMMIN
 10
0.0
 20
0.0
  9
$PLIMMAX
 10
420.0
 20
297.0
  9
$UNITMODE
 70
     0
  9
$VISRETAIN
 70
     1
  9
$PLINEGEN
 70
     0
  9
$PSLTSCALE
 70
     1
  9
$TREEDEPTH
 70
  3020
  9
$CMLSTYLE
  2
Standard
  9
$CMLJUST
 70
     0
  9
$CMLSCALE
 40
20.0
  9
$PROXYGRAPHICS
 70
     1
  9
$MEASUREMENT
 70
     1
  9
$CELWEIGHT
370
    -1
  9
$ENDCAPS
280
     0
  9
$JOINSTYLE
280
     0
  9
$LWDISPLAY
290
     1
  9
$INSUNITS
 70
     4
  9
$HYPERLINKBASE
  1

  9
$STYLESHEET
  1

  9
$XEDIT
290
     1
  9
$CEPSNTYPE
380
     0
  9
$PSTYLEMODE
290
     1
  9
$FINGERPRINTGUID
  2
{211977B4-FEFA-450F-8DBE-F02208C6E2D4}
  9
$VERSIONGUID
  2
{FAEB1C32-E019-11D5-929B-00C0DF256EC4}
  9
$EXTNAMES
290
     1
  9
$PSVPSCALE
 40
0.0
  9
$OLESTARTUP
290
     0
  0
ENDSEC
  0
SECTION
  2
CLASSES
  0
CLASS
  1
ACDBDICTIONARYWDFLT
  2
AcDbDictionaryWithDefault
  3
ObjectDBX Classes
 90
        0
280
     0
281
     0
  0
CLASS
  1
VISUALSTYLE
  2
AcDbVisualStyle
  3
ObjectDBX Classes
 90
     4095
280
     0
281
     0
  0
CLASS
  1
MATERIAL
  2
AcDbMaterial
  3
ObjectDBX Classes
 90
     1153
280
     0
281
     0
  0
CLASS
  1
SCALE
  2
AcDbScale
  3
ObjectDBX Classes
 90
     1153
280
     0
281
     0
  0
CLASS
  1
TABLESTYLE
  2
AcDbTableStyle
  3
ObjectDBX Classes
 90
     4095
280
     0
281
     0
  0
CLASS
  1
MLEADERSTYLE
  2
AcDbMLeaderStyle
  3
ACDB_MLEADERSTYLE_CLASS
 90
     4095
280
     0
281
     0
  0
CLASS
  1
SUN
  2
AcDbSun
  3
SCENEOE
 90
     1153
280
     0
281
     0
  0
CLASS
  1
ACDBPLACEHOLDER
  2
AcDbPlaceHolder
  3
ObjectDBX Classes
 90
        0
280
     0
281
     0
  0
CLASS
  1
LAYOUT
  2
AcDbLayout
  3
ObjectDBX Classes
 90
        0
280
     0
281
     0
  0
ENDSEC
  0
SECTION
  2
TABLES
  0
TABLE
  2
VPORT
  5
8
330
0
100
AcDbSymbolTable
 70
     1
  0
VPORT
  5
29
330
8
100
AcDbSymbolTableRecord
100
AcDbViewportTableRecord
  2
*Active
 70
     0
 10
0.0
 20
0.0
 11
1.0
 21
1.0
 12
297.0
 22
210.0
 13
0.0
 23
0.0
 14
10.0
 24
10.0
 15
10.0
 25
10.0
 16
0.0
 26
0.0
 36
1.0
 17
0.0
 27
0.0
 37
0.0
 40
420.0
 41
1.4142857143
 42
50.0
 43
0.0
 44
0.0
 50
0.0
 51
0.0
 71
     0
 72
  2000
 73
     1
 74
     3
 75
     0
 76
     0
 77
     0
 78
     0
281
     0
 65
     1
110
0.0
120
0.0
130
0.0
111
1.0
121
0.0
131
0.0
112
0.0
122
1.0
132
0.0
 79
     0
146
0.0
  0
ENDTAB
  0
TABLE
  2
LTYPE
  5
5
330
0
100
AcDbSymbolTable
 70
     6
  0
LTYPE
  5
14
330
5
100
AcDbSymbolTableRecord
100
AcDbLinetypeTableRecord
  2
ByBlock
 70
     0
  3

 72
    65
 73
     0
 40
0.0
  0
LTYPE
  5
15
330
5
100
AcDbSymbolTableRecord
100
AcDbLinetypeTableRecord
  2
ByLayer
 70
     0
  3

 72
    65
 73
     0
 40
0.0
  0
LTYPE
  5
16
330
5
100
AcDbSymbolTableRecord
100
AcDbLinetypeTableRecord
  2
Continuous
 70
     0
  3
Solid line
 72
    65
 73
     0
 40
0.0
  0
LTYPE
  5
6E
330
5
100
AcDbSymbolTableRecord
100
AcDbLinetypeTableRecord
  2
HIDDEN
 70
     0
  3
Hidden __ __ __ __ __ __ __ __ __ __ __ __ __ __
 72
    65
 73
     2
 40
1.905
 49
1.27
 74
     0
 49
-0.635
 74
     0
  0
LTYPE
  5
6F
330
5
100
AcDbSymbolTableRecord
100
AcDbLinetypeTableRecord
  2
PHANTOM
 70
     0
  3
Phantom ______  __  __  ______  __  __  ______
 72
    65
 73
     6
 40
12.7
 49
6.35
 74
     0
 49
-1.27
 74
     0
 49
1.27
 74
     0
 49
-1.27
 74
     0
 49
1.27
 74
     0
 49
-1.27
 74
     0
  0
LTYPE
  5
70
330
5
100
AcDbSymbolTableRecord
100
AcDbLinetypeTableRecord
  2
CENTER
 70
     0
  3
Center ____ _ ____ _ ____ _ ____ _ ____ _ ____
 72
    65
 73
     4
 40
10.16
 49
6.35
 74
     0
 49
-1.27
 74
     0
 49
1.27
 74
     0
 49
-1.27
 74
     0
  0
LTYPE
  5
71
330
5
100
AcDbSymbolTableRecord
100
AcDbLinetypeTableRecord
  2
CENTERX2
 70
     0
  3
Center (2x) ________  __  ________  __  _____
 72
    65
 73
     4
 40
20.32
 49
12.7
 74
     0
 49
-2.54
 74
     0
 49
2.54
 74
     0
 49
-2.54
 74
     0
  0
LTYPE
  5
72
330
5
100
AcDbSymbolTableRecord
100
AcDbLinetypeTableRecord
  2
DOT2
 70
     0
  3
Dot (.5x) ........................................
 72
    65
 73
     2
 40
0.635
 49
0.0
 74
     0
 49
-0.635
 74
     0
  0
ENDTAB
  0
TABLE
  2
LAYER
  5
2
330
0
100
AcDbSymbolTable
 70
     2
  0
LAYER
  5
10
330
2
100
AcDbSymbolTableRecord
100
AcDbLayerTableRecord
  2
0
 70
     0
 62
     7
  6
Continuous
370
    -3
390
F
  0
LAYER
  5
73
330
2
100
AcDbSymbolTableRecord
100
AcDbLayerTableRecord
  2
FORMAT
 70
     0
 62
     7
  6
Continuous
370
    -3
390
F
  0
ENDTAB
  0
TABLE
  2
STYLE
  5
3
330
0
100
AcDbSymbolTable
 70
     4
  0
STYLE
  5
11
330
3
100
AcDbSymbolTableRecord
100
AcDbTextStyleTableRecord
  2
Standard
 70
     0
 40
0.0
 41
1.0
 50
0.0
 71
     0
 42
3.5
  3
txt
  4

  0
STYLE
  5
BD
330
3
100
AcDbSymbolTableRecord
100
AcDbTextStyleTableRecord
  2
SLDTEXTSTYLE0
 70
     0
 40
0.0
 41
0.75
 50
0.0
 71
     0
 42
3.5
  3
TXT
  4

  0
STYLE
  5
E8
330
3
100
AcDbSymbolTableRecord
100
AcDbTextStyleTableRecord
  2
SLDTEXTSTYLE1
 70
     0
 40
0.0
 41
0.6864493306
 50
0.0
 71
     0
 42
3.5
  3
TXT
  4

  0
STYLE
  5
109
330
3
100
AcDbSymbolTableRecord
100
AcDbTextStyleTableRecord
  2
SLDTEXTSTYLE2
 70
     0
 40
0.0
 41
0.6875
 50
0.0
 71
     0
 42
3.5
  3
TXT
  4

  0
ENDTAB
  0
TABLE
  2
VIEW
  5
6
330
0
100
AcDbSymbolTable
 70
     0
  0
ENDTAB
  0
TABLE
  2
UCS
  5
7
330
0
100
AcDbSymbolTable
 70
     0
  0
ENDTAB
  0
TABLE
  2
APPID
  5
9
330
0
100
AcDbSymbolTable
 70
     1
  0
APPID
  5
12
330
9
100
AcDbSymbolTableRecord
100
AcDbRegAppTableRecord
  2
ACAD
 70
     0
  0
ENDTAB
  0
TABLE
  2
DIMSTYLE
  5
A
330
0
100
AcDbSymbolTable
 70
    11
100
AcDbDimStyleTable
  0
DIMSTYLE
105
27
330
A
100
AcDbSymbolTableRecord
100
AcDbDimStyleTableRecord
  2
ISO-25
 70
     0
 41
2.5
 42
0.625
 43
3.75
 44
1.25
 73
     0
 74
     0
 77
     1
 78
     8
140
2.5
141
2.5
143
0.0393700787
147
0.625
171
     3
172
     1
178
     0
271
     2
272
     2
274
     3
278
    44
283
     0
284
     8
340
11
  0
DIMSTYLE
105
132
102
{ACAD_REACTORS
330
131
330
13C
330
146
330
16F
102
}
330
A
100
AcDbSymbolTableRecord
100
AcDbDimStyleTableRecord
  2
SLDDIMSTYLE0
 70
     0
 41
3.302
 44
0.0
 45
0.000000001
 73
     0
 74
     0
 77
     1
 78
    12
 79
     3
140
5.2916666667
144
10.0
147
1.3229166667
173
     1
178
     0
271
     2
272
     2
276
     2
284
    12
340
BD
  0
DIMSTYLE
105
151
102
{ACAD_REACTORS
330
150
102
}
330
A
100
AcDbSymbolTableRecord
100
AcDbDimStyleTableRecord
  2
SLDDIMSTYLE1
 70
     0
 41
3.302
 44
0.0
 45
0.000000001
 73
     0
 74
     0
 77
     1
 78
    12
 79
     3
140
5.2916666667
144
10.0
147
1.3229166667
172
     1
173
     1
178
     0
271
     2
272
     2
276
     2
284
    12
289
     0
340
BD
  0
DIMSTYLE
105
15E
102
{ACAD_REACTORS
330
15D
102
}
330
A
100
AcDbSymbolTableRecord
100
AcDbDimStyleTableRecord
  2
SLDDIMSTYLE2
 70
     0
 41
3.302
 44
0.0
 73
     0
 74
     0
 77
     1
 78
     4
 79
     1
140
5.2916666667
144
10.0
147
1.3229166667
173
     1
178
     0
179
     2
272
     2
276
     2
284
    12
340
BD
  0
DIMSTYLE
105
167
102
{ACAD_REACTORS
330
166
102
}
330
A
100
AcDbSymbolTableRecord
100
AcDbDimStyleTableRecord
  2
SLDDIMSTYLE3
 70
     0
 41
3.302
 44
0.0
 73
     0
 74
     0
 77
     1
 78
    12
 79
     3
140
5.2916666667
144
10.0
147
1.3229166667
173
     1
178
     0
179
     2
272
     2
276
     2
284
    12
340
BD
  0
DIMSTYLE
105
220
102
{ACAD_REACTORS
330
21F
330
251
330
25D
102
}
330
A
100
AcDbSymbolTableRecord
100
AcDbDimStyleTableRecord
  2
SLDDIMSTYLE4
 70
     0
 41
3.302
 44
0.0
 45
0.000000001
 73
     0
 74
     0
 77
     1
 78
    12
 79
     3
140
9.525
144
5.0
147
2.38125
172
     1
173
     1
178
     0
271
     2
272
     2
276
     2
284
    12
289
     0
340
BD
  0
DIMSTYLE
105
22D
102
{ACAD_REACTORS
330
22C
102
}
330
A
100
AcDbSymbolTableRecord
100
AcDbDimStyleTableRecord
  2
SLDDIMSTYLE5
 70
     0
 41
3.302
 44
0.0
 45
0.000000001
 73
     0
 74
     0
 77
     1
 78
    12
 79
     3
140
9.525
144
5.0
147
-2.38125
173
     1
178
     0
271
     2
272
     2
276
     2
284
     8
340
BD
  0
DIMSTYLE
105
23C
102
{ACAD_REACTORS
330
23B
102
}
330
A
100
AcDbSymbolTableRecord
100
AcDbDimStyleTableRecord
  2
SLDDIMSTYLE6
 70
     0
 41
3.302
 44
0.0
 45
0.000000001
 73
     0
 74
     0
 77
     1
 78
    12
 79
     3
140
9.525
144
5.0
147
2.38125
173
     1
178
     0
271
     2
272
     2
276
     2
284
    12
340
BD
  0
DIMSTYLE
105
247
102
{ACAD_REACTORS
330
246
102
}
330
A
100
AcDbSymbolTableRecord
100
AcDbDimStyleTableRecord
  2
SLDDIMSTYLE7
 70
     0
 41
3.302
 44
0.0
 45
0.000000001
 73
     0
 74
     0
 77
     1
 78
     4
 79
     1
140
9.525
144
5.0
147
2.38125
173
     1
178
     0
271
     2
272
     2
276
     2
284
    12
340
BD
  0
DIMSTYLE
105
26A
102
{ACAD_REACTORS
330
269
102
}
330
A
100
AcDbSymbolTableRecord
100
AcDbDimStyleTableRecord
  2
SLDDIMSTYLE8
 70
     0
 41
3.302
 44
0.0
 45
0.000000001
 73
     0
 74
     0
 77
     1
 78
    12
 79
     3
140
3.5
144
5.0
147
0.875
173
     1
178
     0
271
     2
272
     2
276
     2
284
    12
340
BD
  0
DIMSTYLE
105
27A
330
A
100
AcDbSymbolTableRecord
100
AcDbDimStyleTableRecord
  2
SLDDIMSTYLE9
 70
     0
 41
3.302
 44
0.0
 45
0.000000001
146
3.302
147
0.0
173
     1
178
     0
271
     0
272
     0
276
     2
340
11
  0
ENDTAB
  0
TABLE
  2
BLOCK_RECORD
  5
1
330
0
100
AcDbSymbolTable
 70
    23
  0
BLOCK_RECORD
  5
1F
330
1
100
AcDbSymbolTableRecord
100
AcDbBlockTableRecord
  2
*Model_Space
340
22
  0
BLOCK_RECORD
  5
1B
330
1
100
AcDbSymbolTableRecord
100
AcDbBlockTableRecord
  2
*Paper_Space
340
1E
  0
BLOCK_RECORD
  5
23
330
1
100
AcDbSymbolTableRecord
100
AcDbBlockTableRecord
  2
*Paper_Space0
340
26
  0
BLOCK_RECORD
  5
EE
330
1
100
AcDbSymbolTableRecord
100
AcDbBlockTableRecord
  2
SW_NOTE_0
340
0
102
{BLKREFS
331
F7
102
}
  0
BLOCK_RECORD
  5
F9
330
1
100
AcDbSymbolTableRecord
100
AcDbBlockTableRecord
  2
SW_NOTE_1
340
0
102
{BLKREFS
331
FF
102
}
  0
BLOCK_RECORD
  5
133
330
1
100
AcDbSymbolTableRecord
100
AcDbBlockTableRecord
  2
_D
340
0
  0
BLOCK_RECORD
  5
13D
330
1
100
AcDbSymbolTableRecord
100
AcDbBlockTableRecord
  2
_D_1
340
0
  0
BLOCK_RECORD
  5
147
330
1
100
AcDbSymbolTableRecord
100
AcDbBlockTableRecord
  2
_D_2
340
0
  0
BLOCK_RECORD
  5
152
330
1
100
AcDbSymbolTableRecord
100
AcDbBlockTableRecord
  2
_D_3
340
0
  0
BLOCK_RECORD
  5
15F
330
1
100
AcDbSymbolTableRecord
100
AcDbBlockTableRecord
  2
_D_4
340
0
  0
BLOCK_RECORD
  5
168
330
1
100
AcDbSymbolTableRecord
100
AcDbBlockTableRecord
  2
_D_5
340
0
  0
BLOCK_RECORD
  5
170
330
1
100
AcDbSymbolTableRecord
100
AcDbBlockTableRecord
  2
_D_6
340
0
  0
BLOCK_RECORD
  5
221
330
1
100
AcDbSymbolTableRecord
100
AcDbBlockTableRecord
  2
_D_7
340
0
  0
BLOCK_RECORD
  5
22E
330
1
100
AcDbSymbolTableRecord
100
AcDbBlockTableRecord
  2
_D_8
340
0
  0
BLOCK_RECORD
  5
23D
330
1
100
AcDbSymbolTableRecord
100
AcDbBlockTableRecord
  2
_D_9
340
0
  0
BLOCK_RECORD
  5
248
330
1
100
AcDbSymbolTableRecord
100
AcDbBlockTableRecord
  2
_D_10
340
0
  0
BLOCK_RECORD
  5
252
330
1
100
AcDbSymbolTableRecord
100
AcDbBlockTableRecord
  2
_D_11
340
0
  0
BLOCK_RECORD
  5
25E
330
1
100
AcDbSymbolTableRecord
100
AcDbBlockTableRecord
  2
_D_12
340
0
  0
BLOCK_RECORD
  5
26B
330
1
100
AcDbSymbolTableRecord
100
AcDbBlockTableRecord
  2
_D_13
340
0
  0
BLOCK_RECORD
  5
274
330
1
100
AcDbSymbolTableRecord
100
AcDbBlockTableRecord
  2
SW_NOTE_2
340
0
102
{BLKREFS
331
279
102
}
  0
BLOCK_RECORD
  5
27C
330
1
100
AcDbSymbolTableRecord
100
AcDbBlockTableRecord
  2
SW_NOTE_3
340
0
102
{BLKREFS
331
281
102
}
  0
BLOCK_RECORD
  5
283
330
1
100
AcDbSymbolTableRecord
100
AcDbBlockTableRecord
  2
SW_NOTE_4
340
0
102
{BLKREFS
331
288
102
}
  0
BLOCK_RECORD
  5
28A
330
1
100
AcDbSymbolTableRecord
100
AcDbBlockTableRecord
  2
SW_NOTE_5
340
0
102
{BLKREFS
331
28F
102
}
  0
BLOCK_RECORD
  5
291
330
1
100
AcDbSymbolTableRecord
100
AcDbBlockTableRecord
  2
SW_NOTE_6
340
0
102
{BLKREFS
331
296
102
}
  0
BLOCK_RECORD
  5
298
330
1
100
AcDbSymbolTableRecord
100
AcDbBlockTableRecord
  2
SW_NOTE_7
340
0
102
{BLKREFS
331
29D
102
}
  0
ENDTAB
  0
ENDSEC
  0
SECTION
  2
BLOCKS
  0
BLOCK
  5
20
330
1F
100
AcDbEntity
  8
0
100
AcDbBlockBegin
  2
*Model_Space
 70
     0
 10
0.0
 20
0.0
 30
0.0
  3
*Model_Space
  1

  0
ENDBLK
  5
21
330
1F
100
AcDbEntity
  8
0
100
AcDbBlockEnd
  0
BLOCK
  5
1C
330
1B
100
AcDbEntity
 67
     1
  8
0
100
AcDbBlockBegin
  2
*Paper_Space
 70
     0
 10
0.0
 20
0.0
 30
0.0
  3
*Paper_Space
  1

  0
ENDBLK
  5
1D
330
1B
100
AcDbEntity
 67
     1
  8
0
100
AcDbBlockEnd
  0
BLOCK
  5
24
330
23
100
AcDbEntity
  8
0
100
AcDbBlockBegin
  2
*Paper_Space0
 70
     0
 10
0.0
 20
0.0
 30
0.0
  3
*Paper_Space0
  1

  0
ENDBLK
  5
25
330
23
100
AcDbEntity
  8
0
100
AcDbBlockEnd
  0
BLOCK
  5
EF
330
EE
100
AcDbEntity
  8
0
100
AcDbBlockBegin
  2
SW_NOTE_0
 70
     0
 10
0.0
 20
0.0
 30
0.0
  3
SW_NOTE_0
  1

  0
MTEXT
  5
F1
330
EE
100
AcDbEntity
  8
0
  6
Continuous
 62
     0
370
     0
100
AcDbMText
 10
0.0
 20
1.9336016097
 30
0.0
 40
1.5
 41
0.0
 71
     1
 72
     1
  1
UNLESS OTHERWISE SPECIFIED:
  7
SLDTEXTSTYLE0
 73
     1
 44
1.0
  0
MTEXT
  5
F2
330
EE
100
AcDbEntity
  8
0
  6
Continuous
 62
     0
370
     0
100
AcDbMText
 10
0.0
 20
-0.5663983345
 30
0.0
 40
1.5
 41
0.0
 71
     1
 72
     1
  1
DIMENSIONS ARE IN MILLIMETERS
  7
SLDTEXTSTYLE0
 73
     1
 44
1.0
  0
MTEXT
  5
F3
330
EE
100
AcDbEntity
  8
0
  6
Continuous
 62
     0
370
     0
100
AcDbMText
 10
0.0
 20
-3.0663982786
 30
0.0
 40
1.5
 41
0.0
 71
     1
 72
     1
  1
SURFACE FINISH:
  7
SLDTEXTSTYLE0
 73
     1
 44
1.0
  0
MTEXT
  5
F4
330
EE
100
AcDbEntity
  8
0
  6
Continuous
 62
     0
370
     0
100
AcDbMText
 10
0.0
 20
-5.5663982227
 30
0.0
 40
1.5
 41
0.0
 71
     1
 72
     1
  1
TOLERANCES:
  7
SLDTEXTSTYLE0
 73
     1
 44
1.0
  0
MTEXT
  5
F5
330
EE
100
AcDbEntity
  8
0
  6
Continuous
 62
     0
370
     0
100
AcDbMText
 10
1.6875
 20
-8.0663981668
 30
0.0
 40
1.5
 41
0.0
 71
     1
 72
     1
  1
LINEAR:
  7
SLDTEXTSTYLE0
 73
     1
 44
1.0
  0
MTEXT
  5
F6
330
EE
100
AcDbEntity
  8
0
  6
Continuous
 62
     0
370
     0
100
AcDbMText
 10
1.6875
 20
-10.5663981109
 30
0.0
 40
1.5
 41
0.0
 71
     1
 72
     1
  1
ANGULAR:
  7
SLDTEXTSTYLE0
 73
     1
 44
1.0
  0
ENDBLK
  5
F0
330
EE
100
AcDbEntity
  8
0
100
AcDbBlockEnd
  0
BLOCK
  5
FA
330
F9
100
AcDbEntity
  8
0
100
AcDbBlockBegin
  2
SW_NOTE_1
 70
     0
 10
0.0
 20
0.0
 30
0.0
  3
SW_NOTE_1
  1

  0
MTEXT
  5
FC
330
F9
100
AcDbEntity
  8
0
  6
Continuous
 62
     0
370
     0
100
AcDbMText
 10
0.0
 20
1.9336016097
 30
0.0
 40
1.5
 41
0.0
 71
     1
 72
     1
  1
DEBURR AND
  7
SLDTEXTSTYLE0
 73
     1
 44
1.0
  0
MTEXT
  5
FD
330
F9
100
AcDbEntity
  8
0
  6
Continuous
 62
     0
370
     0
100
AcDbMText
 10
0.0
 20
-0.5663983345
 30
0.0
 40
1.5
 41
0.0
 71
     1
 72
     1
  1
BREAK SHARP
  7
SLDTEXTSTYLE0
 73
     1
 44
1.0
  0
MTEXT
  5
FE
330
F9
100
AcDbEntity
  8
0
  6
Continuous
 62
     0
370
     0
100
AcDbMText
 10
0.0
 20
-3.0663982786
 30
0.0
 40
1.5
 41
0.0
 71
     1
 72
     1
  1
EDGES
  7
SLDTEXTSTYLE0
 73
     1
 44
1.0
  0
ENDBLK
  5
FB
330
F9
100
AcDbEntity
  8
0
100
AcDbBlockEnd
  0
BLOCK
  5
134
330
133
100
AcDbEntity
  8
0
100
AcDbBlockBegin
  2
_D
 70
     0
 10
0.0
 20
0.0
 30
0.0
  3
_D
  1

  0
SOLID
  5
136
330
133
100
AcDbEntity
  8
0
  6
Continuous
 62
     7
370
     0
100
AcDbTrace
 10
388.6201889234
 20
235.0555976676
 30
0.0
 11
391.9221889234
 21
234.5475976676
 31
0.0
 12
391.9221889234
 22
235.5635976676
 32
0.0
 13
391.9221889234
 23
235.5635976676
 33
0.0
  0
SOLID
  5
137
330
133
100
AcDbEntity
  8
0
  6
Continuous
 62
     7
370
     0
100
AcDbTrace
 10
497.4201889234
 20
235.0555976676
 30
0.0
 11
494.1181889234
 21
235.5635976676
 31
0.0
 12
494.1181889234
 22
234.5475976676
 32
0.0
 13
494.1181889234
 23
234.5475976676
 33
0.0
  0
LINE
  5
138
330
133
100
AcDbEntity
  8
0
  6
Continuous
 62
     7
370
     0
100
AcDbLine
 10
388.6201889234
 20
244.0556001676
 30
0.0
 11
388.6201889234
 21
234.0555976676
 31
0.0
  0
LINE
  5
139
330
133
100
AcDbEntity
  8
0
  6
Continuous
 62
     7
370
     0
100
AcDbLine
 10
497.4201889234
 20
244.0556001676
 30
0.0
 11
497.4201889234
 21
234.0555976676
 31
0.0
  0
LINE
  5
13A
330
133
100
AcDbEntity
  8
0
  6
Continuous
 62
     7
370
     0
100
AcDbLine
 10
388.6201889234
 20
235.0555976676
 30
0.0
 11
497.4201889234
 21
235.0555976676
 31
0.0
  0
MTEXT
  5
13B
330
133
100
AcDbEntity
  8
0
  6
Continuous
 62
     7
370
     0
100
AcDbMText
 10
443.4604907658
 20
241.8769143408
 30
0.0
 40
5.2916666667
 41
0.0
 71
     1
 72
     1
  1
1088
  7
SLDTEXTSTYLE0
 73
     1
 44
1.0
  0
ENDBLK
  5
135
330
133
100
AcDbEntity
  8
0
100
AcDbBlockEnd
  0
BLOCK
  5
13E
330
13D
100
AcDbEntity
  8
0
100
AcDbBlockBegin
  2
_D_1
 70
     0
 10
0.0
 20
0.0
 30
0.0
  3
_D_1
  1

  0
SOLID
  5
140
330
13D
100
AcDbEntity
  8
0
  6
Continuous
 62
     7
370
     0
100
AcDbTrace
 10
508.5139336924
 20
290.1322474495
 30
0.0
 11
508.0066727314
 21
286.8301338358
 31
0.0
 12
509.022672706
 22
286.8303612285
 32
0.0
 13
509.022672706
 23
286.8303612285
 33
0.0
  0
SOLID
  5
141
330
13D
100
AcDbEntity
  8
0
  6
Continuous
 62
     7
370
     0
100
AcDbTrace
 10
508.523999208
 20
245.1591116166
 30
0.0
 11
509.0312601689
 21
248.4612252303
 31
0.0
 12
508.0152601944
 22
248.4609978376
 32
0.0
 13
508.0152601944
 23
248.4609978376
 33
0.0
  0
LINE
  5
142
330
13D
100
AcDbEntity
  8
0
  6
Continuous
 62
     7
370
     0
100
AcDbLine
 10
498.5101231528
 20
290.1300084793
 30
0.0
 11
509.5139336673
 21
290.1324712612
 31
0.0
  0
LINE
  5
143
330
13D
100
AcDbEntity
  8
0
  6
Continuous
 62
     7
370
     0
100
AcDbLine
 10
498.5201886684
 20
245.1568726464
 30
0.0
 11
509.5239991829
 21
245.1593354283
 31
0.0
  0
LINE
  5
144
330
13D
100
AcDbEntity
  8
0
  6
Continuous
 62
     7
370
     0
100
AcDbLine
 10
508.5139336924
 20
290.1322474495
 30
0.0
 11
508.523999208
 21
245.1591116166
 31
0.0
  0
MTEXT
  5
145
330
13D
100
AcDbEntity
  8
0
  6
Continuous
 62
     7
370
     0
100
AcDbMText
 10
501.70127815
 20
251.4331970551
 30
0.0
 40
5.2916666667
 41
0.0
 71
     1
 72
     1
  1
449.73
  7
SLDTEXTSTYLE0
 11
-0.0002238117297050184
 21
0.9999999749541545
 31
0.0
 73
     1
 44
1.0
  0
ENDBLK
  5
13F
330
13D
100
AcDbEntity
  8
0
100
AcDbBlockEnd
  0
BLOCK
  5
148
330
147
100
AcDbEntity
  8
0
100
AcDbBlockBegin
  2
_D_2
 70
     0
 10
0.0
 20
0.0
 30
0.0
  3
_D_2
  1

  0
SOLID
  5
14A
330
147
100
AcDbEntity
  8
0
  6
Continuous
 62
     7
370
     0
100
AcDbTrace
 10
377.44610573
 20
245.1946907805
 30
0.0
 11
377.9656540313
 21
248.4948934353
 31
0.0
 12
376.9496602483
 22
248.4984477152
 32
0.0
 13
376.9496602483
 23
248.4984477152
 33
0.0
  0
SOLID
  5
14B
330
147
100
AcDbEntity
  8
0
  6
Continuous
 62
     7
370
     0
100
AcDbTrace
 10
377.6034401201
 20
290.1688528993
 30
0.0
 11
377.0838918188
 21
286.8686502446
 31
0.0
 12
378.0998856018
 22
286.8650959646
 32
0.0
 13
378.0998856018
 23
286.8650959646
 33
0.0
  0
LINE
  5
14C
330
147
100
AcDbEntity
  8
0
  6
Continuous
 62
     7
370
     0
100
AcDbLine
 10
387.6201950424
 20
245.1590984746
 30
0.0
 11
376.4461118491
 21
245.1981890875
 31
0.0
  0
LINE
  5
14D
330
147
100
AcDbEntity
  8
0
  6
Continuous
 62
     7
370
     0
100
AcDbLine
 10
387.6775294326
 20
290.1336104263
 30
0.0
 11
376.6034462392
 21
290.1723512064
 31
0.0
  0
LINE
  5
14E
330
147
100
AcDbEntity
  8
0
  6
Continuous
 62
     7
370
     0
100
AcDbLine
 10
377.44610573
 20
245.1946907805
 30
0.0
 11
377.6034401201
 21
290.1688528993
 31
0.0
  0
MTEXT
  5
14F
330
147
100
AcDbEntity
  8
0
  6
Continuous
 62
     7
370
     0
100
AcDbMText
 10
370.6613144792
 20
255.6474437488
 30
0.0
 40
5.2916666667
 41
0.0
 71
     1
 72
     1
  1
449.74
  7
SLDTEXTSTYLE0
 11
0.003498307026844899
 21
0.9999938809052513
 31
0.0
 73
     1
 44
1.0
  0
ENDBLK
  5
149
330
147
100
AcDbEntity
  8
0
100
AcDbBlockEnd
  0
BLOCK
  5
153
330
152
100
AcDbEntity
  8
0
100
AcDbBlockBegin
  2
_D_3
 70
     0
 10
0.0
 20
0.0
 30
0.0
  3
_D_3
  1

  0
SOLID
  5
155
330
152
100
AcDbEntity
  8
0
  6
Continuous
 62
     7
370
     0
100
AcDbTrace
 10
435.6201889234
 20
310.7931028736
 30
0.0
 11
432.3181889234
 21
311.3011028736
 31
0.0
 12
432.3181889234
 22
310.2851028736
 32
0.0
 13
432.3181889234
 23
310.2851028736
 33
0.0
  0
SOLID
  5
156
330
152
100
AcDbEntity
  8
0
  6
Continuous
 62
     7
370
     0
100
AcDbTrace
 10
450.4201889234
 20
310.7931028736
 30
0.0
 11
453.7221889234
 21
310.2851028736
 31
0.0
 12
453.7221889234
 22
311.3011028736
 32
0.0
 13
453.7221889234
 23
311.3011028736
 33
0.0
  0
LINE
  5
157
330
152
100
AcDbEntity
  8
0
  6
Continuous
 62
     7
370
     0
100
AcDbLine
 10
435.6201889234
 20
301.7931003736
 30
0.0
 11
435.6201889234
 21
311.7931028736
 31
0.0
  0
LINE
  5
158
330
152
100
AcDbEntity
  8
0
  6
Continuous
 62
     7
370
     0
100
AcDbLine
 10
450.4201889234
 20
301.7931003736
 30
0.0
 11
450.4201889234
 21
311.7931028736
 31
0.0
  0
LINE
  5
159
330
152
100
AcDbEntity
  8
0
  6
Continuous
 62
     7
370
     0
100
AcDbLine
 10
435.6201889234
 20
310.7931028736
 30
0.0
 11
429.2701889234
 21
310.7931028736
 31
0.0
  0
LINE
  5
15A
330
152
100
AcDbEntity
  8
0
  6
Continuous
 62
     7
370
     0
100
AcDbLine
 10
435.6201889234
 20
310.7931028736
 30
0.0
 11
450.4201889234
 21
310.7931028736
 31
0.0
  0
LINE
  5
15B
330
152
100
AcDbEntity
  8
0
  6
Continuous
 62
     7
370
     0
100
AcDbLine
 10
450.4201889234
 20
310.7931028736
 30
0.0
 11
456.7701889234
 21
310.7931028736
 31
0.0
  0
MTEXT
  5
15C
330
152
100
AcDbEntity
  8
0
  6
Continuous
 62
     7
370
     0
100
AcDbMText
 10
436.8501625071
 20
317.6144195469
 30
0.0
 40
5.2916666667
 41
0.0
 71
     1
 72
     1
  1
148
  7
SLDTEXTSTYLE0
 73
     1
 44
1.0
  0
ENDBLK
  5
154
330
152
100
AcDbEntity
  8
0
100
AcDbBlockEnd
  0
BLOCK
  5
160
330
15F
100
AcDbEntity
  8
0
100
AcDbBlockBegin
  2
_D_4
 70
     0
 10
0.0
 20
0.0
 30
0.0
  3
_D_4
  1

  0
ARC
  5
162
330
15F
100
AcDbEntity
  8
0
  6
Continuous
 62
     7
370
     0
100
AcDbCircle
 10
388.6201889234
 20
245.1556001676
 30
0.0
 40
27.86893070327056
100
AcDbArc
 50
0.0
 51
89.7995613631
  0
SOLID
  5
163
330
15F
100
AcDbEntity
  8
0
  6
Continuous
 62
     7
370
     0
100
AcDbTrace
 10
416.4891196266
 20
245.1556001676
 30
0.0
 11
416.8016414998
 21
248.4817989107
 31
0.0
 12
415.7874073401
 22
248.4219234625
 32
0.0
 13
415.7874073401
 23
248.4219234625
 33
0.0
  0
SOLID
  5
164
330
15F
100
AcDbEntity
  8
0
  6
Continuous
 62
     7
370
     0
100
AcDbTrace
 10
388.7176829995
 20
273.0243603382
 30
0.0
 11
391.9815315024
 21
272.3112257438
 31
0.0
 12
392.0449546867
 22
273.3252442346
 32
0.0
 13
392.0449546867
 23
273.3252442346
 33
0.0
  0
MTEXT
  5
165
330
15F
100
AcDbEntity
  8
0
  6
Continuous
 62
     7
370
     0
100
AcDbMText
 10
395.6732224028
 20
280.6215217734
 30
0.0
 40
5.2916666667
 41
0.0
 71
     1
 72
     1
  1
89.80°
  7
SLDTEXTSTYLE0
 11
0.8858660229290679
 21
-0.4639411486598662
 31
0.0
 73
     1
 44
1.0
  0
ENDBLK
  5
161
330
15F
100
AcDbEntity
  8
0
100
AcDbBlockEnd
  0
BLOCK
  5
169
330
168
100
AcDbEntity
  8
0
100
AcDbBlockBegin
  2
_D_5
 70
     0
 10
0.0
 20
0.0
 30
0.0
  3
_D_5
  1

  0
ARC
  5
16B
330
168
100
AcDbEntity
  8
0
  6
Continuous
 62
     7
370
     0
100
AcDbCircle
 10
497.5201889282
 20
245.1556001676
 30
0.0
 40
31.4823531144659
100
AcDbArc
 50
90.0128234676
 51
180.0
  0
SOLID
  5
16C
330
168
100
AcDbEntity
  8
0
  6
Continuous
 62
     7
370
     0
100
AcDbTrace
 10
497.5131428082
 20
276.6379524935
 30
0.0
 11
494.1890429839
 21
276.9720607956
 31
0.0
 12
494.2423329659
 22
275.9574593084
 32
0.0
 13
494.2423329659
 23
275.9574593084
 33
0.0
  0
SOLID
  5
16D
330
168
100
AcDbEntity
  8
0
  6
Continuous
 62
     7
370
     0
100
AcDbTrace
 10
466.0378358137
 20
245.1556001676
 30
0.0
 11
466.7175969362
 21
248.4265622304
 31
0.0
 12
465.7029835475
 22
248.4796251313
 32
0.0
 13
465.7029835475
 23
248.4796251313
 33
0.0
  0
MTEXT
  5
16E
330
168
100
AcDbEntity
  8
0
  6
Continuous
 62
     7
370
     0
100
AcDbMText
 10
459.0492200328
 20
254.7117126107
 30
0.0
 40
5.2916666667
 41
0.0
 71
     1
 72
     1
  1
89.99°
  7
SLDTEXTSTYLE0
 11
0.4828195339862575
 21
0.8757198739330364
 31
0.0
 73
     1
 44
1.0
  0
ENDBLK
  5
16A
330
168
100
AcDbEntity
  8
0
100
AcDbBlockEnd
  0
BLOCK
  5
171
330
170
100
AcDbEntity
  8
0
100
AcDbBlockBegin
  2
_D_6
 70
     0
 10
0.0
 20
0.0
 30
0.0
  3
_D_6
  1

  0
SOLID
  5
173
330
170
100
AcDbEntity
  8
0
  6
Continuous
 62
     7
370
     0
100
AcDbTrace
 10
421.9474131533
 20
300.7931003736
 30
0.0
 11
421.4394131533
 21
297.4911003736
 31
0.0
 12
422.4554131533
 22
297.4911003736
 32
0.0
 13
422.4554131533
 23
297.4911003736
 33
0.0
  0
SOLID
  5
174
330
170
100
AcDbEntity
  8
0
  6
Continuous
 62
     7
370
     0
100
AcDbTrace
 10
421.9474131533
 20
290.1297622864
 30
0.0
 11
422.4554131533
 21
293.4317622864
 31
0.0
 12
421.4394131533
 22
293.4317622864
 32
0.0
 13
421.4394131533
 23
293.4317622864
 33
0.0
  0
LINE
  5
175
330
170
100
AcDbEntity
  8
0
  6
Continuous
 62
     7
370
     0
100
AcDbLine
 10
434.6201889234
 20
300.7931003736
 30
0.0
 11
420.9474131533
 21
300.7931003736
 31
0.0
  0
LINE
  5
176
330
170
100
AcDbEntity
  8
0
  6
Continuous
 62
     7
370
     0
100
AcDbLine
 10
434.6201889234
 20
290.1297622864
 30
0.0
 11
420.9474131533
 21
290.1297622864
 31
0.0
  0
LINE
  5
177
330
170
100
AcDbEntity
  8
0
  6
Continuous
 62
     7
370
     0
100
AcDbLine
 10
421.9474131533
 20
300.7931003736
 30
0.0
 11
421.9474131533
 21
312.5970130153
 31
0.0
  0
LINE
  5
178
330
170
100
AcDbEntity
  8
0
  6
Continuous
 62
     7
370
     0
100
AcDbLine
 10
421.9474131533
 20
300.7931003736
 30
0.0
 11
421.9474131533
 21
290.1297622864
 31
0.0
  0
MTEXT
  5
179
330
170
100
AcDbEntity
  8
0
  6
Continuous
 62
     7
370
     0
100
AcDbMText
 10
415.1260964801
 20
291.0971668847
 30
0.0
 40
5.2916666667
 41
0.0
 71
     1
 72
     1
  1
106.63
  7
SLDTEXTSTYLE0
 11
-7.044195017643634E-15
 21
1.0
 31
0.0
 73
     1
 44
1.0
  0
ENDBLK
  5
172
330
170
100
AcDbEntity
  8
0
100
AcDbBlockEnd
  0
BLOCK
  5
222
330
221
100
AcDbEntity
  8
0
100
AcDbBlockBegin
  2
_D_7
 70
     0
 10
0.0
 20
0.0
 30
0.0
  3
_D_7
  1

  0
SOLID
  5
224
330
221
100
AcDbEntity
  8
0
  6
Continuous
 62
     7
370
     0
100
AcDbTrace
 10
93.4527010569
 20
78.2670155917
 30
0.0
 11
96.5340480292
 21
76.9760590329
 31
0.0
 12
96.779591181
 22
77.9619416632
 32
0.0
 13
96.779591181
 23
77.9619416632
 33
0.0
  0
SOLID
  5
225
330
221
100
AcDbEntity
  8
0
  6
Continuous
 62
     7
370
     0
100
AcDbTrace
 10
89.5712733789
 20
79.233720914
 30
0.0
 11
86.4899264066
 21
80.5246774727
 31
0.0
 12
86.2443832547
 22
79.5387948425
 32
0.0
 13
86.2443832547
 23
79.5387948425
 33
0.0
  0
LINE
  5
226
330
221
100
AcDbEntity
  8
0
  6
Continuous
 62
     7
370
     0
100
AcDbLine
 10
96.658051939
 20
91.1368502183
 30
0.0
 11
93.2110247263
 21
77.2966586722
 31
0.0
  0
LINE
  5
227
330
221
100
AcDbEntity
  8
0
  6
Continuous
 62
     7
370
     0
100
AcDbLine
 10
92.776624261
 20
92.1035555407
 30
0.0
 11
89.3295970483
 21
78.2633639945
 31
0.0
  0
LINE
  5
228
330
221
100
AcDbEntity
  8
0
  6
Continuous
 62
     7
370
     0
100
AcDbLine
 10
93.4527010569
 20
78.2670155917
 30
0.0
 11
99.6144674958
 21
76.7323708924
 31
0.0
  0
LINE
  5
229
330
221
100
AcDbEntity
  8
0
  6
Continuous
 62
     7
370
     0
100
AcDbLine
 10
93.4527010569
 20
78.2670155917
 30
0.0
 11
89.5712733789
 21
79.233720914
 31
0.0
  0
LINE
  5
22A
330
221
100
AcDbEntity
  8
0
  6
Continuous
 62
     7
370
     0
100
AcDbLine
 10
89.5712733789
 20
79.233720914
 30
0.0
 11
78.202118293
 21
82.0653137309
 31
0.0
  0
MTEXT
  5
22B
330
221
100
AcDbEntity
  8
0
  6
Continuous
 62
     7
370
     0
100
AcDbMText
 10
81.1695098663
 20
93.9797156873
 30
0.0
 40
9.525
 41
0.0
 71
     1
 72
     1
  1
20
  7
SLDTEXTSTYLE0
 11
0.9703569195054373
 21
-0.241676330590975
 31
0.0
 73
     1
 44
1.0
  0
ENDBLK
  5
223
330
221
100
AcDbEntity
  8
0
100
AcDbBlockEnd
  0
BLOCK
  5
22F
330
22E
100
AcDbEntity
  8
0
100
AcDbBlockBegin
  2
_D_8
 70
     0
 10
0.0
 20
0.0
 30
0.0
  3
_D_8
  1

  0
SOLID
  5
231
330
22E
100
AcDbEntity
  8
0
  6
Continuous
 62
     7
370
     0
100
AcDbTrace
 10
118.6376137202
 20
190.3603631122
 30
0.0
 11
121.9396137202
 21
189.8523631122
 31
0.0
 12
121.9396137202
 22
190.8683631122
 32
0.0
 13
121.9396137202
 23
190.8683631122
 33
0.0
  0
SOLID
  5
232
330
22E
100
AcDbEntity
  8
0
  6
Continuous
 62
     7
370
     0
100
AcDbTrace
 10
336.2376137202
 20
190.3603631122
 30
0.0
 11
332.9356137202
 21
190.8683631122
 31
0.0
 12
332.9356137202
 22
189.8523631122
 32
0.0
 13
332.9356137202
 23
189.8523631122
 33
0.0
  0
LINE
  5
233
330
22E
100
AcDbEntity
  8
0
  6
Continuous
 62
     7
370
     0
100
AcDbLine
 10
208.9412784097
 20
193.3871964974
 30
0.0
 11
208.9412784097
 21
208.5213634236
 31
0.0
  0
LINE
  5
234
330
22E
100
AcDbEntity
  8
0
  6
Continuous
 62
     7
370
     0
100
AcDbLine
 10
208.9412784097
 20
208.5213634236
 30
0.0
 11
242.8873202423
 21
208.5213634236
 31
0.0
  0
LINE
  5
235
330
22E
100
AcDbEntity
  8
0
  6
Continuous
 62
     7
370
     0
100
AcDbLine
 10
242.8873202423
 20
208.5213634236
 30
0.0
 11
242.8873202423
 21
193.3871964974
 31
0.0
  0
LINE
  5
236
330
22E
100
AcDbEntity
  8
0
  6
Continuous
 62
     7
370
     0
100
AcDbLine
 10
242.8873202423
 20
193.3871964974
 30
0.0
 11
208.9412784097
 21
193.3871964974
 31
0.0
  0
LINE
  5
237
330
22E
100
AcDbEntity
  8
0
  6
Continuous
 62
     7
370
     0
100
AcDbLine
 10
118.6376137202
 20
184.3871964974
 30
0.0
 11
118.6376137202
 21
191.3603631122
 31
0.0
  0
LINE
  5
238
330
22E
100
AcDbEntity
  8
0
  6
Continuous
 62
     7
370
     0
100
AcDbLine
 10
336.2376137202
 20
184.3871964974
 30
0.0
 11
336.2376137202
 21
191.3603631122
 31
0.0
  0
LINE
  5
239
330
22E
100
AcDbEntity
  8
0
  6
Continuous
 62
     7
370
     0
100
AcDbLine
 10
118.6376137202
 20
190.3603631122
 30
0.0
 11
336.2376137202
 21
190.3603631122
 31
0.0
  0
MTEXT
  5
23A
330
22E
100
AcDbEntity
  8
0
  6
Continuous
 62
     7
370
     0
100
AcDbMText
 10
211.8384659532
 20
205.6655671844
 30
0.0
 40
9.525
 41
0.0
 71
     1
 72
     1
  1
1088
  7
SLDTEXTSTYLE0
 73
     1
 44
1.0
  0
ENDBLK
  5
230
330
22E
100
AcDbEntity
  8
0
100
AcDbBlockEnd
  0
BLOCK
  5
23E
330
23D
100
AcDbEntity
  8
0
100
AcDbBlockBegin
  2
_D_9
 70
     0
 10
0.0
 20
0.0
 30
0.0
  3
_D_9
  1

  0
SOLID
  5
240
330
23D
100
AcDbEntity
  8
0
  6
Continuous
 62
     7
370
     0
100
AcDbTrace
 10
107.6485516922
 20
182.1241236365
 30
0.0
 11
106.3575951335
 21
179.0427766642
 31
0.0
 12
107.3434777637
 22
178.7972335123
 32
0.0
 13
107.3434777637
 23
178.7972335123
 33
0.0
  0
SOLID
  5
241
330
23D
100
AcDbEntity
  8
0
  6
Continuous
 62
     7
370
     0
100
AcDbTrace
 10
85.9106662416
 20
94.8441342769
 30
0.0
 11
87.2016228003
 21
97.9254812491
 31
0.0
 12
86.2157401701
 22
98.171024401
 32
0.0
 13
86.2157401701
 23
98.171024401
 33
0.0
  0
LINE
  5
242
330
23D
100
AcDbEntity
  8
0
  6
Continuous
 62
     7
370
     0
100
AcDbLine
 10
113.7858291227
 20
180.5955781504
 30
0.0
 11
106.6781947727
 21
182.3657999671
 31
0.0
  0
LINE
  5
243
330
23D
100
AcDbEntity
  8
0
  6
Continuous
 62
     7
370
     0
100
AcDbLine
 10
92.047943672
 20
93.3155887908
 30
0.0
 11
84.9403093221
 21
95.0858106074
 31
0.0
  0
LINE
  5
244
330
23D
100
AcDbEntity
  8
0
  6
Continuous
 62
     7
370
     0
100
AcDbLine
 10
107.6485516922
 20
182.1241236365
 30
0.0
 11
85.9106662416
 21
94.8441342769
 31
0.0
  0
MTEXT
  5
245
330
23D
100
AcDbEntity
  8
0
  6
Continuous
 62
     7
370
     0
100
AcDbMText
 10
77.1916607796
 20
110.6413925205
 30
0.0
 40
9.525
 41
0.0
 71
     1
 72
     1
  1
449.73
  7
SLDTEXTSTYLE0
 11
0.2416763305909682
 21
0.970356919505439
 31
0.0
 73
     1
 44
1.0
  0
ENDBLK
  5
23F
330
23D
100
AcDbEntity
  8
0
100
AcDbBlockEnd
  0
BLOCK
  5
249
330
248
100
AcDbEntity
  8
0
100
AcDbBlockBegin
  2
_D_10
 70
     0
 10
0.0
 20
0.0
 30
0.0
  3
_D_10
  1

  0
SOLID
  5
24B
330
248
100
AcDbEntity
  8
0
  6
Continuous
 62
     7
370
     0
100
AcDbTrace
 10
208.433973226
 20
46.393451586
 30
0.0
 11
205.35288173
 21
47.6850177645
 31
0.0
 12
205.1071435259
 22
46.6991837343
 32
0.0
 13
205.1071435259
 23
46.6991837343
 33
0.0
  0
SOLID
  5
24C
330
248
100
AcDbEntity
  8
0
  6
Continuous
 62
     7
370
     0
100
AcDbTrace
 10
92.6960877754
 20
75.2433586183
 30
0.0
 11
95.7771792713
 21
73.9517924398
 31
0.0
 12
96.0229174755
 22
74.93762647
 32
0.0
 13
96.0229174755
 23
74.93762647
 33
0.0
  0
LINE
  5
24D
330
248
100
AcDbEntity
  8
0
  6
Continuous
 62
     7
370
     0
100
AcDbLine
 10
212.3957454091
 20
62.2869910207
 30
0.0
 11
208.1921049149
 21
45.4231425012
 31
0.0
  0
LINE
  5
24E
330
248
100
AcDbEntity
  8
0
  6
Continuous
 62
     7
370
     0
100
AcDbLine
 10
96.6578599584
 20
91.136898053
 30
0.0
 11
92.4542194642
 21
74.2730495335
 31
0.0
  0
LINE
  5
24F
330
248
100
AcDbEntity
  8
0
  6
Continuous
 62
     7
370
     0
100
AcDbLine
 10
208.433973226
 20
46.393451586
 30
0.0
 11
92.6960877754
 21
75.2433586183
 31
0.0
  0
MTEXT
  5
250
330
248
100
AcDbEntity
  8
0
  6
Continuous
 62
     7
370
     0
100
AcDbMText
 10
156.8307486454
 20
71.9106355983
 30
0.0
 40
9.525
 41
0.0
 71
     1
 72
     1
  1
596.40
  7
SLDTEXTSTYLE0
 11
0.9703090848097002
 21
-0.2418683111442297
 31
0.0
 73
     1
 44
1.0
  0
ENDBLK
  5
24A
330
248
100
AcDbEntity
  8
0
100
AcDbBlockEnd
  0
BLOCK
  5
253
330
252
100
AcDbEntity
  8
0
100
AcDbBlockBegin
  2
_D_11
 70
     0
 10
0.0
 20
0.0
 30
0.0
  3
_D_11
  1

  0
SOLID
  5
255
330
252
100
AcDbEntity
  8
0
  6
Continuous
 62
     7
370
     0
100
AcDbTrace
 10
212.6376137202
 20
26.0573001055
 30
0.0
 11
209.3356137202
 21
26.5653001055
 31
0.0
 12
209.3356137202
 22
25.5493001055
 32
0.0
 13
209.3356137202
 23
25.5493001055
 33
0.0
  0
SOLID
  5
256
330
252
100
AcDbEntity
  8
0
  6
Continuous
 62
     7
370
     0
100
AcDbTrace
 10
242.2376137202
 20
26.0573001055
 30
0.0
 11
245.5396137202
 21
25.5493001055
 31
0.0
 12
245.5396137202
 22
26.5653001055
 32
0.0
 13
245.5396137202
 23
26.5653001055
 33
0.0
  0
LINE
  5
257
330
252
100
AcDbEntity
  8
0
  6
Continuous
 62
     7
370
     0
100
AcDbLine
 10
212.6376137202
 20
41.0573001055
 30
0.0
 11
212.6376137202
 21
25.0573001055
 31
0.0
  0
LINE
  5
258
330
252
100
AcDbEntity
  8
0
  6
Continuous
 62
     7
370
     0
100
AcDbLine
 10
242.2376137202
 20
41.0573001055
 30
0.0
 11
242.2376137202
 21
25.0573001055
 31
0.0
  0
LINE
  5
259
330
252
100
AcDbEntity
  8
0
  6
Continuous
 62
     7
370
     0
100
AcDbLine
 10
212.6376137202
 20
26.0573001055
 30
0.0
 11
206.2876137202
 21
26.0573001055
 31
0.0
  0
LINE
  5
25A
330
252
100
AcDbEntity
  8
0
  6
Continuous
 62
     7
370
     0
100
AcDbLine
 10
212.6376137202
 20
26.0573001055
 30
0.0
 11
242.2376137202
 21
26.0573001055
 31
0.0
  0
LINE
  5
25B
330
252
100
AcDbEntity
  8
0
  6
Continuous
 62
     7
370
     0
100
AcDbLine
 10
242.2376137202
 20
26.0573001055
 30
0.0
 11
248.5876137202
 21
26.0573001055
 31
0.0
  0
MTEXT
  5
25C
330
252
100
AcDbEntity
  8
0
  6
Continuous
 62
     7
370
     0
100
AcDbMText
 10
208.6462468267
 20
38.3356707925
 30
0.0
 40
9.525
 41
0.0
 71
     1
 72
     1
  1
148
  7
SLDTEXTSTYLE0
 73
     1
 44
1.0
  0
ENDBLK
  5
254
330
252
100
AcDbEntity
  8
0
100
AcDbBlockEnd
  0
BLOCK
  5
25F
330
25E
100
AcDbEntity
  8
0
100
AcDbBlockBegin
  2
_D_12
 70
     0
 10
0.0
 20
0.0
 30
0.0
  3
_D_12
  1

  0
SOLID
  5
261
330
25E
100
AcDbEntity
  8
0
  6
Continuous
 62
     7
370
     0
100
AcDbTrace
 10
258.8629714959
 20
63.2573001055
 30
0.0
 11
259.3709714959
 21
66.5593001055
 31
0.0
 12
258.3549714959
 22
66.5593001055
 32
0.0
 13
258.3549714959
 23
66.5593001055
 33
0.0
  0
SOLID
  5
262
330
25E
100
AcDbEntity
  8
0
  6
Continuous
 62
     7
370
     0
100
AcDbTrace
 10
258.8629714959
 20
42.0573001055
 30
0.0
 11
258.3549714959
 21
38.7553001055
 31
0.0
 12
259.3709714959
 22
38.7553001055
 32
0.0
 13
259.3709714959
 23
38.7553001055
 33
0.0
  0
LINE
  5
263
330
25E
100
AcDbEntity
  8
0
  6
Continuous
 62
     7
370
     0
100
AcDbLine
 10
213.6376137202
 20
63.2573001055
 30
0.0
 11
259.8629714959
 21
63.2573001055
 31
0.0
  0
LINE
  5
264
330
25E
100
AcDbEntity
  8
0
  6
Continuous
 62
     7
370
     0
100
AcDbLine
 10
243.2376137202
 20
42.0573001055
 30
0.0
 11
259.8629714959
 21
42.0573001055
 31
0.0
  0
LINE
  5
265
330
25E
100
AcDbEntity
  8
0
  6
Continuous
 62
     7
370
     0
100
AcDbLine
 10
258.8629714959
 20
63.2573001055
 30
0.0
 11
258.8629714959
 21
69.6073001055
 31
0.0
  0
LINE
  5
266
330
25E
100
AcDbEntity
  8
0
  6
Continuous
 62
     7
370
     0
100
AcDbLine
 10
258.8629714959
 20
63.2573001055
 30
0.0
 11
258.8629714959
 21
42.0573001055
 31
0.0
  0
LINE
  5
267
330
25E
100
AcDbEntity
  8
0
  6
Continuous
 62
     7
370
     0
100
AcDbLine
 10
258.8629714959
 20
42.0573001055
 30
0.0
 11
258.8629714959
 21
35.7073001055
 31
0.0
  0
MTEXT
  5
268
330
25E
100
AcDbEntity
  8
0
  6
Continuous
 62
     7
370
     0
100
AcDbMText
 10
246.5846008089
 20
38.8153257996
 30
0.0
 40
9.525
 41
0.0
 71
     1
 72
     1
  1
106
  7
SLDTEXTSTYLE0
 11
-7.044195017643634E-15
 21
1.0
 31
0.0
 73
     1
 44
1.0
  0
ENDBLK
  5
260
330
25E
100
AcDbEntity
  8
0
100
AcDbBlockEnd
  0
BLOCK
  5
26C
330
26B
100
AcDbEntity
  8
0
100
AcDbBlockBegin
  2
_D_13
 70
     0
 10
0.0
 20
0.0
 30
0.0
  3
_D_13
  1

  0
SOLID
  5
26E
330
26B
100
AcDbEntity
  8
0
  6
Continuous
 62
     7
370
     0
100
AcDbTrace
 10
93.0183005916
 20
20.0573001055
 30
0.0
 11
96.3203005916
 21
19.5493001055
 31
0.0
 12
96.3203005916
 22
20.5653001055
 32
0.0
 13
96.3203005916
 23
20.5653001055
 33
0.0
  0
SOLID
  5
26F
330
26B
100
AcDbEntity
  8
0
  6
Continuous
 62
     7
370
     0
100
AcDbTrace
 10
361.8569268489
 20
20.0573001055
 30
0.0
 11
358.5549268489
 21
20.5653001055
 31
0.0
 12
358.5549268489
 22
19.5493001055
 32
0.0
 13
358.5549268489
 23
19.5493001055
 33
0.0
  0
LINE
  5
270
330
26B
100
AcDbEntity
  8
0
  6
Continuous
 62
     7
370
     0
100
AcDbLine
 10
93.0183005916
 20
92.0739124602
 30
0.0
 11
93.0183005916
 21
19.0573001055
 31
0.0
  0
LINE
  5
271
330
26B
100
AcDbEntity
  8
0
  6
Continuous
 62
     7
370
     0
100
AcDbLine
 10
361.8569268489
 20
92.0739124602
 30
0.0
 11
361.8569268489
 21
19.0573001055
 31
0.0
  0
LINE
  5
272
330
26B
100
AcDbEntity
  8
0
  6
Continuous
 62
     7
370
     0
100
AcDbLine
 10
93.0183005916
 20
20.0573001055
 30
0.0
 11
361.8569268489
 21
20.0573001055
 31
0.0
  0
MTEXT
  5
273
330
26B
100
AcDbEntity
  8
0
  6
Continuous
 62
     7
370
     0
100
AcDbMText
 10
221.8717032441
 20
24.5690370201
 30
0.0
 40
3.5
 41
0.0
 71
     1
 72
     1
  1
1344.19
  7
SLDTEXTSTYLE0
 73
     1
 44
1.0
  0
ENDBLK
  5
26D
330
26B
100
AcDbEntity
  8
0
100
AcDbBlockEnd
  0
BLOCK
  5
275
330
274
100
AcDbEntity
  8
0
100
AcDbBlockBegin
  2
SW_NOTE_2
 70
     0
 10
0.0
 20
0.0
 30
0.0
  3
SW_NOTE_2
  1

  0
LINE
  5
277
330
274
100
AcDbEntity
  8
0
  6
Continuous
 62
     0
370
     0
100
AcDbLine
 10
100.1614816461
 20
0.0
 30
0.0
 11
0.0
 21
0.0
 31
0.0
  0
MTEXT
  5
278
330
274
100
AcDbEntity
  8
0
  6
Continuous
 62
     0
370
     0
100
AcDbMText
 10
0.433597774
 20
12.3938927028
 30
0.0
 40
9.525
 41
0.0
 71
     1
 72
     1
  1
51 degree bend
  7
SLDTEXTSTYLE0
 73
     1
 44
1.0
  0
ENDBLK
  5
276
330
274
100
AcDbEntity
  8
0
100
AcDbBlockEnd
  0
BLOCK
  5
27D
330
27C
100
AcDbEntity
  8
0
100
AcDbBlockBegin
  2
SW_NOTE_3
 70
     0
 10
0.0
 20
0.0
 30
0.0
  3
SW_NOTE_3
  1

  0
LINE
  5
27F
330
27C
100
AcDbEntity
  8
0
  6
Continuous
 62
     0
370
     0
100
AcDbLine
 10
100.1614816461
 20
0.0
 30
0.0
 11
0.0
 21
0.0
 31
0.0
  0
MTEXT
  5
280
330
27C
100
AcDbEntity
  8
0
  6
Continuous
 62
     0
370
     0
100
AcDbMText
 10
0.4783736065
 20
12.2587279945
 30
0.0
 40
9.525
 41
0.0
 71
     1
 72
     1
  1
39 degree bend
  7
SLDTEXTSTYLE0
 73
     1
 44
1.0
  0
ENDBLK
  5
27E
330
27C
100
AcDbEntity
  8
0
100
AcDbBlockEnd
  0
BLOCK
  5
284
330
283
100
AcDbEntity
  8
0
100
AcDbBlockBegin
  2
SW_NOTE_4
 70
     0
 10
0.0
 20
0.0
 30
0.0
  3
SW_NOTE_4
  1

  0
LINE
  5
286
330
283
100
AcDbEntity
  8
0
  6
Continuous
 62
     0
370
     0
100
AcDbLine
 10
100.1614816461
 20
0.0
 30
0.0
 11
0.0
 21
0.0
 31
0.0
  0
MTEXT
  5
287
330
283
100
AcDbEntity
  8
0
  6
Continuous
 62
     0
370
     0
100
AcDbMText
 10
0.4815206303
 20
12.3010412895
 30
0.0
 40
9.525
 41
0.0
 71
     1
 72
     1
  1
52 degree bend
  7
SLDTEXTSTYLE0
 73
     1
 44
1.0
  0
ENDBLK
  5
285
330
283
100
AcDbEntity
  8
0
100
AcDbBlockEnd
  0
BLOCK
  5
28B
330
28A
100
AcDbEntity
  8
0
100
AcDbBlockBegin
  2
SW_NOTE_5
 70
     0
 10
0.0
 20
0.0
 30
0.0
  3
SW_NOTE_5
  1

  0
LINE
  5
28D
330
28A
100
AcDbEntity
  8
0
  6
Continuous
 62
     0
370
     0
100
AcDbLine
 10
-100.3926955189
 20
0.0
 30
0.0
 11
0.0
 21
0.0
 31
0.0
  0
MTEXT
  5
28E
330
28A
100
AcDbEntity
  8
0
  6
Continuous
 62
     0
370
     0
100
AcDbMText
 10
-100.8766630707
 20
12.3220235854
 30
0.0
 40
9.525
 41
0.0
 71
     1
 72
     1
  1
52 degree bend
  7
SLDTEXTSTYLE0
 73
     1
 44
1.0
  0
ENDBLK
  5
28C
330
28A
100
AcDbEntity
  8
0
100
AcDbBlockEnd
  0
BLOCK
  5
292
330
291
100
AcDbEntity
  8
0
100
AcDbBlockBegin
  2
SW_NOTE_6
 70
     0
 10
0.0
 20
0.0
 30
0.0
  3
SW_NOTE_6
  1

  0
LINE
  5
294
330
291
100
AcDbEntity
  8
0
  6
Continuous
 62
     0
370
     0
100
AcDbLine
 10
-99.0168638553
 20
0.0
 30
0.0
 11
0.0
 21
0.0
 31
0.0
  0
MTEXT
  5
295
330
291
100
AcDbEntity
  8
0
  6
Continuous
 62
     0
370
     0
100
AcDbMText
 10
-99.4194455911
 20
12.1991666146
 30
0.0
 40
9.525
 41
0.0
 71
     1
 72
     1
  1
53 degree Bend
  7
SLDTEXTSTYLE0
 73
     1
 44
1.0
  0
ENDBLK
  5
293
330
291
100
AcDbEntity
  8
0
100
AcDbBlockEnd
  0
BLOCK
  5
299
330
298
100
AcDbEntity
  8
0
100
AcDbBlockBegin
  2
SW_NOTE_7
 70
     0
 10
0.0
 20
0.0
 30
0.0
  3
SW_NOTE_7
  1

  0
LINE
  5
29B
330
298
100
AcDbEntity
  8
0
  6
Continuous
 62
     0
370
     0
100
AcDbLine
 10
98.7856499825
 20
0.0
 30
0.0
 11
0.0
 21
0.0
 31
0.0
  0
MTEXT
  5
29C
330
298
100
AcDbEntity
  8
0
  6
Continuous
 62
     0
370
     0
100
AcDbMText
 10
0.4181473682
 20
12.1991666146
 30
0.0
 40
9.525
 41
0.0
 71
     1
 72
     1
  1
53 degree Bend
  7
SLDTEXTSTYLE0
 73
     1
 44
1.0
  0
ENDBLK
  5
29A
330
298
100
AcDbEntity
  8
0
100
AcDbBlockEnd
  0
ENDSEC
  0
SECTION
  2
ENTITIES
  0
LINE
  5
74
330
1F
100
AcDbEntity
  8
0
  6
Continuous
 62
     7
370
    40
100
AcDbLine
 10
404.0
 20
14.25
 30
0.0
 11
584.0
 21
14.25
 31
0.0
  0
LINE
  5
75
330
1F
100
AcDbEntity
  8
0
  6
Continuous
 62
     7
370
    40
100
AcDbLine
 10
584.0
 20
48.25
 30
0.0
 11
404.0
 21
48.25
 31
0.0
  0
LINE
  5
76
330
1F
100
AcDbEntity
  8
0
  6
Continuous
 62
     7
370
    40
100
AcDbLine
 10
404.0
 20
65.25
 30
0.0
 11
584.0
 21
65.25
 31
0.0
  0
LINE
  5
77
330
1F
100
AcDbEntity
  8
0
  6
Continuous
 62
     7
370
    40
100
AcDbLine
 10
430.9909524338
 20
48.25
 30
0.0
 11
430.9909524338
 21
10.0
 31
0.0
  0
LINE
  5
78
330
1F
100
AcDbEntity
  8
0
  6
Continuous
 62
     7
370
    40
100
AcDbLine
 10
502.8
 20
31.25
 30
0.0
 11
404.0
 21
31.25
 31
0.0
  0
LINE
  5
79
330
1F
100
AcDbEntity
  8
0
  6
Continuous
 62
     7
370
    40
100
AcDbLine
 10
502.8
 20
35.5
 30
0.0
 11
404.0
 21
35.5
 31
0.0
  0
LINE
  5
7A
330
1F
100
AcDbEntity
  8
0
  6
Continuous
 62
     7
370
    40
100
AcDbLine
 10
502.8
 20
39.75
 30
0.0
 11
404.0
 21
39.75
 31
0.0
  0
LINE
  5
7B
330
1F
100
AcDbEntity
  8
0
  6
Continuous
 62
     7
370
    40
100
AcDbLine
 10
502.8
 20
44.0
 30
0.0
 11
404.0
 21
44.0
 31
0.0
  0
LINE
  5
7C
330
1F
100
AcDbEntity
  8
0
  6
Continuous
 62
     7
370
    40
100
AcDbLine
 10
458.6
 20
10.0
 30
0.0
 11
458.6
 21
48.25
 31
0.0
  0
LINE
  5
7D
330
1F
100
AcDbEntity
  8
0
  6
Continuous
 62
     7
370
    40
100
AcDbLine
 10
404.0
 20
65.25
 30
0.0
 11
404.0
 21
10.0
 31
0.0
  0
LINE
  5
7E
330
1F
100
AcDbEntity
  8
0
  6
Continuous
 62
     7
370
    40
100
AcDbLine
 10
411.8
 20
48.25
 30
0.0
 11
411.8
 21
10.0
 31
0.0
  0
LINE
  5
7F
330
1F
100
AcDbEntity
  8
0
  6
Continuous
 62
     7
370
    40
100
AcDbLine
 10
437.8
 20
48.25
 30
0.0
 11
437.8
 21
65.25
 31
0.0
  0
LINE
  5
80
330
1F
100
AcDbEntity
  8
0
  6
Continuous
 62
     7
370
    40
100
AcDbLine
 10
448.3989261635
 20
48.25
 30
0.0
 11
448.3989261635
 21
10.0
 31
0.0
  0
LINE
  5
81
330
1F
100
AcDbEntity
  8
0
  6
Continuous
 62
     7
370
    40
100
AcDbLine
 10
469.0
 20
31.25
 30
0.0
 11
469.0
 21
48.25
 31
0.0
  0
LINE
  5
82
330
1F
100
AcDbEntity
  8
0
  6
Continuous
 62
     7
370
    40
100
AcDbLine
 10
458.6
 20
18.5
 30
0.0
 11
404.0
 21
18.5
 31
0.0
  0
LINE
  5
83
330
1F
100
AcDbEntity
  8
0
  6
Continuous
 62
     7
370
    40
100
AcDbLine
 10
484.6
 20
65.25
 30
0.0
 11
484.6
 21
27.0
 31
0.0
  0
LINE
  5
84
330
1F
100
AcDbEntity
  8
0
  6
Continuous
 62
     7
370
    40
100
AcDbLine
 10
458.6
 20
22.749928
 30
0.0
 11
404.0
 21
22.749928
 31
0.0
  0
LINE
  5
85
330
1F
100
AcDbEntity
  8
0
  6
Continuous
 62
     7
370
    40
100
AcDbLine
 10
458.6
 20
27.0
 30
0.0
 11
404.0
 21
27.0
 31
0.0
  0
LINE
  5
86
330
1F
100
AcDbEntity
  8
0
  6
Continuous
 62
     7
370
    40
100
AcDbLine
 10
458.6
 20
27.0
 30
0.0
 11
584.0
 21
27.0
 31
0.0
  0
LINE
  5
87
330
1F
100
AcDbEntity
  8
0
  6
Continuous
 62
     7
370
    40
100
AcDbLine
 10
502.8
 20
65.25
 30
0.0
 11
502.8
 21
10.0
 31
0.0
  0
LINE
  5
88
330
1F
100
AcDbEntity
  8
0
  6
Continuous
 62
     7
370
    40
100
AcDbLine
 10
547.0
 20
10.0
 30
0.0
 11
547.0
 21
14.25
 31
0.0
  0
LINE
  5
89
330
1F
100
AcDbEntity
  8
0
  6
Continuous
 62
     7
370
    40
100
AcDbLine
 10
554.8
 20
58.875
 30
0.0
 11
554.8
 21
65.25
 31
0.0
  0
LINE
  5
8A
330
1F
100
AcDbEntity
  8
0
  6
Continuous
 62
     7
370
    40
100
AcDbLine
 10
571.0
 20
14.25
 30
0.0
 11
571.0
 21
27.0
 31
0.0
  0
LINE
  5
8B
330
1F
100
AcDbEntity
  8
0
  6
Continuous
 62
     7
370
    40
100
AcDbLine
 10
584.0
 20
58.875
 30
0.0
 11
502.8
 21
58.875
 31
0.0
  0
LINE
  5
8C
330
1F
100
AcDbEntity
  8
0
  6
Continuous
 62
     7
370
    40
100
AcDbLine
 10
584.0
 20
18.5
 30
0.0
 11
571.0
 21
18.5
 31
0.0
  0
LINE
  5
8D
330
1F
100
AcDbEntity
  8
0
  6
Continuous
 62
     7
370
    60
100
AcDbLine
 10
20.0
 20
10.0
 30
0.0
 11
20.0
 21
410.0
 31
0.0
  0
LINE
  5
8E
330
1F
100
AcDbEntity
  8
0
  6
Continuous
 62
     7
370
    60
100
AcDbLine
 10
20.0
 20
410.0
 30
0.0
 11
584.0
 21
410.0
 31
0.0
  0
LINE
  5
8F
330
1F
100
AcDbEntity
  8
0
  6
Continuous
 62
     7
370
    60
100
AcDbLine
 10
584.0
 20
410.0
 30
0.0
 11
584.0
 21
10.0
 31
0.0
  0
LINE
  5
90
330
1F
100
AcDbEntity
  8
0
  6
Continuous
 62
     7
370
    60
100
AcDbLine
 10
584.0
 20
10.0
 30
0.0
 11
20.0
 21
10.0
 31
0.0
  0
LINE
  5
91
330
1F
100
AcDbEntity
  8
0
  6
Continuous
 62
     7
370
    60
100
AcDbLine
 10
15.0
 20
5.0
 30
0.0
 11
15.0
 21
415.0
 31
0.0
  0
LINE
  5
92
330
1F
100
AcDbEntity
  8
0
  6
Continuous
 62
     7
370
    60
100
AcDbLine
 10
15.0
 20
415.0
 30
0.0
 11
589.0
 21
415.0
 31
0.0
  0
LINE
  5
93
330
1F
100
AcDbEntity
  8
0
  6
Continuous
 62
     7
370
    60
100
AcDbLine
 10
589.0
 20
415.0
 30
0.0
 11
589.0
 21
5.0
 31
0.0
  0
LINE
  5
94
330
1F
100
AcDbEntity
  8
0
  6
Continuous
 62
     7
370
    60
100
AcDbLine
 10
589.0
 20
5.0
 30
0.0
 11
15.0
 21
5.0
 31
0.0
  0
LINE
  5
95
330
1F
100
AcDbEntity
  8
0
  6
Continuous
 62
     7
370
    30
100
AcDbLine
 10
15.0
 20
210.0
 30
0.0
 11
25.0
 21
210.0
 31
0.0
  0
LINE
  5
96
330
1F
100
AcDbEntity
  8
0
  6
Continuous
 62
     7
370
    30
100
AcDbLine
 10
302.0
 20
415.0
 30
0.0
 11
302.0
 21
405.0
 31
0.0
  0
LINE
  5
97
330
1F
100
AcDbEntity
  8
0
  6
Continuous
 62
     7
370
    30
100
AcDbLine
 10
589.0
 20
210.0
 30
0.0
 11
579.0
 21
210.0
 31
0.0
  0
LINE
  5
98
330
1F
100
AcDbEntity
  8
0
  6
Continuous
 62
     7
370
    30
100
AcDbLine
 10
302.0
 20
5.0
 30
0.0
 11
302.0
 21
15.0
 31
0.0
  0
LINE
  5
99
330
1F
100
AcDbEntity
  8
0
  6
Continuous
 62
     7
370
    30
100
AcDbLine
 10
20.0
 20
60.0
 30
0.0
 11
15.0
 21
60.0
 31
0.0
  0
LINE
  5
9A
330
1F
100
AcDbEntity
  8
0
  6
Continuous
 62
     7
370
    30
100
AcDbLine
 10
584.0
 20
60.0
 30
0.0
 11
589.0
 21
60.0
 31
0.0
  0
LINE
  5
9B
330
1F
100
AcDbEntity
  8
0
  6
Continuous
 62
     7
370
    30
100
AcDbLine
 10
20.0
 20
110.0
 30
0.0
 11
15.0
 21
110.0
 31
0.0
  0
LINE
  5
9C
330
1F
100
AcDbEntity
  8
0
  6
Continuous
 62
     7
370
    30
100
AcDbLine
 10
584.0
 20
110.0
 30
0.0
 11
589.0
 21
110.0
 31
0.0
  0
LINE
  5
9D
330
1F
100
AcDbEntity
  8
0
  6
Continuous
 62
     7
370
    30
100
AcDbLine
 10
20.0
 20
160.0
 30
0.0
 11
15.0
 21
160.0
 31
0.0
  0
LINE
  5
9E
330
1F
100
AcDbEntity
  8
0
  6
Continuous
 62
     7
370
    30
100
AcDbLine
 10
584.0
 20
160.0
 30
0.0
 11
589.0
 21
160.0
 31
0.0
  0
LINE
  5
9F
330
1F
100
AcDbEntity
  8
0
  6
Continuous
 62
     7
370
    30
100
AcDbLine
 10
20.0
 20
210.0
 30
0.0
 11
15.0
 21
210.0
 31
0.0
  0
LINE
  5
A0
330
1F
100
AcDbEntity
  8
0
  6
Continuous
 62
     7
370
    30
100
AcDbLine
 10
584.0
 20
210.0
 30
0.0
 11
589.0
 21
210.0
 31
0.0
  0
LINE
  5
A1
330
1F
100
AcDbEntity
  8
0
  6
Continuous
 62
     7
370
    30
100
AcDbLine
 10
20.0
 20
260.0
 30
0.0
 11
15.0
 21
260.0
 31
0.0
  0
LINE
  5
A2
330
1F
100
AcDbEntity
  8
0
  6
Continuous
 62
     7
370
    30
100
AcDbLine
 10
584.0
 20
260.0
 30
0.0
 11
589.0
 21
260.0
 31
0.0
  0
LINE
  5
A3
330
1F
100
AcDbEntity
  8
0
  6
Continuous
 62
     7
370
    30
100
AcDbLine
 10
20.0
 20
310.0
 30
0.0
 11
15.0
 21
310.0
 31
0.0
  0
LINE
  5
A4
330
1F
100
AcDbEntity
  8
0
  6
Continuous
 62
     7
370
    30
100
AcDbLine
 10
584.0
 20
310.0
 30
0.0
 11
589.0
 21
310.0
 31
0.0
  0
LINE
  5
A5
330
1F
100
AcDbEntity
  8
0
  6
Continuous
 62
     7
370
    30
100
AcDbLine
 10
20.0
 20
360.0
 30
0.0
 11
15.0
 21
360.0
 31
0.0
  0
LINE
  5
A6
330
1F
100
AcDbEntity
  8
0
  6
Continuous
 62
     7
370
    30
100
AcDbLine
 10
584.0
 20
360.0
 30
0.0
 11
589.0
 21
360.0
 31
0.0
  0
LINE
  5
A7
330
1F
100
AcDbEntity
  8
0
  6
Continuous
 62
     7
370
    30
100
AcDbLine
 10
52.0
 20
410.0
 30
0.0
 11
52.0
 21
415.0
 31
0.0
  0
LINE
  5
A8
330
1F
100
AcDbEntity
  8
0
  6
Continuous
 62
     7
370
    30
100
AcDbLine
 10
52.0
 20
10.0
 30
0.0
 11
52.0
 21
5.0
 31
0.0
  0
LINE
  5
A9
330
1F
100
AcDbEntity
  8
0
  6
Continuous
 62
     7
370
    30
100
AcDbLine
 10
102.0
 20
410.0
 30
0.0
 11
102.0
 21
415.0
 31
0.0
  0
LINE
  5
AA
330
1F
100
AcDbEntity
  8
0
  6
Continuous
 62
     7
370
    30
100
AcDbLine
 10
102.0
 20
10.0
 30
0.0
 11
102.0
 21
5.0
 31
0.0
  0
LINE
  5
AB
330
1F
100
AcDbEntity
  8
0
  6
Continuous
 62
     7
370
    30
100
AcDbLine
 10
152.0
 20
410.0
 30
0.0
 11
152.0
 21
415.0
 31
0.0
  0
LINE
  5
AC
330
1F
100
AcDbEntity
  8
0
  6
Continuous
 62
     7
370
    30
100
AcDbLine
 10
152.0
 20
10.0
 30
0.0
 11
152.0
 21
5.0
 31
0.0
  0
LINE
  5
AD
330
1F
100
AcDbEntity
  8
0
  6
Continuous
 62
     7
370
    30
100
AcDbLine
 10
202.0
 20
410.0
 30
0.0
 11
202.0
 21
415.0
 31
0.0
  0
LINE
  5
AE
330
1F
100
AcDbEntity
  8
0
  6
Continuous
 62
     7
370
    30
100
AcDbLine
 10
202.0
 20
10.0
 30
0.0
 11
202.0
 21
5.0
 31
0.0
  0
LINE
  5
AF
330
1F
100
AcDbEntity
  8
0
  6
Continuous
 62
     7
370
    30
100
AcDbLine
 10
252.0
 20
410.0
 30
0.0
 11
252.0
 21
415.0
 31
0.0
  0
LINE
  5
B0
330
1F
100
AcDbEntity
  8
0
  6
Continuous
 62
     7
370
    30
100
AcDbLine
 10
252.0
 20
10.0
 30
0.0
 11
252.0
 21
5.0
 31
0.0
  0
LINE
  5
B1
330
1F
100
AcDbEntity
  8
0
  6
Continuous
 62
     7
370
    30
100
AcDbLine
 10
302.0
 20
410.0
 30
0.0
 11
302.0
 21
415.0
 31
0.0
  0
LINE
  5
B2
330
1F
100
AcDbEntity
  8
0
  6
Continuous
 62
     7
370
    30
100
AcDbLine
 10
302.0
 20
10.0
 30
0.0
 11
302.0
 21
5.0
 31
0.0
  0
LINE
  5
B3
330
1F
100
AcDbEntity
  8
0
  6
Continuous
 62
     7
370
    30
100
AcDbLine
 10
352.0
 20
410.0
 30
0.0
 11
352.0
 21
415.0
 31
0.0
  0
LINE
  5
B4
330
1F
100
AcDbEntity
  8
0
  6
Continuous
 62
     7
370
    30
100
AcDbLine
 10
352.0
 20
10.0
 30
0.0
 11
352.0
 21
5.0
 31
0.0
  0
LINE
  5
B5
330
1F
100
AcDbEntity
  8
0
  6
Continuous
 62
     7
370
    30
100
AcDbLine
 10
402.0
 20
410.0
 30
0.0
 11
402.0
 21
415.0
 31
0.0
  0
LINE
  5
B6
330
1F
100
AcDbEntity
  8
0
  6
Continuous
 62
     7
370
    30
100
AcDbLine
 10
402.0
 20
10.0
 30
0.0
 11
402.0
 21
5.0
 31
0.0
  0
LINE
  5
B7
330
1F
100
AcDbEntity
  8
0
  6
Continuous
 62
     7
370
    30
100
AcDbLine
 10
452.0
 20
410.0
 30
0.0
 11
452.0
 21
415.0
 31
0.0
  0
LINE
  5
B8
330
1F
100
AcDbEntity
  8
0
  6
Continuous
 62
     7
370
    30
100
AcDbLine
 10
452.0
 20
10.0
 30
0.0
 11
452.0
 21
5.0
 31
0.0
  0
LINE
  5
B9
330
1F
100
AcDbEntity
  8
0
  6
Continuous
 62
     7
370
    30
100
AcDbLine
 10
502.0
 20
410.0
 30
0.0
 11
502.0
 21
415.0
 31
0.0
  0
LINE
  5
BA
330
1F
100
AcDbEntity
  8
0
  6
Continuous
 62
     7
370
    30
100
AcDbLine
 10
502.0
 20
10.0
 30
0.0
 11
502.0
 21
5.0
 31
0.0
  0
LINE
  5
BB
330
1F
100
AcDbEntity
  8
0
  6
Continuous
 62
     7
370
    30
100
AcDbLine
 10
552.0
 20
410.0
 30
0.0
 11
552.0
 21
415.0
 31
0.0
  0
LINE
  5
BC
330
1F
100
AcDbEntity
  8
0
  6
Continuous
 62
     7
370
    30
100
AcDbLine
 10
552.0
 20
10.0
 30
0.0
 11
552.0
 21
5.0
 31
0.0
  0
MTEXT
  5
BE
330
1F
100
AcDbEntity
  8
0
  6
Continuous
 62
     7
370
     0
100
AcDbMText
 10
168.0235359181
 20
228.540996294
 30
0.0
 40
9.525
 41
0.0
 71
     1
 72
     1
  1
Flat sheet dimensions (scale = 1:5)
  7
SLDTEXTSTYLE0
 73
     1
 44
1.0
  0
MTEXT
  5
BF
330
1F
100
AcDbEntity
  8
0
  6
Continuous
 62
     7
370
     0
100
AcDbMText
 10
320.2202514313
 20
394.2825715369
 30
0.0
 40
9.525
 41
0.0
 71
     1
 72
     1
  1
Part Diagram (scale = 1:10)
  7
SLDTEXTSTYLE0
 73
     1
 44
1.0
  0
MTEXT
  5
C0
330
1F
100
AcDbEntity
  8
0
  6
Continuous
 62
     7
370
     0
100
AcDbMText
 10
17.3396881428
 20
36.9457083417
 30
0.0
 40
3.96875
 41
0.0
 71
     2
 72
     1
  1
A
  7
SLDTEXTSTYLE0
 73
     1
 44
1.0
  0
MTEXT
  5
C1
330
1F
100
AcDbEntity
  8
0
  6
Continuous
 62
     7
370
     0
100
AcDbMText
 10
586.3396881428
 20
36.9457083417
 30
0.0
 40
3.96875
 41
0.0
 71
     2
 72
     1
  1
A
  7
SLDTEXTSTYLE0
 73
     1
 44
1.0
  0
MTEXT
  5
C2
330
1F
100
AcDbEntity
  8
0
  6
Continuous
 62
     7
370
     0
100
AcDbMText
 10
17.4706018241
 20
86.9457083417
 30
0.0
 40
3.96875
 41
0.0
 71
     2
 72
     1
  1
B
  7
SLDTEXTSTYLE0
 73
     1
 44
1.0
  0
MTEXT
  5
C3
330
1F
100
AcDbEntity
  8
0
  6
Continuous
 62
     7
370
     0
100
AcDbMText
 10
586.4706018241
 20
86.9457083417
 30
0.0
 40
3.96875
 41
0.0
 71
     2
 72
     1
  1
B
  7
SLDTEXTSTYLE0
 73
     1
 44
1.0
  0
MTEXT
  5
C4
330
1F
100
AcDbEntity
  8
0
  6
Continuous
 62
     7
370
     0
100
AcDbMText
 10
17.458658902
 20
136.9457083417
 30
0.0
 40
3.96875
 41
0.0
 71
     2
 72
     1
  1
C
  7
SLDTEXTSTYLE0
 73
     1
 44
1.0
  0
MTEXT
  5
C5
330
1F
100
AcDbEntity
  8
0
  6
Continuous
 62
     7
370
     0
100
AcDbMText
 10
586.458658902
 20
136.9457083417
 30
0.0
 40
3.96875
 41
0.0
 71
     2
 72
     1
  1
C
  7
SLDTEXTSTYLE0
 73
     1
 44
1.0
  0
MTEXT
  5
C6
330
1F
100
AcDbEntity
  8
0
  6
Continuous
 62
     7
370
     0
100
AcDbMText
 10
17.4526872821
 20
186.9457083417
 30
0.0
 40
3.96875
 41
0.0
 71
     2
 72
     1
  1
D
  7
SLDTEXTSTYLE0
 73
     1
 44
1.0
  0
MTEXT
  5
C7
330
1F
100
AcDbEntity
  8
0
  6
Continuous
 62
     7
370
     0
100
AcDbMText
 10
586.4526872821
 20
186.9457083417
 30
0.0
 40
3.96875
 41
0.0
 71
     2
 72
     1
  1
D
  7
SLDTEXTSTYLE0
 73
     1
 44
1.0
  0
MTEXT
  5
C8
330
1F
100
AcDbEntity
  8
0
  6
Continuous
 62
     7
370
     0
100
AcDbMText
 10
17.5078089051
 20
236.9457083417
 30
0.0
 40
3.96875
 41
0.0
 71
     2
 72
     1
  1
E
  7
SLDTEXTSTYLE0
 73
     1
 44
1.0
  0
MTEXT
  5
C9
330
1F
100
AcDbEntity
  8
0
  6
Continuous
 62
     7
370
     0
100
AcDbMText
 10
586.5078089051
 20
236.9457083417
 30
0.0
 40
3.96875
 41
0.0
 71
     2
 72
     1
  1
E
  7
SLDTEXTSTYLE0
 73
     1
 44
1.0
  0
MTEXT
  5
CA
330
1F
100
AcDbEntity
  8
0
  6
Continuous
 62
     7
370
     0
100
AcDbMText
 10
17.4577402091
 20
286.9457083417
 30
0.0
 40
3.96875
 41
0.0
 71
     2
 72
     1
  1
F
  7
SLDTEXTSTYLE0
 73
     1
 44
1.0
  0
MTEXT
  5
CB
330
1F
100
AcDbEntity
  8
0
  6
Continuous
 62
     7
370
     0
100
AcDbMText
 10
586.4577402091
 20
286.9457083417
 30
0.0
 40
3.96875
 41
0.0
 71
     2
 72
     1
  1
F
  7
SLDTEXTSTYLE0
 73
     1
 44
1.0
  0
MTEXT
  5
CC
330
1F
100
AcDbEntity
  8
0
  6
Continuous
 62
     7
370
     0
100
AcDbMText
 10
17.4866788853
 20
336.9457083417
 30
0.0
 40
3.96875
 41
0.0
 71
     2
 72
     1
  1
G
  7
SLDTEXTSTYLE0
 73
     1
 44
1.0
  0
MTEXT
  5
CD
330
1F
100
AcDbEntity
  8
0
  6
Continuous
 62
     7
370
     0
100
AcDbMText
 10
586.4866788853
 20
336.9457083417
 30
0.0
 40
3.96875
 41
0.0
 71
     2
 72
     1
  1
G
  7
SLDTEXTSTYLE0
 73
     1
 44
1.0
  0
MTEXT
  5
CE
330
1F
100
AcDbEntity
  8
0
  6
Continuous
 62
     7
370
     0
100
AcDbMText
 10
17.4903537836
 20
386.9457083417
 30
0.0
 40
3.96875
 41
0.0
 71
     2
 72
     1
  1
H
  7
SLDTEXTSTYLE0
 73
     1
 44
1.0
  0
MTEXT
  5
CF
330
1F
100
AcDbEntity
  8
0
  6
Continuous
 62
     7
370
     0
100
AcDbMText
 10
586.4903537836
 20
386.9457083417
 30
0.0
 40
3.96875
 41
0.0
 71
     2
 72
     1
  1
H
  7
SLDTEXTSTYLE0
 73
     1
 44
1.0
  0
MTEXT
  5
D0
330
1F
100
AcDbEntity
  8
0
  6
Continuous
 62
     7
370
     0
100
AcDbMText
 10
35.9200738929
 20
9.5035118099
 30
0.0
 40
3.96875
 41
0.0
 71
     2
 72
     1
  1
12
  7
SLDTEXTSTYLE0
 73
     1
 44
1.0
  0
MTEXT
  5
D1
330
1F
100
AcDbEntity
  8
0
  6
Continuous
 62
     7
370
     0
100
AcDbMText
 10
35.9200738929
 20
414.5035118099
 30
0.0
 40
3.96875
 41
0.0
 71
     2
 72
     1
  1
12
  7
SLDTEXTSTYLE0
 73
     1
 44
1.0
  0
MTEXT
  5
D2
330
1F
100
AcDbEntity
  8
0
  6
Continuous
 62
     7
370
     0
100
AcDbMText
 10
76.9200738929
 20
9.5035118099
 30
0.0
 40
3.96875
 41
0.0
 71
     2
 72
     1
  1
11
  7
SLDTEXTSTYLE0
 73
     1
 44
1.0
  0
MTEXT
  5
D3
330
1F
100
AcDbEntity
  8
0
  6
Continuous
 62
     7
370
     0
100
AcDbMText
 10
76.9200738929
 20
414.5035118099
 30
0.0
 40
3.96875
 41
0.0
 71
     2
 72
     1
  1
11
  7
SLDTEXTSTYLE0
 73
     1
 44
1.0
  0
MTEXT
  5
D4
330
1F
100
AcDbEntity
  8
0
  6
Continuous
 62
     7
370
     0
100
AcDbMText
 10
126.9200738929
 20
9.5035118099
 30
0.0
 40
3.96875
 41
0.0
 71
     2
 72
     1
  1
10
  7
SLDTEXTSTYLE0
 73
     1
 44
1.0
  0
MTEXT
  5
D5
330
1F
100
AcDbEntity
  8
0
  6
Continuous
 62
     7
370
     0
100
AcDbMText
 10
126.9200738929
 20
414.5035118099
 30
0.0
 40
3.96875
 41
0.0
 71
     2
 72
     1
  1
10
  7
SLDTEXTSTYLE0
 73
     1
 44
1.0
  0
MTEXT
  5
D6
330
1F
100
AcDbEntity
  8
0
  6
Continuous
 62
     7
370
     0
100
AcDbMText
 10
176.9600369465
 20
9.5035118099
 30
0.0
 40
3.96875
 41
0.0
 71
     2
 72
     1
  1
9
  7
SLDTEXTSTYLE0
 73
     1
 44
1.0
  0
MTEXT
  5
D7
330
1F
100
AcDbEntity
  8
0
  6
Continuous
 62
     7
370
     0
100
AcDbMText
 10
176.9600369465
 20
414.5035118099
 30
0.0
 40
3.96875
 41
0.0
 71
     2
 72
     1
  1
9
  7
SLDTEXTSTYLE0
 73
     1
 44
1.0
  0
MTEXT
  5
D8
330
1F
100
AcDbEntity
  8
0
  6
Continuous
 62
     7
370
     0
100
AcDbMText
 10
226.9600369465
 20
9.5035118099
 30
0.0
 40
3.96875
 41
0.0
 71
     2
 72
     1
  1
8
  7
SLDTEXTSTYLE0
 73
     1
 44
1.0
  0
MTEXT
  5
D9
330
1F
100
AcDbEntity
  8
0
  6
Continuous
 62
     7
370
     0
100
AcDbMText
 10
226.9600369465
 20
414.5035118099
 30
0.0
 40
3.96875
 41
0.0
 71
     2
 72
     1
  1
8
  7
SLDTEXTSTYLE0
 73
     1
 44
1.0
  0
MTEXT
  5
DA
330
1F
100
AcDbEntity
  8
0
  6
Continuous
 62
     7
370
     0
100
AcDbMText
 10
276.9600369465
 20
9.5035118099
 30
0.0
 40
3.96875
 41
0.0
 71
     2
 72
     1
  1
7
  7
SLDTEXTSTYLE0
 73
     1
 44
1.0
  0
MTEXT
  5
DB
330
1F
100
AcDbEntity
  8
0
  6
Continuous
 62
     7
370
     0
100
AcDbMText
 10
276.9600369465
 20
414.5035118099
 30
0.0
 40
3.96875
 41
0.0
 71
     2
 72
     1
  1
7
  7
SLDTEXTSTYLE0
 73
     1
 44
1.0
  0
MTEXT
  5
DC
330
1F
100
AcDbEntity
  8
0
  6
Continuous
 62
     7
370
     0
100
AcDbMText
 10
326.9600369465
 20
9.5035118099
 30
0.0
 40
3.96875
 41
0.0
 71
     2
 72
     1
  1
6
  7
SLDTEXTSTYLE0
 73
     1
 44
1.0
  0
MTEXT
  5
DD
330
1F
100
AcDbEntity
  8
0
  6
Continuous
 62
     7
370
     0
100
AcDbMText
 10
326.9600369465
 20
414.5035118099
 30
0.0
 40
3.96875
 41
0.0
 71
     2
 72
     1
  1
6
  7
SLDTEXTSTYLE0
 73
     1
 44
1.0
  0
MTEXT
  5
DE
330
1F
100
AcDbEntity
  8
0
  6
Continuous
 62
     7
370
     0
100
AcDbMText
 10
376.9600369465
 20
9.5035118099
 30
0.0
 40
3.96875
 41
0.0
 71
     2
 72
     1
  1
5
  7
SLDTEXTSTYLE0
 73
     1
 44
1.0
  0
MTEXT
  5
DF
330
1F
100
AcDbEntity
  8
0
  6
Continuous
 62
     7
370
     0
100
AcDbMText
 10
376.9600369465
 20
414.5035118099
 30
0.0
 40
3.96875
 41
0.0
 71
     2
 72
     1
  1
5
  7
SLDTEXTSTYLE0
 73
     1
 44
1.0
  0
MTEXT
  5
E0
330
1F
100
AcDbEntity
  8
0
  6
Continuous
 62
     7
370
     0
100
AcDbMText
 10
426.9600369465
 20
9.5035118099
 30
0.0
 40
3.96875
 41
0.0
 71
     2
 72
     1
  1
4
  7
SLDTEXTSTYLE0
 73
     1
 44
1.0
  0
MTEXT
  5
E1
330
1F
100
AcDbEntity
  8
0
  6
Continuous
 62
     7
370
     0
100
AcDbMText
 10
426.9600369465
 20
414.5035118099
 30
0.0
 40
3.96875
 41
0.0
 71
     2
 72
     1
  1
4
  7
SLDTEXTSTYLE0
 73
     1
 44
1.0
  0
MTEXT
  5
E2
330
1F
100
AcDbEntity
  8
0
  6
Continuous
 62
     7
370
     0
100
AcDbMText
 10
476.9600369465
 20
9.5035118099
 30
0.0
 40
3.96875
 41
0.0
 71
     2
 72
     1
  1
3
  7
SLDTEXTSTYLE0
 73
     1
 44
1.0
  0
MTEXT
  5
E3
330
1F
100
AcDbEntity
  8
0
  6
Continuous
 62
     7
370
     0
100
AcDbMText
 10
476.9600369465
 20
414.5035118099
 30
0.0
 40
3.96875
 41
0.0
 71
     2
 72
     1
  1
3
  7
SLDTEXTSTYLE0
 73
     1
 44
1.0
  0
MTEXT
  5
E4
330
1F
100
AcDbEntity
  8
0
  6
Continuous
 62
     7
370
     0
100
AcDbMText
 10
526.9600369465
 20
9.5035118099
 30
0.0
 40
3.96875
 41
0.0
 71
     2
 72
     1
  1
2
  7
SLDTEXTSTYLE0
 73
     1
 44
1.0
  0
MTEXT
  5
E5
330
1F
100
AcDbEntity
  8
0
  6
Continuous
 62
     7
370
     0
100
AcDbMText
 10
526.9600369465
 20
414.5035118099
 30
0.0
 40
3.96875
 41
0.0
 71
     2
 72
     1
  1
2
  7
SLDTEXTSTYLE0
 73
     1
 44
1.0
  0
MTEXT
  5
E6
330
1F
100
AcDbEntity
  8
0
  6
Continuous
 62
     7
370
     0
100
AcDbMText
 10
567.9600369465
 20
9.5035118099
 30
0.0
 40
3.96875
 41
0.0
 71
     2
 72
     1
  1
1
  7
SLDTEXTSTYLE0
 73
     1
 44
1.0
  0
MTEXT
  5
E7
330
1F
100
AcDbEntity
  8
0
  6
Continuous
 62
     7
370
     0
100
AcDbMText
 10
567.9600369465
 20
414.5035118099
 30
0.0
 40
3.96875
 41
0.0
 71
     2
 72
     1
  1
1
  7
SLDTEXTSTYLE0
 73
     1
 44
1.0
  0
MTEXT
  5
E9
330
1F
100
AcDbEntity
  8
0
  6
Continuous
 62
     7
370
     0
100
AcDbMText
 10
404.6433628979
 20
42.3847813173
 30
0.0
 40
1.5
 41
0.0
 71
     1
 72
     1
  1
DRAWN
  7
SLDTEXTSTYLE1
 73
     1
 44
1.0
  0
MTEXT
  5
EA
330
1F
100
AcDbEntity
  8
0
  6
Continuous
 62
     7
370
     0
100
AcDbMText
 10
404.9392221937
 20
38.1618530186
 30
0.0
 40
1.5
 41
0.0
 71
     1
 72
     1
  1
CHK'D
  7
SLDTEXTSTYLE0
 73
     1
 44
1.0
  0
MTEXT
  5
EB
330
1F
100
AcDbEntity
  8
0
  6
Continuous
 62
     7
370
     0
100
AcDbMText
 10
404.4017224083
 20
34.0658666243
 30
0.0
 40
1.5
 41
0.0
 71
     1
 72
     1
  1
APPV'D
  7
SLDTEXTSTYLE0
 73
     1
 44
1.0
  0
MTEXT
  5
EC
330
1F
100
AcDbEntity
  8
0
  6
Continuous
 62
     7
370
     0
100
AcDbMText
 10
405.1240107386
 20
29.7157844608
 30
0.0
 40
1.5
 41
0.0
 71
     1
 72
     1
  1
MFG
  7
SLDTEXTSTYLE0
 73
     1
 44
1.0
  0
MTEXT
  5
ED
330
1F
100
AcDbEntity
  8
0
  6
Continuous
 62
     7
370
     0
100
AcDbMText
 10
405.509036604
 20
25.504662132
 30
0.0
 40
1.5
 41
0.0
 71
     1
 72
     1
  1
Q.A
  7
SLDTEXTSTYLE0
 73
     1
 44
1.0
  0
INSERT
  5
F7
330
1F
100
AcDbEntity
  8
0
  6
Continuous
 62
     7
370
     0
100
AcDbBlockReference
  2
SW_NOTE_0
 10
404.5936687456
 20
61.9873698743
 30
0.0
  0
MTEXT
  5
F8
330
1F
100
AcDbEntity
  8
0
  6
Continuous
 62
     7
370
     0
100
AcDbMText
 10
438.3712921668
 20
63.9192719951
 30
0.0
 40
1.5
 41
0.0
 71
     1
 72
     1
  1
FINISH:
  7
SLDTEXTSTYLE0
 73
     1
 44
1.0
  0
INSERT
  5
FF
330
1F
100
AcDbEntity
  8
0
  6
Continuous
 62
     7
370
     0
100
AcDbBlockReference
  2
SW_NOTE_1
 10
485.3092156863
 20
62.069489643
 30
0.0
  0
MTEXT
  5
100
330
1F
100
AcDbEntity
  8
0
  6
Continuous
 62
     7
370
     0
100
AcDbMText
 10
418.3222392177
 20
46.5014826335
 30
0.0
 40
1.5
 41
0.0
 71
     1
 72
     1
  1
NAME
  7
SLDTEXTSTYLE0
 73
     1
 44
1.0
  0
MTEXT
  5
101
330
1F
100
AcDbEntity
  8
0
  6
Continuous
 62
     7
370
     0
100
AcDbMText
 10
434.0335875632
 20
46.5617563795
 30
0.0
 40
1.5
 41
0.0
 71
     1
 72
     1
  1
SIGNATURE
  7
SLDTEXTSTYLE0
 73
     1
 44
1.0
  0
MTEXT
  5
102
330
1F
100
AcDbEntity
  8
0
  6
Continuous
 62
     7
370
     0
100
AcDbMText
 10
451.2147019657
 20
46.5761792212
 30
0.0
 40
1.5
 41
0.0
 71
     1
 72
     1
  1
DATE
  7
SLDTEXTSTYLE0
 73
     1
 44
1.0
  0
MTEXT
  5
103
330
1F
100
AcDbEntity
  8
0
  6
Continuous
 62
     7
370
     0
100
AcDbMText
 10
459.6458623088
 20
25.9860562892
 30
0.0
 40
1.5
 41
0.0
 71
     1
 72
     1
  1
MATERIAL:
  7
SLDTEXTSTYLE0
 73
     1
 44
1.0
  0
MTEXT
  5
104
330
1F
100
AcDbEntity
  8
0
  6
Continuous
 62
     7
370
     0
100
AcDbMText
 10
516.6146405229
 20
62.5329935751
 30
0.0
 40
1.5
 41
0.0
 71
     1
 72
     1
  1
DO NOT SCALE DRAWING
  7
SLDTEXTSTYLE0
 73
     1
 44
1.0
  0
MTEXT
  5
105
330
1F
100
AcDbEntity
  8
0
  6
Continuous
 62
     7
370
     0
100
AcDbMText
 10
557.3275816993
 20
62.3349086805
 30
0.0
 40
1.5
 41
0.0
 71
     1
 72
     1
  1
REVISION
  7
SLDTEXTSTYLE0
 73
     1
 44
1.0
  0
MTEXT
  5
106
330
1F
100
AcDbEntity
  8
0
  6
Continuous
 62
     7
370
     0
100
AcDbMText
 10
504.090160639
 20
46.5761792212
 30
0.0
 40
1.5
 41
0.0
 71
     1
 72
     1
  1
TITLE:
  7
SLDTEXTSTYLE0
 73
     1
 44
1.0
  0
MTEXT
  5
107
330
1F
100
AcDbEntity
  8
0
  6
Continuous
 62
     7
370
     0
100
AcDbMText
 10
503.9530022162
 20
25.9860562892
 30
0.0
 40
1.5
 41
0.0
 71
     1
 72
     1
  1
DWG NO.
  7
SLDTEXTSTYLE0
 73
     1
 44
1.0
  0
MTEXT
  5
108
330
1F
100
AcDbEntity
  8
0
  6
Continuous
 62
     7
370
     0
100
AcDbMText
 10
504.0739661175
 20
12.9000872745
 30
0.0
 40
1.5
 41
0.0
 71
     1
 72
     1
  1
SCALE:1:10
  7
SLDTEXTSTYLE0
 73
     1
 44
1.0
  0
MTEXT
  5
10A
330
1F
100
AcDbEntity
  8
0
  6
Continuous
 62
     7
370
     0
100
AcDbMText
 10
548.4782944278
 20
12.9000872745
 30
0.0
 40
1.5
 41
0.0
 71
     1
 72
     1
  1
SHEET 1 OF 1
  7
SLDTEXTSTYLE2
 73
     1
 44
1.0
  0
MTEXT
  5
10B
330
1F
100
AcDbEntity
  8
0
  6
Continuous
 62
     7
370
     0
100
AcDbMText
 10
574.8711564346
 20
24.406388569
 30
0.0
 40
2.9104166667
 41
0.0
 71
     1
 72
     1
  1
A2
  7
SLDTEXTSTYLE0
 73
     1
 44
1.0
  0
MTEXT
  5
10C
330
1F
100
AcDbEntity
  8
0
  6
Continuous
 62
     7
370
     0
100
AcDbMText
 10
459.6178111281
 20
12.9493119036
 30
0.0
 40
1.4986
 41
0.0
 71
     1
 72
     1
  1
WEIGHT:
  7
SLDTEXTSTYLE0
 73
     1
 44
1.0
  0
MTEXT
  5
10D
330
1F
100
AcDbEntity
  8
0
  6
Continuous
 62
     7
370
     0
100
AcDbMText
 10
538.884636861
 20
23.6069109673
 30
0.0
 40
6.35
 41
0.0
 71
     2
 72
     1
  1
Vulcan
  7
SLDTEXTSTYLE0
 73
     1
 44
1.0
  0
LINE
  5
10E
330
1F
100
AcDbEntity
  8
0
  6
Continuous
 62
     7
370
    15
100
AcDbLine
 10
388.6201959435
 20
245.1576068748
 30
0.0
 11
388.7775233135
 21
290.1297622864
 31
0.0
  0
LINE
  5
10F
330
1F
100
AcDbEntity
  8
0
  6
Continuous
 62
     7
370
    15
100
AcDbLine
 10
388.6775233135
 20
290.1301121192
 30
0.0
 11
388.5201959435
 21
245.1579567076
 31
0.0
  0
LINE
  5
110
330
1F
100
AcDbEntity
  8
0
  6
Continuous
 62
     7
370
    15
100
AcDbLine
 10
388.7775233135
 20
290.1297622864
 30
0.0
 11
388.6775233135
 21
290.1301121192
 31
0.0
  0
LINE
  5
111
330
1F
100
AcDbEntity
  8
0
  6
Continuous
 62
     7
370
    15
100
AcDbLine
 10
388.5201959435
 20
245.1579567076
 30
0.0
 11
388.6201959435
 21
245.1576068748
 31
0.0
  0
LINE
  5
112
330
1F
100
AcDbEntity
  8
0
  6
Continuous
 62
     7
370
    15
100
AcDbLine
 10
388.6201889234
 20
245.0556001676
 30
0.0
 11
497.4201889234
 21
245.0556001676
 31
0.0
  0
LINE
  5
113
330
1F
100
AcDbEntity
  8
0
  6
Continuous
 62
     7
370
    15
100
AcDbLine
 10
388.6201889234
 20
245.1556001676
 30
0.0
 11
497.4201889234
 21
245.1556001676
 31
0.0
  0
LINE
  5
114
330
1F
100
AcDbEntity
  8
0
  6
Continuous
 62
     7
370
    15
100
AcDbLine
 10
388.6201889234
 20
245.1556001676
 30
0.0
 11
388.6201889234
 21
245.0556001676
 31
0.0
  0
LINE
  5
115
330
1F
100
AcDbEntity
  8
0
  6
Continuous
 62
     7
370
    15
100
AcDbLine
 10
497.4201889234
 20
245.1556001676
 30
0.0
 11
497.4201889234
 21
245.0556001676
 31
0.0
  0
LINE
  5
116
330
1F
100
AcDbEntity
  8
0
  6
Continuous
 62
     7
370
    15
100
AcDbLine
 10
497.4101231779
 20
290.1297622864
 30
0.0
 11
497.4201886935
 21
245.1566264535
 31
0.0
  0
LINE
  5
117
330
1F
100
AcDbEntity
  8
0
  6
Continuous
 62
     7
370
    15
100
AcDbLine
 10
497.5101231779
 20
290.1297846676
 30
0.0
 11
497.4101231779
 21
290.1297622864
 31
0.0
  0
LINE
  5
118
330
1F
100
AcDbEntity
  8
0
  6
Continuous
 62
     7
370
    15
100
AcDbLine
 10
497.5201886935
 20
245.1566488347
 30
0.0
 11
497.5101231779
 21
290.1297846676
 31
0.0
  0
LINE
  5
119
330
1F
100
AcDbEntity
  8
0
  6
Continuous
 62
     7
370
    15
100
AcDbLine
 10
497.4201886935
 20
245.1566264535
 30
0.0
 11
497.5201886935
 21
245.1566488347
 31
0.0
  0
LINE
  5
11A
330
1F
100
AcDbEntity
  8
0
  6
Continuous
 62
     7
370
    15
100
AcDbLine
 10
388.6201889239
 20
245.1556001676
 30
0.0
 11
388.6182595159
 21
245.1576136491
 31
0.0
  0
LINE
  5
11B
330
1F
100
AcDbEntity
  8
0
  6
Continuous
 62
     7
370
    15
100
AcDbLine
 10
388.6201889234
 20
245.1556001676
 30
0.0
 11
388.6201959435
 21
245.1576068748
 31
0.0
  0
LINE
  5
11C
330
1F
100
AcDbEntity
  8
0
  6
Continuous
 62
     7
370
    15
100
AcDbLine
 10
388.6201889236
 20
245.1556001678
 30
0.0
 11
435.554090892
 21
290.1297622864
 31
0.0
  0
LINE
  5
11D
330
1F
100
AcDbEntity
  8
0
  6
Continuous
 62
     7
370
    15
100
AcDbLine
 10
388.7775233135
 20
290.1297622864
 30
0.0
 11
435.554090892
 21
290.1297622864
 31
0.0
  0
ARC
  5
11E
330
1F
100
AcDbEntity
  8
0
  6
Continuous
 62
     7
370
    15
100
AcDbCircle
 10
388.7185235655
 20
245.2478584974
 30
0.0
 40
0.1840650612040266
100
AcDbArc
 50
225.9611506777
 51
237.707717007
  0
ELLIPSE
  5
11F
330
1F
100
AcDbEntity
  8
0
  6
Continuous
 62
     7
370
    15
100
AcDbEllipse
 10
389.3291208693
 20
244.8959486702
 30
0.0
 11
-0.9011135605188657
 21
1.287506861898862
 31
0.0
210
0.0
220
0.0
230
1.0
 40
0.3302121731
 41
1.144207558871596
 42
1.176722155200414
  0
LINE
  5
120
330
1F
100
AcDbEntity
  8
0
  6
Continuous
 62
     7
370
    15
100
AcDbLine
 10
497.4198006427
 20
245.1559722354
 30
0.0
 11
497.4201889234
 21
245.1556001676
 31
0.0
  0
LINE
  5
121
330
1F
100
AcDbEntity
  8
0
  6
Continuous
 62
     7
370
    15
100
AcDbLine
 10
435.554090892
 20
290.1297622864
 30
0.0
 11
435.6201889234
 21
290.1297622864
 31
0.0
  0
LINE
  5
122
330
1F
100
AcDbEntity
  8
0
  6
Continuous
 62
     7
370
    15
100
AcDbLine
 10
435.6201889234
 20
290.1297622864
 30
0.0
 11
435.6201889234
 21
290.1931003736
 31
0.0
  0
LINE
  5
123
330
1F
100
AcDbEntity
  8
0
  6
Continuous
 62
     7
370
    15
100
AcDbLine
 10
435.6201889234
 20
290.1931003736
 30
0.0
 11
450.4201889234
 21
290.1931003736
 31
0.0
  0
LINE
  5
124
330
1F
100
AcDbEntity
  8
0
  6
Continuous
 62
     7
370
    15
100
AcDbLine
 10
450.4201889234
 20
290.1297622864
 30
0.0
 11
450.4201889234
 21
290.1931003736
 31
0.0
  0
LINE
  5
125
330
1F
100
AcDbEntity
  8
0
  6
Continuous
 62
     7
370
    15
100
AcDbLine
 10
450.4862869547
 20
290.1297622864
 30
0.0
 11
450.4201889234
 21
290.1297622864
 31
0.0
  0
LINE
  5
126
330
1F
100
AcDbEntity
  8
0
  6
Continuous
 62
     7
370
    15
100
AcDbLine
 10
450.4862869547
 20
290.1297622864
 30
0.0
 11
497.4198006427
 21
245.1559722354
 31
0.0
  0
LINE
  5
127
330
1F
100
AcDbEntity
  8
0
  6
Continuous
 62
     7
370
    15
100
AcDbLine
 10
497.4198006427
 20
245.1559722354
 30
0.0
 11
497.4696921051
 21
245.1559834017
 31
0.0
  0
ELLIPSE
  5
128
330
1F
100
AcDbEntity
  8
0
  6
Continuous
 62
     7
370
    15
100
AcDbEllipse
 10
496.7109589168
 20
245.3027869002
 30
0.0
 11
0.9746207157991194
 21
-0.682613857867068
 31
0.0
210
0.0
220
0.0
230
1.0
 40
0.3288170573
 41
0.9354349845377498
 42
0.9359380460574963
  0
LINE
  5
129
330
1F
100
AcDbEntity
  8
0
  6
Continuous
 62
     7
370
    15
100
AcDbLine
 10
497.4201889232
 20
245.1556001678
 30
0.0
 11
497.4700198066
 21
245.1556113205
 31
0.0
  0
ELLIPSE
  5
12A
330
1F
100
AcDbEntity
  8
0
  6
Continuous
 62
     7
370
    15
100
AcDbEllipse
 10
496.7110498588
 20
244.8964542624
 30
0.0
 11
0.9049943229491648
 21
1.292130543003055
 31
0.0
210
0.0
220
0.0
230
1.0
 40
0.3288170573
 41
5.104533708178991
 42
5.135458000633349
  0
ARC
  5
12B
330
1F
100
AcDbEntity
  8
0
  6
Continuous
 62
     7
370
    15
100
AcDbCircle
 10
497.3219680287
 20
245.2477029931
 30
0.0
 40
0.1838728403473715
100
AcDbArc
 50
302.2882077578
 51
313.9302078786
  0
LINE
  5
12C
330
1F
100
AcDbEntity
  8
0
  6
Continuous
 62
     7
370
    15
100
AcDbLine
 10
497.4201886935
 20
245.1566264535
 30
0.0
 11
497.4198006427
 21
245.1559722354
 31
0.0
  0
LINE
  5
12D
330
1F
100
AcDbEntity
  8
0
  6
Continuous
 62
     7
370
    15
100
AcDbLine
 10
497.4101231779
 20
290.1297622864
 30
0.0
 11
450.4862869547
 21
290.1297622864
 31
0.0
  0
LINE
  5
12E
330
1F
100
AcDbEntity
  8
0
  6
Continuous
 62
     7
370
    15
100
AcDbLine
 10
435.6201889234
 20
300.7931003736
 30
0.0
 11
450.4201889234
 21
300.7931003736
 31
0.0
  0
LINE
  5
12F
330
1F
100
AcDbEntity
  8
0
  6
Continuous
 62
     7
370
    15
100
AcDbLine
 10
435.6201889234
 20
300.7931003736
 30
0.0
 11
435.6201889234
 21
290.1931003736
 31
0.0
  0
LINE
  5
130
330
1F
100
AcDbEntity
  8
0
  6
Continuous
 62
     7
370
    15
100
AcDbLine
 10
450.4201889234
 20
300.7931003736
 30
0.0
 11
450.4201889234
 21
290.1931003736
 31
0.0
  0
DIMENSION
  5
131
330
1F
100
AcDbEntity
  8
0
  6
Continuous
 62
     7
370
     0
100
AcDbDimension
  2
_D
 10
497.4201889234
 20
235.0555976676
 30
0.0
 11
451.2803985056
 21
235.0555976676
 31
0.0
 70
   160
  1
<>
 71
     2
 42
-1.0
  3
SLDDIMSTYLE0
100
AcDbAlignedDimension
 13
388.6201889234
 23
245.0556001676
 33
0.0
 14
497.4201889234
 24
245.0556001676
 34
0.0
100
AcDbRotatedDimension
  0
DIMENSION
  5
13C
330
1F
100
AcDbEntity
  8
0
  6
Continuous
 62
     7
370
     0
100
AcDbDimension
  2
_D_1
 10
508.523999208
 20
245.1591116166
 30
0.0
 11
508.5201886935
 21
262.1846465419
 31
0.0
 70
   160
  1
<>
 71
     2
 42
-1.0
  3
SLDDIMSTYLE0
100
AcDbAlignedDimension
 13
497.5101231779
 23
290.1297846676
 33
0.0
 14
497.5201886935
 24
245.1566488347
 34
0.0
 50
-89.9871765324
100
AcDbRotatedDimension
  0
DIMENSION
  5
146
330
1F
100
AcDbEntity
  8
0
  6
Continuous
 62
     7
370
     0
100
AcDbDimension
  2
_D_2
 10
377.6034401201
 20
290.1688528993
 30
0.0
 11
377.5201959435
 21
266.3734379743
 31
0.0
 70
   160
  1
<>
 71
     2
 42
-1.0
  3
SLDDIMSTYLE0
100
AcDbAlignedDimension
 13
388.6201889234
 23
245.1556001676
 33
0.0
 14
388.6775233135
 24
290.1301121192
 34
0.0
 50
89.7995613631
100
AcDbRotatedDimension
  0
DIMENSION
  5
150
330
1F
100
AcDbEntity
  8
0
  6
Continuous
 62
     7
370
     0
100
AcDbDimension
  2
_D_3
 10
450.4201889234
 20
310.7931028736
 30
0.0
 11
442.7150933119
 21
310.7931028736
 31
0.0
 70
   160
  1
<>
 71
     2
 42
-1.0
  3
SLDDIMSTYLE1
100
AcDbAlignedDimension
 13
435.6201889234
 23
300.7931003736
 33
0.0
 14
450.4201889234
 24
300.7931003736
 34
0.0
100
AcDbRotatedDimension
  0
DIMENSION
  5
15D
330
1F
100
AcDbEntity
  8
0
  6
Continuous
 62
     7
370
     0
100
AcDbDimension
  2
_D_4
 10
388.6201889234
 20
245.1556001676
 30
0.0
 11
401.5497326458
 21
269.843738973
 31
0.0
 70
   162
  1
<>
 71
     1
 42
-1.0
  3
SLDDIMSTYLE2
100
AcDb2LineAngularDimension
 13
388.7775233135
 23
290.1297622864
 33
0.0
 14
388.6201889234
 24
245.1556001676
 34
0.0
 15
497.4201889234
 25
245.1556001676
 35
0.0
 16
408.3609380757
 26
264.8274104921
 36
0.0
  0
DIMENSION
  5
166
330
1F
100
AcDbEntity
  8
0
  6
Continuous
 62
     7
370
     0
100
AcDbDimension
  2
_D_5
 10
388.6201889234
 20
245.1556001676
 30
0.0
 11
469.9504666276
 21
260.3558952271
 31
0.0
 70
   162
  1
<>
 71
     1
 42
-1.0
  3
SLDDIMSTYLE3
100
AcDb2LineAngularDimension
 13
497.5101231779
 23
290.1297846676
 33
0.0
 14
497.5201886935
 24
245.1566488347
 34
0.0
 15
497.4201889234
 25
245.1556001676
 35
0.0
 16
475.256312513
 26
267.4144942235
 36
0.0
  0
DIMENSION
  5
16F
330
1F
100
AcDbEntity
  8
0
  6
Continuous
 62
     7
370
     0
100
AcDbDimension
  2
_D_6
 10
421.9474131533
 20
290.1297622864
 30
0.0
 11
421.9474131533
 21
301.84708995
 31
0.0
 70
   160
  1
<>
 71
     2
 42
-1.0
  3
SLDDIMSTYLE0
100
AcDbAlignedDimension
 13
435.6201889234
 23
300.7931003736
 33
0.0
 14
435.6201889234
 24
290.1297622864
 34
0.0
 50
90.0
100
AcDbRotatedDimension
  0
LINE
  5
17A
330
1F
100
AcDbEntity
  8
0
  6
Continuous
 62
     7
370
    15
100
AcDbLine
 10
450.4201889234
 20
367.0251835915
 30
0.0
 11
435.6201889234
 21
367.0251835915
 31
0.0
  0
LINE
  5
17B
330
1F
100
AcDbEntity
  8
0
  6
Continuous
 62
     7
370
    15
100
AcDbLine
 10
435.6201889234
 20
367.0251835915
 30
0.0
 11
435.6201889234
 21
366.9251835915
 31
0.0
  0
LINE
  5
17C
330
1F
100
AcDbEntity
  8
0
  6
Continuous
 62
     7
370
    15
100
AcDbLine
 10
450.4201889234
 20
366.9251835915
 30
0.0
 11
450.4201889234
 21
367.0251835915
 31
0.0
  0
LINE
  5
17D
330
1F
100
AcDbEntity
  8
0
  6
Continuous
 62
     7
370
    15
100
AcDbLine
 10
435.6201889234
 20
366.9251835915
 30
0.0
 11
450.4201889234
 21
366.9251835915
 31
0.0
  0
LINE
  5
17E
330
1F
100
AcDbEntity
  8
0
  6
Continuous
 62
     7
370
    15
100
AcDbLine
 10
497.4101231779
 20
330.0624168046
 30
0.0
 11
388.7775233135
 21
330.0624168046
 31
0.0
  0
LINE
  5
17F
330
1F
100
AcDbEntity
  8
0
  6
Continuous
 62
     7
370
    15
100
AcDbLine
 10
435.554090892
 20
366.8733419678
 30
0.0
 11
435.6201889234
 21
366.8733419678
 31
0.0
  0
LINE
  5
180
330
1F
100
AcDbEntity
  8
0
  6
Continuous
 62
     7
370
    15
100
AcDbLine
 10
450.4862869547
 20
366.8733419678
 30
0.0
 11
450.4201889234
 21
366.8733419678
 31
0.0
  0
LINE
  5
181
330
1F
100
AcDbEntity
  8
0
  6
Continuous
 62
     7
370
    15
100
AcDbLine
 10
435.6201889234
 20
366.8733419678
 30
0.0
 11
435.6201889234
 21
366.9251835915
 31
0.0
  0
LINE
  5
182
330
1F
100
AcDbEntity
  8
0
  6
Continuous
 62
     7
370
    15
100
AcDbLine
 10
450.4201889234
 20
366.8733419678
 30
0.0
 11
450.4201889234
 21
366.9251835915
 31
0.0
  0
LINE
  5
183
330
1F
100
AcDbEntity
  8
0
  6
Continuous
 62
     7
370
    15
100
AcDbLine
 10
388.6775233135
 20
328.0624168046
 30
0.0
 11
388.6775233135
 21
330.0624168046
 31
0.0
  0
LINE
  5
184
330
1F
100
AcDbEntity
  8
0
  6
Continuous
 62
     7
370
    15
100
AcDbLine
 10
388.6775233135
 20
328.0624168046
 30
0.0
 11
388.5201959435
 21
328.0624168046
 31
0.0
  0
LINE
  5
185
330
1F
100
AcDbEntity
  8
0
  6
Continuous
 62
     7
370
    15
100
AcDbLine
 10
388.5201959435
 20
328.0624168046
 30
0.0
 11
388.5201959435
 21
330.0624168046
 31
0.0
  0
LINE
  5
186
330
1F
100
AcDbEntity
  8
0
  6
Continuous
 62
     7
370
    15
100
AcDbLine
 10
388.5205514528
 20
330.0624168046
 30
0.0
 11
388.5201959435
 21
330.0624168046
 31
0.0
  0
LINE
  5
187
330
1F
100
AcDbEntity
  8
0
  6
Continuous
 62
     7
370
    15
100
AcDbLine
 10
388.6775220896
 20
330.0624168046
 30
0.0
 11
388.5205514528
 21
330.0624168046
 31
0.0
  0
LINE
  5
188
330
1F
100
AcDbEntity
  8
0
  6
Continuous
 62
     7
370
    15
100
AcDbLine
 10
388.7775233135
 20
328.0624168046
 30
0.0
 11
388.7775233135
 21
330.0624168046
 31
0.0
  0
LINE
  5
189
330
1F
100
AcDbEntity
  8
0
  6
Continuous
 62
     7
370
    15
100
AcDbLine
 10
388.7775233135
 20
328.0624168046
 30
0.0
 11
388.6775233135
 21
328.0624168046
 31
0.0
  0
LINE
  5
18A
330
1F
100
AcDbEntity
  8
0
  6
Continuous
 62
     7
370
    15
100
AcDbLine
 10
388.7775233135
 20
330.0624168046
 30
0.0
 11
388.6775233135
 21
330.0624168046
 31
0.0
  0
LINE
  5
18B
330
1F
100
AcDbEntity
  8
0
  6
Continuous
 62
     7
370
    15
100
AcDbLine
 10
497.5201886935
 20
328.0624168048
 30
0.0
 11
497.5201886935
 21
330.0624168048
 31
0.0
  0
LINE
  5
18C
330
1F
100
AcDbEntity
  8
0
  6
Continuous
 62
     7
370
    15
100
AcDbLine
 10
497.5201886935
 20
328.0624168048
 30
0.0
 11
497.5101231779
 21
328.0624168048
 31
0.0
  0
LINE
  5
18D
330
1F
100
AcDbEntity
  8
0
  6
Continuous
 62
     7
370
    15
100
AcDbLine
 10
497.5101231779
 20
328.0624168048
 30
0.0
 11
497.5101231779
 21
330.0624168048
 31
0.0
  0
LINE
  5
18E
330
1F
100
AcDbEntity
  8
0
  6
Continuous
 62
     7
370
    15
100
AcDbLine
 10
497.5201653475
 20
330.0624168048
 30
0.0
 11
497.5101231829
 21
330.0624168048
 31
0.0
  0
LINE
  5
18F
330
1F
100
AcDbEntity
  8
0
  6
Continuous
 62
     7
370
    15
100
AcDbLine
 10
497.5201886935
 20
330.0624168048
 30
0.0
 11
497.5201653475
 21
330.0624168048
 31
0.0
  0
LINE
  5
190
330
1F
100
AcDbEntity
  8
0
  6
Continuous
 62
     7
370
    15
100
AcDbLine
 10
497.5101231779
 20
328.0624168048
 30
0.0
 11
497.4101231779
 21
328.0624168048
 31
0.0
  0
LINE
  5
191
330
1F
100
AcDbEntity
  8
0
  6
Continuous
 62
     7
370
    15
100
AcDbLine
 10
497.4101231779
 20
328.0624168048
 30
0.0
 11
497.4101231779
 21
330.0624168048
 31
0.0
  0
LINE
  5
192
330
1F
100
AcDbEntity
  8
0
  6
Continuous
 62
     7
370
    15
100
AcDbLine
 10
497.5101231779
 20
330.0624168048
 30
0.0
 11
497.4101231779
 21
330.0624168048
 31
0.0
  0
ELLIPSE
  5
193
330
1F
100
AcDbEntity
  8
0
  6
Continuous
 62
     7
370
    15
100
AcDbEllipse
 10
435.554090892
 20
366.8733419678
 30
0.0
 11
-0.1306976041709049
 21
-0.1025079851523856
 31
0.0
210
0.0
220
0.0
230
1.0
 40
0.6020410596
 41
3.796264131980327
 42
4.71509848372131
  0
LINE
  5
194
330
1F
100
AcDbEntity
  8
0
  6
Continuous
 62
     7
370
    15
100
AcDbLine
 10
388.7775233135
 20
330.0624168046
 30
0.0
 11
435.554090892
 21
366.8733419678
 31
0.0
  0
ELLIPSE
  5
195
330
1F
100
AcDbEntity
  8
0
  6
Continuous
 62
     7
370
    15
100
AcDbEllipse
 10
389.4873636056
 20
329.4757612453
 30
0.0
 11
1.000006119132195
 21
0.0
 31
0.0
210
0.0
220
0.0
230
1.0
 40
0.9999938809
 41
2.237533507578647
 42
2.514669792993653
  0
LINE
  5
196
330
1F
100
AcDbEntity
  8
0
  6
Continuous
 62
     7
370
    15
100
AcDbLine
 10
435.4920229774
 20
366.9517492577
 30
0.0
 11
388.8689346037
 21
330.2616049003
 31
0.0
  0
LINE
  5
197
330
1F
100
AcDbEntity
  8
0
  6
Continuous
 62
     7
370
    15
100
AcDbLine
 10
435.4920229774
 20
366.9517492577
 30
0.0
 11
388.7121164455
 21
330.2616049003
 31
0.0
  0
SPLINE
  5
198
330
1F
100
AcDbEntity
  8
0
  6
Continuous
 62
     7
370
    15
100
AcDbSpline
210
0.0
220
0.0
230
1.0
 70
     8
 71
     3
 72
     8
 73
     4
 74
     0
 42
0.000000001
 43
0.00000001
 40
0.0
 40
0.0
 40
0.0
 40
0.0
 40
1.0
 40
1.0
 40
1.0
 40
1.0
 10
388.5905714821851
 20
330.1491231029238
 30
0.0
 10
388.6285809127381
 20
330.1906180175161
 30
0.0
 10
388.66898820213
 20
330.2278382630312
 30
0.0
 10
388.7121164455169
 20
330.2616049002962
 30
0.0
  0
ELLIPSE
  5
199
330
1F
100
AcDbEntity
  8
0
  6
Continuous
 62
     7
370
    15
100
AcDbEllipse
 10
450.4862869547
 20
366.8733419678
 30
0.0
 11
0.1306976041709618
 21
-0.1025079851523856
 31
0.0
210
0.0
220
0.0
230
1.0
 40
0.6020410596
 41
1.570623317922191
 42
2.486921175218733
  0
SPLINE
  5
19A
330
1F
100
AcDbEntity
  8
0
  6
Continuous
 62
     7
370
    15
100
AcDbSpline
210
0.0
220
0.0
230
1.0
 70
     8
 71
     3
 72
     8
 73
     4
 74
     0
 42
0.000000001
 43
0.00000001
 40
0.0
 40
0.0
 40
0.0
 40
0.0
 40
1.0
 40
1.0
 40
1.0
 40
1.0
 10
497.4495356267994
 20
330.1490948961483
 30
0.0
 10
497.4115928299792
 20
330.190642259213
 30
0.0
 10
497.3712508493586
 20
330.227891935744
 30
0.0
 10
497.3281810249895
 20
330.2616684050944
 30
0.0
  0
LINE
  5
19B
330
1F
100
AcDbEntity
  8
0
  6
Continuous
 62
     7
370
    15
100
AcDbLine
 10
450.5480235816
 20
366.9520095559
 30
0.0
 11
497.328181025
 21
330.2616684051
 31
0.0
  0
LINE
  5
19C
330
1F
100
AcDbEntity
  8
0
  6
Continuous
 62
     7
370
    15
100
AcDbLine
 10
497.4101231779
 20
330.0624168048
 30
0.0
 11
450.4862869547
 21
366.8733419678
 31
0.0
  0
LINE
  5
19D
330
1F
100
AcDbEntity
  8
0
  6
Continuous
 62
     7
370
    15
100
AcDbLine
 10
450.5480235816
 20
366.9520095559
 30
0.0
 11
497.3181482528
 21
330.2616684051
 31
0.0
  0
ARC
  5
19E
330
1F
100
AcDbEntity
  8
0
  6
Continuous
 62
     7
370
    15
100
AcDbCircle
 10
496.7009261137
 20
329.4748794562
 30
0.0
 40
1.000000016401466
100
AcDbArc
 50
35.9824443639
 51
51.8864375194
  0
LINE
  5
19F
330
1F
100
AcDbEntity
  8
0
  6
Continuous
 62
     7
370
    15
100
AcDbLine
 10
388.7121164455
 20
330.2616049003
 30
0.0
 11
388.8689346037
 21
330.2616049003
 31
0.0
  0
ELLIPSE
  5
1A0
330
1F
100
AcDbEntity
  8
0
  6
Continuous
 62
     7
370
    15
100
AcDbEllipse
 10
389.3291208693
 20
329.4757612453
 30
0.0
 11
-0.3276779309208564
 21
0.9453126987855853
 31
0.0
210
0.0
220
0.0
230
1.0
 40
0.9953842489
 41
0.4998052895441402
 42
0.6116291262385792
  0
LINE
  5
1A1
330
1F
100
AcDbEntity
  8
0
  6
Continuous
 62
     7
370
    15
100
AcDbLine
 10
497.3181482528
 20
330.2616684051
 30
0.0
 11
497.328181025
 21
330.2616684051
 31
0.0
  0
ELLIPSE
  5
1A2
330
1F
100
AcDbEntity
  8
0
  6
Continuous
 62
     7
370
    15
100
AcDbEllipse
 10
496.7110498588
 20
329.4748794562
 30
0.0
 11
0.3265340072971981
 21
0.9452189223118239
 31
0.0
210
0.0
220
0.0
230
1.0
 40
0.9997032651
 41
5.753898286783591
 42
5.784822579237962
  0
ELLIPSE
  5
1A3
330
1F
100
AcDbEntity
  8
0
  6
Continuous
 62
     7
370
    15
100
AcDbEllipse
 10
496.7109589168
 20
329.4748794562
 30
0.0
 11
0.9453315545596297
 21
-0.3265729170754526
 31
0.0
210
0.0
220
0.0
230
1.0
 40
0.9998312297
 41
1.041652984437089
 42
1.042156045956816
  0
ELLIPSE
  5
1A4
330
1F
100
AcDbEntity
  8
0
  6
Continuous
 62
     7
370
    15
100
AcDbEllipse
 10
496.7110496291
 20
329.4748794562
 30
0.0
 11
0.3265340072970844
 21
0.9452189223118808
 31
0.0
210
0.0
220
0.0
230
1.0
 40
0.9997032651
 41
5.672932851606683
 42
5.754401348303181
  0
LINE
  5
1A5
330
1F
100
AcDbEntity
  8
0
  6
Continuous
 62
     7
370
    15
100
AcDbLine
 10
388.7775233135
 20
328.0624168046
 30
0.0
 11
497.4101231779
 21
328.0624168046
 31
0.0
  0
LINE
  5
1A6
330
1F
100
AcDbEntity
  8
0
  6
Continuous
 62
     7
370
    15
100
AcDbLine
 10
533.8031944748
 20
245.1566264535
 30
0.0
 11
535.8031944748
 21
245.1566264535
 31
0.0
  0
LINE
  5
1A7
330
1F
100
AcDbEntity
  8
0
  6
Continuous
 62
     7
370
    15
100
AcDbLine
 10
533.8031944748
 20
245.1566264535
 30
0.0
 11
533.8031944748
 21
245.1566488347
 31
0.0
  0
LINE
  5
1A8
330
1F
100
AcDbEntity
  8
0
  6
Continuous
 62
     7
370
    15
100
AcDbLine
 10
533.8031944748
 20
245.1566488347
 30
0.0
 11
535.8031944748
 21
245.1566488347
 31
0.0
  0
LINE
  5
1A9
330
1F
100
AcDbEntity
  8
0
  6
Continuous
 62
     7
370
    15
100
AcDbLine
 10
535.8031944748
 20
245.1566264535
 30
0.0
 11
535.8031944748
 21
245.1566488347
 31
0.0
  0
LINE
  5
1AA
330
1F
100
AcDbEntity
  8
0
  6
Continuous
 62
     7
370
    15
100
AcDbLine
 10
533.8031944748
 20
290.1297846676
 30
0.0
 11
535.8031944748
 21
290.1297846676
 31
0.0
  0
LINE
  5
1AB
330
1F
100
AcDbEntity
  8
0
  6
Continuous
 62
     7
370
    15
100
AcDbLine
 10
535.8031944748
 20
290.1297622864
 30
0.0
 11
535.8031944748
 21
290.1297846676
 31
0.0
  0
LINE
  5
1AC
330
1F
100
AcDbEntity
  8
0
  6
Continuous
 62
     7
370
    15
100
AcDbLine
 10
535.8031944748
 20
245.2609595697
 30
0.0
 11
535.8031944748
 21
290.1297622864
 31
0.0
  0
LINE
  5
1AD
330
1F
100
AcDbEntity
  8
0
  6
Continuous
 62
     7
370
    15
100
AcDbLine
 10
535.8031944748
 20
245.1566488347
 30
0.0
 11
535.8031944748
 21
245.2609595697
 31
0.0
  0
LINE
  5
1AE
330
1F
100
AcDbEntity
  8
0
  6
Continuous
 62
     7
370
    15
100
AcDbLine
 10
533.8031944748
 20
245.1566488347
 30
0.0
 11
533.8031944748
 21
290.1297846676
 31
0.0
  0
LINE
  5
1AF
330
1F
100
AcDbEntity
  8
0
  6
Continuous
 62
     7
370
    15
100
AcDbLine
 10
535.8031944748
 20
245.1566264535
 30
0.0
 11
535.8034990086
 21
245.1559722354
 31
0.0
  0
ELLIPSE
  5
1B0
330
1F
100
AcDbEntity
  8
0
  6
Continuous
 62
     7
370
    15
100
AcDbEllipse
 10
535.2156571262
 20
244.8974805482
 30
0.0
 11
-0.8130684806002363
 21
1.272727501325846
 31
0.0
210
0.0
220
0.0
230
1.0
 40
0.4574176764
 41
4.624301009248601
 42
4.705769505945117
  0
LINE
  5
1B1
330
1F
100
AcDbEntity
  8
0
  6
Continuous
 62
     7
370
    15
100
AcDbLine
 10
535.8034990086
 20
245.1559722354
 30
0.0
 11
535.8670969432
 21
245.1559834017
 31
0.0
  0
ELLIPSE
  5
1B2
330
1F
100
AcDbEntity
  8
0
  6
Continuous
 62
     7
370
    15
100
AcDbEllipse
 10
535.2156571262
 20
244.8964542624
 30
0.0
 11
-0.8130684806000088
 21
1.272727501326443
 31
0.0
210
0.0
220
0.0
230
1.0
 40
0.4574176764
 41
4.593879778314449
 42
4.624804070768766
  0
ELLIPSE
  5
1B3
330
1F
100
AcDbEntity
  8
0
  6
Continuous
 62
     7
370
    15
100
AcDbEllipse
 10
535.2156571262
 20
245.3027869002
 30
0.0
 11
0.9598872474001608
 21
0.6132137986946873
 31
0.0
210
0.0
220
0.0
230
1.0
 40
0.4572406749
 41
5.137170035057625
 42
5.137673096577365
  0
LINE
  5
1B4
330
1F
100
AcDbEntity
  8
0
  6
Continuous
 62
     7
370
    15
100
AcDbLine
 10
535.8031944748
 20
290.1297622864
 30
0.0
 11
536.0024460751
 21
290.1297622864
 31
0.0
  0
LINE
  5
1B5
330
1F
100
AcDbEntity
  8
0
  6
Continuous
 62
     7
370
    15
100
AcDbLine
 10
536.0024460751
 20
290.1297622864
 30
0.0
 11
536.0024460751
 21
245.3029250418
 31
0.0
  0
SPLINE
  5
1B6
330
1F
100
AcDbEntity
  8
0
  6
Continuous
 62
     7
370
    15
100
AcDbSpline
210
0.0
220
0.0
230
1.0
 70
     8
 71
     3
 72
     8
 73
     4
 74
     0
 42
0.000000001
 43
0.00000001
 40
0.0
 40
0.0
 40
0.0
 40
0.0
 40
1.0
 40
1.0
 40
1.0
 40
1.0
 10
535.88987256613
 20
245.115280452221
 30
0.0
 10
535.9314199291947
 20
245.1769810392809
 30
0.0
 10
535.9686696057256
 20
245.2399825188268
 30
0.0
 10
536.002446075076
 20
245.3029250417964
 30
0.0
  0
LINE
  5
1B7
330
1F
100
AcDbEntity
  8
0
  6
Continuous
 62
     7
370
    15
100
AcDbLine
 10
535.8034990086
 20
245.1559722354
 30
0.0
 11
535.8031944746
 21
245.1556001676
 31
0.0
  0
LINE
  5
1B8
330
1F
100
AcDbEntity
  8
0
  6
Continuous
 62
     7
370
    15
100
AcDbLine
 10
535.8031944748
 20
245.1556001678
 30
0.0
 11
535.8667151878
 21
245.1556113205
 31
0.0
  0
LINE
  5
1B9
330
1F
100
AcDbEntity
  8
0
  6
Continuous
 62
     7
370
    15
100
AcDbLine
 10
535.8805784956
 20
245.0922620803
 30
0.0
 11
535.8031944746
 21
245.1556001676
 31
0.0
  0
ARC
  5
1BA
330
1F
100
AcDbEntity
  8
0
  6
Continuous
 62
     7
370
    15
100
AcDbCircle
 10
535.8466263265
 20
245.1193563706
 30
0.0
 40
0.043437890745825
100
AcDbArc
 50
321.4096595292
 51
354.6158301013
  0
LINE
  5
1BB
330
1F
100
AcDbEntity
  8
0
  6
Continuous
 62
     7
370
    15
100
AcDbLine
 10
572.7433452825
 20
290.1297622864
 30
0.0
 11
535.8805784956
 21
245.0922620803
 31
0.0
  0
LINE
  5
1BC
330
1F
100
AcDbEntity
  8
0
  6
Continuous
 62
     7
370
    15
100
AcDbLine
 10
572.6927872259
 20
290.1297622864
 30
0.0
 11
536.0024460751
 21
245.3029250418
 31
0.0
  0
LINE
  5
1BD
330
1F
100
AcDbEntity
  8
0
  6
Continuous
 62
     7
370
    15
100
AcDbLine
 10
572.7433452825
 20
290.1297622864
 30
0.0
 11
572.6927872259
 21
290.1297622864
 31
0.0
  0
LINE
  5
1BE
330
1F
100
AcDbEntity
  8
0
  6
Continuous
 62
     7
370
    15
100
AcDbLine
 10
533.8031944746
 20
245.0556001676
 30
0.0
 11
535.8031944746
 21
245.0556001676
 31
0.0
  0
LINE
  5
1BF
330
1F
100
AcDbEntity
  8
0
  6
Continuous
 62
     7
370
    15
100
AcDbLine
 10
533.8031944746
 20
245.1556001676
 30
0.0
 11
533.8031944746
 21
245.0556001676
 31
0.0
  0
LINE
  5
1C0
330
1F
100
AcDbEntity
  8
0
  6
Continuous
 62
     7
370
    15
100
AcDbLine
 10
533.8031944746
 20
245.1556001676
 30
0.0
 11
535.8031944748
 21
245.1556001676
 31
0.0
  0
ARC
  5
1C1
330
1F
100
AcDbEntity
  8
0
  6
Continuous
 62
     7
370
    15
100
AcDbCircle
 10
535.8031944746
 20
245.1556001676
 30
0.0
 40
0.0999999999999943
100
AcDbArc
 50
270.0
 51
320.7
  0
LINE
  5
1C2
330
1F
100
AcDbEntity
  8
0
  6
Continuous
 62
     7
370
    15
100
AcDbLine
 10
572.6927872259
 20
290.1297622864
 30
0.0
 11
536.0024460751
 21
290.1297622864
 31
0.0
  0
LINE
  5
1C3
330
1F
100
AcDbEntity
  8
0
  6
Continuous
 62
     7
370
    15
100
AcDbLine
 10
572.6659612615
 20
300.7931003736
 30
0.0
 11
572.7659612615
 21
300.7931003736
 31
0.0
  0
LINE
  5
1C4
330
1F
100
AcDbEntity
  8
0
  6
Continuous
 62
     7
370
    15
100
AcDbLine
 10
572.7659612615
 20
300.7931003736
 30
0.0
 11
572.7659612615
 21
290.1931003736
 31
0.0
  0
ARC
  5
1C5
330
1F
100
AcDbEntity
  8
0
  6
Continuous
 62
     7
370
    15
100
AcDbCircle
 10
572.6659612615
 20
290.1931003736
 30
0.0
 40
0.1000000000000999
100
AcDbArc
 50
320.7
 51
0.0
  0
LINE
  5
1C6
330
1F
100
AcDbEntity
  8
0
  6
Continuous
 62
     7
370
    15
100
AcDbLine
 10
572.6659612615
 20
300.7931003736
 30
0.0
 11
572.6659612615
 21
290.1931003736
 31
0.0
  0
LINE
  5
1C7
330
1F
100
AcDbEntity
  8
0
  6
Continuous
 62
     7
370
    15
100
AcDbLine
 10
572.6141196378
 20
290.1297622864
 30
0.0
 11
572.6659612615
 21
290.1931003736
 31
0.0
  0
LINE
  5
1C8
330
1F
100
AcDbEntity
  8
0
  6
Continuous
 62
     7
370
    15
100
AcDbLine
 10
535.8031944746
 20
245.1556001676
 30
0.0
 11
535.8031944746
 21
245.1566264539
 31
0.0
  0
LINE
  5
1C9
330
1F
100
AcDbEntity
  8
0
  6
Continuous
 62
     7
370
    15
100
AcDbLine
 10
533.8031944746
 20
290.1301121192
 30
0.0
 11
535.8031944746
 21
290.1301121192
 31
0.0
  0
LINE
  5
1CA
330
1F
100
AcDbEntity
  8
0
  6
Continuous
 62
     7
370
    15
100
AcDbLine
 10
535.8031944746
 20
290.1297846676
 30
0.0
 11
535.8031944746
 21
290.1301121192
 31
0.0
  0
LINE
  5
1CB
330
1F
100
AcDbEntity
  8
0
  6
Continuous
 62
     7
370
    15
100
AcDbLine
 10
533.8031944746
 20
290.1297846676
 30
0.0
 11
533.8031944746
 21
290.1301121192
 31
0.0
  0
LINE
  5
1CC
330
1F
100
AcDbEntity
  8
0
  6
Continuous
 62
     7
370
    15
100
AcDbLine
 10
573.8240471813
 20
307.9670851334
 30
0.0
 11
573.8169313853
 21
344.6853473039
 31
0.0
  0
LINE
  5
1CD
330
1F
100
AcDbEntity
  8
0
  6
Continuous
 62
     7
370
    15
100
AcDbLine
 10
572.3196475134
 20
343.819212633
 30
0.0
 11
572.3267649077
 21
307.0927030028
 31
0.0
  0
LINE
  5
1CE
330
1F
100
AcDbEntity
  8
0
  6
Continuous
 62
     7
370
    15
100
AcDbLine
 10
572.3903581915
 20
343.7784105026
 30
0.0
 11
572.3196475134
 21
343.819212633
 31
0.0
  0
LINE
  5
1CF
330
1F
100
AcDbEntity
  8
0
  6
Continuous
 62
     7
370
    15
100
AcDbLine
 10
572.3974755858
 20
307.0519008723
 30
0.0
 11
572.3903581915
 21
343.7784105026
 31
0.0
  0
LINE
  5
1D0
330
1F
100
AcDbEntity
  8
0
  6
Continuous
 62
     7
370
    15
100
AcDbLine
 10
572.3267649077
 20
307.0927030028
 30
0.0
 11
572.3974755858
 21
307.0519008723
 31
0.0
  0
LINE
  5
1D1
330
1F
100
AcDbEntity
  8
0
  6
Continuous
 62
     7
370
    15
100
AcDbLine
 10
572.3974755858
 20
307.0519008723
 30
0.0
 11
573.8116891482
 21
307.8683089841
 31
0.0
  0
LINE
  5
1D2
330
1F
100
AcDbEntity
  8
0
  6
Continuous
 62
     7
370
    15
100
AcDbLine
 10
572.3903581915
 20
343.7784105026
 30
0.0
 11
573.8045717539
 21
344.5948186144
 31
0.0
  0
LINE
  5
1D3
330
1F
100
AcDbEntity
  8
0
  6
Continuous
 62
     7
370
    15
100
AcDbLine
 10
573.8045717574
 20
344.5948003372
 30
0.0
 11
573.8045717539
 21
344.5948186144
 31
0.0
  0
LINE
  5
1D4
330
1F
100
AcDbEntity
  8
0
  6
Continuous
 62
     7
370
    15
100
AcDbLine
 10
573.8116726401
 20
307.9534924863
 30
0.0
 11
573.8045717574
 21
344.5948003372
 31
0.0
  0
LINE
  5
1D5
330
1F
100
AcDbEntity
  8
0
  6
Continuous
 62
     7
370
    15
100
AcDbLine
 10
573.8116891482
 20
307.8683089841
 30
0.0
 11
573.8116726401
 21
307.9534924863
 31
0.0
  0
LINE
  5
1D6
330
1F
100
AcDbEntity
  8
0
  6
Continuous
 62
     7
370
    15
100
AcDbLine
 10
572.3196475134
 20
343.819212633
 30
0.0
 11
573.7338610757
 21
344.6356207449
 31
0.0
  0
LINE
  5
1D7
330
1F
100
AcDbEntity
  8
0
  6
Continuous
 62
     7
370
    15
100
AcDbLine
 10
573.8045717539
 20
344.5948186144
 30
0.0
 11
573.7338610757
 21
344.6356207449
 31
0.0
  0
ELLIPSE
  5
1D8
330
1F
100
AcDbEntity
  8
0
  6
Continuous
 62
     7
370
    15
100
AcDbEllipse
 10
572.8240899479
 20
307.7463081222
 30
0.0
 11
0.996511466822085
 21
0.1707797048115935
 31
0.0
210
0.0
220
0.0
230
1.0
 40
0.486908435
 41
6.245637617821546
 42
6.276561910276019
  0
ELLIPSE
  5
1D9
330
1F
100
AcDbEntity
  8
0
  6
Continuous
 62
     7
370
    15
100
AcDbEllipse
 10
572.8240256422
 20
308.0781324271
 30
0.0
 11
-0.2020673100613521
 21
1.179076821620242
 31
0.0
210
0.0
220
0.0
230
1.0
 40
0.8306381968
 41
4.432621521732544
 42
4.43312458325228
  0
ELLIPSE
  5
1DA
330
1F
100
AcDbEntity
  8
0
  6
Continuous
 62
     7
370
    15
100
AcDbEllipse
 10
572.8240897855
 20
307.7471462202
 30
0.0
 11
0.9965114668221986
 21
0.170779704811082
 31
0.0
210
0.0
220
0.0
230
1.0
 40
0.486908435
 41
6.276058848756582
 42
6.357527345453072
  0
ELLIPSE
  5
1DB
330
1F
100
AcDbEntity
  8
0
  6
Continuous
 62
     7
370
    15
100
AcDbEllipse
 10
572.8169313791
 20
344.6852827342
 30
0.0
 11
1.000000012522833
 21
-2.168565060856054E-8
 31
0.0
210
0.0
220
0.0
230
1.0
 40
0.5772877121
 41
6.125799307796819
 42
6.40337635282978
  0
LINE
  5
1DC
330
1F
100
AcDbEntity
  8
0
  6
Continuous
 62
     7
370
    15
100
AcDbLine
 10
573.8220593859
 20
307.9670608731
 30
0.0
 11
573.8230205518
 21
307.8987532283
 31
0.0
  0
LINE
  5
1DD
330
1F
100
AcDbEntity
  8
0
  6
Continuous
 62
     7
370
    15
100
AcDbLine
 10
573.7338610757
 20
344.6356207449
 30
0.0
 11
566.5829530876
 21
378.8164899635
 31
0.0
  0
LINE
  5
1DE
330
1F
100
AcDbEntity
  8
0
  6
Continuous
 62
     7
370
    15
100
AcDbLine
 10
566.5829530876
 20
378.8164899635
 30
0.0
 11
566.5362147214
 21
378.843471448
 31
0.0
  0
LINE
  5
1DF
330
1F
100
AcDbEntity
  8
0
  6
Continuous
 62
     7
370
    15
100
AcDbLine
 10
566.5362147214
 20
378.843471448
 30
0.0
 11
566.6275910511
 21
378.8962218803
 31
0.0
  0
ELLIPSE
  5
1E0
330
1F
100
AcDbEntity
  8
0
  6
Continuous
 62
     7
370
    15
100
AcDbEllipse
 10
566.5829530876
 20
378.8164899635
 30
0.0
 11
0.08867695651633767
 21
-0.05617950504665714
 31
0.0
210
0.0
220
0.0
230
1.0
 40
0.8701515087
 41
0.7017895245173653
 42
1.618087381812169
  0
LINE
  5
1E1
330
1F
100
AcDbEntity
  8
0
  6
Continuous
 62
     7
370
    15
100
AcDbLine
 10
566.6822338602
 20
378.8234012505
 30
0.0
 11
573.8097171402
 21
344.7545005937
 31
0.0
  0
LINE
  5
1E2
330
1F
100
AcDbEntity
  8
0
  6
Continuous
 62
     7
370
    15
100
AcDbLine
 10
572.3264486039
 20
308.7248638202
 30
0.0
 11
496.8077608396
 21
352.3208742994
 31
0.0
  0
LINE
  5
1E3
330
1F
100
AcDbEntity
  8
0
  6
Continuous
 62
     7
370
    15
100
AcDbLine
 10
496.8077608397
 20
352.3208742996
 30
0.0
 11
556.0242959936
 21
384.91187296
 31
0.0
  0
LINE
  5
1E4
330
1F
100
AcDbEntity
  8
0
  6
Continuous
 62
     7
370
    15
100
AcDbLine
 10
556.0242959936
 20
384.91187296
 30
0.0
 11
556.0710343598
 21
384.8848914755
 31
0.0
  0
LINE
  5
1E5
330
1F
100
AcDbEntity
  8
0
  6
Continuous
 62
     7
370
    15
100
AcDbLine
 10
556.0710343598
 20
384.8848914755
 30
0.0
 11
556.1076919235
 21
384.9577715697
 31
0.0
  0
LINE
  5
1E6
330
1F
100
AcDbEntity
  8
0
  6
Continuous
 62
     7
370
    15
100
AcDbLine
 10
556.1076919235
 20
384.9577715697
 30
0.0
 11
566.5728722851
 21
378.9163515422
 31
0.0
  0
LINE
  5
1E7
330
1F
100
AcDbEntity
  8
0
  6
Continuous
 62
     7
370
    15
100
AcDbLine
 10
566.5362147214
 20
378.843471448
 30
0.0
 11
566.5728722851
 21
378.9163515422
 31
0.0
  0
LINE
  5
1E8
330
1F
100
AcDbEntity
  8
0
  6
Continuous
 62
     7
370
    15
100
AcDbLine
 10
566.5829530876
 20
378.8164899635
 30
0.0
 11
572.3238863918
 21
321.9461502784
 31
0.0
  0
LINE
  5
1E9
330
1F
100
AcDbEntity
  8
0
  6
Continuous
 62
     7
370
    15
100
AcDbLine
 10
572.3267650701
 20
307.0102108233
 30
0.0
 11
573.7409786325
 21
307.8266189351
 31
0.0
  0
LINE
  5
1EA
330
1F
100
AcDbEntity
  8
0
  6
Continuous
 62
     7
370
    15
100
AcDbLine
 10
572.3267650701
 20
307.0918649045
 30
0.0
 11
572.3267650701
 21
307.0102108233
 31
0.0
  0
LINE
  5
1EB
330
1F
100
AcDbEntity
  8
0
  6
Continuous
 62
     7
370
    15
100
AcDbLine
 10
572.3267650701
 20
307.0918649045
 30
0.0
 11
572.3274910445
 21
307.0922840006
 31
0.0
  0
LWPOLYLINE
  5
1EC
330
1F
100
AcDbEntity
  8
0
  6
Continuous
 62
     7
370
    15
100
AcDbPolyline
 90
        3
 70
   128
 43
0.0
 10
573.7512717165
 20
307.8334307432
 10
573.7487840189
 20
307.8316238833
 10
573.7409786325
 20
307.8266189351
  0
LINE
  5
1ED
330
1F
100
AcDbEntity
  8
0
  6
Continuous
 62
     7
370
    15
100
AcDbLine
 10
495.393547277
 20
351.5044661876
 30
0.0
 11
572.3267650701
 21
307.0918649045
 31
0.0
  0
LINE
  5
1EE
330
1F
100
AcDbEntity
  8
0
  6
Continuous
 62
     7
370
    15
100
AcDbLine
 10
496.8077608395
 20
352.3208742995
 30
0.0
 11
495.393547277
 21
351.5044661876
 31
0.0
  0
LINE
  5
1EF
330
1F
100
AcDbEntity
  8
0
  6
Continuous
 62
     7
370
    15
100
AcDbLine
 10
495.393547277
 20
351.5044661876
 30
0.0
 11
495.393547277
 21
351.4228121064
 31
0.0
  0
LINE
  5
1F0
330
1F
100
AcDbEntity
  8
0
  6
Continuous
 62
     7
370
    15
100
AcDbLine
 10
495.393547277
 20
351.4228121064
 30
0.0
 11
572.3267650701
 21
307.0102108233
 31
0.0
  0
LINE
  5
1F1
330
1F
100
AcDbEntity
  8
0
  6
Continuous
 62
     7
370
    15
100
AcDbLine
 10
573.811680332
 20
307.9138011861
 30
0.0
 11
573.8211685369
 21
307.9144637899
 31
0.0
  0
LINE
  5
1F2
330
1F
100
AcDbEntity
  8
0
  6
Continuous
 62
     7
370
    15
100
AcDbLine
 10
573.8116804465
 20
307.9132104406
 30
0.0
 11
573.8211303151
 21
307.9138703672
 31
0.0
  0
ARC
  5
1F3
330
1F
100
AcDbEntity
  8
0
  6
Continuous
 62
     7
370
    15
100
AcDbCircle
 10
573.770079432
 20
307.9995461213
 30
0.0
 40
0.1138506453262661
100
AcDbArc
 50
291.4342531895
 51
297.7105459233
  0
ELLIPSE
  5
1F4
330
1F
100
AcDbEntity
  8
0
  6
Continuous
 62
     7
370
    15
100
AcDbEllipse
 10
556.0242959936
 20
384.91187296
 30
0.0
 11
0.1653115746108824
 21
-0.008339664505228939
 31
0.0
210
0.0
220
0.0
230
1.0
 40
0.3499901276
 41
1.059765469109117
 42
1.518514398721226
  0
LINE
  5
1F5
330
1F
100
AcDbEntity
  8
0
  6
Continuous
 62
     7
370
    15
100
AcDbLine
 10
496.9190130536
 20
388.9798886137
 30
0.0
 11
556.0242959936
 21
384.91187296
 31
0.0
  0
ELLIPSE
  5
1F6
330
1F
100
AcDbEntity
  8
0
  6
Continuous
 62
     7
370
    15
100
AcDbEllipse
 10
497.0061178135
 20
388.4506537486
 30
0.0
 11
1.000003059566154
 21
-5.298175665302551E-6
 31
0.0
210
0.0
220
0.0
230
1.0
 40
0.5772877121
 41
1.452141462300281
 42
1.729277747715235
  0
LINE
  5
1F7
330
1F
100
AcDbEntity
  8
0
  6
Continuous
 62
     7
370
    15
100
AcDbLine
 10
556.0358496767
 20
384.9692155082
 30
0.0
 11
497.12449785
 21
389.0238835428
 31
0.0
  0
LINE
  5
1F8
330
1F
100
AcDbEntity
  8
0
  6
Continuous
 62
     7
370
    15
100
AcDbLine
 10
496.8077608394
 20
352.3208742994
 30
0.0
 11
496.8077658034
 21
352.3225099922
 31
0.0
  0
LINE
  5
1F9
330
1F
100
AcDbEntity
  8
0
  6
Continuous
 62
     7
370
    15
100
AcDbLine
 10
496.8077658034
 20
352.3225099922
 30
0.0
 11
496.9190130536
 21
388.9798886137
 31
0.0
  0
LINE
  5
1FA
330
1F
100
AcDbEntity
  8
0
  6
Continuous
 62
     7
370
    15
100
AcDbLine
 10
566.5728722851
 20
387.5716841482
 30
0.0
 11
566.6435829632
 21
387.6125045538
 31
0.0
  0
LINE
  5
1FB
330
1F
100
AcDbEntity
  8
0
  6
Continuous
 62
     7
370
    15
100
AcDbLine
 10
566.6435829632
 20
387.6125045538
 30
0.0
 11
566.6435829632
 21
378.9571719478
 31
0.0
  0
ARC
  5
1FC
330
1F
100
AcDbEntity
  8
0
  6
Continuous
 62
     7
370
    15
100
AcDbCircle
 10
566.5042190253
 20
378.961164886
 30
0.0
 40
0.1394211272830417
100
AcDbArc
 50
332.2376916277
 51
358.35885853
  0
LINE
  5
1FD
330
1F
100
AcDbEntity
  8
0
  6
Continuous
 62
     7
370
    15
100
AcDbLine
 10
566.5728722851
 20
387.5716841482
 30
0.0
 11
566.5728722851
 21
378.9163515422
 31
0.0
  0
LINE
  5
1FE
330
1F
100
AcDbEntity
  8
0
  6
Continuous
 62
     7
370
    15
100
AcDbLine
 10
556.1076919235
 20
393.6131041757
 30
0.0
 11
556.1076919235
 21
384.9577715697
 31
0.0
  0
LINE
  5
1FF
330
1F
100
AcDbEntity
  8
0
  6
Continuous
 62
     7
370
    15
100
AcDbLine
 10
556.1076919235
 20
393.6131041757
 30
0.0
 11
566.5728722851
 21
387.5716841482
 31
0.0
  0
LINE
  5
200
330
1F
100
AcDbEntity
  8
0
  6
Continuous
 62
     7
370
    15
100
AcDbLine
 10
556.1784026016
 20
393.6539245813
 30
0.0
 11
556.1076919235
 21
393.6131041757
 31
0.0
  0
LINE
  5
201
330
1F
100
AcDbEntity
  8
0
  6
Continuous
 62
     7
370
    15
100
AcDbLine
 10
566.6435829632
 20
387.6125045538
 30
0.0
 11
556.1784026016
 21
393.6539245813
 31
0.0
  0
LINE
  5
202
330
1F
100
AcDbEntity
  8
0
  6
Continuous
 62
     7
370
    15
100
AcDbLine
 10
495.393552241
 20
351.5061018803
 30
0.0
 11
495.5047994912
 21
388.1634805018
 31
0.0
  0
LINE
  5
203
330
1F
100
AcDbEntity
  8
0
  6
Continuous
 62
     7
370
    15
100
AcDbLine
 10
495.3228415629
 20
351.5472079387
 30
0.0
 11
495.393552241
 21
351.5061018803
 31
0.0
  0
LINE
  5
204
330
1F
100
AcDbEntity
  8
0
  6
Continuous
 62
     7
370
    15
100
AcDbLine
 10
495.4340888131
 20
388.2045865602
 30
0.0
 11
495.3228415629
 21
351.5472079387
 31
0.0
  0
LINE
  5
205
330
1F
100
AcDbEntity
  8
0
  6
Continuous
 62
     7
370
    15
100
AcDbLine
 10
495.5047994912
 20
388.1634805018
 30
0.0
 11
495.4340888131
 21
388.2045865602
 31
0.0
  0
LINE
  5
206
330
1F
100
AcDbEntity
  8
0
  6
Continuous
 62
     7
370
    15
100
AcDbLine
 10
495.5047994912
 20
388.1634805018
 30
0.0
 11
496.9190130536
 21
388.9798886137
 31
0.0
  0
LINE
  5
207
330
1F
100
AcDbEntity
  8
0
  6
Continuous
 62
     7
370
    15
100
AcDbLine
 10
495.4340888131
 20
388.2045865602
 30
0.0
 11
496.8483023755
 21
389.020994672
 31
0.0
  0
LINE
  5
208
330
1F
100
AcDbEntity
  8
0
  6
Continuous
 62
     7
370
    15
100
AcDbLine
 10
496.9190130536
 20
388.9798886137
 30
0.0
 11
496.8483023755
 21
389.020994672
 31
0.0
  0
LINE
  5
209
330
1F
100
AcDbEntity
  8
0
  6
Continuous
 62
     7
370
    15
100
AcDbLine
 10
495.393552241
 20
351.5061018803
 30
0.0
 11
496.8077658034
 21
352.3225099922
 31
0.0
  0
LINE
  5
20A
330
1F
100
AcDbEntity
  8
0
  6
Continuous
 62
     7
370
    15
100
AcDbLine
 10
496.8077608398
 20
352.3208742992
 30
0.0
 11
496.8070688632
 21
352.3221076571
 31
0.0
  0
LINE
  5
20B
330
1F
100
AcDbEntity
  8
0
  6
Continuous
 62
     7
370
    15
100
AcDbLine
 10
212.6376137202
 20
42.0573001055
 30
0.0
 11
242.2376137202
 21
42.0573001055
 31
0.0
  0
LINE
  5
20C
330
1F
100
AcDbEntity
  8
0
  6
Continuous
 62
     7
370
    15
100
AcDbLine
 10
212.6376137202
 20
63.2573001055
 30
0.0
 11
212.6376137202
 21
42.0573001055
 31
0.0
  0
LINE
  5
20D
330
1F
100
AcDbEntity
  8
0
  6
Continuous
 62
     7
370
    15
100
AcDbLine
 10
212.6376137202
 20
63.2573001055
 30
0.0
 11
96.8997282696
 21
92.1072071378
 31
0.0
  0
LINE
  5
20E
330
1F
100
AcDbEntity
  8
0
  6
Continuous
 62
     7
370
    15
100
AcDbLine
 10
96.8997282696
 20
92.1072071378
 30
0.0
 11
93.0183005916
 21
93.0739124602
 31
0.0
  0
LINE
  5
20F
330
1F
100
AcDbEntity
  8
0
  6
Continuous
 62
     7
370
    15
100
AcDbLine
 10
114.7561860422
 20
180.3539018198
 30
0.0
 11
93.0183005916
 21
93.0739124602
 31
0.0
  0
LINE
  5
210
330
1F
100
AcDbEntity
  8
0
  6
Continuous
 62
     7
370
    15
100
AcDbLine
 10
118.6376137202
 20
179.3871964974
 30
0.0
 11
114.7561860422
 21
180.3539018198
 31
0.0
  0
LINE
  5
211
330
1F
100
AcDbEntity
  8
0
  6
Continuous
 62
     7
370
    15
100
AcDbLine
 10
118.6376137202
 20
179.3871964974
 30
0.0
 11
118.6376137202
 21
183.3871964974
 31
0.0
  0
LINE
  5
212
330
1F
100
AcDbEntity
  8
0
  6
Continuous
 62
     7
370
    15
100
AcDbLine
 10
118.6376137202
 20
183.3871964974
 30
0.0
 11
336.2376137202
 21
183.3871964974
 31
0.0
  0
LINE
  5
213
330
1F
100
AcDbEntity
  8
0
  6
Continuous
 62
     7
370
    15
100
AcDbLine
 10
336.2376137202
 20
179.3871964974
 30
0.0
 11
336.2376137202
 21
183.3871964974
 31
0.0
  0
LINE
  5
214
330
1F
100
AcDbEntity
  8
0
  6
Continuous
 62
     7
370
    15
100
AcDbLine
 10
336.2376137202
 20
179.3871964974
 30
0.0
 11
340.1190413982
 21
180.3539018198
 31
0.0
  0
LINE
  5
215
330
1F
100
AcDbEntity
  8
0
  6
Continuous
 62
     7
370
    15
100
AcDbLine
 10
361.8569268489
 20
93.0739124602
 30
0.0
 11
340.1190413982
 21
180.3539018198
 31
0.0
  0
LINE
  5
216
330
1F
100
AcDbEntity
  8
0
  6
Continuous
 62
     7
370
    15
100
AcDbLine
 10
357.9754991709
 20
92.1072071378
 30
0.0
 11
361.8569268489
 21
93.0739124602
 31
0.0
  0
LINE
  5
217
330
1F
100
AcDbEntity
  8
0
  6
Continuous
 62
     7
370
    15
100
AcDbLine
 10
242.2376137202
 20
63.2573001055
 30
0.0
 11
357.9754991709
 21
92.1072071378
 31
0.0
  0
LINE
  5
218
330
1F
100
AcDbEntity
  8
0
  6
Continuous
 62
     7
370
    15
100
AcDbLine
 10
242.2376137202
 20
63.2573001055
 30
0.0
 11
242.2376137202
 21
42.0573001055
 31
0.0
  0
LINE
  5
219
330
1F
100
AcDbEntity
  8
0
  6
CENTERX2
 62
     7
370
     0
100
AcDbLine
 10
118.6376137202
 20
179.3871964974
 30
0.0
 11
336.2376137202
 21
179.3871964974
 31
0.0
  0
LINE
  5
21A
330
1F
100
AcDbEntity
  8
0
  6
CENTERX2
 62
     7
370
     0
100
AcDbLine
 10
336.2376137202
 20
179.3871964974
 30
0.0
 11
357.9754991709
 21
92.1072071378
 31
0.0
  0
LINE
  5
21B
330
1F
100
AcDbEntity
  8
0
  6
CENTERX2
 62
     7
370
     0
100
AcDbLine
 10
118.6376137202
 20
179.3871964974
 30
0.0
 11
96.8997282696
 21
92.1072071378
 31
0.0
  0
LINE
  5
21C
330
1F
100
AcDbEntity
  8
0
  6
CENTERX2
 62
     7
370
     0
100
AcDbLine
 10
118.6376137202
 20
179.3871964974
 30
0.0
 11
212.6376137202
 21
63.2573001055
 31
0.0
  0
LINE
  5
21D
330
1F
100
AcDbEntity
  8
0
  6
CENTERX2
 62
     7
370
     0
100
AcDbLine
 10
212.6376137202
 20
63.2573001055
 30
0.0
 11
242.2376137202
 21
63.2573001055
 31
0.0
  0
LINE
  5
21E
330
1F
100
AcDbEntity
  8
0
  6
CENTERX2
 62
     7
370
     0
100
AcDbLine
 10
242.2376137202
 20
63.2573001055
 30
0.0
 11
336.2376137202
 21
179.3871964974
 31
0.0
  0
DIMENSION
  5
21F
330
1F
100
AcDbEntity
  8
0
  6
Continuous
 62
     7
370
     0
100
AcDbDimension
  2
_D_7
 10
89.5712733789
 20
79.233720914
 30
0.0
 11
85.0314094486
 21
80.3644158511
 31
0.0
 70
   160
  1
<>
 71
     2
 42
-1.0
  3
SLDDIMSTYLE4
100
AcDbAlignedDimension
 13
96.8997282696
 23
92.1072071378
 33
0.0
 14
93.0183005916
 24
93.0739124602
 34
0.0
 50
-13.9854998899
100
AcDbRotatedDimension
  0
DIMENSION
  5
22C
330
1F
100
AcDbEntity
  8
0
  6
Continuous
 62
     7
370
     0
100
AcDbDimension
  2
_D_8
 10
336.2376137202
 20
190.3603631122
 30
0.0
 11
225.9142990932
 21
190.3603631122
 31
0.0
 70
   160
  1
<>
 71
     2
 42
-1.0
  3
SLDDIMSTYLE5
100
AcDbAlignedDimension
 13
118.6376137202
 23
183.3871964974
 33
0.0
 14
336.2376137202
 24
183.3871964974
 34
0.0
100
AcDbRotatedDimension
  0
DIMENSION
  5
23B
330
1F
100
AcDbEntity
  8
0
  6
Continuous
 62
     7
370
     0
100
AcDbDimension
  2
_D_9
 10
85.9106662416
 20
94.8441342769
 30
0.0
 11
93.7824659048
 21
126.4502715163
 31
0.0
 70
   160
  1
<>
 71
     2
 42
-1.0
  3
SLDDIMSTYLE6
100
AcDbAlignedDimension
 13
114.7561860422
 23
180.3539018198
 33
0.0
 14
93.0183005916
 24
93.0739124602
 34
0.0
 50
76.0145001101
100
AcDbRotatedDimension
  0
DIMENSION
  5
246
330
1F
100
AcDbEntity
  8
0
  6
Continuous
 62
     7
370
     0
100
AcDbDimension
  2
_D_10
 10
92.6960877754
 20
75.2433586183
 30
0.0
 11
172.6363448382
 21
55.3167030083
 31
0.0
 70
   160
  1
<>
 71
     2
 42
-1.0
  3
SLDDIMSTYLE7
100
AcDbAlignedDimension
 13
212.6376137202
 23
63.2573001055
 33
0.0
 14
96.8997282696
 24
92.1072071378
 34
0.0
 50
-13.9968358698
100
AcDbRotatedDimension
  0
DIMENSION
  5
251
330
1F
100
AcDbEntity
  8
0
  6
Continuous
 62
     7
370
     0
100
AcDbDimension
  2
_D_11
 10
242.2376137202
 20
26.0573001055
 30
0.0
 11
219.2031216235
 21
26.0573001055
 31
0.0
 70
   160
  1
<>
 71
     2
 42
-1.0
  3
SLDDIMSTYLE4
100
AcDbAlignedDimension
 13
212.6376137202
 23
42.0573001055
 33
0.0
 14
242.2376137202
 24
42.0573001055
 34
0.0
 50
0.0
100
AcDbRotatedDimension
  0
DIMENSION
  5
25D
330
1F
100
AcDbEntity
  8
0
  6
Continuous
 62
     7
370
     0
100
AcDbDimension
  2
_D_12
 10
258.8629714959
 20
42.0573001055
 30
0.0
 11
258.8629714959
 21
49.3722005963
 31
0.0
 70
   160
  1
<>
 71
     2
 42
-1.0
  3
SLDDIMSTYLE4
100
AcDbAlignedDimension
 13
212.6376137202
 23
63.2573001055
 33
0.0
 14
242.2376137202
 24
42.0573001055
 34
0.0
 50
90.0
100
AcDbRotatedDimension
  0
DIMENSION
  5
269
330
1F
100
AcDbEntity
  8
0
  6
Continuous
 62
     7
370
     0
100
AcDbDimension
  2
_D_13
 10
361.8569268489
 20
20.0573001055
 30
0.0
 11
230.2765644484
 21
20.0573001055
 31
0.0
 70
   160
  1
<>
 71
     2
 42
-1.0
  3
SLDDIMSTYLE8
100
AcDbAlignedDimension
 13
93.0183005916
 23
93.0739124602
 33
0.0
 14
361.8569268489
 24
93.0739124602
 34
0.0
100
AcDbRotatedDimension
  0
INSERT
  5
279
330
1F
100
AcDbEntity
  8
0
  6
Continuous
 62
     7
370
     0
100
AcDbBlockReference
  2
SW_NOTE_2
 10
275.1069364162
 20
194.8549132844
 30
0.0
  0
LEADER
  5
27B
330
1F
100
AcDbEntity
  8
0
  6
Continuous
 62
     7
370
     0
100
AcDbLeader
  3
SLDDIMSTYLE9
 76
     2
 10
263.1930991079
 20
179.3871964974
 30
0.0
 10
275.1069364162
 20
194.8549132844
 30
0.0
  0
INSERT
  5
281
330
1F
100
AcDbEntity
  8
0
  6
Continuous
 62
     7
370
     0
100
AcDbBlockReference
  2
SW_NOTE_3
 10
252.4479768786
 20
19.9416184867
 30
0.0
  0
LEADER
  5
282
330
1F
100
AcDbEntity
  8
0
  6
Continuous
 62
     7
370
     0
100
AcDbLeader
  3
SLDDIMSTYLE9
 76
     2
 10
232.1741845556
 20
63.2573001055
 30
0.0
 10
252.4479768786
 20
19.9416184867
 30
0.0
  0
INSERT
  5
288
330
1F
100
AcDbEntity
  8
0
  6
Continuous
 62
     7
370
     0
100
AcDbBlockReference
  2
SW_NOTE_4
 10
378.112716763
 20
88.7277456543
 30
0.0
  0
LEADER
  5
289
330
1F
100
AcDbEntity
  8
0
  6
Continuous
 62
     7
370
     0
100
AcDbLeader
  3
SLDDIMSTYLE9
 76
     2
 10
343.2250491341
 20
151.3318785155
 30
0.0
 10
378.112716763
 20
88.7277456543
 30
0.0
  0
INSERT
  5
28F
330
1F
100
AcDbEntity
  8
0
  6
Continuous
 62
     7
370
     0
100
AcDbBlockReference
  2
SW_NOTE_5
 10
148.5227533224
 20
203.641040452
 30
0.0
  0
LEADER
  5
290
330
1F
100
AcDbEntity
  8
0
  6
Continuous
 62
     7
370
     0
100
AcDbLeader
  3
SLDDIMSTYLE9
 76
     2
 10
112.3910229228
 20
154.306450738
 30
0.0
 10
148.5227533224
 20
203.641040452
 30
0.0
  0
INSERT
  5
296
330
1F
100
AcDbEntity
  8
0
  6
Continuous
 62
     7
370
     0
100
AcDbBlockReference
  2
SW_NOTE_6
 10
128.9966326415
 20
46.6468207988
 30
0.0
  0
LEADER
  5
297
330
1F
100
AcDbEntity
  8
0
  6
Continuous
 62
     7
370
     0
100
AcDbLeader
  3
SLDDIMSTYLE9
 76
     2
 10
177.3089724537
 20
106.9031665943
 30
0.0
 10
128.9966326415
 20
46.6468207988
 30
0.0
  0
INSERT
  5
29D
330
1F
100
AcDbEntity
  8
0
  6
Continuous
 62
     7
370
     0
100
AcDbBlockReference
  2
SW_NOTE_7
 10
288.0549132948
 20
46.6468207988
 30
0.0
  0
LEADER
  5
29E
330
1F
100
AcDbEntity
  8
0
  6
Continuous
 62
     7
370
     0
100
AcDbLeader
  3
SLDDIMSTYLE9
 76
     2
 10
283.9785588373
 20
114.8250834219
 30
0.0
 10
288.0549132948
 20
46.6468207988
 30
0.0
  0
ENDSEC
  0
SECTION
  2
OBJECTS
  0
DICTIONARY
  5
C
330
0
100
AcDbDictionary
281
     1
  3
ACAD_GROUP
350
D
  3
ACAD_LAYOUT
350
1A
  3
ACAD_MLINESTYLE
350
17
  3
ACAD_PLOTSETTINGS
350
19
  3
ACAD_PLOTSTYLENAME
350
E
  3
ACAD_SCALELIST
350
47
  0
DICTIONARY
  5
D
102
{ACAD_REACTORS
330
C
102
}
330
C
100
AcDbDictionary
281
     1
  0
DICTIONARY
  5
1A
102
{ACAD_REACTORS
330
C
102
}
330
C
100
AcDbDictionary
281
     1
  3
Layout1
350
1E
  3
Layout2
350
26
  3
Model
350
22
  0
DICTIONARY
  5
17
102
{ACAD_REACTORS
330
C
102
}
330
C
100
AcDbDictionary
281
     1
  3
Standard
350
18
  0
DICTIONARY
  5
19
102
{ACAD_REACTORS
330
C
102
}
330
C
100
AcDbDictionary
281
     1
  0
ACDBDICTIONARYWDFLT
  5
E
102
{ACAD_REACTORS
330
C
102
}
330
C
100
AcDbDictionary
281
     1
  3
Normal
350
F
100
AcDbDictionaryWithDefault
340
F
  0
DICTIONARY
  5
47
102
{ACAD_REACTORS
330
C
102
}
330
C
100
AcDbDictionary
281
     1
  3
A0
350
48
  3
A1
350
49
  3
A2
350
4A
  3
A3
350
4B
  3
A4
350
4C
  3
A5
350
4D
  3
A6
350
4E
  3
A7
350
4F
  3
A8
350
50
  3
A9
350
51
  3
B0
350
52
  3
B1
350
53
  3
B2
350
54
  3
B3
350
55
  3
B4
350
56
  3
B5
350
57
  3
B6
350
58
  3
B7
350
59
  3
B8
350
5A
  3
B9
350
5B
  3
C0
350
5C
  3
C1
350
5D
  3
C2
350
5E
  3
C3
350
5F
  3
C4
350
60
  3
C5
350
61
  3
C6
350
62
  3
C7
350
63
  3
C8
350
64
  3
C9
350
65
  3
D0
350
66
  3
D1
350
67
  3
D2
350
68
  0
LAYOUT
  5
1E
102
{ACAD_REACTORS
330
1A
102
}
330
1A
100
AcDbPlotSettings
  1

  2
none_device
  4

  6

 40
0.0
 41
0.0
 42
0.0
 43
0.0
 44
0.0
 45
0.0
 46
0.0
 47
0.0
 48
0.0
 49
0.0
140
0.0
141
0.0
142
1.0
143
1.0
 70
   688
 72
     1
 73
     0
 74
     5
  7

 75
    16
147
1.0
148
0.0
149
0.0
100
AcDbLayout
  1
Layout1
 70
     1
 71
     1
 10
0.0
 20
0.0
 11
420.0
 21
297.0
 12
0.0
 22
0.0
 32
0.0
 14
1.0000000000E+20
 24
1.0000000000E+20
 34
1.0000000000E+20
 15
-1.0000000000E+20
 25
-1.0000000000E+20
 35
-1.0000000000E+20
146
0.0
 13
0.0
 23
0.0
 33
0.0
 16
1.0
 26
0.0
 36
0.0
 17
0.0
 27
1.0
 37
0.0
 76
     0
330
1B
  0
LAYOUT
  5
26
102
{ACAD_REACTORS
330
1A
102
}
330
1A
100
AcDbPlotSettings
  1

  2
none_device
  4

  6

 40
0.0
 41
0.0
 42
0.0
 43
0.0
 44
0.0
 45
0.0
 46
0.0
 47
0.0
 48
0.0
 49
0.0
140
0.0
141
0.0
142
1.0
143
1.0
 70
   688
 72
     1
 73
     0
 74
     5
  7

 75
    16
147
1.0
148
0.0
149
0.0
100
AcDbLayout
  1
Layout2
 70
     1
 71
     2
 10
0.0
 20
0.0
 11
0.0
 21
0.0
 12
0.0
 22
0.0
 32
0.0
 14
0.0
 24
0.0
 34
0.0
 15
0.0
 25
0.0
 35
0.0
146
0.0
 13
0.0
 23
0.0
 33
0.0
 16
1.0
 26
0.0
 36
0.0
 17
0.0
 27
1.0
 37
0.0
 76
     0
330
23
  0
LAYOUT
  5
22
102
{ACAD_REACTORS
330
1A
102
}
330
1A
100
AcDbPlotSettings
  1

  2
none_device
  4
Letter_(8.50_x_11.00_Inches)
  6

 40
6.35
 41
6.35
 42
6.35000508
 43
6.35000508
 44
215.9
 45
279.4
 46
0.0
 47
0.0
 48
0.0
 49
0.0
140
0.0
141
0.0
142
1.0
143
1.0
 70
  1712
 72
     1
 73
     0
 74
     0
  7

 75
     0
147
1.0
148
0.0
149
0.0
100
AcDbLayout
  1
Model
 70
     1
 71
     0
 10
0.0
 20
0.0
 11
594.0
 21
420.0
 12
0.0
 22
0.0
 32
0.0
 14
0.0
 24
0.0
 34
0.0
 15
594.0
 25
420.0
 35
0.0
146
0.0
 13
0.0
 23
0.0
 33
0.0
 16
1.0
 26
0.0
 36
0.0
 17
0.0
 27
1.0
 37
0.0
 76
     0
330
1F
331
29
  0
MLINESTYLE
  5
18
102
{ACAD_REACTORS
330
17
102
}
330
17
100
AcDbMlineStyle
  2
Standard
 70
     0
  3

 62
   256
 51
90.0
 52
90.0
 71
     2
 49
0.5
 62
   256
  6
BYLAYER
 49
-0.5
 62
   256
  6
BYLAYER
  0
ACDBPLACEHOLDER
  5
F
102
{ACAD_REACTORS
330
E
102
}
330
E
  0
SCALE
  5
48
102
{ACAD_REACTORS
330
47
102
}
330
47
100
AcDbScale
 70
     0
300
1:1
140
1.0
141
1.0
290
     1
  0
SCALE
  5
49
102
{ACAD_REACTORS
330
47
102
}
330
47
100
AcDbScale
 70
     0
300
1:2
140
1.0
141
2.0
290
     0
  0
SCALE
  5
4A
102
{ACAD_REACTORS
330
47
102
}
330
47
100
AcDbScale
 70
     0
300
1:4
140
1.0
141
4.0
290
     0
  0
SCALE
  5
4B
102
{ACAD_REACTORS
330
47
102
}
330
47
100
AcDbScale
 70
     0
300
1:5
140
1.0
141
5.0
290
     0
  0
SCALE
  5
4C
102
{ACAD_REACTORS
330
47
102
}
330
47
100
AcDbScale
 70
     0
300
1:8
140
1.0
141
8.0
290
     0
  0
SCALE
  5
4D
102
{ACAD_REACTORS
330
47
102
}
330
47
100
AcDbScale
 70
     0
300
1:10
140
1.0
141
10.0
290
     0
  0
SCALE
  5
4E
102
{ACAD_REACTORS
330
47
102
}
330
47
100
AcDbScale
 70
     0
300
1:16
140
1.0
141
16.0
290
     0
  0
SCALE
  5
4F
102
{ACAD_REACTORS
330
47
102
}
330
47
100
AcDbScale
 70
     0
300
1:20
140
1.0
141
20.0
290
     0
  0
SCALE
  5
50
102
{ACAD_REACTORS
330
47
102
}
330
47
100
AcDbScale
 70
     0
300
1:30
140
1.0
141
30.0
290
     0
  0
SCALE
  5
51
102
{ACAD_REACTORS
330
47
102
}
330
47
100
AcDbScale
 70
     0
300
1:40
140
1.0
141
40.0
290
     0
  0
SCALE
  5
52
102
{ACAD_REACTORS
330
47
102
}
330
47
100
AcDbScale
 70
     0
300
1:50
140
1.0
141
50.0
290
     0
  0
SCALE
  5
53
102
{ACAD_REACTORS
330
47
102
}
330
47
100
AcDbScale
 70
     0
300
1:100
140
1.0
141
100.0
290
     0
  0
SCALE
  5
54
102
{ACAD_REACTORS
330
47
102
}
330
47
100
AcDbScale
 70
     0
300
2:1
140
2.0
141
1.0
290
     0
  0
SCALE
  5
55
102
{ACAD_REACTORS
330
47
102
}
330
47
100
AcDbScale
 70
     0
300
4:1
140
4.0
141
1.0
290
     0
  0
SCALE
  5
56
102
{ACAD_REACTORS
330
47
102
}
330
47
100
AcDbScale
 70
     0
300
8:1
140
8.0
141
1.0
290
     0
  0
SCALE
  5
57
102
{ACAD_REACTORS
330
47
102
}
330
47
100
AcDbScale
 70
     0
300
10:1
140
10.0
141
1.0
290
     0
  0
SCALE
  5
58
102
{ACAD_REACTORS
330
47
102
}
330
47
100
AcDbScale
 70
     0
300
100:1
140
100.0
141
1.0
290
     0
  0
SCALE
  5
59
102
{ACAD_REACTORS
330
47
102
}
330
47
100
AcDbScale
 70
     0
300
1/128" = 1'-0"
140
0.0078125
141
12.0
290
     0
  0
SCALE
  5
5A
102
{ACAD_REACTORS
330
47
102
}
330
47
100
AcDbScale
 70
     0
300
1/64" = 1'-0"
140
0.015625
141
12.0
290
     0
  0
SCALE
  5
5B
102
{ACAD_REACTORS
330
47
102
}
330
47
100
AcDbScale
 70
     0
300
1/32" = 1'-0"
140
0.03125
141
12.0
290
     0
  0
SCALE
  5
5C
102
{ACAD_REACTORS
330
47
102
}
330
47
100
AcDbScale
 70
     0
300
1/16" = 1'-0"
140
0.0625
141
12.0
290
     0
  0
SCALE
  5
5D
102
{ACAD_REACTORS
330
47
102
}
330
47
100
AcDbScale
 70
     0
300
3/32" = 1'-0"
140
0.09375
141
12.0
290
     0
  0
SCALE
  5
5E
102
{ACAD_REACTORS
330
47
102
}
330
47
100
AcDbScale
 70
     0
300
1/8" = 1'-0"
140
0.125
141
12.0
290
     0
  0
SCALE
  5
5F
102
{ACAD_REACTORS
330
47
102
}
330
47
100
AcDbScale
 70
     0
300
3/16" = 1'-0"
140
0.1875
141
12.0
290
     0
  0
SCALE
  5
60
102
{ACAD_REACTORS
330
47
102
}
330
47
100
AcDbScale
 70
     0
300
1/4" = 1'-0"
140
0.25
141
12.0
290
     0
  0
SCALE
  5
61
102
{ACAD_REACTORS
330
47
102
}
330
47
100
AcDbScale
 70
     0
300
3/8" = 1'-0"
140
0.375
141
12.0
290
     0
  0
SCALE
  5
62
102
{ACAD_REACTORS
330
47
102
}
330
47
100
AcDbScale
 70
     0
300
1/2" = 1'-0"
140
0.5
141
12.0
290
     0
  0
SCALE
  5
63
102
{ACAD_REACTORS
330
47
102
}
330
47
100
AcDbScale
 70
     0
300
3/4" = 1'-0"
140
0.75
141
12.0
290
     0
  0
SCALE
  5
64
102
{ACAD_REACTORS
330
47
102
}
330
47
100
AcDbScale
 70
     0
300
1" = 1'-0"
140
1.0
141
12.0
290
     0
  0
SCALE
  5
65
102
{ACAD_REACTORS
330
47
102
}
330
47
100
AcDbScale
 70
     0
300
1-1/2" = 1'-0"
140
1.5
141
12.0
290
     0
  0
SCALE
  5
66
102
{ACAD_REACTORS
330
47
102
}
330
47
100
AcDbScale
 70
     0
300
3" = 1'-0"
140
3.0
141
12.0
290
     0
  0
SCALE
  5
67
102
{ACAD_REACTORS
330
47
102
}
330
47
100
AcDbScale
 70
     0
300
6" = 1'-0"
140
6.0
141
12.0
290
     0
  0
SCALE
  5
68
102
{ACAD_REACTORS
330
47
102
}
330
47
100
AcDbScale
 70
     0
300
1'-0" = 1'-0"
140
12.0
141
12.0
290
     0
  0
ENDSEC
  0
EOF
