G75*
%MOIN*%
%OFA0B0*%
%FSLAX25Y25*%
%IPPOS*%
%LPD*%
%AMOC8*
5,1,8,0,0,1.08239X$1,22.5*
%
%ADD10C,0.00000*%
%ADD11C,0.00300*%
%ADD12C,0.00600*%
%ADD13C,0.01000*%
%ADD14C,0.00400*%
%ADD15C,0.00800*%
%ADD16R,0.01673X0.01280*%
%ADD17R,0.01378X0.01378*%
%ADD18C,0.00500*%
%ADD19C,0.00700*%
%ADD20R,0.03200X0.15000*%
D10*
X0044091Y0001256D02*
X0044091Y0237476D01*
X0305902Y0237476D01*
X0305902Y0001256D01*
X0044091Y0001256D01*
X0056256Y0021689D02*
X0056258Y0021842D01*
X0056264Y0021996D01*
X0056274Y0022149D01*
X0056288Y0022301D01*
X0056306Y0022454D01*
X0056328Y0022605D01*
X0056353Y0022756D01*
X0056383Y0022907D01*
X0056417Y0023057D01*
X0056454Y0023205D01*
X0056495Y0023353D01*
X0056540Y0023499D01*
X0056589Y0023645D01*
X0056642Y0023789D01*
X0056698Y0023931D01*
X0056758Y0024072D01*
X0056822Y0024212D01*
X0056889Y0024350D01*
X0056960Y0024486D01*
X0057035Y0024620D01*
X0057112Y0024752D01*
X0057194Y0024882D01*
X0057278Y0025010D01*
X0057366Y0025136D01*
X0057457Y0025259D01*
X0057551Y0025380D01*
X0057649Y0025498D01*
X0057749Y0025614D01*
X0057853Y0025727D01*
X0057959Y0025838D01*
X0058068Y0025946D01*
X0058180Y0026051D01*
X0058294Y0026152D01*
X0058412Y0026251D01*
X0058531Y0026347D01*
X0058653Y0026440D01*
X0058778Y0026529D01*
X0058905Y0026616D01*
X0059034Y0026698D01*
X0059165Y0026778D01*
X0059298Y0026854D01*
X0059433Y0026927D01*
X0059570Y0026996D01*
X0059709Y0027061D01*
X0059849Y0027123D01*
X0059991Y0027181D01*
X0060134Y0027236D01*
X0060279Y0027287D01*
X0060425Y0027334D01*
X0060572Y0027377D01*
X0060720Y0027416D01*
X0060869Y0027452D01*
X0061019Y0027483D01*
X0061170Y0027511D01*
X0061321Y0027535D01*
X0061474Y0027555D01*
X0061626Y0027571D01*
X0061779Y0027583D01*
X0061932Y0027591D01*
X0062085Y0027595D01*
X0062239Y0027595D01*
X0062392Y0027591D01*
X0062545Y0027583D01*
X0062698Y0027571D01*
X0062850Y0027555D01*
X0063003Y0027535D01*
X0063154Y0027511D01*
X0063305Y0027483D01*
X0063455Y0027452D01*
X0063604Y0027416D01*
X0063752Y0027377D01*
X0063899Y0027334D01*
X0064045Y0027287D01*
X0064190Y0027236D01*
X0064333Y0027181D01*
X0064475Y0027123D01*
X0064615Y0027061D01*
X0064754Y0026996D01*
X0064891Y0026927D01*
X0065026Y0026854D01*
X0065159Y0026778D01*
X0065290Y0026698D01*
X0065419Y0026616D01*
X0065546Y0026529D01*
X0065671Y0026440D01*
X0065793Y0026347D01*
X0065912Y0026251D01*
X0066030Y0026152D01*
X0066144Y0026051D01*
X0066256Y0025946D01*
X0066365Y0025838D01*
X0066471Y0025727D01*
X0066575Y0025614D01*
X0066675Y0025498D01*
X0066773Y0025380D01*
X0066867Y0025259D01*
X0066958Y0025136D01*
X0067046Y0025010D01*
X0067130Y0024882D01*
X0067212Y0024752D01*
X0067289Y0024620D01*
X0067364Y0024486D01*
X0067435Y0024350D01*
X0067502Y0024212D01*
X0067566Y0024072D01*
X0067626Y0023931D01*
X0067682Y0023789D01*
X0067735Y0023645D01*
X0067784Y0023499D01*
X0067829Y0023353D01*
X0067870Y0023205D01*
X0067907Y0023057D01*
X0067941Y0022907D01*
X0067971Y0022756D01*
X0067996Y0022605D01*
X0068018Y0022454D01*
X0068036Y0022301D01*
X0068050Y0022149D01*
X0068060Y0021996D01*
X0068066Y0021842D01*
X0068068Y0021689D01*
X0068066Y0021536D01*
X0068060Y0021382D01*
X0068050Y0021229D01*
X0068036Y0021077D01*
X0068018Y0020924D01*
X0067996Y0020773D01*
X0067971Y0020622D01*
X0067941Y0020471D01*
X0067907Y0020321D01*
X0067870Y0020173D01*
X0067829Y0020025D01*
X0067784Y0019879D01*
X0067735Y0019733D01*
X0067682Y0019589D01*
X0067626Y0019447D01*
X0067566Y0019306D01*
X0067502Y0019166D01*
X0067435Y0019028D01*
X0067364Y0018892D01*
X0067289Y0018758D01*
X0067212Y0018626D01*
X0067130Y0018496D01*
X0067046Y0018368D01*
X0066958Y0018242D01*
X0066867Y0018119D01*
X0066773Y0017998D01*
X0066675Y0017880D01*
X0066575Y0017764D01*
X0066471Y0017651D01*
X0066365Y0017540D01*
X0066256Y0017432D01*
X0066144Y0017327D01*
X0066030Y0017226D01*
X0065912Y0017127D01*
X0065793Y0017031D01*
X0065671Y0016938D01*
X0065546Y0016849D01*
X0065419Y0016762D01*
X0065290Y0016680D01*
X0065159Y0016600D01*
X0065026Y0016524D01*
X0064891Y0016451D01*
X0064754Y0016382D01*
X0064615Y0016317D01*
X0064475Y0016255D01*
X0064333Y0016197D01*
X0064190Y0016142D01*
X0064045Y0016091D01*
X0063899Y0016044D01*
X0063752Y0016001D01*
X0063604Y0015962D01*
X0063455Y0015926D01*
X0063305Y0015895D01*
X0063154Y0015867D01*
X0063003Y0015843D01*
X0062850Y0015823D01*
X0062698Y0015807D01*
X0062545Y0015795D01*
X0062392Y0015787D01*
X0062239Y0015783D01*
X0062085Y0015783D01*
X0061932Y0015787D01*
X0061779Y0015795D01*
X0061626Y0015807D01*
X0061474Y0015823D01*
X0061321Y0015843D01*
X0061170Y0015867D01*
X0061019Y0015895D01*
X0060869Y0015926D01*
X0060720Y0015962D01*
X0060572Y0016001D01*
X0060425Y0016044D01*
X0060279Y0016091D01*
X0060134Y0016142D01*
X0059991Y0016197D01*
X0059849Y0016255D01*
X0059709Y0016317D01*
X0059570Y0016382D01*
X0059433Y0016451D01*
X0059298Y0016524D01*
X0059165Y0016600D01*
X0059034Y0016680D01*
X0058905Y0016762D01*
X0058778Y0016849D01*
X0058653Y0016938D01*
X0058531Y0017031D01*
X0058412Y0017127D01*
X0058294Y0017226D01*
X0058180Y0017327D01*
X0058068Y0017432D01*
X0057959Y0017540D01*
X0057853Y0017651D01*
X0057749Y0017764D01*
X0057649Y0017880D01*
X0057551Y0017998D01*
X0057457Y0018119D01*
X0057366Y0018242D01*
X0057278Y0018368D01*
X0057194Y0018496D01*
X0057112Y0018626D01*
X0057035Y0018758D01*
X0056960Y0018892D01*
X0056889Y0019028D01*
X0056822Y0019166D01*
X0056758Y0019306D01*
X0056698Y0019447D01*
X0056642Y0019589D01*
X0056589Y0019733D01*
X0056540Y0019879D01*
X0056495Y0020025D01*
X0056454Y0020173D01*
X0056417Y0020321D01*
X0056383Y0020471D01*
X0056353Y0020622D01*
X0056328Y0020773D01*
X0056306Y0020924D01*
X0056288Y0021077D01*
X0056274Y0021229D01*
X0056264Y0021382D01*
X0056258Y0021536D01*
X0056256Y0021689D01*
X0078225Y0072870D02*
X0078227Y0073023D01*
X0078233Y0073177D01*
X0078243Y0073330D01*
X0078257Y0073482D01*
X0078275Y0073635D01*
X0078297Y0073786D01*
X0078322Y0073937D01*
X0078352Y0074088D01*
X0078386Y0074238D01*
X0078423Y0074386D01*
X0078464Y0074534D01*
X0078509Y0074680D01*
X0078558Y0074826D01*
X0078611Y0074970D01*
X0078667Y0075112D01*
X0078727Y0075253D01*
X0078791Y0075393D01*
X0078858Y0075531D01*
X0078929Y0075667D01*
X0079004Y0075801D01*
X0079081Y0075933D01*
X0079163Y0076063D01*
X0079247Y0076191D01*
X0079335Y0076317D01*
X0079426Y0076440D01*
X0079520Y0076561D01*
X0079618Y0076679D01*
X0079718Y0076795D01*
X0079822Y0076908D01*
X0079928Y0077019D01*
X0080037Y0077127D01*
X0080149Y0077232D01*
X0080263Y0077333D01*
X0080381Y0077432D01*
X0080500Y0077528D01*
X0080622Y0077621D01*
X0080747Y0077710D01*
X0080874Y0077797D01*
X0081003Y0077879D01*
X0081134Y0077959D01*
X0081267Y0078035D01*
X0081402Y0078108D01*
X0081539Y0078177D01*
X0081678Y0078242D01*
X0081818Y0078304D01*
X0081960Y0078362D01*
X0082103Y0078417D01*
X0082248Y0078468D01*
X0082394Y0078515D01*
X0082541Y0078558D01*
X0082689Y0078597D01*
X0082838Y0078633D01*
X0082988Y0078664D01*
X0083139Y0078692D01*
X0083290Y0078716D01*
X0083443Y0078736D01*
X0083595Y0078752D01*
X0083748Y0078764D01*
X0083901Y0078772D01*
X0084054Y0078776D01*
X0084208Y0078776D01*
X0084361Y0078772D01*
X0084514Y0078764D01*
X0084667Y0078752D01*
X0084819Y0078736D01*
X0084972Y0078716D01*
X0085123Y0078692D01*
X0085274Y0078664D01*
X0085424Y0078633D01*
X0085573Y0078597D01*
X0085721Y0078558D01*
X0085868Y0078515D01*
X0086014Y0078468D01*
X0086159Y0078417D01*
X0086302Y0078362D01*
X0086444Y0078304D01*
X0086584Y0078242D01*
X0086723Y0078177D01*
X0086860Y0078108D01*
X0086995Y0078035D01*
X0087128Y0077959D01*
X0087259Y0077879D01*
X0087388Y0077797D01*
X0087515Y0077710D01*
X0087640Y0077621D01*
X0087762Y0077528D01*
X0087881Y0077432D01*
X0087999Y0077333D01*
X0088113Y0077232D01*
X0088225Y0077127D01*
X0088334Y0077019D01*
X0088440Y0076908D01*
X0088544Y0076795D01*
X0088644Y0076679D01*
X0088742Y0076561D01*
X0088836Y0076440D01*
X0088927Y0076317D01*
X0089015Y0076191D01*
X0089099Y0076063D01*
X0089181Y0075933D01*
X0089258Y0075801D01*
X0089333Y0075667D01*
X0089404Y0075531D01*
X0089471Y0075393D01*
X0089535Y0075253D01*
X0089595Y0075112D01*
X0089651Y0074970D01*
X0089704Y0074826D01*
X0089753Y0074680D01*
X0089798Y0074534D01*
X0089839Y0074386D01*
X0089876Y0074238D01*
X0089910Y0074088D01*
X0089940Y0073937D01*
X0089965Y0073786D01*
X0089987Y0073635D01*
X0090005Y0073482D01*
X0090019Y0073330D01*
X0090029Y0073177D01*
X0090035Y0073023D01*
X0090037Y0072870D01*
X0090035Y0072717D01*
X0090029Y0072563D01*
X0090019Y0072410D01*
X0090005Y0072258D01*
X0089987Y0072105D01*
X0089965Y0071954D01*
X0089940Y0071803D01*
X0089910Y0071652D01*
X0089876Y0071502D01*
X0089839Y0071354D01*
X0089798Y0071206D01*
X0089753Y0071060D01*
X0089704Y0070914D01*
X0089651Y0070770D01*
X0089595Y0070628D01*
X0089535Y0070487D01*
X0089471Y0070347D01*
X0089404Y0070209D01*
X0089333Y0070073D01*
X0089258Y0069939D01*
X0089181Y0069807D01*
X0089099Y0069677D01*
X0089015Y0069549D01*
X0088927Y0069423D01*
X0088836Y0069300D01*
X0088742Y0069179D01*
X0088644Y0069061D01*
X0088544Y0068945D01*
X0088440Y0068832D01*
X0088334Y0068721D01*
X0088225Y0068613D01*
X0088113Y0068508D01*
X0087999Y0068407D01*
X0087881Y0068308D01*
X0087762Y0068212D01*
X0087640Y0068119D01*
X0087515Y0068030D01*
X0087388Y0067943D01*
X0087259Y0067861D01*
X0087128Y0067781D01*
X0086995Y0067705D01*
X0086860Y0067632D01*
X0086723Y0067563D01*
X0086584Y0067498D01*
X0086444Y0067436D01*
X0086302Y0067378D01*
X0086159Y0067323D01*
X0086014Y0067272D01*
X0085868Y0067225D01*
X0085721Y0067182D01*
X0085573Y0067143D01*
X0085424Y0067107D01*
X0085274Y0067076D01*
X0085123Y0067048D01*
X0084972Y0067024D01*
X0084819Y0067004D01*
X0084667Y0066988D01*
X0084514Y0066976D01*
X0084361Y0066968D01*
X0084208Y0066964D01*
X0084054Y0066964D01*
X0083901Y0066968D01*
X0083748Y0066976D01*
X0083595Y0066988D01*
X0083443Y0067004D01*
X0083290Y0067024D01*
X0083139Y0067048D01*
X0082988Y0067076D01*
X0082838Y0067107D01*
X0082689Y0067143D01*
X0082541Y0067182D01*
X0082394Y0067225D01*
X0082248Y0067272D01*
X0082103Y0067323D01*
X0081960Y0067378D01*
X0081818Y0067436D01*
X0081678Y0067498D01*
X0081539Y0067563D01*
X0081402Y0067632D01*
X0081267Y0067705D01*
X0081134Y0067781D01*
X0081003Y0067861D01*
X0080874Y0067943D01*
X0080747Y0068030D01*
X0080622Y0068119D01*
X0080500Y0068212D01*
X0080381Y0068308D01*
X0080263Y0068407D01*
X0080149Y0068508D01*
X0080037Y0068613D01*
X0079928Y0068721D01*
X0079822Y0068832D01*
X0079718Y0068945D01*
X0079618Y0069061D01*
X0079520Y0069179D01*
X0079426Y0069300D01*
X0079335Y0069423D01*
X0079247Y0069549D01*
X0079163Y0069677D01*
X0079081Y0069807D01*
X0079004Y0069939D01*
X0078929Y0070073D01*
X0078858Y0070209D01*
X0078791Y0070347D01*
X0078727Y0070487D01*
X0078667Y0070628D01*
X0078611Y0070770D01*
X0078558Y0070914D01*
X0078509Y0071060D01*
X0078464Y0071206D01*
X0078423Y0071354D01*
X0078386Y0071502D01*
X0078352Y0071652D01*
X0078322Y0071803D01*
X0078297Y0071954D01*
X0078275Y0072105D01*
X0078257Y0072258D01*
X0078243Y0072410D01*
X0078233Y0072563D01*
X0078227Y0072717D01*
X0078225Y0072870D01*
X0264051Y0072870D02*
X0264053Y0073023D01*
X0264059Y0073177D01*
X0264069Y0073330D01*
X0264083Y0073482D01*
X0264101Y0073635D01*
X0264123Y0073786D01*
X0264148Y0073937D01*
X0264178Y0074088D01*
X0264212Y0074238D01*
X0264249Y0074386D01*
X0264290Y0074534D01*
X0264335Y0074680D01*
X0264384Y0074826D01*
X0264437Y0074970D01*
X0264493Y0075112D01*
X0264553Y0075253D01*
X0264617Y0075393D01*
X0264684Y0075531D01*
X0264755Y0075667D01*
X0264830Y0075801D01*
X0264907Y0075933D01*
X0264989Y0076063D01*
X0265073Y0076191D01*
X0265161Y0076317D01*
X0265252Y0076440D01*
X0265346Y0076561D01*
X0265444Y0076679D01*
X0265544Y0076795D01*
X0265648Y0076908D01*
X0265754Y0077019D01*
X0265863Y0077127D01*
X0265975Y0077232D01*
X0266089Y0077333D01*
X0266207Y0077432D01*
X0266326Y0077528D01*
X0266448Y0077621D01*
X0266573Y0077710D01*
X0266700Y0077797D01*
X0266829Y0077879D01*
X0266960Y0077959D01*
X0267093Y0078035D01*
X0267228Y0078108D01*
X0267365Y0078177D01*
X0267504Y0078242D01*
X0267644Y0078304D01*
X0267786Y0078362D01*
X0267929Y0078417D01*
X0268074Y0078468D01*
X0268220Y0078515D01*
X0268367Y0078558D01*
X0268515Y0078597D01*
X0268664Y0078633D01*
X0268814Y0078664D01*
X0268965Y0078692D01*
X0269116Y0078716D01*
X0269269Y0078736D01*
X0269421Y0078752D01*
X0269574Y0078764D01*
X0269727Y0078772D01*
X0269880Y0078776D01*
X0270034Y0078776D01*
X0270187Y0078772D01*
X0270340Y0078764D01*
X0270493Y0078752D01*
X0270645Y0078736D01*
X0270798Y0078716D01*
X0270949Y0078692D01*
X0271100Y0078664D01*
X0271250Y0078633D01*
X0271399Y0078597D01*
X0271547Y0078558D01*
X0271694Y0078515D01*
X0271840Y0078468D01*
X0271985Y0078417D01*
X0272128Y0078362D01*
X0272270Y0078304D01*
X0272410Y0078242D01*
X0272549Y0078177D01*
X0272686Y0078108D01*
X0272821Y0078035D01*
X0272954Y0077959D01*
X0273085Y0077879D01*
X0273214Y0077797D01*
X0273341Y0077710D01*
X0273466Y0077621D01*
X0273588Y0077528D01*
X0273707Y0077432D01*
X0273825Y0077333D01*
X0273939Y0077232D01*
X0274051Y0077127D01*
X0274160Y0077019D01*
X0274266Y0076908D01*
X0274370Y0076795D01*
X0274470Y0076679D01*
X0274568Y0076561D01*
X0274662Y0076440D01*
X0274753Y0076317D01*
X0274841Y0076191D01*
X0274925Y0076063D01*
X0275007Y0075933D01*
X0275084Y0075801D01*
X0275159Y0075667D01*
X0275230Y0075531D01*
X0275297Y0075393D01*
X0275361Y0075253D01*
X0275421Y0075112D01*
X0275477Y0074970D01*
X0275530Y0074826D01*
X0275579Y0074680D01*
X0275624Y0074534D01*
X0275665Y0074386D01*
X0275702Y0074238D01*
X0275736Y0074088D01*
X0275766Y0073937D01*
X0275791Y0073786D01*
X0275813Y0073635D01*
X0275831Y0073482D01*
X0275845Y0073330D01*
X0275855Y0073177D01*
X0275861Y0073023D01*
X0275863Y0072870D01*
X0275861Y0072717D01*
X0275855Y0072563D01*
X0275845Y0072410D01*
X0275831Y0072258D01*
X0275813Y0072105D01*
X0275791Y0071954D01*
X0275766Y0071803D01*
X0275736Y0071652D01*
X0275702Y0071502D01*
X0275665Y0071354D01*
X0275624Y0071206D01*
X0275579Y0071060D01*
X0275530Y0070914D01*
X0275477Y0070770D01*
X0275421Y0070628D01*
X0275361Y0070487D01*
X0275297Y0070347D01*
X0275230Y0070209D01*
X0275159Y0070073D01*
X0275084Y0069939D01*
X0275007Y0069807D01*
X0274925Y0069677D01*
X0274841Y0069549D01*
X0274753Y0069423D01*
X0274662Y0069300D01*
X0274568Y0069179D01*
X0274470Y0069061D01*
X0274370Y0068945D01*
X0274266Y0068832D01*
X0274160Y0068721D01*
X0274051Y0068613D01*
X0273939Y0068508D01*
X0273825Y0068407D01*
X0273707Y0068308D01*
X0273588Y0068212D01*
X0273466Y0068119D01*
X0273341Y0068030D01*
X0273214Y0067943D01*
X0273085Y0067861D01*
X0272954Y0067781D01*
X0272821Y0067705D01*
X0272686Y0067632D01*
X0272549Y0067563D01*
X0272410Y0067498D01*
X0272270Y0067436D01*
X0272128Y0067378D01*
X0271985Y0067323D01*
X0271840Y0067272D01*
X0271694Y0067225D01*
X0271547Y0067182D01*
X0271399Y0067143D01*
X0271250Y0067107D01*
X0271100Y0067076D01*
X0270949Y0067048D01*
X0270798Y0067024D01*
X0270645Y0067004D01*
X0270493Y0066988D01*
X0270340Y0066976D01*
X0270187Y0066968D01*
X0270034Y0066964D01*
X0269880Y0066964D01*
X0269727Y0066968D01*
X0269574Y0066976D01*
X0269421Y0066988D01*
X0269269Y0067004D01*
X0269116Y0067024D01*
X0268965Y0067048D01*
X0268814Y0067076D01*
X0268664Y0067107D01*
X0268515Y0067143D01*
X0268367Y0067182D01*
X0268220Y0067225D01*
X0268074Y0067272D01*
X0267929Y0067323D01*
X0267786Y0067378D01*
X0267644Y0067436D01*
X0267504Y0067498D01*
X0267365Y0067563D01*
X0267228Y0067632D01*
X0267093Y0067705D01*
X0266960Y0067781D01*
X0266829Y0067861D01*
X0266700Y0067943D01*
X0266573Y0068030D01*
X0266448Y0068119D01*
X0266326Y0068212D01*
X0266207Y0068308D01*
X0266089Y0068407D01*
X0265975Y0068508D01*
X0265863Y0068613D01*
X0265754Y0068721D01*
X0265648Y0068832D01*
X0265544Y0068945D01*
X0265444Y0069061D01*
X0265346Y0069179D01*
X0265252Y0069300D01*
X0265161Y0069423D01*
X0265073Y0069549D01*
X0264989Y0069677D01*
X0264907Y0069807D01*
X0264830Y0069939D01*
X0264755Y0070073D01*
X0264684Y0070209D01*
X0264617Y0070347D01*
X0264553Y0070487D01*
X0264493Y0070628D01*
X0264437Y0070770D01*
X0264384Y0070914D01*
X0264335Y0071060D01*
X0264290Y0071206D01*
X0264249Y0071354D01*
X0264212Y0071502D01*
X0264178Y0071652D01*
X0264148Y0071803D01*
X0264123Y0071954D01*
X0264101Y0072105D01*
X0264083Y0072258D01*
X0264069Y0072410D01*
X0264059Y0072563D01*
X0264053Y0072717D01*
X0264051Y0072870D01*
X0284603Y0021689D02*
X0284605Y0021842D01*
X0284611Y0021996D01*
X0284621Y0022149D01*
X0284635Y0022301D01*
X0284653Y0022454D01*
X0284675Y0022605D01*
X0284700Y0022756D01*
X0284730Y0022907D01*
X0284764Y0023057D01*
X0284801Y0023205D01*
X0284842Y0023353D01*
X0284887Y0023499D01*
X0284936Y0023645D01*
X0284989Y0023789D01*
X0285045Y0023931D01*
X0285105Y0024072D01*
X0285169Y0024212D01*
X0285236Y0024350D01*
X0285307Y0024486D01*
X0285382Y0024620D01*
X0285459Y0024752D01*
X0285541Y0024882D01*
X0285625Y0025010D01*
X0285713Y0025136D01*
X0285804Y0025259D01*
X0285898Y0025380D01*
X0285996Y0025498D01*
X0286096Y0025614D01*
X0286200Y0025727D01*
X0286306Y0025838D01*
X0286415Y0025946D01*
X0286527Y0026051D01*
X0286641Y0026152D01*
X0286759Y0026251D01*
X0286878Y0026347D01*
X0287000Y0026440D01*
X0287125Y0026529D01*
X0287252Y0026616D01*
X0287381Y0026698D01*
X0287512Y0026778D01*
X0287645Y0026854D01*
X0287780Y0026927D01*
X0287917Y0026996D01*
X0288056Y0027061D01*
X0288196Y0027123D01*
X0288338Y0027181D01*
X0288481Y0027236D01*
X0288626Y0027287D01*
X0288772Y0027334D01*
X0288919Y0027377D01*
X0289067Y0027416D01*
X0289216Y0027452D01*
X0289366Y0027483D01*
X0289517Y0027511D01*
X0289668Y0027535D01*
X0289821Y0027555D01*
X0289973Y0027571D01*
X0290126Y0027583D01*
X0290279Y0027591D01*
X0290432Y0027595D01*
X0290586Y0027595D01*
X0290739Y0027591D01*
X0290892Y0027583D01*
X0291045Y0027571D01*
X0291197Y0027555D01*
X0291350Y0027535D01*
X0291501Y0027511D01*
X0291652Y0027483D01*
X0291802Y0027452D01*
X0291951Y0027416D01*
X0292099Y0027377D01*
X0292246Y0027334D01*
X0292392Y0027287D01*
X0292537Y0027236D01*
X0292680Y0027181D01*
X0292822Y0027123D01*
X0292962Y0027061D01*
X0293101Y0026996D01*
X0293238Y0026927D01*
X0293373Y0026854D01*
X0293506Y0026778D01*
X0293637Y0026698D01*
X0293766Y0026616D01*
X0293893Y0026529D01*
X0294018Y0026440D01*
X0294140Y0026347D01*
X0294259Y0026251D01*
X0294377Y0026152D01*
X0294491Y0026051D01*
X0294603Y0025946D01*
X0294712Y0025838D01*
X0294818Y0025727D01*
X0294922Y0025614D01*
X0295022Y0025498D01*
X0295120Y0025380D01*
X0295214Y0025259D01*
X0295305Y0025136D01*
X0295393Y0025010D01*
X0295477Y0024882D01*
X0295559Y0024752D01*
X0295636Y0024620D01*
X0295711Y0024486D01*
X0295782Y0024350D01*
X0295849Y0024212D01*
X0295913Y0024072D01*
X0295973Y0023931D01*
X0296029Y0023789D01*
X0296082Y0023645D01*
X0296131Y0023499D01*
X0296176Y0023353D01*
X0296217Y0023205D01*
X0296254Y0023057D01*
X0296288Y0022907D01*
X0296318Y0022756D01*
X0296343Y0022605D01*
X0296365Y0022454D01*
X0296383Y0022301D01*
X0296397Y0022149D01*
X0296407Y0021996D01*
X0296413Y0021842D01*
X0296415Y0021689D01*
X0296413Y0021536D01*
X0296407Y0021382D01*
X0296397Y0021229D01*
X0296383Y0021077D01*
X0296365Y0020924D01*
X0296343Y0020773D01*
X0296318Y0020622D01*
X0296288Y0020471D01*
X0296254Y0020321D01*
X0296217Y0020173D01*
X0296176Y0020025D01*
X0296131Y0019879D01*
X0296082Y0019733D01*
X0296029Y0019589D01*
X0295973Y0019447D01*
X0295913Y0019306D01*
X0295849Y0019166D01*
X0295782Y0019028D01*
X0295711Y0018892D01*
X0295636Y0018758D01*
X0295559Y0018626D01*
X0295477Y0018496D01*
X0295393Y0018368D01*
X0295305Y0018242D01*
X0295214Y0018119D01*
X0295120Y0017998D01*
X0295022Y0017880D01*
X0294922Y0017764D01*
X0294818Y0017651D01*
X0294712Y0017540D01*
X0294603Y0017432D01*
X0294491Y0017327D01*
X0294377Y0017226D01*
X0294259Y0017127D01*
X0294140Y0017031D01*
X0294018Y0016938D01*
X0293893Y0016849D01*
X0293766Y0016762D01*
X0293637Y0016680D01*
X0293506Y0016600D01*
X0293373Y0016524D01*
X0293238Y0016451D01*
X0293101Y0016382D01*
X0292962Y0016317D01*
X0292822Y0016255D01*
X0292680Y0016197D01*
X0292537Y0016142D01*
X0292392Y0016091D01*
X0292246Y0016044D01*
X0292099Y0016001D01*
X0291951Y0015962D01*
X0291802Y0015926D01*
X0291652Y0015895D01*
X0291501Y0015867D01*
X0291350Y0015843D01*
X0291197Y0015823D01*
X0291045Y0015807D01*
X0290892Y0015795D01*
X0290739Y0015787D01*
X0290586Y0015783D01*
X0290432Y0015783D01*
X0290279Y0015787D01*
X0290126Y0015795D01*
X0289973Y0015807D01*
X0289821Y0015823D01*
X0289668Y0015843D01*
X0289517Y0015867D01*
X0289366Y0015895D01*
X0289216Y0015926D01*
X0289067Y0015962D01*
X0288919Y0016001D01*
X0288772Y0016044D01*
X0288626Y0016091D01*
X0288481Y0016142D01*
X0288338Y0016197D01*
X0288196Y0016255D01*
X0288056Y0016317D01*
X0287917Y0016382D01*
X0287780Y0016451D01*
X0287645Y0016524D01*
X0287512Y0016600D01*
X0287381Y0016680D01*
X0287252Y0016762D01*
X0287125Y0016849D01*
X0287000Y0016938D01*
X0286878Y0017031D01*
X0286759Y0017127D01*
X0286641Y0017226D01*
X0286527Y0017327D01*
X0286415Y0017432D01*
X0286306Y0017540D01*
X0286200Y0017651D01*
X0286096Y0017764D01*
X0285996Y0017880D01*
X0285898Y0017998D01*
X0285804Y0018119D01*
X0285713Y0018242D01*
X0285625Y0018368D01*
X0285541Y0018496D01*
X0285459Y0018626D01*
X0285382Y0018758D01*
X0285307Y0018892D01*
X0285236Y0019028D01*
X0285169Y0019166D01*
X0285105Y0019306D01*
X0285045Y0019447D01*
X0284989Y0019589D01*
X0284936Y0019733D01*
X0284887Y0019879D01*
X0284842Y0020025D01*
X0284801Y0020173D01*
X0284764Y0020321D01*
X0284730Y0020471D01*
X0284700Y0020622D01*
X0284675Y0020773D01*
X0284653Y0020924D01*
X0284635Y0021077D01*
X0284621Y0021229D01*
X0284611Y0021382D01*
X0284605Y0021536D01*
X0284603Y0021689D01*
X0284603Y0214524D02*
X0284605Y0214677D01*
X0284611Y0214831D01*
X0284621Y0214984D01*
X0284635Y0215136D01*
X0284653Y0215289D01*
X0284675Y0215440D01*
X0284700Y0215591D01*
X0284730Y0215742D01*
X0284764Y0215892D01*
X0284801Y0216040D01*
X0284842Y0216188D01*
X0284887Y0216334D01*
X0284936Y0216480D01*
X0284989Y0216624D01*
X0285045Y0216766D01*
X0285105Y0216907D01*
X0285169Y0217047D01*
X0285236Y0217185D01*
X0285307Y0217321D01*
X0285382Y0217455D01*
X0285459Y0217587D01*
X0285541Y0217717D01*
X0285625Y0217845D01*
X0285713Y0217971D01*
X0285804Y0218094D01*
X0285898Y0218215D01*
X0285996Y0218333D01*
X0286096Y0218449D01*
X0286200Y0218562D01*
X0286306Y0218673D01*
X0286415Y0218781D01*
X0286527Y0218886D01*
X0286641Y0218987D01*
X0286759Y0219086D01*
X0286878Y0219182D01*
X0287000Y0219275D01*
X0287125Y0219364D01*
X0287252Y0219451D01*
X0287381Y0219533D01*
X0287512Y0219613D01*
X0287645Y0219689D01*
X0287780Y0219762D01*
X0287917Y0219831D01*
X0288056Y0219896D01*
X0288196Y0219958D01*
X0288338Y0220016D01*
X0288481Y0220071D01*
X0288626Y0220122D01*
X0288772Y0220169D01*
X0288919Y0220212D01*
X0289067Y0220251D01*
X0289216Y0220287D01*
X0289366Y0220318D01*
X0289517Y0220346D01*
X0289668Y0220370D01*
X0289821Y0220390D01*
X0289973Y0220406D01*
X0290126Y0220418D01*
X0290279Y0220426D01*
X0290432Y0220430D01*
X0290586Y0220430D01*
X0290739Y0220426D01*
X0290892Y0220418D01*
X0291045Y0220406D01*
X0291197Y0220390D01*
X0291350Y0220370D01*
X0291501Y0220346D01*
X0291652Y0220318D01*
X0291802Y0220287D01*
X0291951Y0220251D01*
X0292099Y0220212D01*
X0292246Y0220169D01*
X0292392Y0220122D01*
X0292537Y0220071D01*
X0292680Y0220016D01*
X0292822Y0219958D01*
X0292962Y0219896D01*
X0293101Y0219831D01*
X0293238Y0219762D01*
X0293373Y0219689D01*
X0293506Y0219613D01*
X0293637Y0219533D01*
X0293766Y0219451D01*
X0293893Y0219364D01*
X0294018Y0219275D01*
X0294140Y0219182D01*
X0294259Y0219086D01*
X0294377Y0218987D01*
X0294491Y0218886D01*
X0294603Y0218781D01*
X0294712Y0218673D01*
X0294818Y0218562D01*
X0294922Y0218449D01*
X0295022Y0218333D01*
X0295120Y0218215D01*
X0295214Y0218094D01*
X0295305Y0217971D01*
X0295393Y0217845D01*
X0295477Y0217717D01*
X0295559Y0217587D01*
X0295636Y0217455D01*
X0295711Y0217321D01*
X0295782Y0217185D01*
X0295849Y0217047D01*
X0295913Y0216907D01*
X0295973Y0216766D01*
X0296029Y0216624D01*
X0296082Y0216480D01*
X0296131Y0216334D01*
X0296176Y0216188D01*
X0296217Y0216040D01*
X0296254Y0215892D01*
X0296288Y0215742D01*
X0296318Y0215591D01*
X0296343Y0215440D01*
X0296365Y0215289D01*
X0296383Y0215136D01*
X0296397Y0214984D01*
X0296407Y0214831D01*
X0296413Y0214677D01*
X0296415Y0214524D01*
X0296413Y0214371D01*
X0296407Y0214217D01*
X0296397Y0214064D01*
X0296383Y0213912D01*
X0296365Y0213759D01*
X0296343Y0213608D01*
X0296318Y0213457D01*
X0296288Y0213306D01*
X0296254Y0213156D01*
X0296217Y0213008D01*
X0296176Y0212860D01*
X0296131Y0212714D01*
X0296082Y0212568D01*
X0296029Y0212424D01*
X0295973Y0212282D01*
X0295913Y0212141D01*
X0295849Y0212001D01*
X0295782Y0211863D01*
X0295711Y0211727D01*
X0295636Y0211593D01*
X0295559Y0211461D01*
X0295477Y0211331D01*
X0295393Y0211203D01*
X0295305Y0211077D01*
X0295214Y0210954D01*
X0295120Y0210833D01*
X0295022Y0210715D01*
X0294922Y0210599D01*
X0294818Y0210486D01*
X0294712Y0210375D01*
X0294603Y0210267D01*
X0294491Y0210162D01*
X0294377Y0210061D01*
X0294259Y0209962D01*
X0294140Y0209866D01*
X0294018Y0209773D01*
X0293893Y0209684D01*
X0293766Y0209597D01*
X0293637Y0209515D01*
X0293506Y0209435D01*
X0293373Y0209359D01*
X0293238Y0209286D01*
X0293101Y0209217D01*
X0292962Y0209152D01*
X0292822Y0209090D01*
X0292680Y0209032D01*
X0292537Y0208977D01*
X0292392Y0208926D01*
X0292246Y0208879D01*
X0292099Y0208836D01*
X0291951Y0208797D01*
X0291802Y0208761D01*
X0291652Y0208730D01*
X0291501Y0208702D01*
X0291350Y0208678D01*
X0291197Y0208658D01*
X0291045Y0208642D01*
X0290892Y0208630D01*
X0290739Y0208622D01*
X0290586Y0208618D01*
X0290432Y0208618D01*
X0290279Y0208622D01*
X0290126Y0208630D01*
X0289973Y0208642D01*
X0289821Y0208658D01*
X0289668Y0208678D01*
X0289517Y0208702D01*
X0289366Y0208730D01*
X0289216Y0208761D01*
X0289067Y0208797D01*
X0288919Y0208836D01*
X0288772Y0208879D01*
X0288626Y0208926D01*
X0288481Y0208977D01*
X0288338Y0209032D01*
X0288196Y0209090D01*
X0288056Y0209152D01*
X0287917Y0209217D01*
X0287780Y0209286D01*
X0287645Y0209359D01*
X0287512Y0209435D01*
X0287381Y0209515D01*
X0287252Y0209597D01*
X0287125Y0209684D01*
X0287000Y0209773D01*
X0286878Y0209866D01*
X0286759Y0209962D01*
X0286641Y0210061D01*
X0286527Y0210162D01*
X0286415Y0210267D01*
X0286306Y0210375D01*
X0286200Y0210486D01*
X0286096Y0210599D01*
X0285996Y0210715D01*
X0285898Y0210833D01*
X0285804Y0210954D01*
X0285713Y0211077D01*
X0285625Y0211203D01*
X0285541Y0211331D01*
X0285459Y0211461D01*
X0285382Y0211593D01*
X0285307Y0211727D01*
X0285236Y0211863D01*
X0285169Y0212001D01*
X0285105Y0212141D01*
X0285045Y0212282D01*
X0284989Y0212424D01*
X0284936Y0212568D01*
X0284887Y0212714D01*
X0284842Y0212860D01*
X0284801Y0213008D01*
X0284764Y0213156D01*
X0284730Y0213306D01*
X0284700Y0213457D01*
X0284675Y0213608D01*
X0284653Y0213759D01*
X0284635Y0213912D01*
X0284621Y0214064D01*
X0284611Y0214217D01*
X0284605Y0214371D01*
X0284603Y0214524D01*
D11*
X0119627Y0177235D02*
X0119627Y0174766D01*
X0118393Y0173532D01*
X0117159Y0174766D01*
X0117159Y0177235D01*
X0115944Y0176618D02*
X0115327Y0177235D01*
X0114093Y0177235D01*
X0113476Y0176618D01*
X0115944Y0176618D02*
X0115944Y0176001D01*
X0113476Y0173532D01*
X0115944Y0173532D01*
X0112261Y0173532D02*
X0109792Y0173532D01*
X0111027Y0173532D02*
X0111027Y0177235D01*
X0109792Y0176001D01*
X0110410Y0168180D02*
X0109792Y0167563D01*
X0109792Y0165094D01*
X0110410Y0164477D01*
X0111644Y0164477D01*
X0112261Y0165094D01*
X0112261Y0166328D01*
X0111027Y0166328D01*
X0112261Y0167563D02*
X0111644Y0168180D01*
X0110410Y0168180D01*
X0113476Y0168180D02*
X0113476Y0164477D01*
X0115944Y0164477D02*
X0113476Y0168180D01*
X0115944Y0168180D02*
X0115944Y0164477D01*
X0117159Y0164477D02*
X0119010Y0164477D01*
X0119627Y0165094D01*
X0119627Y0167563D01*
X0119010Y0168180D01*
X0117159Y0168180D01*
X0117159Y0164477D01*
X0116771Y0157983D02*
X0116771Y0155514D01*
X0115537Y0154280D01*
X0114302Y0155514D01*
X0114302Y0157983D01*
X0113088Y0157366D02*
X0113088Y0156749D01*
X0112471Y0156131D01*
X0113088Y0155514D01*
X0113088Y0154897D01*
X0112471Y0154280D01*
X0111236Y0154280D01*
X0110619Y0154897D01*
X0111854Y0156131D02*
X0112471Y0156131D01*
X0113088Y0157366D02*
X0112471Y0157983D01*
X0111236Y0157983D01*
X0110619Y0157366D01*
X0117985Y0157366D02*
X0118603Y0157983D01*
X0119837Y0157983D01*
X0120454Y0157366D01*
X0120454Y0156749D01*
X0119837Y0156131D01*
X0120454Y0155514D01*
X0120454Y0154897D01*
X0119837Y0154280D01*
X0118603Y0154280D01*
X0117985Y0154897D01*
X0119220Y0156131D02*
X0119837Y0156131D01*
X0115669Y0147550D02*
X0115669Y0145081D01*
X0114434Y0143847D01*
X0113200Y0145081D01*
X0113200Y0147550D01*
X0111986Y0147550D02*
X0109517Y0147550D01*
X0109517Y0145698D01*
X0110751Y0146316D01*
X0111368Y0146316D01*
X0111986Y0145698D01*
X0111986Y0144464D01*
X0111368Y0143847D01*
X0110134Y0143847D01*
X0109517Y0144464D01*
X0110476Y0137117D02*
X0109241Y0135883D01*
X0109241Y0133414D01*
X0109241Y0135265D02*
X0111710Y0135265D01*
X0111710Y0135883D02*
X0111710Y0133414D01*
X0111710Y0135883D02*
X0110476Y0137117D01*
X0111093Y0127235D02*
X0109241Y0127235D01*
X0109241Y0123532D01*
X0111093Y0123532D01*
X0111710Y0124149D01*
X0111710Y0124766D01*
X0111093Y0125383D01*
X0109241Y0125383D01*
X0111093Y0125383D02*
X0111710Y0126001D01*
X0111710Y0126618D01*
X0111093Y0127235D01*
D12*
X0078757Y0202563D02*
X0273757Y0202563D01*
X0273855Y0202565D01*
X0273953Y0202571D01*
X0274051Y0202580D01*
X0274148Y0202594D01*
X0274245Y0202611D01*
X0274341Y0202632D01*
X0274436Y0202657D01*
X0274530Y0202685D01*
X0274622Y0202718D01*
X0274714Y0202753D01*
X0274804Y0202793D01*
X0274892Y0202835D01*
X0274979Y0202882D01*
X0275063Y0202931D01*
X0275146Y0202984D01*
X0275226Y0203040D01*
X0275305Y0203100D01*
X0275381Y0203162D01*
X0275454Y0203227D01*
X0275525Y0203295D01*
X0275593Y0203366D01*
X0275658Y0203439D01*
X0275720Y0203515D01*
X0275780Y0203594D01*
X0275836Y0203674D01*
X0275889Y0203757D01*
X0275938Y0203841D01*
X0275985Y0203928D01*
X0276027Y0204016D01*
X0276067Y0204106D01*
X0276102Y0204198D01*
X0276135Y0204290D01*
X0276163Y0204384D01*
X0276188Y0204479D01*
X0276209Y0204575D01*
X0276226Y0204672D01*
X0276240Y0204769D01*
X0276249Y0204867D01*
X0276255Y0204965D01*
X0276257Y0205063D01*
X0276257Y0224063D01*
X0276255Y0224161D01*
X0276249Y0224259D01*
X0276240Y0224357D01*
X0276226Y0224454D01*
X0276209Y0224551D01*
X0276188Y0224647D01*
X0276163Y0224742D01*
X0276135Y0224836D01*
X0276102Y0224928D01*
X0276067Y0225020D01*
X0276027Y0225110D01*
X0275985Y0225198D01*
X0275938Y0225285D01*
X0275889Y0225369D01*
X0275836Y0225452D01*
X0275780Y0225532D01*
X0275720Y0225611D01*
X0275658Y0225687D01*
X0275593Y0225760D01*
X0275525Y0225831D01*
X0275454Y0225899D01*
X0275381Y0225964D01*
X0275305Y0226026D01*
X0275226Y0226086D01*
X0275146Y0226142D01*
X0275063Y0226195D01*
X0274979Y0226244D01*
X0274892Y0226291D01*
X0274804Y0226333D01*
X0274714Y0226373D01*
X0274622Y0226408D01*
X0274530Y0226441D01*
X0274436Y0226469D01*
X0274341Y0226494D01*
X0274245Y0226515D01*
X0274148Y0226532D01*
X0274051Y0226546D01*
X0273953Y0226555D01*
X0273855Y0226561D01*
X0273757Y0226563D01*
X0078757Y0226563D01*
X0078659Y0226561D01*
X0078561Y0226555D01*
X0078463Y0226546D01*
X0078366Y0226532D01*
X0078269Y0226515D01*
X0078173Y0226494D01*
X0078078Y0226469D01*
X0077984Y0226441D01*
X0077892Y0226408D01*
X0077800Y0226373D01*
X0077710Y0226333D01*
X0077622Y0226291D01*
X0077535Y0226244D01*
X0077451Y0226195D01*
X0077368Y0226142D01*
X0077288Y0226086D01*
X0077209Y0226026D01*
X0077133Y0225964D01*
X0077060Y0225899D01*
X0076989Y0225831D01*
X0076921Y0225760D01*
X0076856Y0225687D01*
X0076794Y0225611D01*
X0076734Y0225532D01*
X0076678Y0225452D01*
X0076625Y0225369D01*
X0076576Y0225285D01*
X0076529Y0225198D01*
X0076487Y0225110D01*
X0076447Y0225020D01*
X0076412Y0224928D01*
X0076379Y0224836D01*
X0076351Y0224742D01*
X0076326Y0224647D01*
X0076305Y0224551D01*
X0076288Y0224454D01*
X0076274Y0224357D01*
X0076265Y0224259D01*
X0076259Y0224161D01*
X0076257Y0224063D01*
X0076257Y0205063D01*
X0076259Y0204965D01*
X0076265Y0204867D01*
X0076274Y0204769D01*
X0076288Y0204672D01*
X0076305Y0204575D01*
X0076326Y0204479D01*
X0076351Y0204384D01*
X0076379Y0204290D01*
X0076412Y0204198D01*
X0076447Y0204106D01*
X0076487Y0204016D01*
X0076529Y0203928D01*
X0076576Y0203841D01*
X0076625Y0203757D01*
X0076678Y0203674D01*
X0076734Y0203594D01*
X0076794Y0203515D01*
X0076856Y0203439D01*
X0076921Y0203366D01*
X0076989Y0203295D01*
X0077060Y0203227D01*
X0077133Y0203162D01*
X0077209Y0203100D01*
X0077288Y0203040D01*
X0077368Y0202984D01*
X0077451Y0202931D01*
X0077535Y0202882D01*
X0077622Y0202835D01*
X0077710Y0202793D01*
X0077800Y0202753D01*
X0077892Y0202718D01*
X0077984Y0202685D01*
X0078078Y0202657D01*
X0078173Y0202632D01*
X0078269Y0202611D01*
X0078366Y0202594D01*
X0078463Y0202580D01*
X0078561Y0202571D01*
X0078659Y0202565D01*
X0078757Y0202563D01*
X0227462Y0191032D02*
X0227462Y0184627D01*
X0227462Y0186762D02*
X0230665Y0186762D01*
X0231732Y0187830D01*
X0231732Y0189965D01*
X0230665Y0191032D01*
X0227462Y0191032D01*
X0233908Y0187830D02*
X0233908Y0185694D01*
X0234975Y0184627D01*
X0237110Y0184627D01*
X0238178Y0185694D01*
X0238178Y0187830D01*
X0237110Y0188897D01*
X0234975Y0188897D01*
X0233908Y0187830D01*
X0240353Y0188897D02*
X0240353Y0185694D01*
X0241421Y0184627D01*
X0242488Y0185694D01*
X0243556Y0184627D01*
X0244623Y0185694D01*
X0244623Y0188897D01*
X0246799Y0187830D02*
X0247866Y0188897D01*
X0250001Y0188897D01*
X0251069Y0187830D01*
X0251069Y0186762D01*
X0246799Y0186762D01*
X0246799Y0185694D02*
X0246799Y0187830D01*
X0246799Y0185694D02*
X0247866Y0184627D01*
X0250001Y0184627D01*
X0253244Y0184627D02*
X0253244Y0188897D01*
X0253244Y0186762D02*
X0255379Y0188897D01*
X0256447Y0188897D01*
X0255379Y0181190D02*
X0257514Y0179055D01*
X0257514Y0174784D01*
X0259690Y0174784D02*
X0262892Y0174784D01*
X0263960Y0175852D01*
X0263960Y0180122D01*
X0262892Y0181190D01*
X0259690Y0181190D01*
X0259690Y0174784D01*
X0257514Y0177987D02*
X0253244Y0177987D01*
X0253244Y0179055D02*
X0255379Y0181190D01*
X0253244Y0179055D02*
X0253244Y0174784D01*
X0251069Y0175852D02*
X0250001Y0174784D01*
X0246799Y0174784D01*
X0246799Y0181190D01*
X0250001Y0181190D01*
X0251069Y0180122D01*
X0251069Y0179055D01*
X0250001Y0177987D01*
X0246799Y0177987D01*
X0244623Y0177987D02*
X0242488Y0177987D01*
X0244623Y0177987D02*
X0244623Y0175852D01*
X0243556Y0174784D01*
X0241421Y0174784D01*
X0240353Y0175852D01*
X0240353Y0180122D01*
X0241421Y0181190D01*
X0243556Y0181190D01*
X0244623Y0180122D01*
X0250001Y0177987D02*
X0251069Y0176919D01*
X0251069Y0175852D01*
X0254312Y0171347D02*
X0253244Y0170280D01*
X0254312Y0171347D02*
X0256447Y0171347D01*
X0257514Y0170280D01*
X0257514Y0169212D01*
X0253244Y0164942D01*
X0257514Y0164942D01*
X0259690Y0166009D02*
X0263960Y0170280D01*
X0263960Y0166009D01*
X0262892Y0164942D01*
X0260757Y0164942D01*
X0259690Y0166009D01*
X0259690Y0170280D01*
X0260757Y0171347D01*
X0262892Y0171347D01*
X0263960Y0170280D01*
X0266135Y0169212D02*
X0268270Y0171347D01*
X0268270Y0164942D01*
X0266135Y0164942D02*
X0270405Y0164942D01*
X0272581Y0166009D02*
X0273648Y0164942D01*
X0275783Y0164942D01*
X0276851Y0166009D01*
X0276851Y0167077D01*
X0275783Y0168144D01*
X0272581Y0168144D01*
X0272581Y0166009D01*
X0272581Y0168144D02*
X0274716Y0170280D01*
X0276851Y0171347D01*
X0275783Y0174784D02*
X0273648Y0174784D01*
X0272581Y0175852D01*
X0276851Y0180122D01*
X0276851Y0175852D01*
X0275783Y0174784D01*
X0279026Y0174784D02*
X0283296Y0174784D01*
X0281161Y0174784D02*
X0281161Y0181190D01*
X0279026Y0179055D01*
X0276851Y0180122D02*
X0275783Y0181190D01*
X0273648Y0181190D01*
X0272581Y0180122D01*
X0272581Y0175852D01*
X0270405Y0175852D02*
X0269338Y0174784D01*
X0267203Y0174784D01*
X0266135Y0175852D01*
X0270405Y0180122D01*
X0270405Y0175852D01*
X0266135Y0175852D02*
X0266135Y0180122D01*
X0267203Y0181190D01*
X0269338Y0181190D01*
X0270405Y0180122D01*
X0271506Y0184627D02*
X0273641Y0184627D01*
X0272574Y0184627D02*
X0272574Y0188897D01*
X0271506Y0188897D01*
X0272574Y0191032D02*
X0272574Y0192100D01*
X0269331Y0189965D02*
X0269331Y0187830D01*
X0268264Y0186762D01*
X0265061Y0186762D01*
X0265061Y0184627D02*
X0265061Y0191032D01*
X0268264Y0191032D01*
X0269331Y0189965D01*
X0282249Y0191032D02*
X0282249Y0184627D01*
X0282249Y0187830D02*
X0286519Y0187830D01*
X0288694Y0185694D02*
X0289762Y0186762D01*
X0292965Y0186762D01*
X0292965Y0187830D02*
X0291897Y0188897D01*
X0289762Y0188897D01*
X0292965Y0187830D02*
X0292965Y0184627D01*
X0289762Y0184627D01*
X0288694Y0185694D01*
X0286519Y0184627D02*
X0286519Y0191032D01*
X0295140Y0188897D02*
X0297275Y0188897D01*
X0296207Y0189965D02*
X0296207Y0185694D01*
X0297275Y0184627D01*
X0305882Y0186762D02*
X0305882Y0191032D01*
X0310153Y0191032D02*
X0310153Y0186762D01*
X0308017Y0184627D01*
X0305882Y0186762D01*
X0312328Y0184627D02*
X0316598Y0188897D01*
X0316598Y0189965D01*
X0315531Y0191032D01*
X0313395Y0191032D01*
X0312328Y0189965D01*
X0312328Y0184627D02*
X0316598Y0184627D01*
X0277009Y0214524D02*
X0277013Y0214855D01*
X0277025Y0215186D01*
X0277046Y0215517D01*
X0277074Y0215847D01*
X0277111Y0216177D01*
X0277155Y0216505D01*
X0277208Y0216832D01*
X0277268Y0217158D01*
X0277337Y0217482D01*
X0277414Y0217804D01*
X0277498Y0218125D01*
X0277590Y0218443D01*
X0277690Y0218759D01*
X0277798Y0219072D01*
X0277914Y0219383D01*
X0278037Y0219690D01*
X0278167Y0219995D01*
X0278305Y0220296D01*
X0278450Y0220594D01*
X0278603Y0220888D01*
X0278763Y0221178D01*
X0278930Y0221464D01*
X0279103Y0221746D01*
X0279284Y0222024D01*
X0279472Y0222297D01*
X0279666Y0222566D01*
X0279866Y0222830D01*
X0280073Y0223088D01*
X0280287Y0223342D01*
X0280506Y0223590D01*
X0280732Y0223833D01*
X0280963Y0224070D01*
X0281200Y0224301D01*
X0281443Y0224527D01*
X0281691Y0224746D01*
X0281945Y0224960D01*
X0282203Y0225167D01*
X0282467Y0225367D01*
X0282736Y0225561D01*
X0283009Y0225749D01*
X0283287Y0225930D01*
X0283569Y0226103D01*
X0283855Y0226270D01*
X0284145Y0226430D01*
X0284439Y0226583D01*
X0284737Y0226728D01*
X0285038Y0226866D01*
X0285343Y0226996D01*
X0285650Y0227119D01*
X0285961Y0227235D01*
X0286274Y0227343D01*
X0286590Y0227443D01*
X0286908Y0227535D01*
X0287229Y0227619D01*
X0287551Y0227696D01*
X0287875Y0227765D01*
X0288201Y0227825D01*
X0288528Y0227878D01*
X0288856Y0227922D01*
X0289186Y0227959D01*
X0289516Y0227987D01*
X0289847Y0228008D01*
X0290178Y0228020D01*
X0290509Y0228024D01*
X0290840Y0228020D01*
X0291171Y0228008D01*
X0291502Y0227987D01*
X0291832Y0227959D01*
X0292162Y0227922D01*
X0292490Y0227878D01*
X0292817Y0227825D01*
X0293143Y0227765D01*
X0293467Y0227696D01*
X0293789Y0227619D01*
X0294110Y0227535D01*
X0294428Y0227443D01*
X0294744Y0227343D01*
X0295057Y0227235D01*
X0295368Y0227119D01*
X0295675Y0226996D01*
X0295980Y0226866D01*
X0296281Y0226728D01*
X0296579Y0226583D01*
X0296873Y0226430D01*
X0297163Y0226270D01*
X0297449Y0226103D01*
X0297731Y0225930D01*
X0298009Y0225749D01*
X0298282Y0225561D01*
X0298551Y0225367D01*
X0298815Y0225167D01*
X0299073Y0224960D01*
X0299327Y0224746D01*
X0299575Y0224527D01*
X0299818Y0224301D01*
X0300055Y0224070D01*
X0300286Y0223833D01*
X0300512Y0223590D01*
X0300731Y0223342D01*
X0300945Y0223088D01*
X0301152Y0222830D01*
X0301352Y0222566D01*
X0301546Y0222297D01*
X0301734Y0222024D01*
X0301915Y0221746D01*
X0302088Y0221464D01*
X0302255Y0221178D01*
X0302415Y0220888D01*
X0302568Y0220594D01*
X0302713Y0220296D01*
X0302851Y0219995D01*
X0302981Y0219690D01*
X0303104Y0219383D01*
X0303220Y0219072D01*
X0303328Y0218759D01*
X0303428Y0218443D01*
X0303520Y0218125D01*
X0303604Y0217804D01*
X0303681Y0217482D01*
X0303750Y0217158D01*
X0303810Y0216832D01*
X0303863Y0216505D01*
X0303907Y0216177D01*
X0303944Y0215847D01*
X0303972Y0215517D01*
X0303993Y0215186D01*
X0304005Y0214855D01*
X0304009Y0214524D01*
X0304005Y0214193D01*
X0303993Y0213862D01*
X0303972Y0213531D01*
X0303944Y0213201D01*
X0303907Y0212871D01*
X0303863Y0212543D01*
X0303810Y0212216D01*
X0303750Y0211890D01*
X0303681Y0211566D01*
X0303604Y0211244D01*
X0303520Y0210923D01*
X0303428Y0210605D01*
X0303328Y0210289D01*
X0303220Y0209976D01*
X0303104Y0209665D01*
X0302981Y0209358D01*
X0302851Y0209053D01*
X0302713Y0208752D01*
X0302568Y0208454D01*
X0302415Y0208160D01*
X0302255Y0207870D01*
X0302088Y0207584D01*
X0301915Y0207302D01*
X0301734Y0207024D01*
X0301546Y0206751D01*
X0301352Y0206482D01*
X0301152Y0206218D01*
X0300945Y0205960D01*
X0300731Y0205706D01*
X0300512Y0205458D01*
X0300286Y0205215D01*
X0300055Y0204978D01*
X0299818Y0204747D01*
X0299575Y0204521D01*
X0299327Y0204302D01*
X0299073Y0204088D01*
X0298815Y0203881D01*
X0298551Y0203681D01*
X0298282Y0203487D01*
X0298009Y0203299D01*
X0297731Y0203118D01*
X0297449Y0202945D01*
X0297163Y0202778D01*
X0296873Y0202618D01*
X0296579Y0202465D01*
X0296281Y0202320D01*
X0295980Y0202182D01*
X0295675Y0202052D01*
X0295368Y0201929D01*
X0295057Y0201813D01*
X0294744Y0201705D01*
X0294428Y0201605D01*
X0294110Y0201513D01*
X0293789Y0201429D01*
X0293467Y0201352D01*
X0293143Y0201283D01*
X0292817Y0201223D01*
X0292490Y0201170D01*
X0292162Y0201126D01*
X0291832Y0201089D01*
X0291502Y0201061D01*
X0291171Y0201040D01*
X0290840Y0201028D01*
X0290509Y0201024D01*
X0290178Y0201028D01*
X0289847Y0201040D01*
X0289516Y0201061D01*
X0289186Y0201089D01*
X0288856Y0201126D01*
X0288528Y0201170D01*
X0288201Y0201223D01*
X0287875Y0201283D01*
X0287551Y0201352D01*
X0287229Y0201429D01*
X0286908Y0201513D01*
X0286590Y0201605D01*
X0286274Y0201705D01*
X0285961Y0201813D01*
X0285650Y0201929D01*
X0285343Y0202052D01*
X0285038Y0202182D01*
X0284737Y0202320D01*
X0284439Y0202465D01*
X0284145Y0202618D01*
X0283855Y0202778D01*
X0283569Y0202945D01*
X0283287Y0203118D01*
X0283009Y0203299D01*
X0282736Y0203487D01*
X0282467Y0203681D01*
X0282203Y0203881D01*
X0281945Y0204088D01*
X0281691Y0204302D01*
X0281443Y0204521D01*
X0281200Y0204747D01*
X0280963Y0204978D01*
X0280732Y0205215D01*
X0280506Y0205458D01*
X0280287Y0205706D01*
X0280073Y0205960D01*
X0279866Y0206218D01*
X0279666Y0206482D01*
X0279472Y0206751D01*
X0279284Y0207024D01*
X0279103Y0207302D01*
X0278930Y0207584D01*
X0278763Y0207870D01*
X0278603Y0208160D01*
X0278450Y0208454D01*
X0278305Y0208752D01*
X0278167Y0209053D01*
X0278037Y0209358D01*
X0277914Y0209665D01*
X0277798Y0209976D01*
X0277690Y0210289D01*
X0277590Y0210605D01*
X0277498Y0210923D01*
X0277414Y0211244D01*
X0277337Y0211566D01*
X0277268Y0211890D01*
X0277208Y0212216D01*
X0277155Y0212543D01*
X0277111Y0212871D01*
X0277074Y0213201D01*
X0277046Y0213531D01*
X0277025Y0213862D01*
X0277013Y0214193D01*
X0277009Y0214524D01*
X0238178Y0180122D02*
X0237110Y0181190D01*
X0233908Y0181190D01*
X0233908Y0174784D01*
X0233908Y0176919D02*
X0237110Y0176919D01*
X0238178Y0177987D01*
X0238178Y0180122D01*
X0236043Y0176919D02*
X0238178Y0174784D01*
X0237110Y0171347D02*
X0234975Y0171347D01*
X0233908Y0170280D01*
X0233908Y0166009D01*
X0234975Y0164942D01*
X0237110Y0164942D01*
X0238178Y0166009D01*
X0242488Y0164942D02*
X0242488Y0171347D01*
X0240353Y0171347D02*
X0244623Y0171347D01*
X0238178Y0170280D02*
X0237110Y0171347D01*
X0231732Y0171347D02*
X0231732Y0166009D01*
X0230665Y0164942D01*
X0228530Y0164942D01*
X0227462Y0166009D01*
X0227462Y0171347D01*
X0227462Y0174784D02*
X0227462Y0181190D01*
X0229597Y0179055D01*
X0231732Y0181190D01*
X0231732Y0174784D01*
X0247595Y0145272D02*
X0247600Y0145640D01*
X0247613Y0146008D01*
X0247636Y0146375D01*
X0247667Y0146742D01*
X0247708Y0147108D01*
X0247757Y0147473D01*
X0247816Y0147836D01*
X0247883Y0148198D01*
X0247959Y0148559D01*
X0248045Y0148917D01*
X0248138Y0149273D01*
X0248241Y0149626D01*
X0248352Y0149977D01*
X0248472Y0150325D01*
X0248600Y0150670D01*
X0248737Y0151012D01*
X0248882Y0151351D01*
X0249035Y0151685D01*
X0249197Y0152016D01*
X0249366Y0152343D01*
X0249544Y0152665D01*
X0249729Y0152984D01*
X0249922Y0153297D01*
X0250123Y0153606D01*
X0250331Y0153909D01*
X0250547Y0154207D01*
X0250770Y0154500D01*
X0251000Y0154788D01*
X0251237Y0155070D01*
X0251481Y0155345D01*
X0251731Y0155615D01*
X0251988Y0155879D01*
X0252252Y0156136D01*
X0252522Y0156386D01*
X0252797Y0156630D01*
X0253079Y0156867D01*
X0253367Y0157097D01*
X0253660Y0157320D01*
X0253958Y0157536D01*
X0254261Y0157744D01*
X0254570Y0157945D01*
X0254883Y0158138D01*
X0255202Y0158323D01*
X0255524Y0158501D01*
X0255851Y0158670D01*
X0256182Y0158832D01*
X0256516Y0158985D01*
X0256855Y0159130D01*
X0257197Y0159267D01*
X0257542Y0159395D01*
X0257890Y0159515D01*
X0258241Y0159626D01*
X0258594Y0159729D01*
X0258950Y0159822D01*
X0259308Y0159908D01*
X0259669Y0159984D01*
X0260031Y0160051D01*
X0260394Y0160110D01*
X0260759Y0160159D01*
X0261125Y0160200D01*
X0261492Y0160231D01*
X0261859Y0160254D01*
X0262227Y0160267D01*
X0262595Y0160272D01*
X0262963Y0160267D01*
X0263331Y0160254D01*
X0263698Y0160231D01*
X0264065Y0160200D01*
X0264431Y0160159D01*
X0264796Y0160110D01*
X0265159Y0160051D01*
X0265521Y0159984D01*
X0265882Y0159908D01*
X0266240Y0159822D01*
X0266596Y0159729D01*
X0266949Y0159626D01*
X0267300Y0159515D01*
X0267648Y0159395D01*
X0267993Y0159267D01*
X0268335Y0159130D01*
X0268674Y0158985D01*
X0269008Y0158832D01*
X0269339Y0158670D01*
X0269666Y0158501D01*
X0269988Y0158323D01*
X0270307Y0158138D01*
X0270620Y0157945D01*
X0270929Y0157744D01*
X0271232Y0157536D01*
X0271530Y0157320D01*
X0271823Y0157097D01*
X0272111Y0156867D01*
X0272393Y0156630D01*
X0272668Y0156386D01*
X0272938Y0156136D01*
X0273202Y0155879D01*
X0273459Y0155615D01*
X0273709Y0155345D01*
X0273953Y0155070D01*
X0274190Y0154788D01*
X0274420Y0154500D01*
X0274643Y0154207D01*
X0274859Y0153909D01*
X0275067Y0153606D01*
X0275268Y0153297D01*
X0275461Y0152984D01*
X0275646Y0152665D01*
X0275824Y0152343D01*
X0275993Y0152016D01*
X0276155Y0151685D01*
X0276308Y0151351D01*
X0276453Y0151012D01*
X0276590Y0150670D01*
X0276718Y0150325D01*
X0276838Y0149977D01*
X0276949Y0149626D01*
X0277052Y0149273D01*
X0277145Y0148917D01*
X0277231Y0148559D01*
X0277307Y0148198D01*
X0277374Y0147836D01*
X0277433Y0147473D01*
X0277482Y0147108D01*
X0277523Y0146742D01*
X0277554Y0146375D01*
X0277577Y0146008D01*
X0277590Y0145640D01*
X0277595Y0145272D01*
X0277590Y0144904D01*
X0277577Y0144536D01*
X0277554Y0144169D01*
X0277523Y0143802D01*
X0277482Y0143436D01*
X0277433Y0143071D01*
X0277374Y0142708D01*
X0277307Y0142346D01*
X0277231Y0141985D01*
X0277145Y0141627D01*
X0277052Y0141271D01*
X0276949Y0140918D01*
X0276838Y0140567D01*
X0276718Y0140219D01*
X0276590Y0139874D01*
X0276453Y0139532D01*
X0276308Y0139193D01*
X0276155Y0138859D01*
X0275993Y0138528D01*
X0275824Y0138201D01*
X0275646Y0137879D01*
X0275461Y0137560D01*
X0275268Y0137247D01*
X0275067Y0136938D01*
X0274859Y0136635D01*
X0274643Y0136337D01*
X0274420Y0136044D01*
X0274190Y0135756D01*
X0273953Y0135474D01*
X0273709Y0135199D01*
X0273459Y0134929D01*
X0273202Y0134665D01*
X0272938Y0134408D01*
X0272668Y0134158D01*
X0272393Y0133914D01*
X0272111Y0133677D01*
X0271823Y0133447D01*
X0271530Y0133224D01*
X0271232Y0133008D01*
X0270929Y0132800D01*
X0270620Y0132599D01*
X0270307Y0132406D01*
X0269988Y0132221D01*
X0269666Y0132043D01*
X0269339Y0131874D01*
X0269008Y0131712D01*
X0268674Y0131559D01*
X0268335Y0131414D01*
X0267993Y0131277D01*
X0267648Y0131149D01*
X0267300Y0131029D01*
X0266949Y0130918D01*
X0266596Y0130815D01*
X0266240Y0130722D01*
X0265882Y0130636D01*
X0265521Y0130560D01*
X0265159Y0130493D01*
X0264796Y0130434D01*
X0264431Y0130385D01*
X0264065Y0130344D01*
X0263698Y0130313D01*
X0263331Y0130290D01*
X0262963Y0130277D01*
X0262595Y0130272D01*
X0262227Y0130277D01*
X0261859Y0130290D01*
X0261492Y0130313D01*
X0261125Y0130344D01*
X0260759Y0130385D01*
X0260394Y0130434D01*
X0260031Y0130493D01*
X0259669Y0130560D01*
X0259308Y0130636D01*
X0258950Y0130722D01*
X0258594Y0130815D01*
X0258241Y0130918D01*
X0257890Y0131029D01*
X0257542Y0131149D01*
X0257197Y0131277D01*
X0256855Y0131414D01*
X0256516Y0131559D01*
X0256182Y0131712D01*
X0255851Y0131874D01*
X0255524Y0132043D01*
X0255202Y0132221D01*
X0254883Y0132406D01*
X0254570Y0132599D01*
X0254261Y0132800D01*
X0253958Y0133008D01*
X0253660Y0133224D01*
X0253367Y0133447D01*
X0253079Y0133677D01*
X0252797Y0133914D01*
X0252522Y0134158D01*
X0252252Y0134408D01*
X0251988Y0134665D01*
X0251731Y0134929D01*
X0251481Y0135199D01*
X0251237Y0135474D01*
X0251000Y0135756D01*
X0250770Y0136044D01*
X0250547Y0136337D01*
X0250331Y0136635D01*
X0250123Y0136938D01*
X0249922Y0137247D01*
X0249729Y0137560D01*
X0249544Y0137879D01*
X0249366Y0138201D01*
X0249197Y0138528D01*
X0249035Y0138859D01*
X0248882Y0139193D01*
X0248737Y0139532D01*
X0248600Y0139874D01*
X0248472Y0140219D01*
X0248352Y0140567D01*
X0248241Y0140918D01*
X0248138Y0141271D01*
X0248045Y0141627D01*
X0247959Y0141985D01*
X0247883Y0142346D01*
X0247816Y0142708D01*
X0247757Y0143071D01*
X0247708Y0143436D01*
X0247667Y0143802D01*
X0247636Y0144169D01*
X0247613Y0144536D01*
X0247600Y0144904D01*
X0247595Y0145272D01*
X0223973Y0119051D02*
X0223978Y0119419D01*
X0223991Y0119787D01*
X0224014Y0120154D01*
X0224045Y0120521D01*
X0224086Y0120887D01*
X0224135Y0121252D01*
X0224194Y0121615D01*
X0224261Y0121977D01*
X0224337Y0122338D01*
X0224423Y0122696D01*
X0224516Y0123052D01*
X0224619Y0123405D01*
X0224730Y0123756D01*
X0224850Y0124104D01*
X0224978Y0124449D01*
X0225115Y0124791D01*
X0225260Y0125130D01*
X0225413Y0125464D01*
X0225575Y0125795D01*
X0225744Y0126122D01*
X0225922Y0126444D01*
X0226107Y0126763D01*
X0226300Y0127076D01*
X0226501Y0127385D01*
X0226709Y0127688D01*
X0226925Y0127986D01*
X0227148Y0128279D01*
X0227378Y0128567D01*
X0227615Y0128849D01*
X0227859Y0129124D01*
X0228109Y0129394D01*
X0228366Y0129658D01*
X0228630Y0129915D01*
X0228900Y0130165D01*
X0229175Y0130409D01*
X0229457Y0130646D01*
X0229745Y0130876D01*
X0230038Y0131099D01*
X0230336Y0131315D01*
X0230639Y0131523D01*
X0230948Y0131724D01*
X0231261Y0131917D01*
X0231580Y0132102D01*
X0231902Y0132280D01*
X0232229Y0132449D01*
X0232560Y0132611D01*
X0232894Y0132764D01*
X0233233Y0132909D01*
X0233575Y0133046D01*
X0233920Y0133174D01*
X0234268Y0133294D01*
X0234619Y0133405D01*
X0234972Y0133508D01*
X0235328Y0133601D01*
X0235686Y0133687D01*
X0236047Y0133763D01*
X0236409Y0133830D01*
X0236772Y0133889D01*
X0237137Y0133938D01*
X0237503Y0133979D01*
X0237870Y0134010D01*
X0238237Y0134033D01*
X0238605Y0134046D01*
X0238973Y0134051D01*
X0239341Y0134046D01*
X0239709Y0134033D01*
X0240076Y0134010D01*
X0240443Y0133979D01*
X0240809Y0133938D01*
X0241174Y0133889D01*
X0241537Y0133830D01*
X0241899Y0133763D01*
X0242260Y0133687D01*
X0242618Y0133601D01*
X0242974Y0133508D01*
X0243327Y0133405D01*
X0243678Y0133294D01*
X0244026Y0133174D01*
X0244371Y0133046D01*
X0244713Y0132909D01*
X0245052Y0132764D01*
X0245386Y0132611D01*
X0245717Y0132449D01*
X0246044Y0132280D01*
X0246366Y0132102D01*
X0246685Y0131917D01*
X0246998Y0131724D01*
X0247307Y0131523D01*
X0247610Y0131315D01*
X0247908Y0131099D01*
X0248201Y0130876D01*
X0248489Y0130646D01*
X0248771Y0130409D01*
X0249046Y0130165D01*
X0249316Y0129915D01*
X0249580Y0129658D01*
X0249837Y0129394D01*
X0250087Y0129124D01*
X0250331Y0128849D01*
X0250568Y0128567D01*
X0250798Y0128279D01*
X0251021Y0127986D01*
X0251237Y0127688D01*
X0251445Y0127385D01*
X0251646Y0127076D01*
X0251839Y0126763D01*
X0252024Y0126444D01*
X0252202Y0126122D01*
X0252371Y0125795D01*
X0252533Y0125464D01*
X0252686Y0125130D01*
X0252831Y0124791D01*
X0252968Y0124449D01*
X0253096Y0124104D01*
X0253216Y0123756D01*
X0253327Y0123405D01*
X0253430Y0123052D01*
X0253523Y0122696D01*
X0253609Y0122338D01*
X0253685Y0121977D01*
X0253752Y0121615D01*
X0253811Y0121252D01*
X0253860Y0120887D01*
X0253901Y0120521D01*
X0253932Y0120154D01*
X0253955Y0119787D01*
X0253968Y0119419D01*
X0253973Y0119051D01*
X0253968Y0118683D01*
X0253955Y0118315D01*
X0253932Y0117948D01*
X0253901Y0117581D01*
X0253860Y0117215D01*
X0253811Y0116850D01*
X0253752Y0116487D01*
X0253685Y0116125D01*
X0253609Y0115764D01*
X0253523Y0115406D01*
X0253430Y0115050D01*
X0253327Y0114697D01*
X0253216Y0114346D01*
X0253096Y0113998D01*
X0252968Y0113653D01*
X0252831Y0113311D01*
X0252686Y0112972D01*
X0252533Y0112638D01*
X0252371Y0112307D01*
X0252202Y0111980D01*
X0252024Y0111658D01*
X0251839Y0111339D01*
X0251646Y0111026D01*
X0251445Y0110717D01*
X0251237Y0110414D01*
X0251021Y0110116D01*
X0250798Y0109823D01*
X0250568Y0109535D01*
X0250331Y0109253D01*
X0250087Y0108978D01*
X0249837Y0108708D01*
X0249580Y0108444D01*
X0249316Y0108187D01*
X0249046Y0107937D01*
X0248771Y0107693D01*
X0248489Y0107456D01*
X0248201Y0107226D01*
X0247908Y0107003D01*
X0247610Y0106787D01*
X0247307Y0106579D01*
X0246998Y0106378D01*
X0246685Y0106185D01*
X0246366Y0106000D01*
X0246044Y0105822D01*
X0245717Y0105653D01*
X0245386Y0105491D01*
X0245052Y0105338D01*
X0244713Y0105193D01*
X0244371Y0105056D01*
X0244026Y0104928D01*
X0243678Y0104808D01*
X0243327Y0104697D01*
X0242974Y0104594D01*
X0242618Y0104501D01*
X0242260Y0104415D01*
X0241899Y0104339D01*
X0241537Y0104272D01*
X0241174Y0104213D01*
X0240809Y0104164D01*
X0240443Y0104123D01*
X0240076Y0104092D01*
X0239709Y0104069D01*
X0239341Y0104056D01*
X0238973Y0104051D01*
X0238605Y0104056D01*
X0238237Y0104069D01*
X0237870Y0104092D01*
X0237503Y0104123D01*
X0237137Y0104164D01*
X0236772Y0104213D01*
X0236409Y0104272D01*
X0236047Y0104339D01*
X0235686Y0104415D01*
X0235328Y0104501D01*
X0234972Y0104594D01*
X0234619Y0104697D01*
X0234268Y0104808D01*
X0233920Y0104928D01*
X0233575Y0105056D01*
X0233233Y0105193D01*
X0232894Y0105338D01*
X0232560Y0105491D01*
X0232229Y0105653D01*
X0231902Y0105822D01*
X0231580Y0106000D01*
X0231261Y0106185D01*
X0230948Y0106378D01*
X0230639Y0106579D01*
X0230336Y0106787D01*
X0230038Y0107003D01*
X0229745Y0107226D01*
X0229457Y0107456D01*
X0229175Y0107693D01*
X0228900Y0107937D01*
X0228630Y0108187D01*
X0228366Y0108444D01*
X0228109Y0108708D01*
X0227859Y0108978D01*
X0227615Y0109253D01*
X0227378Y0109535D01*
X0227148Y0109823D01*
X0226925Y0110116D01*
X0226709Y0110414D01*
X0226501Y0110717D01*
X0226300Y0111026D01*
X0226107Y0111339D01*
X0225922Y0111658D01*
X0225744Y0111980D01*
X0225575Y0112307D01*
X0225413Y0112638D01*
X0225260Y0112972D01*
X0225115Y0113311D01*
X0224978Y0113653D01*
X0224850Y0113998D01*
X0224730Y0114346D01*
X0224619Y0114697D01*
X0224516Y0115050D01*
X0224423Y0115406D01*
X0224337Y0115764D01*
X0224261Y0116125D01*
X0224194Y0116487D01*
X0224135Y0116850D01*
X0224086Y0117215D01*
X0224045Y0117581D01*
X0224014Y0117948D01*
X0223991Y0118315D01*
X0223978Y0118683D01*
X0223973Y0119051D01*
X0269249Y0113146D02*
X0269254Y0113514D01*
X0269267Y0113882D01*
X0269290Y0114249D01*
X0269321Y0114616D01*
X0269362Y0114982D01*
X0269411Y0115347D01*
X0269470Y0115710D01*
X0269537Y0116072D01*
X0269613Y0116433D01*
X0269699Y0116791D01*
X0269792Y0117147D01*
X0269895Y0117500D01*
X0270006Y0117851D01*
X0270126Y0118199D01*
X0270254Y0118544D01*
X0270391Y0118886D01*
X0270536Y0119225D01*
X0270689Y0119559D01*
X0270851Y0119890D01*
X0271020Y0120217D01*
X0271198Y0120539D01*
X0271383Y0120858D01*
X0271576Y0121171D01*
X0271777Y0121480D01*
X0271985Y0121783D01*
X0272201Y0122081D01*
X0272424Y0122374D01*
X0272654Y0122662D01*
X0272891Y0122944D01*
X0273135Y0123219D01*
X0273385Y0123489D01*
X0273642Y0123753D01*
X0273906Y0124010D01*
X0274176Y0124260D01*
X0274451Y0124504D01*
X0274733Y0124741D01*
X0275021Y0124971D01*
X0275314Y0125194D01*
X0275612Y0125410D01*
X0275915Y0125618D01*
X0276224Y0125819D01*
X0276537Y0126012D01*
X0276856Y0126197D01*
X0277178Y0126375D01*
X0277505Y0126544D01*
X0277836Y0126706D01*
X0278170Y0126859D01*
X0278509Y0127004D01*
X0278851Y0127141D01*
X0279196Y0127269D01*
X0279544Y0127389D01*
X0279895Y0127500D01*
X0280248Y0127603D01*
X0280604Y0127696D01*
X0280962Y0127782D01*
X0281323Y0127858D01*
X0281685Y0127925D01*
X0282048Y0127984D01*
X0282413Y0128033D01*
X0282779Y0128074D01*
X0283146Y0128105D01*
X0283513Y0128128D01*
X0283881Y0128141D01*
X0284249Y0128146D01*
X0284617Y0128141D01*
X0284985Y0128128D01*
X0285352Y0128105D01*
X0285719Y0128074D01*
X0286085Y0128033D01*
X0286450Y0127984D01*
X0286813Y0127925D01*
X0287175Y0127858D01*
X0287536Y0127782D01*
X0287894Y0127696D01*
X0288250Y0127603D01*
X0288603Y0127500D01*
X0288954Y0127389D01*
X0289302Y0127269D01*
X0289647Y0127141D01*
X0289989Y0127004D01*
X0290328Y0126859D01*
X0290662Y0126706D01*
X0290993Y0126544D01*
X0291320Y0126375D01*
X0291642Y0126197D01*
X0291961Y0126012D01*
X0292274Y0125819D01*
X0292583Y0125618D01*
X0292886Y0125410D01*
X0293184Y0125194D01*
X0293477Y0124971D01*
X0293765Y0124741D01*
X0294047Y0124504D01*
X0294322Y0124260D01*
X0294592Y0124010D01*
X0294856Y0123753D01*
X0295113Y0123489D01*
X0295363Y0123219D01*
X0295607Y0122944D01*
X0295844Y0122662D01*
X0296074Y0122374D01*
X0296297Y0122081D01*
X0296513Y0121783D01*
X0296721Y0121480D01*
X0296922Y0121171D01*
X0297115Y0120858D01*
X0297300Y0120539D01*
X0297478Y0120217D01*
X0297647Y0119890D01*
X0297809Y0119559D01*
X0297962Y0119225D01*
X0298107Y0118886D01*
X0298244Y0118544D01*
X0298372Y0118199D01*
X0298492Y0117851D01*
X0298603Y0117500D01*
X0298706Y0117147D01*
X0298799Y0116791D01*
X0298885Y0116433D01*
X0298961Y0116072D01*
X0299028Y0115710D01*
X0299087Y0115347D01*
X0299136Y0114982D01*
X0299177Y0114616D01*
X0299208Y0114249D01*
X0299231Y0113882D01*
X0299244Y0113514D01*
X0299249Y0113146D01*
X0299244Y0112778D01*
X0299231Y0112410D01*
X0299208Y0112043D01*
X0299177Y0111676D01*
X0299136Y0111310D01*
X0299087Y0110945D01*
X0299028Y0110582D01*
X0298961Y0110220D01*
X0298885Y0109859D01*
X0298799Y0109501D01*
X0298706Y0109145D01*
X0298603Y0108792D01*
X0298492Y0108441D01*
X0298372Y0108093D01*
X0298244Y0107748D01*
X0298107Y0107406D01*
X0297962Y0107067D01*
X0297809Y0106733D01*
X0297647Y0106402D01*
X0297478Y0106075D01*
X0297300Y0105753D01*
X0297115Y0105434D01*
X0296922Y0105121D01*
X0296721Y0104812D01*
X0296513Y0104509D01*
X0296297Y0104211D01*
X0296074Y0103918D01*
X0295844Y0103630D01*
X0295607Y0103348D01*
X0295363Y0103073D01*
X0295113Y0102803D01*
X0294856Y0102539D01*
X0294592Y0102282D01*
X0294322Y0102032D01*
X0294047Y0101788D01*
X0293765Y0101551D01*
X0293477Y0101321D01*
X0293184Y0101098D01*
X0292886Y0100882D01*
X0292583Y0100674D01*
X0292274Y0100473D01*
X0291961Y0100280D01*
X0291642Y0100095D01*
X0291320Y0099917D01*
X0290993Y0099748D01*
X0290662Y0099586D01*
X0290328Y0099433D01*
X0289989Y0099288D01*
X0289647Y0099151D01*
X0289302Y0099023D01*
X0288954Y0098903D01*
X0288603Y0098792D01*
X0288250Y0098689D01*
X0287894Y0098596D01*
X0287536Y0098510D01*
X0287175Y0098434D01*
X0286813Y0098367D01*
X0286450Y0098308D01*
X0286085Y0098259D01*
X0285719Y0098218D01*
X0285352Y0098187D01*
X0284985Y0098164D01*
X0284617Y0098151D01*
X0284249Y0098146D01*
X0283881Y0098151D01*
X0283513Y0098164D01*
X0283146Y0098187D01*
X0282779Y0098218D01*
X0282413Y0098259D01*
X0282048Y0098308D01*
X0281685Y0098367D01*
X0281323Y0098434D01*
X0280962Y0098510D01*
X0280604Y0098596D01*
X0280248Y0098689D01*
X0279895Y0098792D01*
X0279544Y0098903D01*
X0279196Y0099023D01*
X0278851Y0099151D01*
X0278509Y0099288D01*
X0278170Y0099433D01*
X0277836Y0099586D01*
X0277505Y0099748D01*
X0277178Y0099917D01*
X0276856Y0100095D01*
X0276537Y0100280D01*
X0276224Y0100473D01*
X0275915Y0100674D01*
X0275612Y0100882D01*
X0275314Y0101098D01*
X0275021Y0101321D01*
X0274733Y0101551D01*
X0274451Y0101788D01*
X0274176Y0102032D01*
X0273906Y0102282D01*
X0273642Y0102539D01*
X0273385Y0102803D01*
X0273135Y0103073D01*
X0272891Y0103348D01*
X0272654Y0103630D01*
X0272424Y0103918D01*
X0272201Y0104211D01*
X0271985Y0104509D01*
X0271777Y0104812D01*
X0271576Y0105121D01*
X0271383Y0105434D01*
X0271198Y0105753D01*
X0271020Y0106075D01*
X0270851Y0106402D01*
X0270689Y0106733D01*
X0270536Y0107067D01*
X0270391Y0107406D01*
X0270254Y0107748D01*
X0270126Y0108093D01*
X0270006Y0108441D01*
X0269895Y0108792D01*
X0269792Y0109145D01*
X0269699Y0109501D01*
X0269613Y0109859D01*
X0269537Y0110220D01*
X0269470Y0110582D01*
X0269411Y0110945D01*
X0269362Y0111310D01*
X0269321Y0111676D01*
X0269290Y0112043D01*
X0269267Y0112410D01*
X0269254Y0112778D01*
X0269249Y0113146D01*
X0277009Y0021689D02*
X0277013Y0022020D01*
X0277025Y0022351D01*
X0277046Y0022682D01*
X0277074Y0023012D01*
X0277111Y0023342D01*
X0277155Y0023670D01*
X0277208Y0023997D01*
X0277268Y0024323D01*
X0277337Y0024647D01*
X0277414Y0024969D01*
X0277498Y0025290D01*
X0277590Y0025608D01*
X0277690Y0025924D01*
X0277798Y0026237D01*
X0277914Y0026548D01*
X0278037Y0026855D01*
X0278167Y0027160D01*
X0278305Y0027461D01*
X0278450Y0027759D01*
X0278603Y0028053D01*
X0278763Y0028343D01*
X0278930Y0028629D01*
X0279103Y0028911D01*
X0279284Y0029189D01*
X0279472Y0029462D01*
X0279666Y0029731D01*
X0279866Y0029995D01*
X0280073Y0030253D01*
X0280287Y0030507D01*
X0280506Y0030755D01*
X0280732Y0030998D01*
X0280963Y0031235D01*
X0281200Y0031466D01*
X0281443Y0031692D01*
X0281691Y0031911D01*
X0281945Y0032125D01*
X0282203Y0032332D01*
X0282467Y0032532D01*
X0282736Y0032726D01*
X0283009Y0032914D01*
X0283287Y0033095D01*
X0283569Y0033268D01*
X0283855Y0033435D01*
X0284145Y0033595D01*
X0284439Y0033748D01*
X0284737Y0033893D01*
X0285038Y0034031D01*
X0285343Y0034161D01*
X0285650Y0034284D01*
X0285961Y0034400D01*
X0286274Y0034508D01*
X0286590Y0034608D01*
X0286908Y0034700D01*
X0287229Y0034784D01*
X0287551Y0034861D01*
X0287875Y0034930D01*
X0288201Y0034990D01*
X0288528Y0035043D01*
X0288856Y0035087D01*
X0289186Y0035124D01*
X0289516Y0035152D01*
X0289847Y0035173D01*
X0290178Y0035185D01*
X0290509Y0035189D01*
X0290840Y0035185D01*
X0291171Y0035173D01*
X0291502Y0035152D01*
X0291832Y0035124D01*
X0292162Y0035087D01*
X0292490Y0035043D01*
X0292817Y0034990D01*
X0293143Y0034930D01*
X0293467Y0034861D01*
X0293789Y0034784D01*
X0294110Y0034700D01*
X0294428Y0034608D01*
X0294744Y0034508D01*
X0295057Y0034400D01*
X0295368Y0034284D01*
X0295675Y0034161D01*
X0295980Y0034031D01*
X0296281Y0033893D01*
X0296579Y0033748D01*
X0296873Y0033595D01*
X0297163Y0033435D01*
X0297449Y0033268D01*
X0297731Y0033095D01*
X0298009Y0032914D01*
X0298282Y0032726D01*
X0298551Y0032532D01*
X0298815Y0032332D01*
X0299073Y0032125D01*
X0299327Y0031911D01*
X0299575Y0031692D01*
X0299818Y0031466D01*
X0300055Y0031235D01*
X0300286Y0030998D01*
X0300512Y0030755D01*
X0300731Y0030507D01*
X0300945Y0030253D01*
X0301152Y0029995D01*
X0301352Y0029731D01*
X0301546Y0029462D01*
X0301734Y0029189D01*
X0301915Y0028911D01*
X0302088Y0028629D01*
X0302255Y0028343D01*
X0302415Y0028053D01*
X0302568Y0027759D01*
X0302713Y0027461D01*
X0302851Y0027160D01*
X0302981Y0026855D01*
X0303104Y0026548D01*
X0303220Y0026237D01*
X0303328Y0025924D01*
X0303428Y0025608D01*
X0303520Y0025290D01*
X0303604Y0024969D01*
X0303681Y0024647D01*
X0303750Y0024323D01*
X0303810Y0023997D01*
X0303863Y0023670D01*
X0303907Y0023342D01*
X0303944Y0023012D01*
X0303972Y0022682D01*
X0303993Y0022351D01*
X0304005Y0022020D01*
X0304009Y0021689D01*
X0304005Y0021358D01*
X0303993Y0021027D01*
X0303972Y0020696D01*
X0303944Y0020366D01*
X0303907Y0020036D01*
X0303863Y0019708D01*
X0303810Y0019381D01*
X0303750Y0019055D01*
X0303681Y0018731D01*
X0303604Y0018409D01*
X0303520Y0018088D01*
X0303428Y0017770D01*
X0303328Y0017454D01*
X0303220Y0017141D01*
X0303104Y0016830D01*
X0302981Y0016523D01*
X0302851Y0016218D01*
X0302713Y0015917D01*
X0302568Y0015619D01*
X0302415Y0015325D01*
X0302255Y0015035D01*
X0302088Y0014749D01*
X0301915Y0014467D01*
X0301734Y0014189D01*
X0301546Y0013916D01*
X0301352Y0013647D01*
X0301152Y0013383D01*
X0300945Y0013125D01*
X0300731Y0012871D01*
X0300512Y0012623D01*
X0300286Y0012380D01*
X0300055Y0012143D01*
X0299818Y0011912D01*
X0299575Y0011686D01*
X0299327Y0011467D01*
X0299073Y0011253D01*
X0298815Y0011046D01*
X0298551Y0010846D01*
X0298282Y0010652D01*
X0298009Y0010464D01*
X0297731Y0010283D01*
X0297449Y0010110D01*
X0297163Y0009943D01*
X0296873Y0009783D01*
X0296579Y0009630D01*
X0296281Y0009485D01*
X0295980Y0009347D01*
X0295675Y0009217D01*
X0295368Y0009094D01*
X0295057Y0008978D01*
X0294744Y0008870D01*
X0294428Y0008770D01*
X0294110Y0008678D01*
X0293789Y0008594D01*
X0293467Y0008517D01*
X0293143Y0008448D01*
X0292817Y0008388D01*
X0292490Y0008335D01*
X0292162Y0008291D01*
X0291832Y0008254D01*
X0291502Y0008226D01*
X0291171Y0008205D01*
X0290840Y0008193D01*
X0290509Y0008189D01*
X0290178Y0008193D01*
X0289847Y0008205D01*
X0289516Y0008226D01*
X0289186Y0008254D01*
X0288856Y0008291D01*
X0288528Y0008335D01*
X0288201Y0008388D01*
X0287875Y0008448D01*
X0287551Y0008517D01*
X0287229Y0008594D01*
X0286908Y0008678D01*
X0286590Y0008770D01*
X0286274Y0008870D01*
X0285961Y0008978D01*
X0285650Y0009094D01*
X0285343Y0009217D01*
X0285038Y0009347D01*
X0284737Y0009485D01*
X0284439Y0009630D01*
X0284145Y0009783D01*
X0283855Y0009943D01*
X0283569Y0010110D01*
X0283287Y0010283D01*
X0283009Y0010464D01*
X0282736Y0010652D01*
X0282467Y0010846D01*
X0282203Y0011046D01*
X0281945Y0011253D01*
X0281691Y0011467D01*
X0281443Y0011686D01*
X0281200Y0011912D01*
X0280963Y0012143D01*
X0280732Y0012380D01*
X0280506Y0012623D01*
X0280287Y0012871D01*
X0280073Y0013125D01*
X0279866Y0013383D01*
X0279666Y0013647D01*
X0279472Y0013916D01*
X0279284Y0014189D01*
X0279103Y0014467D01*
X0278930Y0014749D01*
X0278763Y0015035D01*
X0278603Y0015325D01*
X0278450Y0015619D01*
X0278305Y0015917D01*
X0278167Y0016218D01*
X0278037Y0016523D01*
X0277914Y0016830D01*
X0277798Y0017141D01*
X0277690Y0017454D01*
X0277590Y0017770D01*
X0277498Y0018088D01*
X0277414Y0018409D01*
X0277337Y0018731D01*
X0277268Y0019055D01*
X0277208Y0019381D01*
X0277155Y0019708D01*
X0277111Y0020036D01*
X0277074Y0020366D01*
X0277046Y0020696D01*
X0277025Y0021027D01*
X0277013Y0021358D01*
X0277009Y0021689D01*
X0048662Y0021689D02*
X0048666Y0022020D01*
X0048678Y0022351D01*
X0048699Y0022682D01*
X0048727Y0023012D01*
X0048764Y0023342D01*
X0048808Y0023670D01*
X0048861Y0023997D01*
X0048921Y0024323D01*
X0048990Y0024647D01*
X0049067Y0024969D01*
X0049151Y0025290D01*
X0049243Y0025608D01*
X0049343Y0025924D01*
X0049451Y0026237D01*
X0049567Y0026548D01*
X0049690Y0026855D01*
X0049820Y0027160D01*
X0049958Y0027461D01*
X0050103Y0027759D01*
X0050256Y0028053D01*
X0050416Y0028343D01*
X0050583Y0028629D01*
X0050756Y0028911D01*
X0050937Y0029189D01*
X0051125Y0029462D01*
X0051319Y0029731D01*
X0051519Y0029995D01*
X0051726Y0030253D01*
X0051940Y0030507D01*
X0052159Y0030755D01*
X0052385Y0030998D01*
X0052616Y0031235D01*
X0052853Y0031466D01*
X0053096Y0031692D01*
X0053344Y0031911D01*
X0053598Y0032125D01*
X0053856Y0032332D01*
X0054120Y0032532D01*
X0054389Y0032726D01*
X0054662Y0032914D01*
X0054940Y0033095D01*
X0055222Y0033268D01*
X0055508Y0033435D01*
X0055798Y0033595D01*
X0056092Y0033748D01*
X0056390Y0033893D01*
X0056691Y0034031D01*
X0056996Y0034161D01*
X0057303Y0034284D01*
X0057614Y0034400D01*
X0057927Y0034508D01*
X0058243Y0034608D01*
X0058561Y0034700D01*
X0058882Y0034784D01*
X0059204Y0034861D01*
X0059528Y0034930D01*
X0059854Y0034990D01*
X0060181Y0035043D01*
X0060509Y0035087D01*
X0060839Y0035124D01*
X0061169Y0035152D01*
X0061500Y0035173D01*
X0061831Y0035185D01*
X0062162Y0035189D01*
X0062493Y0035185D01*
X0062824Y0035173D01*
X0063155Y0035152D01*
X0063485Y0035124D01*
X0063815Y0035087D01*
X0064143Y0035043D01*
X0064470Y0034990D01*
X0064796Y0034930D01*
X0065120Y0034861D01*
X0065442Y0034784D01*
X0065763Y0034700D01*
X0066081Y0034608D01*
X0066397Y0034508D01*
X0066710Y0034400D01*
X0067021Y0034284D01*
X0067328Y0034161D01*
X0067633Y0034031D01*
X0067934Y0033893D01*
X0068232Y0033748D01*
X0068526Y0033595D01*
X0068816Y0033435D01*
X0069102Y0033268D01*
X0069384Y0033095D01*
X0069662Y0032914D01*
X0069935Y0032726D01*
X0070204Y0032532D01*
X0070468Y0032332D01*
X0070726Y0032125D01*
X0070980Y0031911D01*
X0071228Y0031692D01*
X0071471Y0031466D01*
X0071708Y0031235D01*
X0071939Y0030998D01*
X0072165Y0030755D01*
X0072384Y0030507D01*
X0072598Y0030253D01*
X0072805Y0029995D01*
X0073005Y0029731D01*
X0073199Y0029462D01*
X0073387Y0029189D01*
X0073568Y0028911D01*
X0073741Y0028629D01*
X0073908Y0028343D01*
X0074068Y0028053D01*
X0074221Y0027759D01*
X0074366Y0027461D01*
X0074504Y0027160D01*
X0074634Y0026855D01*
X0074757Y0026548D01*
X0074873Y0026237D01*
X0074981Y0025924D01*
X0075081Y0025608D01*
X0075173Y0025290D01*
X0075257Y0024969D01*
X0075334Y0024647D01*
X0075403Y0024323D01*
X0075463Y0023997D01*
X0075516Y0023670D01*
X0075560Y0023342D01*
X0075597Y0023012D01*
X0075625Y0022682D01*
X0075646Y0022351D01*
X0075658Y0022020D01*
X0075662Y0021689D01*
X0075658Y0021358D01*
X0075646Y0021027D01*
X0075625Y0020696D01*
X0075597Y0020366D01*
X0075560Y0020036D01*
X0075516Y0019708D01*
X0075463Y0019381D01*
X0075403Y0019055D01*
X0075334Y0018731D01*
X0075257Y0018409D01*
X0075173Y0018088D01*
X0075081Y0017770D01*
X0074981Y0017454D01*
X0074873Y0017141D01*
X0074757Y0016830D01*
X0074634Y0016523D01*
X0074504Y0016218D01*
X0074366Y0015917D01*
X0074221Y0015619D01*
X0074068Y0015325D01*
X0073908Y0015035D01*
X0073741Y0014749D01*
X0073568Y0014467D01*
X0073387Y0014189D01*
X0073199Y0013916D01*
X0073005Y0013647D01*
X0072805Y0013383D01*
X0072598Y0013125D01*
X0072384Y0012871D01*
X0072165Y0012623D01*
X0071939Y0012380D01*
X0071708Y0012143D01*
X0071471Y0011912D01*
X0071228Y0011686D01*
X0070980Y0011467D01*
X0070726Y0011253D01*
X0070468Y0011046D01*
X0070204Y0010846D01*
X0069935Y0010652D01*
X0069662Y0010464D01*
X0069384Y0010283D01*
X0069102Y0010110D01*
X0068816Y0009943D01*
X0068526Y0009783D01*
X0068232Y0009630D01*
X0067934Y0009485D01*
X0067633Y0009347D01*
X0067328Y0009217D01*
X0067021Y0009094D01*
X0066710Y0008978D01*
X0066397Y0008870D01*
X0066081Y0008770D01*
X0065763Y0008678D01*
X0065442Y0008594D01*
X0065120Y0008517D01*
X0064796Y0008448D01*
X0064470Y0008388D01*
X0064143Y0008335D01*
X0063815Y0008291D01*
X0063485Y0008254D01*
X0063155Y0008226D01*
X0062824Y0008205D01*
X0062493Y0008193D01*
X0062162Y0008189D01*
X0061831Y0008193D01*
X0061500Y0008205D01*
X0061169Y0008226D01*
X0060839Y0008254D01*
X0060509Y0008291D01*
X0060181Y0008335D01*
X0059854Y0008388D01*
X0059528Y0008448D01*
X0059204Y0008517D01*
X0058882Y0008594D01*
X0058561Y0008678D01*
X0058243Y0008770D01*
X0057927Y0008870D01*
X0057614Y0008978D01*
X0057303Y0009094D01*
X0056996Y0009217D01*
X0056691Y0009347D01*
X0056390Y0009485D01*
X0056092Y0009630D01*
X0055798Y0009783D01*
X0055508Y0009943D01*
X0055222Y0010110D01*
X0054940Y0010283D01*
X0054662Y0010464D01*
X0054389Y0010652D01*
X0054120Y0010846D01*
X0053856Y0011046D01*
X0053598Y0011253D01*
X0053344Y0011467D01*
X0053096Y0011686D01*
X0052853Y0011912D01*
X0052616Y0012143D01*
X0052385Y0012380D01*
X0052159Y0012623D01*
X0051940Y0012871D01*
X0051726Y0013125D01*
X0051519Y0013383D01*
X0051319Y0013647D01*
X0051125Y0013916D01*
X0050937Y0014189D01*
X0050756Y0014467D01*
X0050583Y0014749D01*
X0050416Y0015035D01*
X0050256Y0015325D01*
X0050103Y0015619D01*
X0049958Y0015917D01*
X0049820Y0016218D01*
X0049690Y0016523D01*
X0049567Y0016830D01*
X0049451Y0017141D01*
X0049343Y0017454D01*
X0049243Y0017770D01*
X0049151Y0018088D01*
X0049067Y0018409D01*
X0048990Y0018731D01*
X0048921Y0019055D01*
X0048861Y0019381D01*
X0048808Y0019708D01*
X0048764Y0020036D01*
X0048727Y0020366D01*
X0048699Y0020696D01*
X0048678Y0021027D01*
X0048666Y0021358D01*
X0048662Y0021689D01*
D13*
X0092398Y0064169D02*
X0092398Y0090547D01*
X0092398Y0090548D02*
X0092306Y0090550D01*
X0092214Y0090556D01*
X0092123Y0090566D01*
X0092032Y0090579D01*
X0091942Y0090597D01*
X0091852Y0090618D01*
X0091764Y0090643D01*
X0091677Y0090672D01*
X0091591Y0090704D01*
X0091506Y0090740D01*
X0091423Y0090780D01*
X0091342Y0090823D01*
X0091263Y0090869D01*
X0091186Y0090919D01*
X0091111Y0090972D01*
X0091038Y0091029D01*
X0090968Y0091088D01*
X0090900Y0091150D01*
X0090835Y0091215D01*
X0090773Y0091283D01*
X0090714Y0091353D01*
X0090657Y0091426D01*
X0090604Y0091501D01*
X0090554Y0091578D01*
X0090508Y0091657D01*
X0090465Y0091738D01*
X0090425Y0091821D01*
X0090389Y0091906D01*
X0090357Y0091992D01*
X0090328Y0092079D01*
X0090303Y0092167D01*
X0090282Y0092257D01*
X0090264Y0092347D01*
X0090251Y0092438D01*
X0090241Y0092529D01*
X0090235Y0092621D01*
X0090233Y0092713D01*
X0090235Y0092805D01*
X0090241Y0092897D01*
X0090251Y0092988D01*
X0090264Y0093079D01*
X0090282Y0093169D01*
X0090303Y0093259D01*
X0090328Y0093347D01*
X0090357Y0093434D01*
X0090389Y0093520D01*
X0090425Y0093605D01*
X0090465Y0093688D01*
X0090508Y0093769D01*
X0090554Y0093848D01*
X0090604Y0093925D01*
X0090657Y0094000D01*
X0090714Y0094073D01*
X0090773Y0094143D01*
X0090835Y0094211D01*
X0090900Y0094276D01*
X0090968Y0094338D01*
X0091038Y0094397D01*
X0091111Y0094454D01*
X0091186Y0094507D01*
X0091263Y0094557D01*
X0091342Y0094603D01*
X0091423Y0094646D01*
X0091506Y0094686D01*
X0091591Y0094722D01*
X0091677Y0094754D01*
X0091764Y0094783D01*
X0091852Y0094808D01*
X0091942Y0094829D01*
X0092032Y0094847D01*
X0092123Y0094860D01*
X0092214Y0094870D01*
X0092306Y0094876D01*
X0092398Y0094878D01*
X0092398Y0101177D01*
X0261690Y0101177D01*
X0261690Y0064169D01*
X0092398Y0064169D01*
X0092005Y0068894D02*
X0089249Y0068894D01*
X0089642Y0069288D02*
X0089554Y0069155D01*
X0089463Y0069024D01*
X0089369Y0068895D01*
X0089271Y0068768D01*
X0089171Y0068644D01*
X0089067Y0068523D01*
X0088961Y0068404D01*
X0088851Y0068287D01*
X0088739Y0068173D01*
X0088624Y0068062D01*
X0088507Y0067954D01*
X0088387Y0067849D01*
X0088264Y0067747D01*
X0088139Y0067648D01*
X0088011Y0067552D01*
X0087881Y0067459D01*
X0087749Y0067369D01*
X0087615Y0067282D01*
X0087479Y0067199D01*
X0087340Y0067119D01*
X0087200Y0067042D01*
X0087058Y0066969D01*
X0086915Y0066900D01*
X0086769Y0066834D01*
X0086622Y0066771D01*
X0086474Y0066712D01*
X0086324Y0066657D01*
X0086173Y0066605D01*
X0086020Y0066557D01*
X0085867Y0066513D01*
X0085712Y0066473D01*
X0085557Y0066436D01*
X0085401Y0066403D01*
X0085244Y0066374D01*
X0085086Y0066349D01*
X0084928Y0066328D01*
X0084769Y0066310D01*
X0084610Y0066297D01*
X0084450Y0066287D01*
X0084291Y0066281D01*
X0084131Y0066279D01*
X0083971Y0066281D01*
X0083812Y0066287D01*
X0083652Y0066297D01*
X0083493Y0066310D01*
X0083334Y0066328D01*
X0083176Y0066349D01*
X0083018Y0066374D01*
X0082861Y0066403D01*
X0082705Y0066436D01*
X0082550Y0066473D01*
X0082395Y0066513D01*
X0082242Y0066557D01*
X0082089Y0066605D01*
X0081938Y0066657D01*
X0081788Y0066712D01*
X0081640Y0066771D01*
X0081493Y0066834D01*
X0081347Y0066900D01*
X0081204Y0066969D01*
X0081062Y0067042D01*
X0080922Y0067119D01*
X0080783Y0067199D01*
X0080647Y0067282D01*
X0080513Y0067369D01*
X0080381Y0067459D01*
X0080251Y0067552D01*
X0080123Y0067648D01*
X0079998Y0067747D01*
X0079875Y0067849D01*
X0079755Y0067954D01*
X0079638Y0068062D01*
X0079523Y0068173D01*
X0079411Y0068287D01*
X0079301Y0068404D01*
X0079195Y0068523D01*
X0079091Y0068644D01*
X0078991Y0068768D01*
X0078893Y0068895D01*
X0078799Y0069024D01*
X0078708Y0069155D01*
X0078620Y0069288D01*
X0078619Y0069287D02*
X0078619Y0076374D01*
X0078620Y0076374D02*
X0078708Y0076507D01*
X0078799Y0076638D01*
X0078893Y0076767D01*
X0078991Y0076894D01*
X0079091Y0077018D01*
X0079195Y0077139D01*
X0079301Y0077258D01*
X0079411Y0077375D01*
X0079523Y0077489D01*
X0079638Y0077600D01*
X0079755Y0077708D01*
X0079875Y0077813D01*
X0079998Y0077915D01*
X0080123Y0078014D01*
X0080251Y0078110D01*
X0080381Y0078203D01*
X0080513Y0078293D01*
X0080647Y0078380D01*
X0080783Y0078463D01*
X0080922Y0078543D01*
X0081062Y0078620D01*
X0081204Y0078693D01*
X0081347Y0078762D01*
X0081493Y0078828D01*
X0081640Y0078891D01*
X0081788Y0078950D01*
X0081938Y0079005D01*
X0082089Y0079057D01*
X0082242Y0079105D01*
X0082395Y0079149D01*
X0082550Y0079189D01*
X0082705Y0079226D01*
X0082861Y0079259D01*
X0083018Y0079288D01*
X0083176Y0079313D01*
X0083334Y0079334D01*
X0083493Y0079352D01*
X0083652Y0079365D01*
X0083812Y0079375D01*
X0083971Y0079381D01*
X0084131Y0079383D01*
X0084291Y0079381D01*
X0084450Y0079375D01*
X0084610Y0079365D01*
X0084769Y0079352D01*
X0084928Y0079334D01*
X0085086Y0079313D01*
X0085244Y0079288D01*
X0085401Y0079259D01*
X0085557Y0079226D01*
X0085712Y0079189D01*
X0085867Y0079149D01*
X0086020Y0079105D01*
X0086173Y0079057D01*
X0086324Y0079005D01*
X0086474Y0078950D01*
X0086622Y0078891D01*
X0086769Y0078828D01*
X0086915Y0078762D01*
X0087058Y0078693D01*
X0087200Y0078620D01*
X0087340Y0078543D01*
X0087479Y0078463D01*
X0087615Y0078380D01*
X0087749Y0078293D01*
X0087881Y0078203D01*
X0088011Y0078110D01*
X0088139Y0078014D01*
X0088264Y0077915D01*
X0088387Y0077813D01*
X0088507Y0077708D01*
X0088624Y0077600D01*
X0088739Y0077489D01*
X0088851Y0077375D01*
X0088961Y0077258D01*
X0089067Y0077139D01*
X0089171Y0077018D01*
X0089271Y0076894D01*
X0089369Y0076767D01*
X0089463Y0076638D01*
X0089554Y0076507D01*
X0089642Y0076374D01*
X0089249Y0076768D02*
X0092005Y0076768D01*
X0094583Y0120469D02*
X0082083Y0120469D01*
X0082083Y0125469D01*
X0050583Y0125469D01*
X0048583Y0126469D01*
X0048583Y0145669D01*
X0056183Y0145669D01*
X0057583Y0146969D01*
X0082083Y0146969D01*
X0082083Y0176969D01*
X0057583Y0176969D01*
X0056183Y0175669D01*
X0050583Y0175469D02*
X0048583Y0174469D01*
X0048583Y0155269D01*
X0082083Y0155269D01*
X0082083Y0153969D02*
X0057583Y0153969D01*
X0056183Y0155269D01*
X0056183Y0145669D02*
X0082083Y0145669D01*
X0082083Y0125469D01*
X0082083Y0123969D02*
X0057583Y0123969D01*
X0056183Y0125269D01*
X0092083Y0122969D02*
X0092083Y0127969D01*
X0094583Y0127969D01*
X0094583Y0132969D01*
X0092083Y0132969D01*
X0092083Y0137969D01*
X0094583Y0137969D01*
X0094583Y0142969D01*
X0092083Y0142969D01*
X0092083Y0147969D01*
X0094583Y0147969D01*
X0094583Y0152969D01*
X0092083Y0152969D01*
X0092083Y0157969D01*
X0094583Y0157969D01*
X0094583Y0162969D01*
X0092083Y0162969D01*
X0092083Y0167969D01*
X0094583Y0167969D01*
X0094583Y0172969D01*
X0092083Y0172969D01*
X0092083Y0177969D01*
X0094583Y0177969D01*
X0094583Y0180469D01*
X0082083Y0180469D01*
X0082083Y0176969D01*
X0082083Y0175469D02*
X0050583Y0175469D01*
X0092083Y0122969D02*
X0094583Y0122969D01*
X0094583Y0120469D01*
X0148914Y0054020D02*
X0148914Y0049020D01*
X0148914Y0054020D02*
X0173914Y0054020D01*
X0173914Y0049020D01*
X0173914Y0043020D02*
X0173914Y0038020D01*
X0148914Y0038020D01*
X0148914Y0043020D01*
X0156414Y0043520D02*
X0156414Y0048520D01*
X0166414Y0048520D01*
X0166414Y0043520D01*
X0156414Y0043520D01*
X0162414Y0044020D02*
X0162414Y0048020D01*
X0165414Y0048020D02*
X0165414Y0044020D01*
X0262083Y0068894D02*
X0264839Y0068894D01*
X0264446Y0076374D02*
X0264534Y0076507D01*
X0264625Y0076638D01*
X0264719Y0076767D01*
X0264817Y0076894D01*
X0264917Y0077018D01*
X0265021Y0077139D01*
X0265127Y0077258D01*
X0265237Y0077375D01*
X0265349Y0077489D01*
X0265464Y0077600D01*
X0265581Y0077708D01*
X0265701Y0077813D01*
X0265824Y0077915D01*
X0265949Y0078014D01*
X0266077Y0078110D01*
X0266207Y0078203D01*
X0266339Y0078293D01*
X0266473Y0078380D01*
X0266609Y0078463D01*
X0266748Y0078543D01*
X0266888Y0078620D01*
X0267030Y0078693D01*
X0267173Y0078762D01*
X0267319Y0078828D01*
X0267466Y0078891D01*
X0267614Y0078950D01*
X0267764Y0079005D01*
X0267915Y0079057D01*
X0268068Y0079105D01*
X0268221Y0079149D01*
X0268376Y0079189D01*
X0268531Y0079226D01*
X0268687Y0079259D01*
X0268844Y0079288D01*
X0269002Y0079313D01*
X0269160Y0079334D01*
X0269319Y0079352D01*
X0269478Y0079365D01*
X0269638Y0079375D01*
X0269797Y0079381D01*
X0269957Y0079383D01*
X0270117Y0079381D01*
X0270276Y0079375D01*
X0270436Y0079365D01*
X0270595Y0079352D01*
X0270754Y0079334D01*
X0270912Y0079313D01*
X0271070Y0079288D01*
X0271227Y0079259D01*
X0271383Y0079226D01*
X0271538Y0079189D01*
X0271693Y0079149D01*
X0271846Y0079105D01*
X0271999Y0079057D01*
X0272150Y0079005D01*
X0272300Y0078950D01*
X0272448Y0078891D01*
X0272595Y0078828D01*
X0272741Y0078762D01*
X0272884Y0078693D01*
X0273026Y0078620D01*
X0273166Y0078543D01*
X0273305Y0078463D01*
X0273441Y0078380D01*
X0273575Y0078293D01*
X0273707Y0078203D01*
X0273837Y0078110D01*
X0273965Y0078014D01*
X0274090Y0077915D01*
X0274213Y0077813D01*
X0274333Y0077708D01*
X0274450Y0077600D01*
X0274565Y0077489D01*
X0274677Y0077375D01*
X0274787Y0077258D01*
X0274893Y0077139D01*
X0274997Y0077018D01*
X0275097Y0076894D01*
X0275195Y0076767D01*
X0275289Y0076638D01*
X0275380Y0076507D01*
X0275468Y0076374D01*
X0275469Y0076374D02*
X0275469Y0069287D01*
X0275468Y0069288D02*
X0275380Y0069155D01*
X0275289Y0069024D01*
X0275195Y0068895D01*
X0275097Y0068768D01*
X0274997Y0068644D01*
X0274893Y0068523D01*
X0274787Y0068404D01*
X0274677Y0068287D01*
X0274565Y0068173D01*
X0274450Y0068062D01*
X0274333Y0067954D01*
X0274213Y0067849D01*
X0274090Y0067747D01*
X0273965Y0067648D01*
X0273837Y0067552D01*
X0273707Y0067459D01*
X0273575Y0067369D01*
X0273441Y0067282D01*
X0273305Y0067199D01*
X0273166Y0067119D01*
X0273026Y0067042D01*
X0272884Y0066969D01*
X0272741Y0066900D01*
X0272595Y0066834D01*
X0272448Y0066771D01*
X0272300Y0066712D01*
X0272150Y0066657D01*
X0271999Y0066605D01*
X0271846Y0066557D01*
X0271693Y0066513D01*
X0271538Y0066473D01*
X0271383Y0066436D01*
X0271227Y0066403D01*
X0271070Y0066374D01*
X0270912Y0066349D01*
X0270754Y0066328D01*
X0270595Y0066310D01*
X0270436Y0066297D01*
X0270276Y0066287D01*
X0270117Y0066281D01*
X0269957Y0066279D01*
X0269797Y0066281D01*
X0269638Y0066287D01*
X0269478Y0066297D01*
X0269319Y0066310D01*
X0269160Y0066328D01*
X0269002Y0066349D01*
X0268844Y0066374D01*
X0268687Y0066403D01*
X0268531Y0066436D01*
X0268376Y0066473D01*
X0268221Y0066513D01*
X0268068Y0066557D01*
X0267915Y0066605D01*
X0267764Y0066657D01*
X0267614Y0066712D01*
X0267466Y0066771D01*
X0267319Y0066834D01*
X0267173Y0066900D01*
X0267030Y0066969D01*
X0266888Y0067042D01*
X0266748Y0067119D01*
X0266609Y0067199D01*
X0266473Y0067282D01*
X0266339Y0067369D01*
X0266207Y0067459D01*
X0266077Y0067552D01*
X0265949Y0067648D01*
X0265824Y0067747D01*
X0265701Y0067849D01*
X0265581Y0067954D01*
X0265464Y0068062D01*
X0265349Y0068173D01*
X0265237Y0068287D01*
X0265127Y0068404D01*
X0265021Y0068523D01*
X0264917Y0068644D01*
X0264817Y0068768D01*
X0264719Y0068895D01*
X0264625Y0069024D01*
X0264534Y0069155D01*
X0264446Y0069288D01*
X0264839Y0076768D02*
X0262083Y0076768D01*
X0216040Y0180264D02*
X0191040Y0180264D01*
X0191040Y0185264D01*
X0191040Y0191264D02*
X0191040Y0196264D01*
X0216040Y0196264D01*
X0216040Y0191264D01*
X0216040Y0185264D02*
X0216040Y0180264D01*
X0208540Y0185764D02*
X0198540Y0185764D01*
X0198540Y0190764D01*
X0208540Y0190764D01*
X0208540Y0185764D01*
X0207540Y0186264D02*
X0207540Y0190264D01*
X0204540Y0190264D02*
X0204540Y0186264D01*
D14*
X0202245Y0141178D02*
X0202245Y0136574D01*
X0200711Y0136574D02*
X0203780Y0136574D01*
X0200711Y0139643D02*
X0202245Y0141178D01*
X0199176Y0140411D02*
X0199176Y0137341D01*
X0198409Y0136574D01*
X0196107Y0136574D01*
X0196107Y0141178D01*
X0198409Y0141178D01*
X0199176Y0140411D01*
X0194572Y0141178D02*
X0191503Y0141178D01*
X0191503Y0136574D01*
X0194572Y0136574D01*
X0193038Y0138876D02*
X0191503Y0138876D01*
X0189968Y0136574D02*
X0186899Y0136574D01*
X0186899Y0141178D01*
X0191166Y0123422D02*
X0193468Y0123422D01*
X0194235Y0122655D01*
X0194235Y0121120D01*
X0193468Y0120353D01*
X0191166Y0120353D01*
X0192701Y0120353D02*
X0194235Y0118818D01*
X0195770Y0118818D02*
X0198839Y0118818D01*
X0197305Y0118818D02*
X0197305Y0123422D01*
X0195770Y0121887D01*
X0191166Y0123422D02*
X0191166Y0118818D01*
X0147186Y0165025D02*
X0147186Y0166560D01*
X0147186Y0165793D02*
X0142583Y0165793D01*
X0142583Y0166560D02*
X0142583Y0165025D01*
X0143350Y0168094D02*
X0146419Y0168094D01*
X0147186Y0168862D01*
X0147186Y0170396D01*
X0146419Y0171164D01*
X0147186Y0172698D02*
X0147186Y0175768D01*
X0147186Y0174233D02*
X0142583Y0174233D01*
X0144117Y0172698D01*
X0143350Y0171164D02*
X0142583Y0170396D01*
X0142583Y0168862D01*
X0143350Y0168094D01*
X0127080Y0190294D02*
X0122476Y0190294D01*
X0122476Y0192596D01*
X0123244Y0193364D01*
X0124778Y0193364D01*
X0125546Y0192596D01*
X0125546Y0190294D01*
X0125546Y0191829D02*
X0127080Y0193364D01*
X0126313Y0194898D02*
X0127080Y0195666D01*
X0127080Y0197200D01*
X0126313Y0197968D01*
X0125546Y0197968D01*
X0124778Y0197200D01*
X0124778Y0194898D01*
X0126313Y0194898D01*
X0124778Y0194898D02*
X0123244Y0196433D01*
X0122476Y0197968D01*
X0141398Y0201338D02*
X0141398Y0205942D01*
X0143699Y0205942D01*
X0144467Y0205174D01*
X0144467Y0203640D01*
X0143699Y0202872D01*
X0141398Y0202872D01*
X0142932Y0202872D02*
X0144467Y0201338D01*
X0146001Y0201338D02*
X0146001Y0202105D01*
X0149071Y0205174D01*
X0149071Y0205942D01*
X0146001Y0205942D01*
X0086057Y0135133D02*
X0086057Y0132064D01*
X0082987Y0135133D01*
X0082220Y0135133D01*
X0081453Y0134366D01*
X0081453Y0132831D01*
X0082220Y0132064D01*
X0082220Y0130529D02*
X0083755Y0130529D01*
X0084522Y0129762D01*
X0084522Y0127460D01*
X0084522Y0128994D02*
X0086057Y0130529D01*
X0086057Y0127460D02*
X0081453Y0127460D01*
X0081453Y0129762D01*
X0082220Y0130529D01*
X0087480Y0118217D02*
X0089281Y0118217D01*
X0089882Y0117616D01*
X0089882Y0116415D01*
X0089281Y0115815D01*
X0087480Y0115815D01*
X0087480Y0114614D02*
X0087480Y0118217D01*
X0091163Y0118217D02*
X0091163Y0114614D01*
X0092364Y0115815D01*
X0093565Y0114614D01*
X0093565Y0118217D01*
X0094846Y0118217D02*
X0096648Y0118217D01*
X0097248Y0117616D01*
X0097248Y0116415D01*
X0096648Y0115815D01*
X0094846Y0115815D01*
X0096047Y0115815D02*
X0097248Y0114614D01*
X0098529Y0116415D02*
X0100931Y0116415D01*
X0099730Y0117616D02*
X0099730Y0115214D01*
X0102212Y0115214D02*
X0102212Y0117616D01*
X0102813Y0118217D01*
X0104014Y0118217D01*
X0104614Y0117616D01*
X0105896Y0117616D02*
X0105896Y0115214D01*
X0106496Y0114614D01*
X0107697Y0114614D01*
X0108298Y0115214D01*
X0108298Y0117616D01*
X0107697Y0118217D01*
X0106496Y0118217D01*
X0105896Y0117616D01*
X0104614Y0115214D02*
X0104014Y0114614D01*
X0102813Y0114614D01*
X0102212Y0115214D01*
X0103036Y0109190D02*
X0106105Y0109190D01*
X0104571Y0109190D02*
X0104571Y0104586D01*
X0107640Y0104586D02*
X0110709Y0109190D01*
X0107640Y0109190D02*
X0110709Y0104586D01*
X0101501Y0104586D02*
X0101501Y0107655D01*
X0099967Y0109190D01*
X0098432Y0107655D01*
X0098432Y0104586D01*
X0098432Y0106888D02*
X0101501Y0106888D01*
X0094846Y0114614D02*
X0094846Y0118217D01*
X0109579Y0118217D02*
X0109579Y0114614D01*
X0111981Y0114614D02*
X0111981Y0118217D01*
X0110780Y0117016D01*
X0109579Y0118217D01*
D15*
X0122438Y0162122D02*
X0122438Y0175114D01*
X0141335Y0175114D01*
X0141335Y0162122D01*
X0141335Y0175114D02*
X0141335Y0177083D01*
X0122438Y0177083D02*
X0122438Y0175114D01*
X0284210Y0214524D02*
X0284212Y0214682D01*
X0284218Y0214840D01*
X0284228Y0214998D01*
X0284242Y0215156D01*
X0284260Y0215313D01*
X0284281Y0215470D01*
X0284307Y0215626D01*
X0284337Y0215782D01*
X0284370Y0215937D01*
X0284408Y0216090D01*
X0284449Y0216243D01*
X0284494Y0216395D01*
X0284543Y0216546D01*
X0284596Y0216695D01*
X0284652Y0216843D01*
X0284712Y0216989D01*
X0284776Y0217134D01*
X0284844Y0217277D01*
X0284915Y0217419D01*
X0284989Y0217559D01*
X0285067Y0217696D01*
X0285149Y0217832D01*
X0285233Y0217966D01*
X0285322Y0218097D01*
X0285413Y0218226D01*
X0285508Y0218353D01*
X0285605Y0218478D01*
X0285706Y0218600D01*
X0285810Y0218719D01*
X0285917Y0218836D01*
X0286027Y0218950D01*
X0286140Y0219061D01*
X0286255Y0219170D01*
X0286373Y0219275D01*
X0286494Y0219377D01*
X0286617Y0219477D01*
X0286743Y0219573D01*
X0286871Y0219666D01*
X0287001Y0219756D01*
X0287134Y0219842D01*
X0287269Y0219926D01*
X0287405Y0220005D01*
X0287544Y0220082D01*
X0287685Y0220154D01*
X0287827Y0220224D01*
X0287971Y0220289D01*
X0288117Y0220351D01*
X0288264Y0220409D01*
X0288413Y0220464D01*
X0288563Y0220515D01*
X0288714Y0220562D01*
X0288866Y0220605D01*
X0289019Y0220644D01*
X0289174Y0220680D01*
X0289329Y0220711D01*
X0289485Y0220739D01*
X0289641Y0220763D01*
X0289798Y0220783D01*
X0289956Y0220799D01*
X0290113Y0220811D01*
X0290272Y0220819D01*
X0290430Y0220823D01*
X0290588Y0220823D01*
X0290746Y0220819D01*
X0290905Y0220811D01*
X0291062Y0220799D01*
X0291220Y0220783D01*
X0291377Y0220763D01*
X0291533Y0220739D01*
X0291689Y0220711D01*
X0291844Y0220680D01*
X0291999Y0220644D01*
X0292152Y0220605D01*
X0292304Y0220562D01*
X0292455Y0220515D01*
X0292605Y0220464D01*
X0292754Y0220409D01*
X0292901Y0220351D01*
X0293047Y0220289D01*
X0293191Y0220224D01*
X0293333Y0220154D01*
X0293474Y0220082D01*
X0293613Y0220005D01*
X0293749Y0219926D01*
X0293884Y0219842D01*
X0294017Y0219756D01*
X0294147Y0219666D01*
X0294275Y0219573D01*
X0294401Y0219477D01*
X0294524Y0219377D01*
X0294645Y0219275D01*
X0294763Y0219170D01*
X0294878Y0219061D01*
X0294991Y0218950D01*
X0295101Y0218836D01*
X0295208Y0218719D01*
X0295312Y0218600D01*
X0295413Y0218478D01*
X0295510Y0218353D01*
X0295605Y0218226D01*
X0295696Y0218097D01*
X0295785Y0217966D01*
X0295869Y0217832D01*
X0295951Y0217696D01*
X0296029Y0217559D01*
X0296103Y0217419D01*
X0296174Y0217277D01*
X0296242Y0217134D01*
X0296306Y0216989D01*
X0296366Y0216843D01*
X0296422Y0216695D01*
X0296475Y0216546D01*
X0296524Y0216395D01*
X0296569Y0216243D01*
X0296610Y0216090D01*
X0296648Y0215937D01*
X0296681Y0215782D01*
X0296711Y0215626D01*
X0296737Y0215470D01*
X0296758Y0215313D01*
X0296776Y0215156D01*
X0296790Y0214998D01*
X0296800Y0214840D01*
X0296806Y0214682D01*
X0296808Y0214524D01*
X0296806Y0214366D01*
X0296800Y0214208D01*
X0296790Y0214050D01*
X0296776Y0213892D01*
X0296758Y0213735D01*
X0296737Y0213578D01*
X0296711Y0213422D01*
X0296681Y0213266D01*
X0296648Y0213111D01*
X0296610Y0212958D01*
X0296569Y0212805D01*
X0296524Y0212653D01*
X0296475Y0212502D01*
X0296422Y0212353D01*
X0296366Y0212205D01*
X0296306Y0212059D01*
X0296242Y0211914D01*
X0296174Y0211771D01*
X0296103Y0211629D01*
X0296029Y0211489D01*
X0295951Y0211352D01*
X0295869Y0211216D01*
X0295785Y0211082D01*
X0295696Y0210951D01*
X0295605Y0210822D01*
X0295510Y0210695D01*
X0295413Y0210570D01*
X0295312Y0210448D01*
X0295208Y0210329D01*
X0295101Y0210212D01*
X0294991Y0210098D01*
X0294878Y0209987D01*
X0294763Y0209878D01*
X0294645Y0209773D01*
X0294524Y0209671D01*
X0294401Y0209571D01*
X0294275Y0209475D01*
X0294147Y0209382D01*
X0294017Y0209292D01*
X0293884Y0209206D01*
X0293749Y0209122D01*
X0293613Y0209043D01*
X0293474Y0208966D01*
X0293333Y0208894D01*
X0293191Y0208824D01*
X0293047Y0208759D01*
X0292901Y0208697D01*
X0292754Y0208639D01*
X0292605Y0208584D01*
X0292455Y0208533D01*
X0292304Y0208486D01*
X0292152Y0208443D01*
X0291999Y0208404D01*
X0291844Y0208368D01*
X0291689Y0208337D01*
X0291533Y0208309D01*
X0291377Y0208285D01*
X0291220Y0208265D01*
X0291062Y0208249D01*
X0290905Y0208237D01*
X0290746Y0208229D01*
X0290588Y0208225D01*
X0290430Y0208225D01*
X0290272Y0208229D01*
X0290113Y0208237D01*
X0289956Y0208249D01*
X0289798Y0208265D01*
X0289641Y0208285D01*
X0289485Y0208309D01*
X0289329Y0208337D01*
X0289174Y0208368D01*
X0289019Y0208404D01*
X0288866Y0208443D01*
X0288714Y0208486D01*
X0288563Y0208533D01*
X0288413Y0208584D01*
X0288264Y0208639D01*
X0288117Y0208697D01*
X0287971Y0208759D01*
X0287827Y0208824D01*
X0287685Y0208894D01*
X0287544Y0208966D01*
X0287405Y0209043D01*
X0287269Y0209122D01*
X0287134Y0209206D01*
X0287001Y0209292D01*
X0286871Y0209382D01*
X0286743Y0209475D01*
X0286617Y0209571D01*
X0286494Y0209671D01*
X0286373Y0209773D01*
X0286255Y0209878D01*
X0286140Y0209987D01*
X0286027Y0210098D01*
X0285917Y0210212D01*
X0285810Y0210329D01*
X0285706Y0210448D01*
X0285605Y0210570D01*
X0285508Y0210695D01*
X0285413Y0210822D01*
X0285322Y0210951D01*
X0285233Y0211082D01*
X0285149Y0211216D01*
X0285067Y0211352D01*
X0284989Y0211489D01*
X0284915Y0211629D01*
X0284844Y0211771D01*
X0284776Y0211914D01*
X0284712Y0212059D01*
X0284652Y0212205D01*
X0284596Y0212353D01*
X0284543Y0212502D01*
X0284494Y0212653D01*
X0284449Y0212805D01*
X0284408Y0212958D01*
X0284370Y0213111D01*
X0284337Y0213266D01*
X0284307Y0213422D01*
X0284281Y0213578D01*
X0284260Y0213735D01*
X0284242Y0213892D01*
X0284228Y0214050D01*
X0284218Y0214208D01*
X0284212Y0214366D01*
X0284210Y0214524D01*
X0284210Y0021689D02*
X0284212Y0021847D01*
X0284218Y0022005D01*
X0284228Y0022163D01*
X0284242Y0022321D01*
X0284260Y0022478D01*
X0284281Y0022635D01*
X0284307Y0022791D01*
X0284337Y0022947D01*
X0284370Y0023102D01*
X0284408Y0023255D01*
X0284449Y0023408D01*
X0284494Y0023560D01*
X0284543Y0023711D01*
X0284596Y0023860D01*
X0284652Y0024008D01*
X0284712Y0024154D01*
X0284776Y0024299D01*
X0284844Y0024442D01*
X0284915Y0024584D01*
X0284989Y0024724D01*
X0285067Y0024861D01*
X0285149Y0024997D01*
X0285233Y0025131D01*
X0285322Y0025262D01*
X0285413Y0025391D01*
X0285508Y0025518D01*
X0285605Y0025643D01*
X0285706Y0025765D01*
X0285810Y0025884D01*
X0285917Y0026001D01*
X0286027Y0026115D01*
X0286140Y0026226D01*
X0286255Y0026335D01*
X0286373Y0026440D01*
X0286494Y0026542D01*
X0286617Y0026642D01*
X0286743Y0026738D01*
X0286871Y0026831D01*
X0287001Y0026921D01*
X0287134Y0027007D01*
X0287269Y0027091D01*
X0287405Y0027170D01*
X0287544Y0027247D01*
X0287685Y0027319D01*
X0287827Y0027389D01*
X0287971Y0027454D01*
X0288117Y0027516D01*
X0288264Y0027574D01*
X0288413Y0027629D01*
X0288563Y0027680D01*
X0288714Y0027727D01*
X0288866Y0027770D01*
X0289019Y0027809D01*
X0289174Y0027845D01*
X0289329Y0027876D01*
X0289485Y0027904D01*
X0289641Y0027928D01*
X0289798Y0027948D01*
X0289956Y0027964D01*
X0290113Y0027976D01*
X0290272Y0027984D01*
X0290430Y0027988D01*
X0290588Y0027988D01*
X0290746Y0027984D01*
X0290905Y0027976D01*
X0291062Y0027964D01*
X0291220Y0027948D01*
X0291377Y0027928D01*
X0291533Y0027904D01*
X0291689Y0027876D01*
X0291844Y0027845D01*
X0291999Y0027809D01*
X0292152Y0027770D01*
X0292304Y0027727D01*
X0292455Y0027680D01*
X0292605Y0027629D01*
X0292754Y0027574D01*
X0292901Y0027516D01*
X0293047Y0027454D01*
X0293191Y0027389D01*
X0293333Y0027319D01*
X0293474Y0027247D01*
X0293613Y0027170D01*
X0293749Y0027091D01*
X0293884Y0027007D01*
X0294017Y0026921D01*
X0294147Y0026831D01*
X0294275Y0026738D01*
X0294401Y0026642D01*
X0294524Y0026542D01*
X0294645Y0026440D01*
X0294763Y0026335D01*
X0294878Y0026226D01*
X0294991Y0026115D01*
X0295101Y0026001D01*
X0295208Y0025884D01*
X0295312Y0025765D01*
X0295413Y0025643D01*
X0295510Y0025518D01*
X0295605Y0025391D01*
X0295696Y0025262D01*
X0295785Y0025131D01*
X0295869Y0024997D01*
X0295951Y0024861D01*
X0296029Y0024724D01*
X0296103Y0024584D01*
X0296174Y0024442D01*
X0296242Y0024299D01*
X0296306Y0024154D01*
X0296366Y0024008D01*
X0296422Y0023860D01*
X0296475Y0023711D01*
X0296524Y0023560D01*
X0296569Y0023408D01*
X0296610Y0023255D01*
X0296648Y0023102D01*
X0296681Y0022947D01*
X0296711Y0022791D01*
X0296737Y0022635D01*
X0296758Y0022478D01*
X0296776Y0022321D01*
X0296790Y0022163D01*
X0296800Y0022005D01*
X0296806Y0021847D01*
X0296808Y0021689D01*
X0296806Y0021531D01*
X0296800Y0021373D01*
X0296790Y0021215D01*
X0296776Y0021057D01*
X0296758Y0020900D01*
X0296737Y0020743D01*
X0296711Y0020587D01*
X0296681Y0020431D01*
X0296648Y0020276D01*
X0296610Y0020123D01*
X0296569Y0019970D01*
X0296524Y0019818D01*
X0296475Y0019667D01*
X0296422Y0019518D01*
X0296366Y0019370D01*
X0296306Y0019224D01*
X0296242Y0019079D01*
X0296174Y0018936D01*
X0296103Y0018794D01*
X0296029Y0018654D01*
X0295951Y0018517D01*
X0295869Y0018381D01*
X0295785Y0018247D01*
X0295696Y0018116D01*
X0295605Y0017987D01*
X0295510Y0017860D01*
X0295413Y0017735D01*
X0295312Y0017613D01*
X0295208Y0017494D01*
X0295101Y0017377D01*
X0294991Y0017263D01*
X0294878Y0017152D01*
X0294763Y0017043D01*
X0294645Y0016938D01*
X0294524Y0016836D01*
X0294401Y0016736D01*
X0294275Y0016640D01*
X0294147Y0016547D01*
X0294017Y0016457D01*
X0293884Y0016371D01*
X0293749Y0016287D01*
X0293613Y0016208D01*
X0293474Y0016131D01*
X0293333Y0016059D01*
X0293191Y0015989D01*
X0293047Y0015924D01*
X0292901Y0015862D01*
X0292754Y0015804D01*
X0292605Y0015749D01*
X0292455Y0015698D01*
X0292304Y0015651D01*
X0292152Y0015608D01*
X0291999Y0015569D01*
X0291844Y0015533D01*
X0291689Y0015502D01*
X0291533Y0015474D01*
X0291377Y0015450D01*
X0291220Y0015430D01*
X0291062Y0015414D01*
X0290905Y0015402D01*
X0290746Y0015394D01*
X0290588Y0015390D01*
X0290430Y0015390D01*
X0290272Y0015394D01*
X0290113Y0015402D01*
X0289956Y0015414D01*
X0289798Y0015430D01*
X0289641Y0015450D01*
X0289485Y0015474D01*
X0289329Y0015502D01*
X0289174Y0015533D01*
X0289019Y0015569D01*
X0288866Y0015608D01*
X0288714Y0015651D01*
X0288563Y0015698D01*
X0288413Y0015749D01*
X0288264Y0015804D01*
X0288117Y0015862D01*
X0287971Y0015924D01*
X0287827Y0015989D01*
X0287685Y0016059D01*
X0287544Y0016131D01*
X0287405Y0016208D01*
X0287269Y0016287D01*
X0287134Y0016371D01*
X0287001Y0016457D01*
X0286871Y0016547D01*
X0286743Y0016640D01*
X0286617Y0016736D01*
X0286494Y0016836D01*
X0286373Y0016938D01*
X0286255Y0017043D01*
X0286140Y0017152D01*
X0286027Y0017263D01*
X0285917Y0017377D01*
X0285810Y0017494D01*
X0285706Y0017613D01*
X0285605Y0017735D01*
X0285508Y0017860D01*
X0285413Y0017987D01*
X0285322Y0018116D01*
X0285233Y0018247D01*
X0285149Y0018381D01*
X0285067Y0018517D01*
X0284989Y0018654D01*
X0284915Y0018794D01*
X0284844Y0018936D01*
X0284776Y0019079D01*
X0284712Y0019224D01*
X0284652Y0019370D01*
X0284596Y0019518D01*
X0284543Y0019667D01*
X0284494Y0019818D01*
X0284449Y0019970D01*
X0284408Y0020123D01*
X0284370Y0020276D01*
X0284337Y0020431D01*
X0284307Y0020587D01*
X0284281Y0020743D01*
X0284260Y0020900D01*
X0284242Y0021057D01*
X0284228Y0021215D01*
X0284218Y0021373D01*
X0284212Y0021531D01*
X0284210Y0021689D01*
X0055863Y0021689D02*
X0055865Y0021847D01*
X0055871Y0022005D01*
X0055881Y0022163D01*
X0055895Y0022321D01*
X0055913Y0022478D01*
X0055934Y0022635D01*
X0055960Y0022791D01*
X0055990Y0022947D01*
X0056023Y0023102D01*
X0056061Y0023255D01*
X0056102Y0023408D01*
X0056147Y0023560D01*
X0056196Y0023711D01*
X0056249Y0023860D01*
X0056305Y0024008D01*
X0056365Y0024154D01*
X0056429Y0024299D01*
X0056497Y0024442D01*
X0056568Y0024584D01*
X0056642Y0024724D01*
X0056720Y0024861D01*
X0056802Y0024997D01*
X0056886Y0025131D01*
X0056975Y0025262D01*
X0057066Y0025391D01*
X0057161Y0025518D01*
X0057258Y0025643D01*
X0057359Y0025765D01*
X0057463Y0025884D01*
X0057570Y0026001D01*
X0057680Y0026115D01*
X0057793Y0026226D01*
X0057908Y0026335D01*
X0058026Y0026440D01*
X0058147Y0026542D01*
X0058270Y0026642D01*
X0058396Y0026738D01*
X0058524Y0026831D01*
X0058654Y0026921D01*
X0058787Y0027007D01*
X0058922Y0027091D01*
X0059058Y0027170D01*
X0059197Y0027247D01*
X0059338Y0027319D01*
X0059480Y0027389D01*
X0059624Y0027454D01*
X0059770Y0027516D01*
X0059917Y0027574D01*
X0060066Y0027629D01*
X0060216Y0027680D01*
X0060367Y0027727D01*
X0060519Y0027770D01*
X0060672Y0027809D01*
X0060827Y0027845D01*
X0060982Y0027876D01*
X0061138Y0027904D01*
X0061294Y0027928D01*
X0061451Y0027948D01*
X0061609Y0027964D01*
X0061766Y0027976D01*
X0061925Y0027984D01*
X0062083Y0027988D01*
X0062241Y0027988D01*
X0062399Y0027984D01*
X0062558Y0027976D01*
X0062715Y0027964D01*
X0062873Y0027948D01*
X0063030Y0027928D01*
X0063186Y0027904D01*
X0063342Y0027876D01*
X0063497Y0027845D01*
X0063652Y0027809D01*
X0063805Y0027770D01*
X0063957Y0027727D01*
X0064108Y0027680D01*
X0064258Y0027629D01*
X0064407Y0027574D01*
X0064554Y0027516D01*
X0064700Y0027454D01*
X0064844Y0027389D01*
X0064986Y0027319D01*
X0065127Y0027247D01*
X0065266Y0027170D01*
X0065402Y0027091D01*
X0065537Y0027007D01*
X0065670Y0026921D01*
X0065800Y0026831D01*
X0065928Y0026738D01*
X0066054Y0026642D01*
X0066177Y0026542D01*
X0066298Y0026440D01*
X0066416Y0026335D01*
X0066531Y0026226D01*
X0066644Y0026115D01*
X0066754Y0026001D01*
X0066861Y0025884D01*
X0066965Y0025765D01*
X0067066Y0025643D01*
X0067163Y0025518D01*
X0067258Y0025391D01*
X0067349Y0025262D01*
X0067438Y0025131D01*
X0067522Y0024997D01*
X0067604Y0024861D01*
X0067682Y0024724D01*
X0067756Y0024584D01*
X0067827Y0024442D01*
X0067895Y0024299D01*
X0067959Y0024154D01*
X0068019Y0024008D01*
X0068075Y0023860D01*
X0068128Y0023711D01*
X0068177Y0023560D01*
X0068222Y0023408D01*
X0068263Y0023255D01*
X0068301Y0023102D01*
X0068334Y0022947D01*
X0068364Y0022791D01*
X0068390Y0022635D01*
X0068411Y0022478D01*
X0068429Y0022321D01*
X0068443Y0022163D01*
X0068453Y0022005D01*
X0068459Y0021847D01*
X0068461Y0021689D01*
X0068459Y0021531D01*
X0068453Y0021373D01*
X0068443Y0021215D01*
X0068429Y0021057D01*
X0068411Y0020900D01*
X0068390Y0020743D01*
X0068364Y0020587D01*
X0068334Y0020431D01*
X0068301Y0020276D01*
X0068263Y0020123D01*
X0068222Y0019970D01*
X0068177Y0019818D01*
X0068128Y0019667D01*
X0068075Y0019518D01*
X0068019Y0019370D01*
X0067959Y0019224D01*
X0067895Y0019079D01*
X0067827Y0018936D01*
X0067756Y0018794D01*
X0067682Y0018654D01*
X0067604Y0018517D01*
X0067522Y0018381D01*
X0067438Y0018247D01*
X0067349Y0018116D01*
X0067258Y0017987D01*
X0067163Y0017860D01*
X0067066Y0017735D01*
X0066965Y0017613D01*
X0066861Y0017494D01*
X0066754Y0017377D01*
X0066644Y0017263D01*
X0066531Y0017152D01*
X0066416Y0017043D01*
X0066298Y0016938D01*
X0066177Y0016836D01*
X0066054Y0016736D01*
X0065928Y0016640D01*
X0065800Y0016547D01*
X0065670Y0016457D01*
X0065537Y0016371D01*
X0065402Y0016287D01*
X0065266Y0016208D01*
X0065127Y0016131D01*
X0064986Y0016059D01*
X0064844Y0015989D01*
X0064700Y0015924D01*
X0064554Y0015862D01*
X0064407Y0015804D01*
X0064258Y0015749D01*
X0064108Y0015698D01*
X0063957Y0015651D01*
X0063805Y0015608D01*
X0063652Y0015569D01*
X0063497Y0015533D01*
X0063342Y0015502D01*
X0063186Y0015474D01*
X0063030Y0015450D01*
X0062873Y0015430D01*
X0062715Y0015414D01*
X0062558Y0015402D01*
X0062399Y0015394D01*
X0062241Y0015390D01*
X0062083Y0015390D01*
X0061925Y0015394D01*
X0061766Y0015402D01*
X0061609Y0015414D01*
X0061451Y0015430D01*
X0061294Y0015450D01*
X0061138Y0015474D01*
X0060982Y0015502D01*
X0060827Y0015533D01*
X0060672Y0015569D01*
X0060519Y0015608D01*
X0060367Y0015651D01*
X0060216Y0015698D01*
X0060066Y0015749D01*
X0059917Y0015804D01*
X0059770Y0015862D01*
X0059624Y0015924D01*
X0059480Y0015989D01*
X0059338Y0016059D01*
X0059197Y0016131D01*
X0059058Y0016208D01*
X0058922Y0016287D01*
X0058787Y0016371D01*
X0058654Y0016457D01*
X0058524Y0016547D01*
X0058396Y0016640D01*
X0058270Y0016736D01*
X0058147Y0016836D01*
X0058026Y0016938D01*
X0057908Y0017043D01*
X0057793Y0017152D01*
X0057680Y0017263D01*
X0057570Y0017377D01*
X0057463Y0017494D01*
X0057359Y0017613D01*
X0057258Y0017735D01*
X0057161Y0017860D01*
X0057066Y0017987D01*
X0056975Y0018116D01*
X0056886Y0018247D01*
X0056802Y0018381D01*
X0056720Y0018517D01*
X0056642Y0018654D01*
X0056568Y0018794D01*
X0056497Y0018936D01*
X0056429Y0019079D01*
X0056365Y0019224D01*
X0056305Y0019370D01*
X0056249Y0019518D01*
X0056196Y0019667D01*
X0056147Y0019818D01*
X0056102Y0019970D01*
X0056061Y0020123D01*
X0056023Y0020276D01*
X0055990Y0020431D01*
X0055960Y0020587D01*
X0055934Y0020743D01*
X0055913Y0020900D01*
X0055895Y0021057D01*
X0055881Y0021215D01*
X0055871Y0021373D01*
X0055865Y0021531D01*
X0055863Y0021689D01*
D16*
X0197900Y0143667D03*
X0197900Y0149081D03*
D17*
X0199426Y0146374D03*
D18*
X0227220Y0125686D02*
X0227220Y0123351D01*
X0227220Y0125686D02*
X0227804Y0125686D01*
X0230139Y0123351D01*
X0230723Y0123351D01*
X0230723Y0122003D02*
X0230723Y0119667D01*
X0230723Y0120835D02*
X0227220Y0120835D01*
X0228388Y0119667D01*
X0228388Y0118320D02*
X0228972Y0117736D01*
X0228972Y0116568D01*
X0228388Y0115984D01*
X0227804Y0115984D01*
X0227220Y0116568D01*
X0227220Y0117736D01*
X0227804Y0118320D01*
X0228388Y0118320D01*
X0228972Y0117736D02*
X0229555Y0118320D01*
X0230139Y0118320D01*
X0230723Y0117736D01*
X0230723Y0116568D01*
X0230139Y0115984D01*
X0229555Y0115984D01*
X0228972Y0116568D01*
X0227804Y0114637D02*
X0230139Y0114637D01*
X0230723Y0114053D01*
X0230723Y0112885D01*
X0230139Y0112301D01*
X0227804Y0114637D01*
X0227220Y0114053D01*
X0227220Y0112885D01*
X0227804Y0112301D01*
X0230139Y0112301D01*
X0229219Y0135301D02*
X0229219Y0137553D01*
X0229970Y0138304D01*
X0231471Y0138304D01*
X0232222Y0137553D01*
X0232222Y0135301D01*
X0233723Y0135301D02*
X0229219Y0135301D01*
X0232222Y0136802D02*
X0233723Y0138304D01*
X0232972Y0139905D02*
X0233723Y0140656D01*
X0233723Y0142157D01*
X0232972Y0142908D01*
X0231471Y0142908D01*
X0230721Y0142157D01*
X0230721Y0141406D01*
X0231471Y0139905D01*
X0229219Y0139905D01*
X0229219Y0142908D01*
X0214489Y0174214D02*
X0212987Y0175715D01*
X0213738Y0175715D02*
X0211486Y0175715D01*
X0211486Y0174214D02*
X0211486Y0178718D01*
X0213738Y0178718D01*
X0214489Y0177967D01*
X0214489Y0176466D01*
X0213738Y0175715D01*
X0209885Y0174964D02*
X0209885Y0177967D01*
X0209134Y0178718D01*
X0207633Y0178718D01*
X0206882Y0177967D01*
X0206882Y0174964D01*
X0207633Y0174214D01*
X0209134Y0174214D01*
X0209885Y0174964D01*
X0205281Y0174964D02*
X0205281Y0177967D01*
X0204530Y0178718D01*
X0203029Y0178718D01*
X0202278Y0177967D01*
X0202278Y0174964D01*
X0203029Y0174214D01*
X0204530Y0174214D01*
X0205281Y0174964D01*
X0200677Y0174964D02*
X0200677Y0177967D01*
X0199926Y0178718D01*
X0197674Y0178718D01*
X0197674Y0174214D01*
X0199926Y0174214D01*
X0200677Y0174964D01*
X0196023Y0182014D02*
X0196590Y0182581D01*
X0196590Y0183715D01*
X0196023Y0184282D01*
X0193754Y0184282D01*
X0193187Y0183715D01*
X0193187Y0182581D01*
X0193754Y0182014D01*
X0196023Y0182014D01*
X0196590Y0185605D02*
X0193187Y0185605D01*
X0196590Y0187873D01*
X0193187Y0187873D01*
X0210387Y0188148D02*
X0211521Y0187014D01*
X0210387Y0188148D02*
X0213790Y0188148D01*
X0213790Y0187014D02*
X0213790Y0189282D01*
X0230418Y0196313D02*
X0230418Y0200817D01*
X0232670Y0200817D01*
X0233420Y0200066D01*
X0233420Y0198565D01*
X0232670Y0197814D01*
X0230418Y0197814D01*
X0235022Y0196313D02*
X0236523Y0196313D01*
X0235772Y0196313D02*
X0235772Y0200817D01*
X0235022Y0200817D02*
X0236523Y0200817D01*
X0238091Y0195562D02*
X0241093Y0195562D01*
X0242695Y0196313D02*
X0242695Y0200817D01*
X0242695Y0198565D02*
X0245697Y0198565D01*
X0247299Y0198565D02*
X0250301Y0198565D01*
X0250301Y0199316D02*
X0250301Y0196313D01*
X0247299Y0196313D02*
X0247299Y0199316D01*
X0248800Y0200817D01*
X0250301Y0199316D01*
X0251903Y0200817D02*
X0254905Y0200817D01*
X0253404Y0200817D02*
X0253404Y0196313D01*
X0245697Y0196313D02*
X0245697Y0200817D01*
X0268403Y0199316D02*
X0269904Y0200817D01*
X0269904Y0196313D01*
X0268403Y0196313D02*
X0271405Y0196313D01*
X0271426Y0151174D02*
X0273761Y0148838D01*
X0274345Y0148838D01*
X0274345Y0147491D02*
X0274345Y0145155D01*
X0274345Y0146323D02*
X0270842Y0146323D01*
X0272010Y0145155D01*
X0272010Y0143808D02*
X0272594Y0143224D01*
X0272594Y0142056D01*
X0272010Y0141472D01*
X0271426Y0141472D01*
X0270842Y0142056D01*
X0270842Y0143224D01*
X0271426Y0143808D01*
X0272010Y0143808D01*
X0272594Y0143224D02*
X0273177Y0143808D01*
X0273761Y0143808D01*
X0274345Y0143224D01*
X0274345Y0142056D01*
X0273761Y0141472D01*
X0273177Y0141472D01*
X0272594Y0142056D01*
X0271426Y0140124D02*
X0273761Y0140124D01*
X0274345Y0139541D01*
X0274345Y0138373D01*
X0273761Y0137789D01*
X0271426Y0140124D01*
X0270842Y0139541D01*
X0270842Y0138373D01*
X0271426Y0137789D01*
X0273761Y0137789D01*
X0275245Y0137002D02*
X0275996Y0137002D01*
X0276747Y0136252D01*
X0277497Y0137002D01*
X0278248Y0137002D01*
X0278999Y0136252D01*
X0278999Y0134750D01*
X0278248Y0134000D01*
X0278999Y0132398D02*
X0277497Y0130897D01*
X0277497Y0131648D02*
X0277497Y0129396D01*
X0278999Y0129396D02*
X0274495Y0129396D01*
X0274495Y0131648D01*
X0275245Y0132398D01*
X0276747Y0132398D01*
X0277497Y0131648D01*
X0275245Y0134000D02*
X0274495Y0134750D01*
X0274495Y0136252D01*
X0275245Y0137002D01*
X0276747Y0136252D02*
X0276747Y0135501D01*
X0272345Y0127170D02*
X0267841Y0127170D01*
X0270093Y0124918D01*
X0270093Y0127920D01*
X0270093Y0123316D02*
X0270844Y0122566D01*
X0270844Y0120314D01*
X0270844Y0121815D02*
X0272345Y0123316D01*
X0270093Y0123316D02*
X0268592Y0123316D01*
X0267841Y0122566D01*
X0267841Y0120314D01*
X0272345Y0120314D01*
X0272496Y0119780D02*
X0273080Y0119780D01*
X0275415Y0117445D01*
X0275999Y0117445D01*
X0275999Y0116097D02*
X0275999Y0113762D01*
X0275999Y0114930D02*
X0272496Y0114930D01*
X0273663Y0113762D01*
X0273663Y0112414D02*
X0273080Y0112414D01*
X0272496Y0111830D01*
X0272496Y0110663D01*
X0273080Y0110079D01*
X0273663Y0110079D01*
X0274247Y0110663D01*
X0274247Y0111830D01*
X0274831Y0112414D01*
X0275415Y0112414D01*
X0275999Y0111830D01*
X0275999Y0110663D01*
X0275415Y0110079D01*
X0274831Y0110079D01*
X0274247Y0110663D01*
X0274247Y0111830D02*
X0273663Y0112414D01*
X0273080Y0108731D02*
X0275415Y0106396D01*
X0275999Y0106979D01*
X0275999Y0108147D01*
X0275415Y0108731D01*
X0273080Y0108731D01*
X0272496Y0108147D01*
X0272496Y0106979D01*
X0273080Y0106396D01*
X0275415Y0106396D01*
X0272496Y0117445D02*
X0272496Y0119780D01*
X0270842Y0148838D02*
X0270842Y0151174D01*
X0271426Y0151174D01*
X0171664Y0047038D02*
X0171664Y0044770D01*
X0171664Y0045904D02*
X0168261Y0045904D01*
X0169395Y0044770D01*
X0169360Y0036474D02*
X0171612Y0036474D01*
X0172363Y0035723D01*
X0172363Y0034222D01*
X0171612Y0033471D01*
X0169360Y0033471D01*
X0169360Y0031970D02*
X0169360Y0036474D01*
X0167759Y0036474D02*
X0167759Y0031970D01*
X0166257Y0033471D01*
X0164756Y0031970D01*
X0164756Y0036474D01*
X0163155Y0035723D02*
X0163155Y0034222D01*
X0162404Y0033471D01*
X0160152Y0033471D01*
X0160152Y0031970D02*
X0160152Y0036474D01*
X0162404Y0036474D01*
X0163155Y0035723D01*
X0170861Y0033471D02*
X0172363Y0031970D01*
X0154464Y0040337D02*
X0154464Y0041471D01*
X0153897Y0042038D01*
X0151628Y0042038D01*
X0151061Y0041471D01*
X0151061Y0040337D01*
X0151628Y0039770D01*
X0153897Y0039770D01*
X0154464Y0040337D01*
X0154464Y0043361D02*
X0151061Y0043361D01*
X0154464Y0045629D01*
X0151061Y0045629D01*
X0082083Y0145669D02*
X0082083Y0146969D01*
X0082655Y0228313D02*
X0081153Y0228313D01*
X0080403Y0229064D01*
X0083405Y0232066D01*
X0083405Y0229064D01*
X0082655Y0228313D01*
X0080403Y0229064D02*
X0080403Y0232066D01*
X0081153Y0232817D01*
X0082655Y0232817D01*
X0083405Y0232066D01*
X0078801Y0230565D02*
X0075799Y0230565D01*
X0078051Y0232817D01*
X0078051Y0228313D01*
D19*
X0087804Y0176828D02*
X0086370Y0176111D01*
X0084935Y0174676D01*
X0087087Y0174676D01*
X0087804Y0173959D01*
X0087804Y0173242D01*
X0087087Y0172524D01*
X0085653Y0172524D01*
X0084935Y0173242D01*
X0084935Y0174676D01*
X0085870Y0127028D02*
X0085870Y0122724D01*
X0087304Y0122724D02*
X0084435Y0122724D01*
X0084435Y0125594D02*
X0085870Y0127028D01*
D20*
X0238973Y0131551D03*
X0262595Y0132772D03*
X0284249Y0125646D03*
M02*
