G75*
%MOIN*%
%OFA0B0*%
%FSLAX25Y25*%
%IPPOS*%
%LPD*%
%AMOC8*
5,1,8,0,0,1.08239X$1,22.5*
%
%ADD10R,0.09068X0.09068*%
%ADD11C,0.12611*%
%ADD12R,0.03162X0.06706*%
%ADD13R,0.06706X0.06706*%
%ADD14C,0.06800*%
%ADD15R,0.05918X0.06706*%
%ADD16C,0.06000*%
%ADD17C,0.06400*%
%ADD18OC8,0.06400*%
%ADD19R,0.06706X0.05918*%
%ADD20OC8,0.06800*%
D10*
X0102635Y0071059D03*
X0119170Y0071059D03*
X0135705Y0071059D03*
X0152241Y0071059D03*
X0168776Y0071059D03*
X0185312Y0071059D03*
X0201847Y0071059D03*
X0218383Y0071059D03*
X0234918Y0071059D03*
X0251453Y0071059D03*
X0251453Y0092713D03*
X0234918Y0092713D03*
X0218383Y0092713D03*
X0201847Y0092713D03*
X0185312Y0092713D03*
X0168776Y0092713D03*
X0152241Y0092713D03*
X0135705Y0092713D03*
X0119170Y0092713D03*
X0102635Y0092713D03*
D11*
X0062162Y0021689D03*
X0084131Y0072870D03*
X0269957Y0072870D03*
X0290509Y0021689D03*
X0290509Y0214524D03*
D12*
X0139386Y0180429D03*
X0134386Y0180429D03*
X0129386Y0180429D03*
X0124386Y0180429D03*
X0124386Y0158776D03*
X0129386Y0158776D03*
X0134386Y0158776D03*
X0139386Y0158776D03*
D13*
X0193225Y0146374D03*
X0207005Y0146374D03*
D14*
X0105083Y0145469D02*
X0099083Y0145469D01*
X0099083Y0155469D02*
X0105083Y0155469D01*
X0105083Y0165469D02*
X0099083Y0165469D01*
X0099083Y0175469D02*
X0105083Y0175469D01*
X0105083Y0135469D02*
X0099083Y0135469D01*
X0099083Y0125469D02*
X0105083Y0125469D01*
D15*
X0193934Y0128618D03*
X0201414Y0128618D03*
D16*
X0191140Y0188264D02*
X0185940Y0188264D01*
X0215940Y0188264D02*
X0221140Y0188264D01*
X0179014Y0046020D02*
X0173814Y0046020D01*
X0149014Y0046020D02*
X0143814Y0046020D01*
D17*
X0271257Y0209563D03*
D18*
X0261257Y0209563D03*
X0251257Y0209563D03*
X0251257Y0219563D03*
X0261257Y0219563D03*
X0271257Y0219563D03*
X0241257Y0219563D03*
X0231257Y0219563D03*
X0221257Y0219563D03*
X0211257Y0219563D03*
X0201257Y0219563D03*
X0191257Y0219563D03*
X0181257Y0219563D03*
X0171257Y0219563D03*
X0161257Y0219563D03*
X0151257Y0219563D03*
X0151257Y0209563D03*
X0161257Y0209563D03*
X0171257Y0209563D03*
X0181257Y0209563D03*
X0191257Y0209563D03*
X0201257Y0209563D03*
X0211257Y0209563D03*
X0221257Y0209563D03*
X0231257Y0209563D03*
X0241257Y0209563D03*
X0141257Y0209563D03*
X0131257Y0209563D03*
X0121257Y0209563D03*
X0111257Y0209563D03*
X0101257Y0209563D03*
X0091257Y0209563D03*
X0081257Y0209563D03*
X0081257Y0219563D03*
X0091257Y0219563D03*
X0101257Y0219563D03*
X0111257Y0219563D03*
X0121257Y0219563D03*
X0131257Y0219563D03*
X0141257Y0219563D03*
D19*
X0091257Y0133500D03*
X0091257Y0126020D03*
D20*
X0238973Y0119051D03*
X0262595Y0120272D03*
X0284249Y0113146D03*
X0284249Y0138146D03*
X0262595Y0145272D03*
X0238973Y0144051D03*
M02*
