**ABCDEFGHIJKLMNOPQRSTUVWXYZabcdefghijklmnopqrstuvwxyz**************************
**PARASOLID !"#$%&'()*+,-./:;<=>?@[\]^_`{|}~0123456789**************************
**PART1;
MC=AMD64;
MC_MODEL=Intel64 Family 6 Model 60 Stepping 3, GenuineIntel;
MC_ID=unknown;
OS=Windows_NT;
OS_RELEASE=unknown;
FRU=Parasolid Version 28.0, build 191,  8-24-2015;
APPL=SOLIDWORKS 2016-2015334;
SITE=;
USER=unknown;
FORMAT=text;
GUISE=transmit;
KEY=makeProjectedPlanarWire;
FILE=makeProjectedPlanarWire.x_t;
DATE=Sun Aug 28 16:11:16 2016;
**PART2;
SCH=SCH_2800191_28002;
USFLD_SIZE=0;
**PART3;
**END_OF_HEADER*****************************************************************
T51 : TRANSMIT FILE created by modeller version 280019123 SCH_2800191_28002_1300
6200 0 12 30 CCCCCCCCCCCCCDI5 owner1040 0 CCCCCCCCCA13 boundary_mesh1006 0 A16 i
ndex_map_offset0 0 1 dA9 index_map82 0 A17 node_id_index_map82 0 A20 schema_embe
dding_map82 0 A5 child12 0 A14 lowest_node_id0 0 1 dZ1 76 0 2 0 0 0 0 1e3 1e-8 0
 3 0 1 0 3 1 4 5 6 7 8 9 10 0 0 0 0 0 0 0 70 11 CI9 list_type0 0 1 uI10 notransm
it0 0 1 lCCCDCCDI12 finger_index0 0 1 dI12 finger_block1012 0 CZ2 0 4 T1 0 0 1 2
0 1 11 11 13 255 4 73 0 1 0 12 0 0 8 12 50 255 5 2 0 12 0 0 0 +-429365804137215e
-33 .01 -610254239573039e-34 -.990050137865213 0 -.140715047216251 -.14071504721
6251 0 .990050137865213 30 255 6 28 0 13 14 0 0 +.003517876180406275 .01 -.02475
125344663035 0 -1 0 29 255 7 65 0 10 15 0 .000703575236081255 0 -.00495025068932
607 19 8 CCCCCCCA5 owner12 0 Z8 72 0 1 0 0 4 V0 16 255 9 29 0 ?16 0 13 17 18 18
 1 18 255 10 63 0 19 0 20 7 ?1 17 255 19 0 0 0 0 10 21 22 0 23 +18 20 60 0 24 10
 25 15 ?1 17 24 0 26 23 27 20 28 13 0 16 +18 25 57 0 27 20 29 30 ?1 29 15 62 0 2
0 30 7 .003517876180406275 0 -.02475125344663035 29 30 59 0 25 31 15 .0035178761
80406275 .01 -.02475125344663035 29 31 56 0 29 32 30 -.003517876180406275 .01 .0
2475125344663035 18 29 54 0 33 25 34 31 ?1 29 32 53 0 34 35 31 -.003517876180406
275 0 .02475125344663035 18 34 51 0 36 29 37 32 ?1 29 35 50 0 37 38 32 -.0026735
8589710877 0 .01881095261943905 18 37 48 0 39 34 40 35 ?1 29 38 47 0 40 41 35 -.
00267358589710877 .002 .01881095261943905 18 40 45 0 42 37 43 38 ?1 29 41 44 0 4
3 44 38 .000703575236081255 .002 -.00495025068932607 18 43 42 0 21 40 45 41 ?1 2
9 44 41 0 45 46 41 .00342697834015905 .001 -.02411170976563285 18 45 39 0 47 43
 48 44 ?1 29 46 38 0 48 49 44 .002637031897681715 .001 -.01855376411765315 18 48
 36 0 50 45 51 46 ?1 29 49 35 0 51 52 46 .002637031897681715 .003 -.018553764117
65315 18 51 33 0 53 48 54 49 ?1 29 52 32 0 54 0 49 .00342697834015905 .003 -.024
11170976563285 18 54 30 0 55 51 0 52 ?1 17 55 0 56 53 57 54 47 58 0 59 -15 255 5
6 5 0 55 12 26 17 53 0 56 50 55 51 59 60 0 61 -17 57 0 56 55 50 45 62 63 0 0 -17
 47 0 0 0 0 45 55 58 0 57 +16 58 7 0 ?47 60 0 64 0 0 1 17 59 0 0 0 0 54 53 60 0
 0 +16 60 9 0 ?59 65 58 66 0 0 1 16 65 11 0 ?61 63 60 67 0 0 1 30 66 10 0 60 64
 67 0 +-429365804137215e-33 .003 -610254239573039e-34 .140715047216251 0 -.99005
0137865213 30 64 8 0 58 0 66 0 +.00342697834015905 .01 -.02411170976563285 0 -1
 0 30 67 12 0 65 66 68 0 +.00263703189768171 .01 -.01855376411765315 0 1 0 30 68
 14 0 63 67 69 0 +-2826126423414815e-34 .001 -1093558837706122e-33 -.14071504721
6251 -1158789140804088e-31 .990050137865213 16 63 13 0 ?62 22 65 68 0 0 1 30 69
 16 0 22 68 70 0 +.000703575236081255 .002 -.00495025068932607 0 -1 0 16 22 15 0
 ?19 71 63 69 0 0 1 30 70 18 0 71 69 72 0 +-429365804137215e-33 .002 -6102542395
73039e-34 -.140715047216251 0 .990050137865213 16 71 17 0 ?42 73 22 70 0 0 1 30
 72 20 0 73 70 17 0 --.00267358589710877 .002 .01881095261943905 0 -1 0 16 73 19
 0 ?74 18 71 72 0 0 1 30 17 22 0 18 72 75 0 +-429365804137215e-33 0 -61025423957
3039e-34 .140715047216251 0 -.990050137865214 16 18 21 0 ?76 77 73 17 9 9 1 30 7
5 24 0 77 17 14 0 +-.003517876180406275 .01 .02475125344663035 0 -1 0 16 77 23 0
 ?78 79 18 75 0 0 1 30 14 26 0 79 75 6 0 +-429365804137215e-33 .01 -610254239573
039e-34 .140715047216251 0 -.990050137865214 16 79 25 0 ?27 13 77 14 0 0 1 17 27
 0 26 24 33 25 80 79 0 28 +16 13 27 0 ?24 9 79 6 0 0 1 15 26 6 0 21 12 0 17 33 0
 26 27 36 29 78 77 0 80 -17 80 0 0 0 0 29 27 79 0 0 -17 28 0 0 0 0 25 24 13 0 0
 -17 36 0 26 33 39 34 76 18 0 78 -17 78 0 0 0 0 34 33 77 0 0 +17 39 0 26 36 42 3
7 74 73 0 76 -17 76 0 0 0 0 37 36 18 0 0 +17 42 0 26 39 21 40 81 71 0 74 +17 74
 0 0 0 0 40 39 73 0 0 +17 21 0 26 42 23 43 19 22 0 81 -17 81 0 0 0 0 43 42 71 0
 0 -17 23 0 26 21 24 10 16 9 0 0 -17 16 0 0 0 0 20 23 9 0 0 +14 255 12 1 82 ?0 0
 56 4 5 +0 0 0 0 4 81 255 1 82 76 83 12 0 0 0 0 84 80 255 1 83 85 86 9000 1 1 1
 1 1 1 1 1 0 FFFFTFTFFFFFFF1 82 255 1 84 115542493 79 255 14 86 SWEntUnchanged17
 62 0 0 0 0 48 57 63 0 0 +17 61 0 0 0 0 51 50 65 0 0 +17 50 0 56 57 53 48 61 65
 0 62 -74 4 CI16 index_map_offset0 0 1 dCCZ20 11 1 0 0 82 0 0 0 0 0 0 0 0 0 0 0
 0 0 0 0 0 0 0 0 1 0 
