G75*
%MOIN*%
%OFA0B0*%
%FSLAX25Y25*%
%IPPOS*%
%LPD*%
%AMOC8*
5,1,8,0,0,1.08239X$1,22.5*
%
%ADD10C,0.00000*%
%ADD11C,0.00600*%
%ADD12C,0.00300*%
%ADD13C,0.00400*%
%ADD14C,0.00800*%
%ADD15R,0.02400X0.06200*%
%ADD16C,0.00984*%
%ADD17R,0.00787X0.00787*%
%ADD18C,0.00500*%
%ADD19C,0.01000*%
%ADD20C,0.00700*%
%ADD21C,0.00200*%
%ADD22R,0.01500X0.04000*%
%ADD23C,0.01200*%
D10*
X0044997Y0001256D02*
X0044997Y0267004D01*
X0395390Y0267004D01*
X0395390Y0001256D01*
X0044997Y0001256D01*
X0203304Y0027437D02*
X0203306Y0027595D01*
X0203312Y0027753D01*
X0203322Y0027911D01*
X0203336Y0028069D01*
X0203354Y0028226D01*
X0203375Y0028383D01*
X0203401Y0028539D01*
X0203431Y0028695D01*
X0203464Y0028850D01*
X0203502Y0029003D01*
X0203543Y0029156D01*
X0203588Y0029308D01*
X0203637Y0029459D01*
X0203690Y0029608D01*
X0203746Y0029756D01*
X0203806Y0029902D01*
X0203870Y0030047D01*
X0203938Y0030190D01*
X0204009Y0030332D01*
X0204083Y0030472D01*
X0204161Y0030609D01*
X0204243Y0030745D01*
X0204327Y0030879D01*
X0204416Y0031010D01*
X0204507Y0031139D01*
X0204602Y0031266D01*
X0204699Y0031391D01*
X0204800Y0031513D01*
X0204904Y0031632D01*
X0205011Y0031749D01*
X0205121Y0031863D01*
X0205234Y0031974D01*
X0205349Y0032083D01*
X0205467Y0032188D01*
X0205588Y0032290D01*
X0205711Y0032390D01*
X0205837Y0032486D01*
X0205965Y0032579D01*
X0206095Y0032669D01*
X0206228Y0032755D01*
X0206363Y0032839D01*
X0206499Y0032918D01*
X0206638Y0032995D01*
X0206779Y0033067D01*
X0206921Y0033137D01*
X0207065Y0033202D01*
X0207211Y0033264D01*
X0207358Y0033322D01*
X0207507Y0033377D01*
X0207657Y0033428D01*
X0207808Y0033475D01*
X0207960Y0033518D01*
X0208113Y0033557D01*
X0208268Y0033593D01*
X0208423Y0033624D01*
X0208579Y0033652D01*
X0208735Y0033676D01*
X0208892Y0033696D01*
X0209050Y0033712D01*
X0209207Y0033724D01*
X0209366Y0033732D01*
X0209524Y0033736D01*
X0209682Y0033736D01*
X0209840Y0033732D01*
X0209999Y0033724D01*
X0210156Y0033712D01*
X0210314Y0033696D01*
X0210471Y0033676D01*
X0210627Y0033652D01*
X0210783Y0033624D01*
X0210938Y0033593D01*
X0211093Y0033557D01*
X0211246Y0033518D01*
X0211398Y0033475D01*
X0211549Y0033428D01*
X0211699Y0033377D01*
X0211848Y0033322D01*
X0211995Y0033264D01*
X0212141Y0033202D01*
X0212285Y0033137D01*
X0212427Y0033067D01*
X0212568Y0032995D01*
X0212707Y0032918D01*
X0212843Y0032839D01*
X0212978Y0032755D01*
X0213111Y0032669D01*
X0213241Y0032579D01*
X0213369Y0032486D01*
X0213495Y0032390D01*
X0213618Y0032290D01*
X0213739Y0032188D01*
X0213857Y0032083D01*
X0213972Y0031974D01*
X0214085Y0031863D01*
X0214195Y0031749D01*
X0214302Y0031632D01*
X0214406Y0031513D01*
X0214507Y0031391D01*
X0214604Y0031266D01*
X0214699Y0031139D01*
X0214790Y0031010D01*
X0214879Y0030879D01*
X0214963Y0030745D01*
X0215045Y0030609D01*
X0215123Y0030472D01*
X0215197Y0030332D01*
X0215268Y0030190D01*
X0215336Y0030047D01*
X0215400Y0029902D01*
X0215460Y0029756D01*
X0215516Y0029608D01*
X0215569Y0029459D01*
X0215618Y0029308D01*
X0215663Y0029156D01*
X0215704Y0029003D01*
X0215742Y0028850D01*
X0215775Y0028695D01*
X0215805Y0028539D01*
X0215831Y0028383D01*
X0215852Y0028226D01*
X0215870Y0028069D01*
X0215884Y0027911D01*
X0215894Y0027753D01*
X0215900Y0027595D01*
X0215902Y0027437D01*
X0215900Y0027279D01*
X0215894Y0027121D01*
X0215884Y0026963D01*
X0215870Y0026805D01*
X0215852Y0026648D01*
X0215831Y0026491D01*
X0215805Y0026335D01*
X0215775Y0026179D01*
X0215742Y0026024D01*
X0215704Y0025871D01*
X0215663Y0025718D01*
X0215618Y0025566D01*
X0215569Y0025415D01*
X0215516Y0025266D01*
X0215460Y0025118D01*
X0215400Y0024972D01*
X0215336Y0024827D01*
X0215268Y0024684D01*
X0215197Y0024542D01*
X0215123Y0024402D01*
X0215045Y0024265D01*
X0214963Y0024129D01*
X0214879Y0023995D01*
X0214790Y0023864D01*
X0214699Y0023735D01*
X0214604Y0023608D01*
X0214507Y0023483D01*
X0214406Y0023361D01*
X0214302Y0023242D01*
X0214195Y0023125D01*
X0214085Y0023011D01*
X0213972Y0022900D01*
X0213857Y0022791D01*
X0213739Y0022686D01*
X0213618Y0022584D01*
X0213495Y0022484D01*
X0213369Y0022388D01*
X0213241Y0022295D01*
X0213111Y0022205D01*
X0212978Y0022119D01*
X0212843Y0022035D01*
X0212707Y0021956D01*
X0212568Y0021879D01*
X0212427Y0021807D01*
X0212285Y0021737D01*
X0212141Y0021672D01*
X0211995Y0021610D01*
X0211848Y0021552D01*
X0211699Y0021497D01*
X0211549Y0021446D01*
X0211398Y0021399D01*
X0211246Y0021356D01*
X0211093Y0021317D01*
X0210938Y0021281D01*
X0210783Y0021250D01*
X0210627Y0021222D01*
X0210471Y0021198D01*
X0210314Y0021178D01*
X0210156Y0021162D01*
X0209999Y0021150D01*
X0209840Y0021142D01*
X0209682Y0021138D01*
X0209524Y0021138D01*
X0209366Y0021142D01*
X0209207Y0021150D01*
X0209050Y0021162D01*
X0208892Y0021178D01*
X0208735Y0021198D01*
X0208579Y0021222D01*
X0208423Y0021250D01*
X0208268Y0021281D01*
X0208113Y0021317D01*
X0207960Y0021356D01*
X0207808Y0021399D01*
X0207657Y0021446D01*
X0207507Y0021497D01*
X0207358Y0021552D01*
X0207211Y0021610D01*
X0207065Y0021672D01*
X0206921Y0021737D01*
X0206779Y0021807D01*
X0206638Y0021879D01*
X0206499Y0021956D01*
X0206363Y0022035D01*
X0206228Y0022119D01*
X0206095Y0022205D01*
X0205965Y0022295D01*
X0205837Y0022388D01*
X0205711Y0022484D01*
X0205588Y0022584D01*
X0205467Y0022686D01*
X0205349Y0022791D01*
X0205234Y0022900D01*
X0205121Y0023011D01*
X0205011Y0023125D01*
X0204904Y0023242D01*
X0204800Y0023361D01*
X0204699Y0023483D01*
X0204602Y0023608D01*
X0204507Y0023735D01*
X0204416Y0023864D01*
X0204327Y0023995D01*
X0204243Y0024129D01*
X0204161Y0024265D01*
X0204083Y0024402D01*
X0204009Y0024542D01*
X0203938Y0024684D01*
X0203870Y0024827D01*
X0203806Y0024972D01*
X0203746Y0025118D01*
X0203690Y0025266D01*
X0203637Y0025415D01*
X0203588Y0025566D01*
X0203543Y0025718D01*
X0203502Y0025871D01*
X0203464Y0026024D01*
X0203431Y0026179D01*
X0203401Y0026335D01*
X0203375Y0026491D01*
X0203354Y0026648D01*
X0203336Y0026805D01*
X0203322Y0026963D01*
X0203312Y0027121D01*
X0203306Y0027279D01*
X0203304Y0027437D01*
X0356808Y0122949D02*
X0356810Y0123107D01*
X0356816Y0123265D01*
X0356826Y0123423D01*
X0356840Y0123581D01*
X0356858Y0123738D01*
X0356879Y0123895D01*
X0356905Y0124051D01*
X0356935Y0124207D01*
X0356968Y0124362D01*
X0357006Y0124515D01*
X0357047Y0124668D01*
X0357092Y0124820D01*
X0357141Y0124971D01*
X0357194Y0125120D01*
X0357250Y0125268D01*
X0357310Y0125414D01*
X0357374Y0125559D01*
X0357442Y0125702D01*
X0357513Y0125844D01*
X0357587Y0125984D01*
X0357665Y0126121D01*
X0357747Y0126257D01*
X0357831Y0126391D01*
X0357920Y0126522D01*
X0358011Y0126651D01*
X0358106Y0126778D01*
X0358203Y0126903D01*
X0358304Y0127025D01*
X0358408Y0127144D01*
X0358515Y0127261D01*
X0358625Y0127375D01*
X0358738Y0127486D01*
X0358853Y0127595D01*
X0358971Y0127700D01*
X0359092Y0127802D01*
X0359215Y0127902D01*
X0359341Y0127998D01*
X0359469Y0128091D01*
X0359599Y0128181D01*
X0359732Y0128267D01*
X0359867Y0128351D01*
X0360003Y0128430D01*
X0360142Y0128507D01*
X0360283Y0128579D01*
X0360425Y0128649D01*
X0360569Y0128714D01*
X0360715Y0128776D01*
X0360862Y0128834D01*
X0361011Y0128889D01*
X0361161Y0128940D01*
X0361312Y0128987D01*
X0361464Y0129030D01*
X0361617Y0129069D01*
X0361772Y0129105D01*
X0361927Y0129136D01*
X0362083Y0129164D01*
X0362239Y0129188D01*
X0362396Y0129208D01*
X0362554Y0129224D01*
X0362711Y0129236D01*
X0362870Y0129244D01*
X0363028Y0129248D01*
X0363186Y0129248D01*
X0363344Y0129244D01*
X0363503Y0129236D01*
X0363660Y0129224D01*
X0363818Y0129208D01*
X0363975Y0129188D01*
X0364131Y0129164D01*
X0364287Y0129136D01*
X0364442Y0129105D01*
X0364597Y0129069D01*
X0364750Y0129030D01*
X0364902Y0128987D01*
X0365053Y0128940D01*
X0365203Y0128889D01*
X0365352Y0128834D01*
X0365499Y0128776D01*
X0365645Y0128714D01*
X0365789Y0128649D01*
X0365931Y0128579D01*
X0366072Y0128507D01*
X0366211Y0128430D01*
X0366347Y0128351D01*
X0366482Y0128267D01*
X0366615Y0128181D01*
X0366745Y0128091D01*
X0366873Y0127998D01*
X0366999Y0127902D01*
X0367122Y0127802D01*
X0367243Y0127700D01*
X0367361Y0127595D01*
X0367476Y0127486D01*
X0367589Y0127375D01*
X0367699Y0127261D01*
X0367806Y0127144D01*
X0367910Y0127025D01*
X0368011Y0126903D01*
X0368108Y0126778D01*
X0368203Y0126651D01*
X0368294Y0126522D01*
X0368383Y0126391D01*
X0368467Y0126257D01*
X0368549Y0126121D01*
X0368627Y0125984D01*
X0368701Y0125844D01*
X0368772Y0125702D01*
X0368840Y0125559D01*
X0368904Y0125414D01*
X0368964Y0125268D01*
X0369020Y0125120D01*
X0369073Y0124971D01*
X0369122Y0124820D01*
X0369167Y0124668D01*
X0369208Y0124515D01*
X0369246Y0124362D01*
X0369279Y0124207D01*
X0369309Y0124051D01*
X0369335Y0123895D01*
X0369356Y0123738D01*
X0369374Y0123581D01*
X0369388Y0123423D01*
X0369398Y0123265D01*
X0369404Y0123107D01*
X0369406Y0122949D01*
X0369404Y0122791D01*
X0369398Y0122633D01*
X0369388Y0122475D01*
X0369374Y0122317D01*
X0369356Y0122160D01*
X0369335Y0122003D01*
X0369309Y0121847D01*
X0369279Y0121691D01*
X0369246Y0121536D01*
X0369208Y0121383D01*
X0369167Y0121230D01*
X0369122Y0121078D01*
X0369073Y0120927D01*
X0369020Y0120778D01*
X0368964Y0120630D01*
X0368904Y0120484D01*
X0368840Y0120339D01*
X0368772Y0120196D01*
X0368701Y0120054D01*
X0368627Y0119914D01*
X0368549Y0119777D01*
X0368467Y0119641D01*
X0368383Y0119507D01*
X0368294Y0119376D01*
X0368203Y0119247D01*
X0368108Y0119120D01*
X0368011Y0118995D01*
X0367910Y0118873D01*
X0367806Y0118754D01*
X0367699Y0118637D01*
X0367589Y0118523D01*
X0367476Y0118412D01*
X0367361Y0118303D01*
X0367243Y0118198D01*
X0367122Y0118096D01*
X0366999Y0117996D01*
X0366873Y0117900D01*
X0366745Y0117807D01*
X0366615Y0117717D01*
X0366482Y0117631D01*
X0366347Y0117547D01*
X0366211Y0117468D01*
X0366072Y0117391D01*
X0365931Y0117319D01*
X0365789Y0117249D01*
X0365645Y0117184D01*
X0365499Y0117122D01*
X0365352Y0117064D01*
X0365203Y0117009D01*
X0365053Y0116958D01*
X0364902Y0116911D01*
X0364750Y0116868D01*
X0364597Y0116829D01*
X0364442Y0116793D01*
X0364287Y0116762D01*
X0364131Y0116734D01*
X0363975Y0116710D01*
X0363818Y0116690D01*
X0363660Y0116674D01*
X0363503Y0116662D01*
X0363344Y0116654D01*
X0363186Y0116650D01*
X0363028Y0116650D01*
X0362870Y0116654D01*
X0362711Y0116662D01*
X0362554Y0116674D01*
X0362396Y0116690D01*
X0362239Y0116710D01*
X0362083Y0116734D01*
X0361927Y0116762D01*
X0361772Y0116793D01*
X0361617Y0116829D01*
X0361464Y0116868D01*
X0361312Y0116911D01*
X0361161Y0116958D01*
X0361011Y0117009D01*
X0360862Y0117064D01*
X0360715Y0117122D01*
X0360569Y0117184D01*
X0360425Y0117249D01*
X0360283Y0117319D01*
X0360142Y0117391D01*
X0360003Y0117468D01*
X0359867Y0117547D01*
X0359732Y0117631D01*
X0359599Y0117717D01*
X0359469Y0117807D01*
X0359341Y0117900D01*
X0359215Y0117996D01*
X0359092Y0118096D01*
X0358971Y0118198D01*
X0358853Y0118303D01*
X0358738Y0118412D01*
X0358625Y0118523D01*
X0358515Y0118637D01*
X0358408Y0118754D01*
X0358304Y0118873D01*
X0358203Y0118995D01*
X0358106Y0119120D01*
X0358011Y0119247D01*
X0357920Y0119376D01*
X0357831Y0119507D01*
X0357747Y0119641D01*
X0357665Y0119777D01*
X0357587Y0119914D01*
X0357513Y0120054D01*
X0357442Y0120196D01*
X0357374Y0120339D01*
X0357310Y0120484D01*
X0357250Y0120630D01*
X0357194Y0120778D01*
X0357141Y0120927D01*
X0357092Y0121078D01*
X0357047Y0121230D01*
X0357006Y0121383D01*
X0356968Y0121536D01*
X0356935Y0121691D01*
X0356905Y0121847D01*
X0356879Y0122003D01*
X0356858Y0122160D01*
X0356840Y0122317D01*
X0356826Y0122475D01*
X0356816Y0122633D01*
X0356810Y0122791D01*
X0356808Y0122949D01*
X0085154Y0178224D02*
X0085156Y0178382D01*
X0085162Y0178540D01*
X0085172Y0178698D01*
X0085186Y0178856D01*
X0085204Y0179013D01*
X0085225Y0179170D01*
X0085251Y0179326D01*
X0085281Y0179482D01*
X0085314Y0179637D01*
X0085352Y0179790D01*
X0085393Y0179943D01*
X0085438Y0180095D01*
X0085487Y0180246D01*
X0085540Y0180395D01*
X0085596Y0180543D01*
X0085656Y0180689D01*
X0085720Y0180834D01*
X0085788Y0180977D01*
X0085859Y0181119D01*
X0085933Y0181259D01*
X0086011Y0181396D01*
X0086093Y0181532D01*
X0086177Y0181666D01*
X0086266Y0181797D01*
X0086357Y0181926D01*
X0086452Y0182053D01*
X0086549Y0182178D01*
X0086650Y0182300D01*
X0086754Y0182419D01*
X0086861Y0182536D01*
X0086971Y0182650D01*
X0087084Y0182761D01*
X0087199Y0182870D01*
X0087317Y0182975D01*
X0087438Y0183077D01*
X0087561Y0183177D01*
X0087687Y0183273D01*
X0087815Y0183366D01*
X0087945Y0183456D01*
X0088078Y0183542D01*
X0088213Y0183626D01*
X0088349Y0183705D01*
X0088488Y0183782D01*
X0088629Y0183854D01*
X0088771Y0183924D01*
X0088915Y0183989D01*
X0089061Y0184051D01*
X0089208Y0184109D01*
X0089357Y0184164D01*
X0089507Y0184215D01*
X0089658Y0184262D01*
X0089810Y0184305D01*
X0089963Y0184344D01*
X0090118Y0184380D01*
X0090273Y0184411D01*
X0090429Y0184439D01*
X0090585Y0184463D01*
X0090742Y0184483D01*
X0090900Y0184499D01*
X0091057Y0184511D01*
X0091216Y0184519D01*
X0091374Y0184523D01*
X0091532Y0184523D01*
X0091690Y0184519D01*
X0091849Y0184511D01*
X0092006Y0184499D01*
X0092164Y0184483D01*
X0092321Y0184463D01*
X0092477Y0184439D01*
X0092633Y0184411D01*
X0092788Y0184380D01*
X0092943Y0184344D01*
X0093096Y0184305D01*
X0093248Y0184262D01*
X0093399Y0184215D01*
X0093549Y0184164D01*
X0093698Y0184109D01*
X0093845Y0184051D01*
X0093991Y0183989D01*
X0094135Y0183924D01*
X0094277Y0183854D01*
X0094418Y0183782D01*
X0094557Y0183705D01*
X0094693Y0183626D01*
X0094828Y0183542D01*
X0094961Y0183456D01*
X0095091Y0183366D01*
X0095219Y0183273D01*
X0095345Y0183177D01*
X0095468Y0183077D01*
X0095589Y0182975D01*
X0095707Y0182870D01*
X0095822Y0182761D01*
X0095935Y0182650D01*
X0096045Y0182536D01*
X0096152Y0182419D01*
X0096256Y0182300D01*
X0096357Y0182178D01*
X0096454Y0182053D01*
X0096549Y0181926D01*
X0096640Y0181797D01*
X0096729Y0181666D01*
X0096813Y0181532D01*
X0096895Y0181396D01*
X0096973Y0181259D01*
X0097047Y0181119D01*
X0097118Y0180977D01*
X0097186Y0180834D01*
X0097250Y0180689D01*
X0097310Y0180543D01*
X0097366Y0180395D01*
X0097419Y0180246D01*
X0097468Y0180095D01*
X0097513Y0179943D01*
X0097554Y0179790D01*
X0097592Y0179637D01*
X0097625Y0179482D01*
X0097655Y0179326D01*
X0097681Y0179170D01*
X0097702Y0179013D01*
X0097720Y0178856D01*
X0097734Y0178698D01*
X0097744Y0178540D01*
X0097750Y0178382D01*
X0097752Y0178224D01*
X0097750Y0178066D01*
X0097744Y0177908D01*
X0097734Y0177750D01*
X0097720Y0177592D01*
X0097702Y0177435D01*
X0097681Y0177278D01*
X0097655Y0177122D01*
X0097625Y0176966D01*
X0097592Y0176811D01*
X0097554Y0176658D01*
X0097513Y0176505D01*
X0097468Y0176353D01*
X0097419Y0176202D01*
X0097366Y0176053D01*
X0097310Y0175905D01*
X0097250Y0175759D01*
X0097186Y0175614D01*
X0097118Y0175471D01*
X0097047Y0175329D01*
X0096973Y0175189D01*
X0096895Y0175052D01*
X0096813Y0174916D01*
X0096729Y0174782D01*
X0096640Y0174651D01*
X0096549Y0174522D01*
X0096454Y0174395D01*
X0096357Y0174270D01*
X0096256Y0174148D01*
X0096152Y0174029D01*
X0096045Y0173912D01*
X0095935Y0173798D01*
X0095822Y0173687D01*
X0095707Y0173578D01*
X0095589Y0173473D01*
X0095468Y0173371D01*
X0095345Y0173271D01*
X0095219Y0173175D01*
X0095091Y0173082D01*
X0094961Y0172992D01*
X0094828Y0172906D01*
X0094693Y0172822D01*
X0094557Y0172743D01*
X0094418Y0172666D01*
X0094277Y0172594D01*
X0094135Y0172524D01*
X0093991Y0172459D01*
X0093845Y0172397D01*
X0093698Y0172339D01*
X0093549Y0172284D01*
X0093399Y0172233D01*
X0093248Y0172186D01*
X0093096Y0172143D01*
X0092943Y0172104D01*
X0092788Y0172068D01*
X0092633Y0172037D01*
X0092477Y0172009D01*
X0092321Y0171985D01*
X0092164Y0171965D01*
X0092006Y0171949D01*
X0091849Y0171937D01*
X0091690Y0171929D01*
X0091532Y0171925D01*
X0091374Y0171925D01*
X0091216Y0171929D01*
X0091057Y0171937D01*
X0090900Y0171949D01*
X0090742Y0171965D01*
X0090585Y0171985D01*
X0090429Y0172009D01*
X0090273Y0172037D01*
X0090118Y0172068D01*
X0089963Y0172104D01*
X0089810Y0172143D01*
X0089658Y0172186D01*
X0089507Y0172233D01*
X0089357Y0172284D01*
X0089208Y0172339D01*
X0089061Y0172397D01*
X0088915Y0172459D01*
X0088771Y0172524D01*
X0088629Y0172594D01*
X0088488Y0172666D01*
X0088349Y0172743D01*
X0088213Y0172822D01*
X0088078Y0172906D01*
X0087945Y0172992D01*
X0087815Y0173082D01*
X0087687Y0173175D01*
X0087561Y0173271D01*
X0087438Y0173371D01*
X0087317Y0173473D01*
X0087199Y0173578D01*
X0087084Y0173687D01*
X0086971Y0173798D01*
X0086861Y0173912D01*
X0086754Y0174029D01*
X0086650Y0174148D01*
X0086549Y0174270D01*
X0086452Y0174395D01*
X0086357Y0174522D01*
X0086266Y0174651D01*
X0086177Y0174782D01*
X0086093Y0174916D01*
X0086011Y0175052D01*
X0085933Y0175189D01*
X0085859Y0175329D01*
X0085788Y0175471D01*
X0085720Y0175614D01*
X0085656Y0175759D01*
X0085596Y0175905D01*
X0085540Y0176053D01*
X0085487Y0176202D01*
X0085438Y0176353D01*
X0085393Y0176505D01*
X0085352Y0176658D01*
X0085314Y0176811D01*
X0085281Y0176966D01*
X0085251Y0177122D01*
X0085225Y0177278D01*
X0085204Y0177435D01*
X0085186Y0177592D01*
X0085172Y0177750D01*
X0085162Y0177908D01*
X0085156Y0178066D01*
X0085154Y0178224D01*
D11*
X0077953Y0178224D02*
X0077957Y0178555D01*
X0077969Y0178886D01*
X0077990Y0179217D01*
X0078018Y0179547D01*
X0078055Y0179877D01*
X0078099Y0180205D01*
X0078152Y0180532D01*
X0078212Y0180858D01*
X0078281Y0181182D01*
X0078358Y0181504D01*
X0078442Y0181825D01*
X0078534Y0182143D01*
X0078634Y0182459D01*
X0078742Y0182772D01*
X0078858Y0183083D01*
X0078981Y0183390D01*
X0079111Y0183695D01*
X0079249Y0183996D01*
X0079394Y0184294D01*
X0079547Y0184588D01*
X0079707Y0184878D01*
X0079874Y0185164D01*
X0080047Y0185446D01*
X0080228Y0185724D01*
X0080416Y0185997D01*
X0080610Y0186266D01*
X0080810Y0186530D01*
X0081017Y0186788D01*
X0081231Y0187042D01*
X0081450Y0187290D01*
X0081676Y0187533D01*
X0081907Y0187770D01*
X0082144Y0188001D01*
X0082387Y0188227D01*
X0082635Y0188446D01*
X0082889Y0188660D01*
X0083147Y0188867D01*
X0083411Y0189067D01*
X0083680Y0189261D01*
X0083953Y0189449D01*
X0084231Y0189630D01*
X0084513Y0189803D01*
X0084799Y0189970D01*
X0085089Y0190130D01*
X0085383Y0190283D01*
X0085681Y0190428D01*
X0085982Y0190566D01*
X0086287Y0190696D01*
X0086594Y0190819D01*
X0086905Y0190935D01*
X0087218Y0191043D01*
X0087534Y0191143D01*
X0087852Y0191235D01*
X0088173Y0191319D01*
X0088495Y0191396D01*
X0088819Y0191465D01*
X0089145Y0191525D01*
X0089472Y0191578D01*
X0089800Y0191622D01*
X0090130Y0191659D01*
X0090460Y0191687D01*
X0090791Y0191708D01*
X0091122Y0191720D01*
X0091453Y0191724D01*
X0091784Y0191720D01*
X0092115Y0191708D01*
X0092446Y0191687D01*
X0092776Y0191659D01*
X0093106Y0191622D01*
X0093434Y0191578D01*
X0093761Y0191525D01*
X0094087Y0191465D01*
X0094411Y0191396D01*
X0094733Y0191319D01*
X0095054Y0191235D01*
X0095372Y0191143D01*
X0095688Y0191043D01*
X0096001Y0190935D01*
X0096312Y0190819D01*
X0096619Y0190696D01*
X0096924Y0190566D01*
X0097225Y0190428D01*
X0097523Y0190283D01*
X0097817Y0190130D01*
X0098107Y0189970D01*
X0098393Y0189803D01*
X0098675Y0189630D01*
X0098953Y0189449D01*
X0099226Y0189261D01*
X0099495Y0189067D01*
X0099759Y0188867D01*
X0100017Y0188660D01*
X0100271Y0188446D01*
X0100519Y0188227D01*
X0100762Y0188001D01*
X0100999Y0187770D01*
X0101230Y0187533D01*
X0101456Y0187290D01*
X0101675Y0187042D01*
X0101889Y0186788D01*
X0102096Y0186530D01*
X0102296Y0186266D01*
X0102490Y0185997D01*
X0102678Y0185724D01*
X0102859Y0185446D01*
X0103032Y0185164D01*
X0103199Y0184878D01*
X0103359Y0184588D01*
X0103512Y0184294D01*
X0103657Y0183996D01*
X0103795Y0183695D01*
X0103925Y0183390D01*
X0104048Y0183083D01*
X0104164Y0182772D01*
X0104272Y0182459D01*
X0104372Y0182143D01*
X0104464Y0181825D01*
X0104548Y0181504D01*
X0104625Y0181182D01*
X0104694Y0180858D01*
X0104754Y0180532D01*
X0104807Y0180205D01*
X0104851Y0179877D01*
X0104888Y0179547D01*
X0104916Y0179217D01*
X0104937Y0178886D01*
X0104949Y0178555D01*
X0104953Y0178224D01*
X0104949Y0177893D01*
X0104937Y0177562D01*
X0104916Y0177231D01*
X0104888Y0176901D01*
X0104851Y0176571D01*
X0104807Y0176243D01*
X0104754Y0175916D01*
X0104694Y0175590D01*
X0104625Y0175266D01*
X0104548Y0174944D01*
X0104464Y0174623D01*
X0104372Y0174305D01*
X0104272Y0173989D01*
X0104164Y0173676D01*
X0104048Y0173365D01*
X0103925Y0173058D01*
X0103795Y0172753D01*
X0103657Y0172452D01*
X0103512Y0172154D01*
X0103359Y0171860D01*
X0103199Y0171570D01*
X0103032Y0171284D01*
X0102859Y0171002D01*
X0102678Y0170724D01*
X0102490Y0170451D01*
X0102296Y0170182D01*
X0102096Y0169918D01*
X0101889Y0169660D01*
X0101675Y0169406D01*
X0101456Y0169158D01*
X0101230Y0168915D01*
X0100999Y0168678D01*
X0100762Y0168447D01*
X0100519Y0168221D01*
X0100271Y0168002D01*
X0100017Y0167788D01*
X0099759Y0167581D01*
X0099495Y0167381D01*
X0099226Y0167187D01*
X0098953Y0166999D01*
X0098675Y0166818D01*
X0098393Y0166645D01*
X0098107Y0166478D01*
X0097817Y0166318D01*
X0097523Y0166165D01*
X0097225Y0166020D01*
X0096924Y0165882D01*
X0096619Y0165752D01*
X0096312Y0165629D01*
X0096001Y0165513D01*
X0095688Y0165405D01*
X0095372Y0165305D01*
X0095054Y0165213D01*
X0094733Y0165129D01*
X0094411Y0165052D01*
X0094087Y0164983D01*
X0093761Y0164923D01*
X0093434Y0164870D01*
X0093106Y0164826D01*
X0092776Y0164789D01*
X0092446Y0164761D01*
X0092115Y0164740D01*
X0091784Y0164728D01*
X0091453Y0164724D01*
X0091122Y0164728D01*
X0090791Y0164740D01*
X0090460Y0164761D01*
X0090130Y0164789D01*
X0089800Y0164826D01*
X0089472Y0164870D01*
X0089145Y0164923D01*
X0088819Y0164983D01*
X0088495Y0165052D01*
X0088173Y0165129D01*
X0087852Y0165213D01*
X0087534Y0165305D01*
X0087218Y0165405D01*
X0086905Y0165513D01*
X0086594Y0165629D01*
X0086287Y0165752D01*
X0085982Y0165882D01*
X0085681Y0166020D01*
X0085383Y0166165D01*
X0085089Y0166318D01*
X0084799Y0166478D01*
X0084513Y0166645D01*
X0084231Y0166818D01*
X0083953Y0166999D01*
X0083680Y0167187D01*
X0083411Y0167381D01*
X0083147Y0167581D01*
X0082889Y0167788D01*
X0082635Y0168002D01*
X0082387Y0168221D01*
X0082144Y0168447D01*
X0081907Y0168678D01*
X0081676Y0168915D01*
X0081450Y0169158D01*
X0081231Y0169406D01*
X0081017Y0169660D01*
X0080810Y0169918D01*
X0080610Y0170182D01*
X0080416Y0170451D01*
X0080228Y0170724D01*
X0080047Y0171002D01*
X0079874Y0171284D01*
X0079707Y0171570D01*
X0079547Y0171860D01*
X0079394Y0172154D01*
X0079249Y0172452D01*
X0079111Y0172753D01*
X0078981Y0173058D01*
X0078858Y0173365D01*
X0078742Y0173676D01*
X0078634Y0173989D01*
X0078534Y0174305D01*
X0078442Y0174623D01*
X0078358Y0174944D01*
X0078281Y0175266D01*
X0078212Y0175590D01*
X0078152Y0175916D01*
X0078099Y0176243D01*
X0078055Y0176571D01*
X0078018Y0176901D01*
X0077990Y0177231D01*
X0077969Y0177562D01*
X0077957Y0177893D01*
X0077953Y0178224D01*
X0092599Y0121780D02*
X0092599Y0042780D01*
X0116099Y0042780D01*
X0116101Y0042920D01*
X0116107Y0043060D01*
X0116117Y0043200D01*
X0116130Y0043340D01*
X0116148Y0043479D01*
X0116170Y0043618D01*
X0116195Y0043755D01*
X0116224Y0043893D01*
X0116257Y0044029D01*
X0116294Y0044164D01*
X0116335Y0044298D01*
X0116380Y0044431D01*
X0116428Y0044563D01*
X0116480Y0044693D01*
X0116535Y0044822D01*
X0116594Y0044949D01*
X0116657Y0045075D01*
X0116723Y0045199D01*
X0116792Y0045320D01*
X0116865Y0045440D01*
X0116942Y0045558D01*
X0117021Y0045673D01*
X0117104Y0045787D01*
X0117190Y0045897D01*
X0117279Y0046006D01*
X0117371Y0046112D01*
X0117466Y0046215D01*
X0117563Y0046316D01*
X0117664Y0046413D01*
X0117767Y0046508D01*
X0117873Y0046600D01*
X0117982Y0046689D01*
X0118092Y0046775D01*
X0118206Y0046858D01*
X0118321Y0046937D01*
X0118439Y0047014D01*
X0118559Y0047087D01*
X0118680Y0047156D01*
X0118804Y0047222D01*
X0118930Y0047285D01*
X0119057Y0047344D01*
X0119186Y0047399D01*
X0119316Y0047451D01*
X0119448Y0047499D01*
X0119581Y0047544D01*
X0119715Y0047585D01*
X0119850Y0047622D01*
X0119986Y0047655D01*
X0120124Y0047684D01*
X0120261Y0047709D01*
X0120400Y0047731D01*
X0120539Y0047749D01*
X0120679Y0047762D01*
X0120819Y0047772D01*
X0120959Y0047778D01*
X0121099Y0047780D01*
X0121239Y0047778D01*
X0121379Y0047772D01*
X0121519Y0047762D01*
X0121659Y0047749D01*
X0121798Y0047731D01*
X0121937Y0047709D01*
X0122074Y0047684D01*
X0122212Y0047655D01*
X0122348Y0047622D01*
X0122483Y0047585D01*
X0122617Y0047544D01*
X0122750Y0047499D01*
X0122882Y0047451D01*
X0123012Y0047399D01*
X0123141Y0047344D01*
X0123268Y0047285D01*
X0123394Y0047222D01*
X0123518Y0047156D01*
X0123639Y0047087D01*
X0123759Y0047014D01*
X0123877Y0046937D01*
X0123992Y0046858D01*
X0124106Y0046775D01*
X0124216Y0046689D01*
X0124325Y0046600D01*
X0124431Y0046508D01*
X0124534Y0046413D01*
X0124635Y0046316D01*
X0124732Y0046215D01*
X0124827Y0046112D01*
X0124919Y0046006D01*
X0125008Y0045897D01*
X0125094Y0045787D01*
X0125177Y0045673D01*
X0125256Y0045558D01*
X0125333Y0045440D01*
X0125406Y0045320D01*
X0125475Y0045199D01*
X0125541Y0045075D01*
X0125604Y0044949D01*
X0125663Y0044822D01*
X0125718Y0044693D01*
X0125770Y0044563D01*
X0125818Y0044431D01*
X0125863Y0044298D01*
X0125904Y0044164D01*
X0125941Y0044029D01*
X0125974Y0043893D01*
X0126003Y0043755D01*
X0126028Y0043618D01*
X0126050Y0043479D01*
X0126068Y0043340D01*
X0126081Y0043200D01*
X0126091Y0043060D01*
X0126097Y0042920D01*
X0126099Y0042780D01*
X0149599Y0042780D01*
X0149599Y0121780D01*
X0092599Y0121780D01*
X0185551Y0118379D02*
X0189451Y0118379D01*
X0196151Y0126279D02*
X0196151Y0127779D01*
X0197651Y0127779D01*
X0211151Y0134379D02*
X0211151Y0138279D01*
X0223051Y0127779D02*
X0224551Y0127779D01*
X0224551Y0126279D01*
X0234091Y0132457D02*
X0234091Y0137457D01*
X0236591Y0139957D01*
X0241591Y0139957D01*
X0244091Y0137457D01*
X0246591Y0139957D01*
X0251591Y0139957D01*
X0254091Y0137457D01*
X0254091Y0132457D01*
X0251591Y0129957D01*
X0246591Y0129957D01*
X0244091Y0132457D01*
X0241591Y0129957D01*
X0236591Y0129957D01*
X0234091Y0132457D01*
X0244091Y0132457D02*
X0244091Y0137457D01*
X0234851Y0116679D02*
X0230951Y0116679D01*
X0224551Y0100879D02*
X0224551Y0099379D01*
X0223051Y0099379D01*
X0217451Y0092879D02*
X0217351Y0088879D01*
X0231851Y0078079D02*
X0188851Y0078079D01*
X0188791Y0078077D01*
X0188730Y0078072D01*
X0188671Y0078063D01*
X0188612Y0078050D01*
X0188553Y0078034D01*
X0188496Y0078014D01*
X0188441Y0077991D01*
X0188386Y0077964D01*
X0188334Y0077935D01*
X0188283Y0077902D01*
X0188234Y0077866D01*
X0188188Y0077828D01*
X0188144Y0077786D01*
X0188102Y0077742D01*
X0188064Y0077696D01*
X0188028Y0077647D01*
X0187995Y0077596D01*
X0187966Y0077544D01*
X0187939Y0077489D01*
X0187916Y0077434D01*
X0187896Y0077377D01*
X0187880Y0077318D01*
X0187867Y0077259D01*
X0187858Y0077200D01*
X0187853Y0077139D01*
X0187851Y0077079D01*
X0187851Y0073079D01*
X0187851Y0064079D02*
X0187851Y0060079D01*
X0187853Y0060019D01*
X0187858Y0059958D01*
X0187867Y0059899D01*
X0187880Y0059840D01*
X0187896Y0059781D01*
X0187916Y0059724D01*
X0187939Y0059669D01*
X0187966Y0059614D01*
X0187995Y0059562D01*
X0188028Y0059511D01*
X0188064Y0059462D01*
X0188102Y0059416D01*
X0188144Y0059372D01*
X0188188Y0059330D01*
X0188234Y0059292D01*
X0188283Y0059256D01*
X0188334Y0059223D01*
X0188386Y0059194D01*
X0188441Y0059167D01*
X0188496Y0059144D01*
X0188553Y0059124D01*
X0188612Y0059108D01*
X0188671Y0059095D01*
X0188730Y0059086D01*
X0188791Y0059081D01*
X0188851Y0059079D01*
X0231851Y0059079D01*
X0231911Y0059081D01*
X0231972Y0059086D01*
X0232031Y0059095D01*
X0232090Y0059108D01*
X0232149Y0059124D01*
X0232206Y0059144D01*
X0232261Y0059167D01*
X0232316Y0059194D01*
X0232368Y0059223D01*
X0232419Y0059256D01*
X0232468Y0059292D01*
X0232514Y0059330D01*
X0232558Y0059372D01*
X0232600Y0059416D01*
X0232638Y0059462D01*
X0232674Y0059511D01*
X0232707Y0059562D01*
X0232736Y0059614D01*
X0232763Y0059669D01*
X0232786Y0059724D01*
X0232806Y0059781D01*
X0232822Y0059840D01*
X0232835Y0059899D01*
X0232844Y0059958D01*
X0232849Y0060019D01*
X0232851Y0060079D01*
X0232851Y0064079D01*
X0232851Y0073079D02*
X0232851Y0077079D01*
X0232849Y0077139D01*
X0232844Y0077200D01*
X0232835Y0077259D01*
X0232822Y0077318D01*
X0232806Y0077377D01*
X0232786Y0077434D01*
X0232763Y0077489D01*
X0232736Y0077544D01*
X0232707Y0077596D01*
X0232674Y0077647D01*
X0232638Y0077696D01*
X0232600Y0077742D01*
X0232558Y0077786D01*
X0232514Y0077828D01*
X0232468Y0077866D01*
X0232419Y0077902D01*
X0232368Y0077935D01*
X0232316Y0077964D01*
X0232261Y0077991D01*
X0232206Y0078014D01*
X0232149Y0078034D01*
X0232090Y0078050D01*
X0232031Y0078063D01*
X0231972Y0078072D01*
X0231911Y0078077D01*
X0231851Y0078079D01*
X0212851Y0071079D02*
X0212851Y0068579D01*
X0212851Y0066079D01*
X0211351Y0066079D02*
X0209351Y0066079D01*
X0209351Y0071079D01*
X0211351Y0071079D01*
X0211351Y0066079D01*
X0207851Y0066079D02*
X0207851Y0068579D01*
X0207851Y0071079D01*
X0197651Y0099379D02*
X0196151Y0099379D01*
X0196151Y0100879D01*
X0197951Y0102679D02*
X0199451Y0101179D01*
X0269406Y0048126D02*
X0271906Y0050626D01*
X0276906Y0050626D01*
X0279406Y0048126D01*
X0279406Y0043126D01*
X0276906Y0040626D01*
X0279406Y0038126D01*
X0279406Y0033126D01*
X0276906Y0030626D01*
X0271906Y0030626D01*
X0269406Y0033126D01*
X0269406Y0038126D01*
X0271906Y0040626D01*
X0269406Y0043126D01*
X0269406Y0048126D01*
X0271906Y0040626D02*
X0276906Y0040626D01*
X0261095Y0039780D02*
X0261095Y0033280D01*
X0261095Y0028280D02*
X0261095Y0014780D01*
X0260095Y0013780D01*
X0235095Y0013780D01*
X0234095Y0014780D01*
X0234095Y0028280D01*
X0234095Y0033280D02*
X0234095Y0039780D01*
X0235095Y0040780D01*
X0237595Y0040780D01*
X0245095Y0040780D01*
X0243595Y0039280D02*
X0237595Y0039280D01*
X0237595Y0040780D01*
X0246095Y0033280D02*
X0246095Y0030280D01*
X0246095Y0028780D01*
X0244595Y0027280D01*
X0241595Y0027280D01*
X0241595Y0024280D01*
X0244595Y0024280D01*
X0246095Y0022780D01*
X0246095Y0021280D01*
X0246095Y0018280D01*
X0249095Y0018280D01*
X0249095Y0021280D01*
X0249095Y0022780D01*
X0250595Y0024280D01*
X0253595Y0024280D01*
X0253595Y0027280D01*
X0250595Y0027280D01*
X0249095Y0028780D01*
X0249095Y0030280D01*
X0249095Y0033280D01*
X0246095Y0033280D01*
X0246095Y0030280D02*
X0249095Y0030280D01*
X0249095Y0021280D02*
X0246095Y0021280D01*
X0251595Y0039280D02*
X0257595Y0039280D01*
X0257595Y0040780D01*
X0250095Y0040780D01*
X0257595Y0040780D02*
X0260095Y0040780D01*
X0261095Y0039780D01*
X0304906Y0011091D02*
X0317906Y0011091D01*
X0330906Y0011091D01*
X0343906Y0011091D01*
X0343906Y0097091D01*
X0330906Y0097091D01*
X0317906Y0097091D01*
X0304906Y0097091D01*
X0304906Y0011091D01*
X0316906Y0016091D02*
X0316906Y0022091D01*
X0331906Y0022091D01*
X0331906Y0016091D01*
X0316906Y0016091D01*
X0317906Y0013091D02*
X0317906Y0011091D01*
X0317906Y0013091D02*
X0330906Y0013091D01*
X0330906Y0011091D01*
X0331906Y0026091D02*
X0316906Y0026091D01*
X0316906Y0032091D01*
X0331906Y0032091D01*
X0331906Y0026091D01*
X0331906Y0036091D02*
X0331906Y0042091D01*
X0316906Y0042091D01*
X0316906Y0036091D01*
X0331906Y0036091D01*
X0331906Y0046091D02*
X0316906Y0046091D01*
X0316906Y0052091D01*
X0331906Y0052091D01*
X0331906Y0046091D01*
X0331906Y0056091D02*
X0331906Y0062091D01*
X0316906Y0062091D01*
X0316906Y0056091D01*
X0331906Y0056091D01*
X0331906Y0066091D02*
X0331906Y0072091D01*
X0316906Y0072091D01*
X0316906Y0066091D01*
X0331906Y0066091D01*
X0331906Y0076091D02*
X0331906Y0082091D01*
X0316906Y0082091D01*
X0316906Y0076091D01*
X0331906Y0076091D01*
X0331906Y0086091D02*
X0316906Y0086091D01*
X0316906Y0092091D01*
X0331906Y0092091D01*
X0331906Y0086091D01*
X0330906Y0095091D02*
X0330906Y0097091D01*
X0330906Y0095091D02*
X0317906Y0095091D01*
X0317906Y0097091D01*
X0320489Y0102319D02*
X0317989Y0104819D01*
X0317989Y0109819D01*
X0320489Y0112319D01*
X0317989Y0114819D01*
X0317989Y0119819D01*
X0320489Y0122319D01*
X0317989Y0124819D01*
X0317989Y0129819D01*
X0320489Y0132319D01*
X0325489Y0132319D01*
X0327989Y0129819D01*
X0327989Y0124819D01*
X0325489Y0122319D01*
X0327989Y0119819D01*
X0327989Y0114819D01*
X0325489Y0112319D01*
X0327989Y0109819D01*
X0327989Y0104819D01*
X0325489Y0102319D01*
X0320489Y0102319D01*
X0320489Y0112319D02*
X0325489Y0112319D01*
X0325489Y0122319D02*
X0320489Y0122319D01*
X0349607Y0122949D02*
X0349611Y0123280D01*
X0349623Y0123611D01*
X0349644Y0123942D01*
X0349672Y0124272D01*
X0349709Y0124602D01*
X0349753Y0124930D01*
X0349806Y0125257D01*
X0349866Y0125583D01*
X0349935Y0125907D01*
X0350012Y0126229D01*
X0350096Y0126550D01*
X0350188Y0126868D01*
X0350288Y0127184D01*
X0350396Y0127497D01*
X0350512Y0127808D01*
X0350635Y0128115D01*
X0350765Y0128420D01*
X0350903Y0128721D01*
X0351048Y0129019D01*
X0351201Y0129313D01*
X0351361Y0129603D01*
X0351528Y0129889D01*
X0351701Y0130171D01*
X0351882Y0130449D01*
X0352070Y0130722D01*
X0352264Y0130991D01*
X0352464Y0131255D01*
X0352671Y0131513D01*
X0352885Y0131767D01*
X0353104Y0132015D01*
X0353330Y0132258D01*
X0353561Y0132495D01*
X0353798Y0132726D01*
X0354041Y0132952D01*
X0354289Y0133171D01*
X0354543Y0133385D01*
X0354801Y0133592D01*
X0355065Y0133792D01*
X0355334Y0133986D01*
X0355607Y0134174D01*
X0355885Y0134355D01*
X0356167Y0134528D01*
X0356453Y0134695D01*
X0356743Y0134855D01*
X0357037Y0135008D01*
X0357335Y0135153D01*
X0357636Y0135291D01*
X0357941Y0135421D01*
X0358248Y0135544D01*
X0358559Y0135660D01*
X0358872Y0135768D01*
X0359188Y0135868D01*
X0359506Y0135960D01*
X0359827Y0136044D01*
X0360149Y0136121D01*
X0360473Y0136190D01*
X0360799Y0136250D01*
X0361126Y0136303D01*
X0361454Y0136347D01*
X0361784Y0136384D01*
X0362114Y0136412D01*
X0362445Y0136433D01*
X0362776Y0136445D01*
X0363107Y0136449D01*
X0363438Y0136445D01*
X0363769Y0136433D01*
X0364100Y0136412D01*
X0364430Y0136384D01*
X0364760Y0136347D01*
X0365088Y0136303D01*
X0365415Y0136250D01*
X0365741Y0136190D01*
X0366065Y0136121D01*
X0366387Y0136044D01*
X0366708Y0135960D01*
X0367026Y0135868D01*
X0367342Y0135768D01*
X0367655Y0135660D01*
X0367966Y0135544D01*
X0368273Y0135421D01*
X0368578Y0135291D01*
X0368879Y0135153D01*
X0369177Y0135008D01*
X0369471Y0134855D01*
X0369761Y0134695D01*
X0370047Y0134528D01*
X0370329Y0134355D01*
X0370607Y0134174D01*
X0370880Y0133986D01*
X0371149Y0133792D01*
X0371413Y0133592D01*
X0371671Y0133385D01*
X0371925Y0133171D01*
X0372173Y0132952D01*
X0372416Y0132726D01*
X0372653Y0132495D01*
X0372884Y0132258D01*
X0373110Y0132015D01*
X0373329Y0131767D01*
X0373543Y0131513D01*
X0373750Y0131255D01*
X0373950Y0130991D01*
X0374144Y0130722D01*
X0374332Y0130449D01*
X0374513Y0130171D01*
X0374686Y0129889D01*
X0374853Y0129603D01*
X0375013Y0129313D01*
X0375166Y0129019D01*
X0375311Y0128721D01*
X0375449Y0128420D01*
X0375579Y0128115D01*
X0375702Y0127808D01*
X0375818Y0127497D01*
X0375926Y0127184D01*
X0376026Y0126868D01*
X0376118Y0126550D01*
X0376202Y0126229D01*
X0376279Y0125907D01*
X0376348Y0125583D01*
X0376408Y0125257D01*
X0376461Y0124930D01*
X0376505Y0124602D01*
X0376542Y0124272D01*
X0376570Y0123942D01*
X0376591Y0123611D01*
X0376603Y0123280D01*
X0376607Y0122949D01*
X0376603Y0122618D01*
X0376591Y0122287D01*
X0376570Y0121956D01*
X0376542Y0121626D01*
X0376505Y0121296D01*
X0376461Y0120968D01*
X0376408Y0120641D01*
X0376348Y0120315D01*
X0376279Y0119991D01*
X0376202Y0119669D01*
X0376118Y0119348D01*
X0376026Y0119030D01*
X0375926Y0118714D01*
X0375818Y0118401D01*
X0375702Y0118090D01*
X0375579Y0117783D01*
X0375449Y0117478D01*
X0375311Y0117177D01*
X0375166Y0116879D01*
X0375013Y0116585D01*
X0374853Y0116295D01*
X0374686Y0116009D01*
X0374513Y0115727D01*
X0374332Y0115449D01*
X0374144Y0115176D01*
X0373950Y0114907D01*
X0373750Y0114643D01*
X0373543Y0114385D01*
X0373329Y0114131D01*
X0373110Y0113883D01*
X0372884Y0113640D01*
X0372653Y0113403D01*
X0372416Y0113172D01*
X0372173Y0112946D01*
X0371925Y0112727D01*
X0371671Y0112513D01*
X0371413Y0112306D01*
X0371149Y0112106D01*
X0370880Y0111912D01*
X0370607Y0111724D01*
X0370329Y0111543D01*
X0370047Y0111370D01*
X0369761Y0111203D01*
X0369471Y0111043D01*
X0369177Y0110890D01*
X0368879Y0110745D01*
X0368578Y0110607D01*
X0368273Y0110477D01*
X0367966Y0110354D01*
X0367655Y0110238D01*
X0367342Y0110130D01*
X0367026Y0110030D01*
X0366708Y0109938D01*
X0366387Y0109854D01*
X0366065Y0109777D01*
X0365741Y0109708D01*
X0365415Y0109648D01*
X0365088Y0109595D01*
X0364760Y0109551D01*
X0364430Y0109514D01*
X0364100Y0109486D01*
X0363769Y0109465D01*
X0363438Y0109453D01*
X0363107Y0109449D01*
X0362776Y0109453D01*
X0362445Y0109465D01*
X0362114Y0109486D01*
X0361784Y0109514D01*
X0361454Y0109551D01*
X0361126Y0109595D01*
X0360799Y0109648D01*
X0360473Y0109708D01*
X0360149Y0109777D01*
X0359827Y0109854D01*
X0359506Y0109938D01*
X0359188Y0110030D01*
X0358872Y0110130D01*
X0358559Y0110238D01*
X0358248Y0110354D01*
X0357941Y0110477D01*
X0357636Y0110607D01*
X0357335Y0110745D01*
X0357037Y0110890D01*
X0356743Y0111043D01*
X0356453Y0111203D01*
X0356167Y0111370D01*
X0355885Y0111543D01*
X0355607Y0111724D01*
X0355334Y0111912D01*
X0355065Y0112106D01*
X0354801Y0112306D01*
X0354543Y0112513D01*
X0354289Y0112727D01*
X0354041Y0112946D01*
X0353798Y0113172D01*
X0353561Y0113403D01*
X0353330Y0113640D01*
X0353104Y0113883D01*
X0352885Y0114131D01*
X0352671Y0114385D01*
X0352464Y0114643D01*
X0352264Y0114907D01*
X0352070Y0115176D01*
X0351882Y0115449D01*
X0351701Y0115727D01*
X0351528Y0116009D01*
X0351361Y0116295D01*
X0351201Y0116585D01*
X0351048Y0116879D01*
X0350903Y0117177D01*
X0350765Y0117478D01*
X0350635Y0117783D01*
X0350512Y0118090D01*
X0350396Y0118401D01*
X0350288Y0118714D01*
X0350188Y0119030D01*
X0350096Y0119348D01*
X0350012Y0119669D01*
X0349935Y0119991D01*
X0349866Y0120315D01*
X0349806Y0120641D01*
X0349753Y0120968D01*
X0349709Y0121296D01*
X0349672Y0121626D01*
X0349644Y0121956D01*
X0349623Y0122287D01*
X0349611Y0122618D01*
X0349607Y0122949D01*
X0352221Y0023618D02*
X0349721Y0021118D01*
X0349721Y0016118D01*
X0352221Y0013618D01*
X0357221Y0013618D01*
X0359721Y0016118D01*
X0362221Y0013618D01*
X0367221Y0013618D01*
X0369721Y0016118D01*
X0369721Y0021118D01*
X0367221Y0023618D01*
X0362221Y0023618D01*
X0359721Y0021118D01*
X0359721Y0016118D01*
X0359721Y0021118D02*
X0357221Y0023618D01*
X0352221Y0023618D01*
X0196103Y0027437D02*
X0196107Y0027768D01*
X0196119Y0028099D01*
X0196140Y0028430D01*
X0196168Y0028760D01*
X0196205Y0029090D01*
X0196249Y0029418D01*
X0196302Y0029745D01*
X0196362Y0030071D01*
X0196431Y0030395D01*
X0196508Y0030717D01*
X0196592Y0031038D01*
X0196684Y0031356D01*
X0196784Y0031672D01*
X0196892Y0031985D01*
X0197008Y0032296D01*
X0197131Y0032603D01*
X0197261Y0032908D01*
X0197399Y0033209D01*
X0197544Y0033507D01*
X0197697Y0033801D01*
X0197857Y0034091D01*
X0198024Y0034377D01*
X0198197Y0034659D01*
X0198378Y0034937D01*
X0198566Y0035210D01*
X0198760Y0035479D01*
X0198960Y0035743D01*
X0199167Y0036001D01*
X0199381Y0036255D01*
X0199600Y0036503D01*
X0199826Y0036746D01*
X0200057Y0036983D01*
X0200294Y0037214D01*
X0200537Y0037440D01*
X0200785Y0037659D01*
X0201039Y0037873D01*
X0201297Y0038080D01*
X0201561Y0038280D01*
X0201830Y0038474D01*
X0202103Y0038662D01*
X0202381Y0038843D01*
X0202663Y0039016D01*
X0202949Y0039183D01*
X0203239Y0039343D01*
X0203533Y0039496D01*
X0203831Y0039641D01*
X0204132Y0039779D01*
X0204437Y0039909D01*
X0204744Y0040032D01*
X0205055Y0040148D01*
X0205368Y0040256D01*
X0205684Y0040356D01*
X0206002Y0040448D01*
X0206323Y0040532D01*
X0206645Y0040609D01*
X0206969Y0040678D01*
X0207295Y0040738D01*
X0207622Y0040791D01*
X0207950Y0040835D01*
X0208280Y0040872D01*
X0208610Y0040900D01*
X0208941Y0040921D01*
X0209272Y0040933D01*
X0209603Y0040937D01*
X0209934Y0040933D01*
X0210265Y0040921D01*
X0210596Y0040900D01*
X0210926Y0040872D01*
X0211256Y0040835D01*
X0211584Y0040791D01*
X0211911Y0040738D01*
X0212237Y0040678D01*
X0212561Y0040609D01*
X0212883Y0040532D01*
X0213204Y0040448D01*
X0213522Y0040356D01*
X0213838Y0040256D01*
X0214151Y0040148D01*
X0214462Y0040032D01*
X0214769Y0039909D01*
X0215074Y0039779D01*
X0215375Y0039641D01*
X0215673Y0039496D01*
X0215967Y0039343D01*
X0216257Y0039183D01*
X0216543Y0039016D01*
X0216825Y0038843D01*
X0217103Y0038662D01*
X0217376Y0038474D01*
X0217645Y0038280D01*
X0217909Y0038080D01*
X0218167Y0037873D01*
X0218421Y0037659D01*
X0218669Y0037440D01*
X0218912Y0037214D01*
X0219149Y0036983D01*
X0219380Y0036746D01*
X0219606Y0036503D01*
X0219825Y0036255D01*
X0220039Y0036001D01*
X0220246Y0035743D01*
X0220446Y0035479D01*
X0220640Y0035210D01*
X0220828Y0034937D01*
X0221009Y0034659D01*
X0221182Y0034377D01*
X0221349Y0034091D01*
X0221509Y0033801D01*
X0221662Y0033507D01*
X0221807Y0033209D01*
X0221945Y0032908D01*
X0222075Y0032603D01*
X0222198Y0032296D01*
X0222314Y0031985D01*
X0222422Y0031672D01*
X0222522Y0031356D01*
X0222614Y0031038D01*
X0222698Y0030717D01*
X0222775Y0030395D01*
X0222844Y0030071D01*
X0222904Y0029745D01*
X0222957Y0029418D01*
X0223001Y0029090D01*
X0223038Y0028760D01*
X0223066Y0028430D01*
X0223087Y0028099D01*
X0223099Y0027768D01*
X0223103Y0027437D01*
X0223099Y0027106D01*
X0223087Y0026775D01*
X0223066Y0026444D01*
X0223038Y0026114D01*
X0223001Y0025784D01*
X0222957Y0025456D01*
X0222904Y0025129D01*
X0222844Y0024803D01*
X0222775Y0024479D01*
X0222698Y0024157D01*
X0222614Y0023836D01*
X0222522Y0023518D01*
X0222422Y0023202D01*
X0222314Y0022889D01*
X0222198Y0022578D01*
X0222075Y0022271D01*
X0221945Y0021966D01*
X0221807Y0021665D01*
X0221662Y0021367D01*
X0221509Y0021073D01*
X0221349Y0020783D01*
X0221182Y0020497D01*
X0221009Y0020215D01*
X0220828Y0019937D01*
X0220640Y0019664D01*
X0220446Y0019395D01*
X0220246Y0019131D01*
X0220039Y0018873D01*
X0219825Y0018619D01*
X0219606Y0018371D01*
X0219380Y0018128D01*
X0219149Y0017891D01*
X0218912Y0017660D01*
X0218669Y0017434D01*
X0218421Y0017215D01*
X0218167Y0017001D01*
X0217909Y0016794D01*
X0217645Y0016594D01*
X0217376Y0016400D01*
X0217103Y0016212D01*
X0216825Y0016031D01*
X0216543Y0015858D01*
X0216257Y0015691D01*
X0215967Y0015531D01*
X0215673Y0015378D01*
X0215375Y0015233D01*
X0215074Y0015095D01*
X0214769Y0014965D01*
X0214462Y0014842D01*
X0214151Y0014726D01*
X0213838Y0014618D01*
X0213522Y0014518D01*
X0213204Y0014426D01*
X0212883Y0014342D01*
X0212561Y0014265D01*
X0212237Y0014196D01*
X0211911Y0014136D01*
X0211584Y0014083D01*
X0211256Y0014039D01*
X0210926Y0014002D01*
X0210596Y0013974D01*
X0210265Y0013953D01*
X0209934Y0013941D01*
X0209603Y0013937D01*
X0209272Y0013941D01*
X0208941Y0013953D01*
X0208610Y0013974D01*
X0208280Y0014002D01*
X0207950Y0014039D01*
X0207622Y0014083D01*
X0207295Y0014136D01*
X0206969Y0014196D01*
X0206645Y0014265D01*
X0206323Y0014342D01*
X0206002Y0014426D01*
X0205684Y0014518D01*
X0205368Y0014618D01*
X0205055Y0014726D01*
X0204744Y0014842D01*
X0204437Y0014965D01*
X0204132Y0015095D01*
X0203831Y0015233D01*
X0203533Y0015378D01*
X0203239Y0015531D01*
X0202949Y0015691D01*
X0202663Y0015858D01*
X0202381Y0016031D01*
X0202103Y0016212D01*
X0201830Y0016400D01*
X0201561Y0016594D01*
X0201297Y0016794D01*
X0201039Y0017001D01*
X0200785Y0017215D01*
X0200537Y0017434D01*
X0200294Y0017660D01*
X0200057Y0017891D01*
X0199826Y0018128D01*
X0199600Y0018371D01*
X0199381Y0018619D01*
X0199167Y0018873D01*
X0198960Y0019131D01*
X0198760Y0019395D01*
X0198566Y0019664D01*
X0198378Y0019937D01*
X0198197Y0020215D01*
X0198024Y0020497D01*
X0197857Y0020783D01*
X0197697Y0021073D01*
X0197544Y0021367D01*
X0197399Y0021665D01*
X0197261Y0021966D01*
X0197131Y0022271D01*
X0197008Y0022578D01*
X0196892Y0022889D01*
X0196784Y0023202D01*
X0196684Y0023518D01*
X0196592Y0023836D01*
X0196508Y0024157D01*
X0196431Y0024479D01*
X0196362Y0024803D01*
X0196302Y0025129D01*
X0196249Y0025456D01*
X0196205Y0025784D01*
X0196168Y0026114D01*
X0196140Y0026444D01*
X0196119Y0026775D01*
X0196107Y0027106D01*
X0196103Y0027437D01*
X0200488Y0225296D02*
X0204758Y0229566D01*
X0204758Y0230634D01*
X0203691Y0231702D01*
X0201556Y0231702D01*
X0200488Y0230634D01*
X0200488Y0225296D02*
X0204758Y0225296D01*
X0206934Y0226364D02*
X0211204Y0230634D01*
X0211204Y0226364D01*
X0210136Y0225296D01*
X0208001Y0225296D01*
X0206934Y0226364D01*
X0206934Y0230634D01*
X0208001Y0231702D01*
X0210136Y0231702D01*
X0211204Y0230634D01*
X0213379Y0229566D02*
X0215514Y0231702D01*
X0215514Y0225296D01*
X0213379Y0225296D02*
X0217649Y0225296D01*
X0219825Y0226364D02*
X0219825Y0228499D01*
X0223027Y0228499D01*
X0224095Y0227431D01*
X0224095Y0226364D01*
X0223027Y0225296D01*
X0220892Y0225296D01*
X0219825Y0226364D01*
X0219825Y0228499D02*
X0221960Y0230634D01*
X0224095Y0231702D01*
X0223027Y0237107D02*
X0220892Y0237107D01*
X0219825Y0238175D01*
X0224095Y0242445D01*
X0224095Y0238175D01*
X0223027Y0237107D01*
X0226270Y0237107D02*
X0230540Y0237107D01*
X0228405Y0237107D02*
X0228405Y0243513D01*
X0226270Y0241377D01*
X0224095Y0242445D02*
X0223027Y0243513D01*
X0220892Y0243513D01*
X0219825Y0242445D01*
X0219825Y0238175D01*
X0217649Y0238175D02*
X0217649Y0242445D01*
X0213379Y0238175D01*
X0214447Y0237107D01*
X0216582Y0237107D01*
X0217649Y0238175D01*
X0213379Y0238175D02*
X0213379Y0242445D01*
X0214447Y0243513D01*
X0216582Y0243513D01*
X0217649Y0242445D01*
X0211204Y0242445D02*
X0211204Y0238175D01*
X0210136Y0237107D01*
X0206934Y0237107D01*
X0206934Y0243513D01*
X0210136Y0243513D01*
X0211204Y0242445D01*
X0209625Y0247658D02*
X0210692Y0248726D01*
X0210692Y0250861D01*
X0209625Y0251929D01*
X0207489Y0251929D01*
X0206422Y0250861D01*
X0206422Y0248726D01*
X0207489Y0247658D01*
X0209625Y0247658D01*
X0212867Y0248726D02*
X0212867Y0250861D01*
X0213935Y0251929D01*
X0217138Y0251929D01*
X0217138Y0254064D02*
X0217138Y0247658D01*
X0213935Y0247658D01*
X0212867Y0248726D01*
X0219313Y0248726D02*
X0220380Y0247658D01*
X0223583Y0247658D01*
X0223583Y0251929D01*
X0225758Y0254064D02*
X0226826Y0254064D01*
X0226826Y0247658D01*
X0227893Y0247658D02*
X0225758Y0247658D01*
X0219313Y0248726D02*
X0219313Y0251929D01*
X0230055Y0250861D02*
X0231123Y0251929D01*
X0233258Y0251929D01*
X0234326Y0250861D01*
X0234326Y0249793D01*
X0230055Y0249793D01*
X0230055Y0248726D02*
X0230055Y0250861D01*
X0230055Y0248726D02*
X0231123Y0247658D01*
X0233258Y0247658D01*
X0242946Y0249793D02*
X0245081Y0247658D01*
X0247217Y0249793D01*
X0247217Y0254064D01*
X0249392Y0252996D02*
X0250459Y0254064D01*
X0252595Y0254064D01*
X0253662Y0252996D01*
X0253662Y0251929D01*
X0252595Y0250861D01*
X0253662Y0249793D01*
X0253662Y0248726D01*
X0252595Y0247658D01*
X0250459Y0247658D01*
X0249392Y0248726D01*
X0251527Y0250861D02*
X0252595Y0250861D01*
X0242946Y0249793D02*
X0242946Y0254064D01*
X0204247Y0254064D02*
X0204247Y0247658D01*
X0199976Y0247658D02*
X0199976Y0254064D01*
X0202111Y0251929D01*
X0204247Y0254064D01*
X0202623Y0243513D02*
X0204758Y0241377D01*
X0204758Y0237107D01*
X0204758Y0240310D02*
X0200488Y0240310D01*
X0200488Y0241377D02*
X0202623Y0243513D01*
X0200488Y0241377D02*
X0200488Y0237107D01*
X0198313Y0238175D02*
X0197245Y0237107D01*
X0194043Y0237107D01*
X0194043Y0243513D01*
X0197245Y0243513D01*
X0198313Y0242445D01*
X0198313Y0241377D01*
X0197245Y0240310D01*
X0194043Y0240310D01*
X0191867Y0240310D02*
X0189732Y0240310D01*
X0191867Y0240310D02*
X0191867Y0238175D01*
X0190800Y0237107D01*
X0188665Y0237107D01*
X0187597Y0238175D01*
X0187597Y0242445D01*
X0188665Y0243513D01*
X0190800Y0243513D01*
X0191867Y0242445D01*
X0197245Y0240310D02*
X0198313Y0239242D01*
X0198313Y0238175D01*
X0191867Y0231702D02*
X0187597Y0231702D01*
X0189732Y0231702D02*
X0189732Y0225296D01*
X0185422Y0226364D02*
X0184354Y0225296D01*
X0182219Y0225296D01*
X0181152Y0226364D01*
X0181152Y0230634D01*
X0182219Y0231702D01*
X0184354Y0231702D01*
X0185422Y0230634D01*
X0178976Y0231702D02*
X0178976Y0226364D01*
X0177909Y0225296D01*
X0175774Y0225296D01*
X0174706Y0226364D01*
X0174706Y0231702D01*
X0174706Y0237107D02*
X0174706Y0243513D01*
X0176841Y0241377D01*
X0178976Y0243513D01*
X0178976Y0237107D01*
X0181152Y0237107D02*
X0181152Y0243513D01*
X0184354Y0243513D01*
X0185422Y0242445D01*
X0185422Y0240310D01*
X0184354Y0239242D01*
X0181152Y0239242D01*
X0183287Y0239242D02*
X0185422Y0237107D01*
X0183843Y0247658D02*
X0181707Y0247658D01*
X0180640Y0248726D01*
X0180640Y0252996D01*
X0181707Y0254064D01*
X0183843Y0254064D01*
X0184910Y0252996D01*
X0187085Y0254064D02*
X0187085Y0248726D01*
X0188153Y0247658D01*
X0190288Y0247658D01*
X0191356Y0248726D01*
X0191356Y0254064D01*
X0184910Y0248726D02*
X0183843Y0247658D01*
X0178465Y0247658D02*
X0178465Y0254064D01*
X0176330Y0251929D01*
X0174194Y0254064D01*
X0174194Y0247658D01*
D12*
X0133210Y0245949D02*
X0133210Y0243480D01*
X0132593Y0242863D01*
X0130741Y0242863D01*
X0130741Y0246566D01*
X0132593Y0246566D01*
X0133210Y0245949D01*
X0129527Y0246566D02*
X0129527Y0242863D01*
X0127058Y0246566D01*
X0127058Y0242863D01*
X0125844Y0243480D02*
X0125844Y0244714D01*
X0124609Y0244714D01*
X0123375Y0243480D02*
X0123992Y0242863D01*
X0125227Y0242863D01*
X0125844Y0243480D01*
X0125844Y0245949D02*
X0125227Y0246566D01*
X0123992Y0246566D01*
X0123375Y0245949D01*
X0123375Y0243480D01*
X0123992Y0236723D02*
X0125227Y0236723D01*
X0125844Y0236106D01*
X0125844Y0235489D01*
X0125227Y0234872D01*
X0125844Y0234254D01*
X0125844Y0233637D01*
X0125227Y0233020D01*
X0123992Y0233020D01*
X0123375Y0233637D01*
X0124609Y0234872D02*
X0125227Y0234872D01*
X0127058Y0234254D02*
X0128293Y0233020D01*
X0129527Y0234254D01*
X0129527Y0236723D01*
X0130741Y0236106D02*
X0131359Y0236723D01*
X0132593Y0236723D01*
X0133210Y0236106D01*
X0133210Y0235489D01*
X0132593Y0234872D01*
X0133210Y0234254D01*
X0133210Y0233637D01*
X0132593Y0233020D01*
X0131359Y0233020D01*
X0130741Y0233637D01*
X0131976Y0234872D02*
X0132593Y0234872D01*
X0127058Y0234254D02*
X0127058Y0236723D01*
X0123992Y0236723D02*
X0123375Y0236106D01*
X0123375Y0224912D02*
X0123375Y0223061D01*
X0124609Y0223678D01*
X0125227Y0223678D01*
X0125844Y0223061D01*
X0125844Y0221826D01*
X0125227Y0221209D01*
X0123992Y0221209D01*
X0123375Y0221826D01*
X0123375Y0224912D02*
X0125844Y0224912D01*
X0127058Y0224912D02*
X0127058Y0222443D01*
X0128293Y0221209D01*
X0129527Y0222443D01*
X0129527Y0224912D01*
X0124609Y0217038D02*
X0125844Y0215804D01*
X0125844Y0213335D01*
X0125844Y0215187D02*
X0123375Y0215187D01*
X0123375Y0215804D02*
X0124609Y0217038D01*
X0123375Y0215804D02*
X0123375Y0213335D01*
X0123375Y0207196D02*
X0125227Y0207196D01*
X0125844Y0206578D01*
X0125844Y0205961D01*
X0125227Y0205344D01*
X0123375Y0205344D01*
X0123375Y0203493D02*
X0125227Y0203493D01*
X0125844Y0204110D01*
X0125844Y0204727D01*
X0125227Y0205344D01*
X0123375Y0203493D02*
X0123375Y0207196D01*
X0135159Y0190668D02*
X0137628Y0190668D01*
X0138862Y0189434D01*
X0137628Y0188199D01*
X0135159Y0188199D01*
X0135159Y0186985D02*
X0135159Y0184516D01*
X0137011Y0184516D01*
X0136394Y0185751D01*
X0136394Y0186368D01*
X0137011Y0186985D01*
X0138245Y0186985D01*
X0138862Y0186368D01*
X0138862Y0185133D01*
X0138245Y0184516D01*
X0145002Y0185133D02*
X0145002Y0186368D01*
X0145619Y0186985D01*
X0146236Y0186985D01*
X0146853Y0186368D01*
X0147471Y0186985D01*
X0148088Y0186985D01*
X0148705Y0186368D01*
X0148705Y0185133D01*
X0148088Y0184516D01*
X0146853Y0185751D02*
X0146853Y0186368D01*
X0147471Y0188199D02*
X0145002Y0188199D01*
X0147471Y0188199D02*
X0148705Y0189434D01*
X0147471Y0190668D01*
X0145002Y0190668D01*
X0145619Y0191882D02*
X0145002Y0192500D01*
X0145002Y0193734D01*
X0145619Y0194351D01*
X0146236Y0194351D01*
X0146853Y0193734D01*
X0147471Y0194351D01*
X0148088Y0194351D01*
X0148705Y0193734D01*
X0148705Y0192500D01*
X0148088Y0191882D01*
X0146853Y0193117D02*
X0146853Y0193734D01*
X0154844Y0193734D02*
X0154844Y0191882D01*
X0158548Y0191882D01*
X0158548Y0193734D01*
X0157930Y0194351D01*
X0155462Y0194351D01*
X0154844Y0193734D01*
X0154844Y0190668D02*
X0158548Y0190668D01*
X0154844Y0188199D01*
X0158548Y0188199D01*
X0157930Y0186985D02*
X0156696Y0186985D01*
X0156696Y0185751D01*
X0157930Y0186985D02*
X0158548Y0186368D01*
X0158548Y0185133D01*
X0157930Y0184516D01*
X0155462Y0184516D01*
X0154844Y0185133D01*
X0154844Y0186368D01*
X0155462Y0186985D01*
X0164687Y0186985D02*
X0168390Y0186985D01*
X0164687Y0184516D01*
X0168390Y0184516D01*
X0168390Y0188199D02*
X0164687Y0188199D01*
X0164687Y0190051D01*
X0165304Y0190668D01*
X0166538Y0190668D01*
X0167156Y0190051D01*
X0167156Y0188199D01*
X0167156Y0189434D02*
X0168390Y0190668D01*
X0167773Y0191882D02*
X0168390Y0192500D01*
X0168390Y0193734D01*
X0167773Y0194351D01*
X0167156Y0194351D01*
X0166538Y0193734D01*
X0166538Y0192500D01*
X0165921Y0191882D01*
X0165304Y0191882D01*
X0164687Y0192500D01*
X0164687Y0193734D01*
X0165304Y0194351D01*
X0164687Y0195566D02*
X0164687Y0198034D01*
X0164687Y0196800D02*
X0168390Y0196800D01*
X0174529Y0198034D02*
X0178233Y0198034D01*
X0176998Y0196800D01*
X0178233Y0195566D01*
X0174529Y0195566D01*
X0175147Y0194351D02*
X0174529Y0193734D01*
X0174529Y0192500D01*
X0175147Y0191882D01*
X0175764Y0191882D01*
X0176381Y0192500D01*
X0176381Y0193734D01*
X0176998Y0194351D01*
X0177615Y0194351D01*
X0178233Y0193734D01*
X0178233Y0192500D01*
X0177615Y0191882D01*
X0178850Y0190668D02*
X0178850Y0188199D01*
X0178233Y0185751D02*
X0174529Y0185751D01*
X0174529Y0186985D02*
X0174529Y0184516D01*
X0184372Y0184516D02*
X0184372Y0186985D01*
X0184372Y0185751D02*
X0188075Y0185751D01*
X0188692Y0188199D02*
X0188692Y0190668D01*
X0187458Y0191882D02*
X0188075Y0192500D01*
X0188075Y0193734D01*
X0187458Y0194351D01*
X0186841Y0194351D01*
X0186223Y0193734D01*
X0186223Y0192500D01*
X0185606Y0191882D01*
X0184989Y0191882D01*
X0184372Y0192500D01*
X0184372Y0193734D01*
X0184989Y0194351D01*
X0184372Y0195566D02*
X0188075Y0195566D01*
X0186841Y0196800D01*
X0188075Y0198034D01*
X0184372Y0198034D01*
X0184372Y0199249D02*
X0184372Y0201100D01*
X0184989Y0201717D01*
X0187458Y0201717D01*
X0188075Y0201100D01*
X0188075Y0199249D01*
X0184372Y0199249D01*
X0184372Y0202932D02*
X0184372Y0204166D01*
X0184372Y0203549D02*
X0188075Y0203549D01*
X0188075Y0202932D02*
X0188075Y0204166D01*
X0187458Y0205387D02*
X0188075Y0206004D01*
X0188075Y0207239D01*
X0187458Y0207856D01*
X0184989Y0207856D01*
X0184372Y0207239D01*
X0184372Y0206004D01*
X0184989Y0205387D01*
X0187458Y0205387D01*
X0178233Y0205401D02*
X0178233Y0202932D01*
X0174529Y0202932D01*
X0175147Y0201717D02*
X0174529Y0201100D01*
X0174529Y0199866D01*
X0175147Y0199249D01*
X0177615Y0199249D01*
X0178233Y0199866D01*
X0178233Y0201100D01*
X0177615Y0201717D01*
X0176998Y0206615D02*
X0174529Y0209084D01*
X0174529Y0206615D02*
X0178233Y0206615D01*
X0176381Y0207232D02*
X0178233Y0209084D01*
X0145619Y0184516D02*
X0145002Y0185133D01*
X0131976Y0252705D02*
X0130741Y0253940D01*
X0130741Y0256408D01*
X0129527Y0255791D02*
X0128910Y0256408D01*
X0127675Y0256408D01*
X0127058Y0255791D01*
X0129527Y0255791D02*
X0129527Y0255174D01*
X0127058Y0252705D01*
X0129527Y0252705D01*
X0131976Y0252705D02*
X0133210Y0253940D01*
X0133210Y0256408D01*
X0125844Y0252705D02*
X0123375Y0252705D01*
X0124609Y0252705D02*
X0124609Y0256408D01*
X0123375Y0255174D01*
X0288769Y0171854D02*
X0289386Y0172471D01*
X0290620Y0172471D01*
X0291238Y0171854D01*
X0291238Y0171237D01*
X0290620Y0170620D01*
X0291238Y0170002D01*
X0291238Y0169385D01*
X0290620Y0168768D01*
X0289386Y0168768D01*
X0288769Y0169385D01*
X0290003Y0170620D02*
X0290620Y0170620D01*
X0292452Y0170002D02*
X0293686Y0168768D01*
X0294921Y0170002D01*
X0294921Y0172471D01*
X0296135Y0171854D02*
X0296752Y0172471D01*
X0297987Y0172471D01*
X0298604Y0171854D01*
X0298604Y0171237D01*
X0297987Y0170620D01*
X0298604Y0170002D01*
X0298604Y0169385D01*
X0297987Y0168768D01*
X0296752Y0168768D01*
X0296135Y0169385D01*
X0297369Y0170620D02*
X0297987Y0170620D01*
X0292452Y0170002D02*
X0292452Y0172471D01*
X0298357Y0180579D02*
X0300826Y0180579D01*
X0302041Y0180579D02*
X0304509Y0180579D01*
X0305724Y0180579D02*
X0307575Y0180579D01*
X0308192Y0181196D01*
X0308192Y0183665D01*
X0307575Y0184282D01*
X0305724Y0184282D01*
X0305724Y0180579D01*
X0303275Y0182431D02*
X0302041Y0182431D01*
X0302041Y0184282D02*
X0302041Y0180579D01*
X0298357Y0180579D02*
X0298357Y0184282D01*
X0297143Y0182431D02*
X0294674Y0182431D01*
X0295909Y0183665D02*
X0295909Y0181196D01*
X0302041Y0184282D02*
X0304509Y0184282D01*
X0304477Y0203493D02*
X0306329Y0203493D01*
X0306946Y0204110D01*
X0306946Y0204727D01*
X0306329Y0205344D01*
X0304477Y0205344D01*
X0304477Y0203493D02*
X0304477Y0207196D01*
X0306329Y0207196D01*
X0306946Y0206578D01*
X0306946Y0205961D01*
X0306329Y0205344D01*
X0306946Y0213335D02*
X0306946Y0215804D01*
X0305712Y0217038D01*
X0304477Y0215804D01*
X0304477Y0213335D01*
X0304477Y0215187D02*
X0306946Y0215187D01*
X0306329Y0221209D02*
X0305095Y0221209D01*
X0304477Y0221826D01*
X0304477Y0223061D02*
X0305712Y0223678D01*
X0306329Y0223678D01*
X0306946Y0223061D01*
X0306946Y0221826D01*
X0306329Y0221209D01*
X0308161Y0222443D02*
X0309395Y0221209D01*
X0310629Y0222443D01*
X0310629Y0224912D01*
X0308161Y0224912D02*
X0308161Y0222443D01*
X0306946Y0224912D02*
X0304477Y0224912D01*
X0304477Y0223061D01*
X0305095Y0233020D02*
X0304477Y0233637D01*
X0305095Y0233020D02*
X0306329Y0233020D01*
X0306946Y0233637D01*
X0306946Y0234254D01*
X0306329Y0234872D01*
X0305712Y0234872D01*
X0306329Y0234872D02*
X0306946Y0235489D01*
X0306946Y0236106D01*
X0306329Y0236723D01*
X0305095Y0236723D01*
X0304477Y0236106D01*
X0308161Y0236723D02*
X0308161Y0234254D01*
X0309395Y0233020D01*
X0310629Y0234254D01*
X0310629Y0236723D01*
X0311844Y0236106D02*
X0312461Y0236723D01*
X0313695Y0236723D01*
X0314312Y0236106D01*
X0314312Y0235489D01*
X0313695Y0234872D01*
X0314312Y0234254D01*
X0314312Y0233637D01*
X0313695Y0233020D01*
X0312461Y0233020D01*
X0311844Y0233637D01*
X0313078Y0234872D02*
X0313695Y0234872D01*
X0313695Y0242863D02*
X0311844Y0242863D01*
X0311844Y0246566D01*
X0313695Y0246566D01*
X0314312Y0245949D01*
X0314312Y0243480D01*
X0313695Y0242863D01*
X0310629Y0242863D02*
X0310629Y0246566D01*
X0308161Y0246566D02*
X0308161Y0242863D01*
X0306946Y0243480D02*
X0306946Y0244714D01*
X0305712Y0244714D01*
X0306946Y0243480D02*
X0306329Y0242863D01*
X0305095Y0242863D01*
X0304477Y0243480D01*
X0304477Y0245949D01*
X0305095Y0246566D01*
X0306329Y0246566D01*
X0306946Y0245949D01*
X0308161Y0246566D02*
X0310629Y0242863D01*
X0310629Y0252705D02*
X0308161Y0252705D01*
X0310629Y0255174D01*
X0310629Y0255791D01*
X0310012Y0256408D01*
X0308778Y0256408D01*
X0308161Y0255791D01*
X0305712Y0256408D02*
X0305712Y0252705D01*
X0306946Y0252705D02*
X0304477Y0252705D01*
X0304477Y0255174D02*
X0305712Y0256408D01*
X0311844Y0256408D02*
X0311844Y0253940D01*
X0313078Y0252705D01*
X0314312Y0253940D01*
X0314312Y0256408D01*
X0307575Y0135070D02*
X0305724Y0135070D01*
X0305724Y0131367D01*
X0307575Y0131367D01*
X0308192Y0131984D01*
X0308192Y0134452D01*
X0307575Y0135070D01*
X0304509Y0135070D02*
X0302041Y0135070D01*
X0302041Y0131367D01*
X0304509Y0131367D01*
X0304400Y0129164D02*
X0303165Y0129164D01*
X0302548Y0128547D01*
X0302548Y0127930D01*
X0303165Y0127313D01*
X0304400Y0127313D01*
X0305017Y0126695D01*
X0305017Y0126078D01*
X0304400Y0125461D01*
X0303165Y0125461D01*
X0302548Y0126078D01*
X0305017Y0128547D02*
X0304400Y0129164D01*
X0306231Y0128547D02*
X0306231Y0126078D01*
X0306849Y0125461D01*
X0308083Y0125461D01*
X0308700Y0126078D01*
X0308700Y0127313D01*
X0307466Y0127313D01*
X0308700Y0128547D02*
X0308083Y0129164D01*
X0306849Y0129164D01*
X0306231Y0128547D01*
X0309915Y0129164D02*
X0312383Y0125461D01*
X0312383Y0129164D01*
X0313598Y0129164D02*
X0313598Y0125461D01*
X0316066Y0125461D01*
X0309915Y0125461D02*
X0309915Y0129164D01*
X0303275Y0133218D02*
X0302041Y0133218D01*
X0300826Y0131367D02*
X0298357Y0131367D01*
X0298357Y0135070D01*
X0297143Y0133218D02*
X0294674Y0133218D01*
X0295909Y0134452D02*
X0295909Y0131984D01*
X0296752Y0121290D02*
X0297987Y0121290D01*
X0298604Y0120673D01*
X0298604Y0120056D01*
X0297987Y0119439D01*
X0298604Y0118821D01*
X0298604Y0118204D01*
X0297987Y0117587D01*
X0296752Y0117587D01*
X0296135Y0118204D01*
X0294921Y0118821D02*
X0294921Y0121290D01*
X0296135Y0120673D02*
X0296752Y0121290D01*
X0297369Y0119439D02*
X0297987Y0119439D01*
X0294921Y0118821D02*
X0293686Y0117587D01*
X0292452Y0118821D01*
X0292452Y0121290D01*
X0291238Y0120673D02*
X0291238Y0120056D01*
X0290620Y0119439D01*
X0291238Y0118821D01*
X0291238Y0118204D01*
X0290620Y0117587D01*
X0289386Y0117587D01*
X0288769Y0118204D01*
X0290003Y0119439D02*
X0290620Y0119439D01*
X0291238Y0120673D02*
X0290620Y0121290D01*
X0289386Y0121290D01*
X0288769Y0120673D01*
X0337981Y0119322D02*
X0337981Y0117470D01*
X0339216Y0118087D01*
X0339833Y0118087D01*
X0340450Y0117470D01*
X0340450Y0116236D01*
X0339833Y0115619D01*
X0338599Y0115619D01*
X0337981Y0116236D01*
X0337981Y0119322D02*
X0340450Y0119322D01*
X0341665Y0119322D02*
X0341665Y0116853D01*
X0342899Y0115619D01*
X0344133Y0116853D01*
X0344133Y0119322D01*
X0344133Y0109479D02*
X0344133Y0105776D01*
X0341665Y0109479D01*
X0341665Y0105776D01*
X0340450Y0106393D02*
X0340450Y0107628D01*
X0339216Y0107628D01*
X0340450Y0108862D02*
X0339833Y0109479D01*
X0338599Y0109479D01*
X0337981Y0108862D01*
X0337981Y0106393D01*
X0338599Y0105776D01*
X0339833Y0105776D01*
X0340450Y0106393D01*
X0345348Y0105776D02*
X0347199Y0105776D01*
X0347816Y0106393D01*
X0347816Y0108862D01*
X0347199Y0109479D01*
X0345348Y0109479D01*
X0345348Y0105776D01*
X0198617Y0092565D02*
X0195481Y0089429D01*
X0198617Y0092565D01*
X0197049Y0092565D02*
X0197049Y0089429D01*
X0197049Y0092565D01*
X0195481Y0092565D02*
X0198617Y0089429D01*
X0195481Y0092565D01*
X0195481Y0090997D02*
X0198617Y0090997D01*
X0195481Y0090997D01*
D13*
X0203843Y0078383D02*
X0206145Y0078383D01*
X0206912Y0077615D01*
X0206912Y0076081D01*
X0206145Y0075313D01*
X0203843Y0075313D01*
X0203843Y0073779D02*
X0203843Y0078383D01*
X0205378Y0075313D02*
X0206912Y0073779D01*
X0208447Y0073779D02*
X0211516Y0073779D01*
X0209982Y0073779D02*
X0209982Y0078383D01*
X0208447Y0076848D01*
X0241768Y0077297D02*
X0246372Y0077297D01*
X0245604Y0074228D02*
X0246372Y0073460D01*
X0246372Y0071926D01*
X0245604Y0071158D01*
X0246372Y0069624D02*
X0244837Y0068089D01*
X0244837Y0068856D02*
X0244837Y0066554D01*
X0246372Y0066554D02*
X0241768Y0066554D01*
X0241768Y0068856D01*
X0242535Y0069624D01*
X0244070Y0069624D01*
X0244837Y0068856D01*
X0243302Y0071158D02*
X0244070Y0071926D01*
X0244070Y0073460D01*
X0244837Y0074228D01*
X0245604Y0074228D01*
X0242535Y0074228D02*
X0241768Y0073460D01*
X0241768Y0071926D01*
X0242535Y0071158D01*
X0243302Y0071158D01*
X0241768Y0075762D02*
X0241768Y0078831D01*
X0269484Y0069174D02*
X0270251Y0069941D01*
X0273321Y0066872D01*
X0274088Y0067639D01*
X0274088Y0069174D01*
X0273321Y0069941D01*
X0270251Y0069941D01*
X0269484Y0069174D02*
X0269484Y0067639D01*
X0270251Y0066872D01*
X0273321Y0066872D01*
X0274088Y0065337D02*
X0274088Y0062268D01*
X0271019Y0065337D01*
X0270251Y0065337D01*
X0269484Y0064570D01*
X0269484Y0063035D01*
X0270251Y0062268D01*
X0270251Y0060733D02*
X0269484Y0059966D01*
X0269484Y0057664D01*
X0274088Y0057664D01*
X0272553Y0057664D02*
X0272553Y0059966D01*
X0271786Y0060733D01*
X0270251Y0060733D01*
X0272553Y0059198D02*
X0274088Y0060733D01*
X0274780Y0027044D02*
X0273246Y0025509D01*
X0271711Y0024742D02*
X0270944Y0023975D01*
X0268642Y0023975D01*
X0270176Y0023975D02*
X0271711Y0022440D01*
X0273246Y0022440D02*
X0276315Y0022440D01*
X0274780Y0022440D02*
X0274780Y0027044D01*
X0271711Y0026277D02*
X0271711Y0024742D01*
X0271711Y0026277D02*
X0270944Y0027044D01*
X0268642Y0027044D01*
X0268642Y0022440D01*
X0277849Y0023207D02*
X0277849Y0023975D01*
X0278617Y0024742D01*
X0280151Y0024742D01*
X0280919Y0023975D01*
X0280919Y0023207D01*
X0280151Y0022440D01*
X0278617Y0022440D01*
X0277849Y0023207D01*
X0278617Y0024742D02*
X0277849Y0025509D01*
X0277849Y0026277D01*
X0278617Y0027044D01*
X0280151Y0027044D01*
X0280919Y0026277D01*
X0280919Y0025509D01*
X0280151Y0024742D01*
X0227875Y0040354D02*
X0224805Y0040354D01*
X0226340Y0040354D02*
X0226340Y0044957D01*
X0224805Y0043423D01*
X0223271Y0044190D02*
X0222503Y0044957D01*
X0220969Y0044957D01*
X0220201Y0044190D01*
X0220201Y0041121D01*
X0220969Y0040354D01*
X0222503Y0040354D01*
X0223271Y0041121D01*
X0200158Y0040354D02*
X0197089Y0040354D01*
X0200158Y0043423D01*
X0200158Y0044190D01*
X0199391Y0044957D01*
X0197856Y0044957D01*
X0197089Y0044190D01*
X0195554Y0044190D02*
X0194787Y0044957D01*
X0193252Y0044957D01*
X0192485Y0044190D01*
X0192485Y0041121D01*
X0193252Y0040354D01*
X0194787Y0040354D01*
X0195554Y0041121D01*
X0169442Y0037340D02*
X0169442Y0034270D01*
X0168675Y0033503D01*
X0166373Y0033503D01*
X0166373Y0038107D01*
X0168675Y0038107D01*
X0169442Y0037340D01*
X0164838Y0038107D02*
X0161769Y0038107D01*
X0161769Y0033503D01*
X0164838Y0033503D01*
X0163304Y0035805D02*
X0161769Y0035805D01*
X0160234Y0035805D02*
X0159467Y0035038D01*
X0157165Y0035038D01*
X0157165Y0033503D02*
X0157165Y0038107D01*
X0159467Y0038107D01*
X0160234Y0037340D01*
X0160234Y0035805D01*
X0158700Y0035038D02*
X0160234Y0033503D01*
X0145978Y0033464D02*
X0145978Y0038068D01*
X0142909Y0038068D02*
X0142909Y0033464D01*
X0144443Y0034998D01*
X0145978Y0033464D01*
X0141374Y0033464D02*
X0138305Y0033464D01*
X0138305Y0038068D01*
X0136770Y0038068D02*
X0136770Y0037300D01*
X0135235Y0035766D01*
X0135235Y0033464D01*
X0135235Y0035766D02*
X0133701Y0037300D01*
X0133701Y0038068D01*
X0122316Y0038028D02*
X0122316Y0033424D01*
X0119247Y0038028D01*
X0119247Y0033424D01*
X0117712Y0033424D02*
X0116178Y0034959D01*
X0116945Y0034959D02*
X0114643Y0034959D01*
X0114643Y0033424D02*
X0114643Y0038028D01*
X0116945Y0038028D01*
X0117712Y0037261D01*
X0117712Y0035726D01*
X0116945Y0034959D01*
X0113109Y0034192D02*
X0112341Y0033424D01*
X0110807Y0033424D01*
X0110039Y0034192D01*
X0110039Y0037261D01*
X0110807Y0038028D01*
X0112341Y0038028D01*
X0113109Y0037261D01*
X0113109Y0035726D02*
X0111574Y0035726D01*
X0113109Y0035726D02*
X0113109Y0034192D01*
X0112954Y0010705D02*
X0110652Y0008404D01*
X0113721Y0008404D01*
X0112954Y0010705D02*
X0112954Y0006102D01*
X0109117Y0006102D02*
X0107583Y0007636D01*
X0108350Y0007636D02*
X0106048Y0007636D01*
X0106048Y0006102D02*
X0106048Y0010705D01*
X0108350Y0010705D01*
X0109117Y0009938D01*
X0109117Y0008404D01*
X0108350Y0007636D01*
X0129827Y0007479D02*
X0132129Y0007479D01*
X0132897Y0008246D01*
X0132897Y0009781D01*
X0132129Y0010548D01*
X0129827Y0010548D01*
X0129827Y0005944D01*
X0131362Y0007479D02*
X0132897Y0005944D01*
X0134431Y0006711D02*
X0135199Y0005944D01*
X0136733Y0005944D01*
X0137501Y0006711D01*
X0137501Y0007479D01*
X0136733Y0008246D01*
X0134431Y0008246D01*
X0134431Y0006711D01*
X0134431Y0008246D02*
X0135966Y0009781D01*
X0137501Y0010548D01*
X0153174Y0010587D02*
X0153174Y0005983D01*
X0153174Y0007518D02*
X0155476Y0007518D01*
X0156243Y0008285D01*
X0156243Y0009820D01*
X0155476Y0010587D01*
X0153174Y0010587D01*
X0154709Y0007518D02*
X0156243Y0005983D01*
X0157778Y0006751D02*
X0158545Y0005983D01*
X0160080Y0005983D01*
X0160847Y0006751D01*
X0160847Y0008285D01*
X0160080Y0009053D01*
X0159312Y0009053D01*
X0157778Y0008285D01*
X0157778Y0010587D01*
X0160847Y0010587D01*
X0126726Y0061830D02*
X0122122Y0061830D01*
X0122122Y0064132D01*
X0122889Y0064899D01*
X0124424Y0064899D01*
X0125191Y0064132D01*
X0125191Y0061830D01*
X0125191Y0063365D02*
X0126726Y0064899D01*
X0126726Y0066434D02*
X0126726Y0069503D01*
X0126726Y0067968D02*
X0122122Y0067968D01*
X0123657Y0066434D01*
X0124424Y0071038D02*
X0122889Y0072572D01*
X0122122Y0074107D01*
X0124424Y0073340D02*
X0124424Y0071038D01*
X0125959Y0071038D01*
X0126726Y0071805D01*
X0126726Y0073340D01*
X0125959Y0074107D01*
X0125191Y0074107D01*
X0124424Y0073340D01*
X0124955Y0086436D02*
X0124955Y0088738D01*
X0124188Y0089505D01*
X0122653Y0089505D01*
X0121886Y0088738D01*
X0121886Y0086436D01*
X0126490Y0086436D01*
X0124955Y0087971D02*
X0126490Y0089505D01*
X0126490Y0091040D02*
X0126490Y0094109D01*
X0126490Y0092575D02*
X0121886Y0092575D01*
X0123420Y0091040D01*
X0124188Y0095644D02*
X0121886Y0095644D01*
X0121886Y0098713D01*
X0123420Y0097946D02*
X0124188Y0098713D01*
X0125722Y0098713D01*
X0126490Y0097946D01*
X0126490Y0096411D01*
X0125722Y0095644D01*
X0124188Y0095644D02*
X0123420Y0097179D01*
X0123420Y0097946D01*
X0124837Y0106436D02*
X0124837Y0108738D01*
X0124070Y0109505D01*
X0122535Y0109505D01*
X0121768Y0108738D01*
X0121768Y0106436D01*
X0126372Y0106436D01*
X0124837Y0107971D02*
X0126372Y0109505D01*
X0126372Y0111040D02*
X0126372Y0114109D01*
X0126372Y0112575D02*
X0121768Y0112575D01*
X0123302Y0111040D01*
X0124070Y0115644D02*
X0124070Y0118713D01*
X0126372Y0117946D02*
X0121768Y0117946D01*
X0124070Y0115644D01*
X0090943Y0101014D02*
X0089742Y0099813D01*
X0089742Y0100413D02*
X0089742Y0098612D01*
X0090943Y0098612D02*
X0087340Y0098612D01*
X0087340Y0100413D01*
X0087940Y0101014D01*
X0089141Y0101014D01*
X0089742Y0100413D01*
X0087340Y0097331D02*
X0087340Y0094929D01*
X0087340Y0096130D02*
X0090943Y0096130D01*
X0090943Y0093647D02*
X0087340Y0093647D01*
X0088541Y0092446D01*
X0087340Y0091245D01*
X0090943Y0091245D01*
X0090943Y0089964D02*
X0089742Y0088763D01*
X0089742Y0089364D02*
X0089742Y0087562D01*
X0090943Y0087562D02*
X0087340Y0087562D01*
X0087340Y0089364D01*
X0087940Y0089964D01*
X0089141Y0089964D01*
X0089742Y0089364D01*
X0090943Y0086281D02*
X0090943Y0083879D01*
X0087340Y0083879D01*
X0087340Y0086281D01*
X0089141Y0085080D02*
X0089141Y0083879D01*
X0089141Y0082598D02*
X0089742Y0081998D01*
X0089742Y0080196D01*
X0090943Y0080196D02*
X0087340Y0080196D01*
X0087340Y0081998D01*
X0087940Y0082598D01*
X0089141Y0082598D01*
X0089141Y0078915D02*
X0089742Y0078314D01*
X0089742Y0076513D01*
X0090943Y0076513D02*
X0087340Y0076513D01*
X0087340Y0078314D01*
X0087940Y0078915D01*
X0089141Y0078915D01*
X0087340Y0075232D02*
X0087340Y0072830D01*
X0090943Y0072830D01*
X0090943Y0075232D01*
X0089141Y0074031D02*
X0089141Y0072830D01*
X0087340Y0071549D02*
X0087340Y0069147D01*
X0087340Y0070348D02*
X0090943Y0070348D01*
X0090342Y0067865D02*
X0090943Y0067265D01*
X0090943Y0066064D01*
X0090342Y0065463D01*
X0089141Y0066064D02*
X0089141Y0067265D01*
X0089742Y0067865D01*
X0090342Y0067865D01*
X0089141Y0066064D02*
X0088541Y0065463D01*
X0087940Y0065463D01*
X0087340Y0066064D01*
X0087340Y0067265D01*
X0087940Y0067865D01*
X0168579Y0104546D02*
X0168579Y0106848D01*
X0169346Y0107616D01*
X0170881Y0107616D01*
X0171648Y0106848D01*
X0171648Y0104546D01*
X0173183Y0104546D02*
X0168579Y0104546D01*
X0171648Y0106081D02*
X0173183Y0107616D01*
X0173183Y0109150D02*
X0173183Y0112220D01*
X0173183Y0110685D02*
X0168579Y0110685D01*
X0170113Y0109150D01*
X0170113Y0113754D02*
X0170881Y0114522D01*
X0170881Y0116824D01*
X0172415Y0116824D02*
X0169346Y0116824D01*
X0168579Y0116056D01*
X0168579Y0114522D01*
X0169346Y0113754D01*
X0170113Y0113754D01*
X0172415Y0113754D02*
X0173183Y0114522D01*
X0173183Y0116056D01*
X0172415Y0116824D01*
X0199012Y0146672D02*
X0199012Y0148974D01*
X0199779Y0149742D01*
X0201314Y0149742D01*
X0202081Y0148974D01*
X0202081Y0146672D01*
X0203616Y0146672D02*
X0199012Y0146672D01*
X0202081Y0148207D02*
X0203616Y0149742D01*
X0203616Y0151276D02*
X0200546Y0154346D01*
X0199779Y0154346D01*
X0199012Y0153578D01*
X0199012Y0152044D01*
X0199779Y0151276D01*
X0203616Y0151276D02*
X0203616Y0154346D01*
X0205557Y0168090D02*
X0205557Y0169624D01*
X0205557Y0168857D02*
X0200953Y0168857D01*
X0200953Y0168090D02*
X0200953Y0169624D01*
X0201720Y0171159D02*
X0204789Y0171159D01*
X0205557Y0171926D01*
X0205557Y0173461D01*
X0204789Y0174228D01*
X0205557Y0175763D02*
X0205557Y0178832D01*
X0205557Y0177298D02*
X0200953Y0177298D01*
X0202487Y0175763D01*
X0201720Y0174228D02*
X0200953Y0173461D01*
X0200953Y0171926D01*
X0201720Y0171159D01*
X0213917Y0201692D02*
X0213917Y0206296D01*
X0216219Y0206296D01*
X0216986Y0205529D01*
X0216986Y0203994D01*
X0216219Y0203227D01*
X0213917Y0203227D01*
X0215452Y0203227D02*
X0216986Y0201692D01*
X0218521Y0201692D02*
X0221590Y0201692D01*
X0220056Y0201692D02*
X0220056Y0206296D01*
X0218521Y0204761D01*
X0223125Y0205529D02*
X0223125Y0202459D01*
X0226194Y0205529D01*
X0226194Y0202459D01*
X0225427Y0201692D01*
X0223892Y0201692D01*
X0223125Y0202459D01*
X0223125Y0205529D02*
X0223892Y0206296D01*
X0225427Y0206296D01*
X0226194Y0205529D01*
X0288678Y0196476D02*
X0288678Y0195275D01*
X0289279Y0194675D01*
X0289279Y0193394D02*
X0290480Y0193394D01*
X0291080Y0192793D01*
X0291080Y0190992D01*
X0291080Y0192193D02*
X0292281Y0193394D01*
X0292281Y0194675D02*
X0289879Y0197077D01*
X0289279Y0197077D01*
X0288678Y0196476D01*
X0289279Y0193394D02*
X0288678Y0192793D01*
X0288678Y0190992D01*
X0292281Y0190992D01*
X0292281Y0189710D02*
X0288678Y0189710D01*
X0288678Y0187308D02*
X0292281Y0189710D01*
X0292281Y0187308D02*
X0288678Y0187308D01*
X0289279Y0186027D02*
X0288678Y0185427D01*
X0288678Y0184226D01*
X0289279Y0183625D01*
X0289879Y0183625D01*
X0290480Y0184226D01*
X0290480Y0185427D01*
X0291080Y0186027D01*
X0291681Y0186027D01*
X0292281Y0185427D01*
X0292281Y0184226D01*
X0291681Y0183625D01*
X0290480Y0182344D02*
X0291080Y0181744D01*
X0291080Y0179942D01*
X0292281Y0179942D02*
X0288678Y0179942D01*
X0288678Y0181744D01*
X0289279Y0182344D01*
X0290480Y0182344D01*
X0290480Y0178661D02*
X0290480Y0176259D01*
X0289879Y0176259D02*
X0288678Y0177460D01*
X0289879Y0178661D01*
X0292281Y0178661D01*
X0292281Y0176259D02*
X0289879Y0176259D01*
X0289279Y0174978D02*
X0288678Y0174377D01*
X0288678Y0173176D01*
X0289279Y0172576D01*
X0291681Y0172576D01*
X0292281Y0173176D01*
X0292281Y0174377D01*
X0291681Y0174978D01*
X0290480Y0174978D01*
X0290480Y0173777D01*
X0299193Y0173107D02*
X0299193Y0168503D01*
X0299193Y0170038D02*
X0301495Y0170038D01*
X0302262Y0170805D01*
X0302262Y0172340D01*
X0301495Y0173107D01*
X0299193Y0173107D01*
X0300727Y0170038D02*
X0302262Y0168503D01*
X0303797Y0168503D02*
X0306866Y0168503D01*
X0308401Y0168503D02*
X0311470Y0168503D01*
X0311925Y0168602D02*
X0311925Y0170904D01*
X0312692Y0171671D01*
X0314227Y0171671D01*
X0314994Y0170904D01*
X0314994Y0168602D01*
X0314994Y0170136D02*
X0316529Y0171671D01*
X0316529Y0173205D02*
X0315762Y0173205D01*
X0312692Y0176275D01*
X0311925Y0176275D01*
X0311925Y0173205D01*
X0309935Y0173107D02*
X0309935Y0168503D01*
X0311925Y0168602D02*
X0316529Y0168602D01*
X0312496Y0162020D02*
X0315565Y0158951D01*
X0316332Y0158951D01*
X0316332Y0157417D02*
X0316332Y0154347D01*
X0316332Y0152813D02*
X0314798Y0151278D01*
X0314798Y0152045D02*
X0314798Y0149743D01*
X0316332Y0149743D02*
X0311728Y0149743D01*
X0311728Y0152045D01*
X0312496Y0152813D01*
X0314030Y0152813D01*
X0314798Y0152045D01*
X0313263Y0154347D02*
X0311728Y0155882D01*
X0316332Y0155882D01*
X0311728Y0158951D02*
X0311728Y0162020D01*
X0312496Y0162020D01*
X0305331Y0168503D02*
X0305331Y0173107D01*
X0303797Y0171572D01*
X0308401Y0171572D02*
X0309935Y0173107D01*
X0327480Y0168283D02*
X0327480Y0165881D01*
X0328681Y0164680D01*
X0329882Y0165881D01*
X0329882Y0168283D01*
X0331163Y0168283D02*
X0332965Y0168283D01*
X0333565Y0167682D01*
X0333565Y0167082D01*
X0332965Y0166481D01*
X0331163Y0166481D01*
X0331163Y0164680D02*
X0331163Y0168283D01*
X0332965Y0166481D02*
X0333565Y0165881D01*
X0333565Y0165280D01*
X0332965Y0164680D01*
X0331163Y0164680D01*
X0334846Y0164680D02*
X0334846Y0168283D01*
X0336648Y0168283D01*
X0337248Y0167682D01*
X0337248Y0166481D01*
X0336648Y0165881D01*
X0334846Y0165881D01*
X0336047Y0165881D02*
X0337248Y0164680D01*
X0338530Y0164680D02*
X0338530Y0168283D01*
X0339731Y0167082D01*
X0340932Y0168283D01*
X0340932Y0164680D01*
X0343414Y0164680D02*
X0343414Y0168283D01*
X0342213Y0168283D02*
X0344615Y0168283D01*
X0345896Y0168283D02*
X0345896Y0164680D01*
X0345896Y0165881D02*
X0347697Y0165881D01*
X0348298Y0166481D01*
X0348298Y0167682D01*
X0347697Y0168283D01*
X0345896Y0168283D01*
X0347097Y0165881D02*
X0348298Y0164680D01*
X0348517Y0158366D02*
X0348517Y0155297D01*
X0348517Y0156831D02*
X0343913Y0156831D01*
X0345448Y0155297D01*
X0344032Y0154397D02*
X0340963Y0154397D01*
X0342497Y0154397D02*
X0342497Y0159001D01*
X0340963Y0157466D01*
X0339428Y0158233D02*
X0338661Y0159001D01*
X0336359Y0159001D01*
X0336359Y0154397D01*
X0338661Y0154397D01*
X0339428Y0155164D01*
X0339428Y0158233D01*
X0343913Y0153762D02*
X0343913Y0150693D01*
X0343913Y0152228D02*
X0348517Y0152228D01*
X0306512Y0151395D02*
X0306512Y0148326D01*
X0305744Y0147558D01*
X0304210Y0147558D01*
X0303442Y0148326D01*
X0304210Y0149860D02*
X0306512Y0149860D01*
X0306512Y0151395D02*
X0305744Y0152162D01*
X0304210Y0152162D01*
X0303442Y0151395D01*
X0303442Y0150628D01*
X0304210Y0149860D01*
X0301908Y0149860D02*
X0301140Y0149093D01*
X0298838Y0149093D01*
X0298838Y0147558D02*
X0298838Y0152162D01*
X0301140Y0152162D01*
X0301908Y0151395D01*
X0301908Y0149860D01*
X0300373Y0149093D02*
X0301908Y0147558D01*
X0291927Y0146447D02*
X0291927Y0144045D01*
X0291927Y0145246D02*
X0288324Y0145246D01*
X0289525Y0144045D01*
X0288924Y0142764D02*
X0290125Y0142764D01*
X0290726Y0142163D01*
X0290726Y0140362D01*
X0290726Y0141563D02*
X0291927Y0142764D01*
X0291927Y0140362D02*
X0288324Y0140362D01*
X0288324Y0142163D01*
X0288924Y0142764D01*
X0288324Y0139081D02*
X0291927Y0139081D01*
X0288324Y0136679D01*
X0291927Y0136679D01*
X0291327Y0135397D02*
X0291927Y0134797D01*
X0291927Y0133596D01*
X0291327Y0132995D01*
X0290125Y0133596D02*
X0290125Y0134797D01*
X0290726Y0135397D01*
X0291327Y0135397D01*
X0290125Y0133596D02*
X0289525Y0132995D01*
X0288924Y0132995D01*
X0288324Y0133596D01*
X0288324Y0134797D01*
X0288924Y0135397D01*
X0288924Y0131714D02*
X0290125Y0131714D01*
X0290726Y0131114D01*
X0290726Y0129312D01*
X0291927Y0129312D02*
X0288324Y0129312D01*
X0288324Y0131114D01*
X0288924Y0131714D01*
X0289525Y0128031D02*
X0291927Y0128031D01*
X0290125Y0128031D02*
X0290125Y0125629D01*
X0289525Y0125629D02*
X0291927Y0125629D01*
X0291327Y0124348D02*
X0290125Y0124348D01*
X0290125Y0123147D01*
X0288924Y0124348D02*
X0288324Y0123747D01*
X0288324Y0122546D01*
X0288924Y0121946D01*
X0291327Y0121946D01*
X0291927Y0122546D01*
X0291927Y0123747D01*
X0291327Y0124348D01*
X0289525Y0125629D02*
X0288324Y0126830D01*
X0289525Y0128031D01*
X0298760Y0122517D02*
X0298760Y0117913D01*
X0298760Y0119447D02*
X0301062Y0119447D01*
X0301829Y0120215D01*
X0301829Y0121749D01*
X0301062Y0122517D01*
X0298760Y0122517D01*
X0300294Y0119447D02*
X0301829Y0117913D01*
X0303364Y0118680D02*
X0303364Y0119447D01*
X0304131Y0120215D01*
X0305666Y0120215D01*
X0306433Y0119447D01*
X0306433Y0118680D01*
X0305666Y0117913D01*
X0304131Y0117913D01*
X0303364Y0118680D01*
X0304131Y0120215D02*
X0303364Y0120982D01*
X0303364Y0121749D01*
X0304131Y0122517D01*
X0305666Y0122517D01*
X0306433Y0121749D01*
X0306433Y0120982D01*
X0305666Y0120215D01*
X0222894Y0135767D02*
X0222127Y0134999D01*
X0220592Y0134999D01*
X0219825Y0135767D01*
X0218290Y0134999D02*
X0216756Y0136534D01*
X0217523Y0136534D02*
X0215221Y0136534D01*
X0215221Y0134999D02*
X0215221Y0139603D01*
X0217523Y0139603D01*
X0218290Y0138836D01*
X0218290Y0137301D01*
X0217523Y0136534D01*
X0219825Y0138836D02*
X0220592Y0139603D01*
X0222127Y0139603D01*
X0222894Y0138836D01*
X0222894Y0138068D01*
X0222127Y0137301D01*
X0222894Y0136534D01*
X0222894Y0135767D01*
X0222127Y0137301D02*
X0221360Y0137301D01*
X0144738Y0152466D02*
X0144738Y0153667D01*
X0143537Y0153667D01*
X0142336Y0152466D02*
X0142937Y0151866D01*
X0144138Y0151866D01*
X0144738Y0152466D01*
X0142336Y0152466D02*
X0142336Y0154868D01*
X0142937Y0155469D01*
X0144138Y0155469D01*
X0144738Y0154868D01*
X0141055Y0154868D02*
X0141055Y0152466D01*
X0140455Y0151866D01*
X0139254Y0151866D01*
X0138653Y0152466D01*
X0138653Y0154868D01*
X0139254Y0155469D01*
X0140455Y0155469D01*
X0141055Y0154868D01*
X0137372Y0154868D02*
X0137372Y0153667D01*
X0136772Y0153067D01*
X0134970Y0153067D01*
X0136171Y0153067D02*
X0137372Y0151866D01*
X0134970Y0151866D02*
X0134970Y0155469D01*
X0136772Y0155469D01*
X0137372Y0154868D01*
X0133689Y0154868D02*
X0133689Y0153667D01*
X0133088Y0153067D01*
X0131287Y0153067D01*
X0131287Y0151866D02*
X0131287Y0155469D01*
X0133088Y0155469D01*
X0133689Y0154868D01*
X0119907Y0199920D02*
X0116303Y0199920D01*
X0116303Y0201722D01*
X0116904Y0202322D01*
X0118105Y0202322D01*
X0118706Y0201722D01*
X0118706Y0199920D01*
X0119907Y0203603D02*
X0118706Y0204804D01*
X0119907Y0206005D01*
X0116303Y0206005D01*
X0116303Y0207286D02*
X0116303Y0209088D01*
X0116904Y0209688D01*
X0118105Y0209688D01*
X0118706Y0209088D01*
X0118706Y0207286D01*
X0119907Y0207286D02*
X0116303Y0207286D01*
X0118706Y0208487D02*
X0119907Y0209688D01*
X0118105Y0210970D02*
X0118105Y0213372D01*
X0116904Y0212171D02*
X0119306Y0212171D01*
X0119306Y0214653D02*
X0119907Y0215253D01*
X0119907Y0216454D01*
X0119306Y0217055D01*
X0119306Y0218336D02*
X0116904Y0218336D01*
X0116303Y0218936D01*
X0116303Y0220137D01*
X0116904Y0220738D01*
X0119306Y0220738D01*
X0119907Y0220137D01*
X0119907Y0218936D01*
X0119306Y0218336D01*
X0116904Y0217055D02*
X0116303Y0216454D01*
X0116303Y0215253D01*
X0116904Y0214653D01*
X0119306Y0214653D01*
X0119907Y0222019D02*
X0116303Y0222019D01*
X0117505Y0223220D01*
X0116303Y0224421D01*
X0119907Y0224421D01*
X0119907Y0225702D02*
X0119907Y0228104D01*
X0119907Y0226903D02*
X0116303Y0226903D01*
X0117505Y0225702D01*
X0116303Y0203603D02*
X0119907Y0203603D01*
X0292281Y0197077D02*
X0292281Y0194675D01*
X0299232Y0198543D02*
X0299232Y0203146D01*
X0301534Y0203146D01*
X0302301Y0202379D01*
X0302301Y0200844D01*
X0301534Y0200077D01*
X0299232Y0200077D01*
X0300767Y0200077D02*
X0302301Y0198543D01*
X0303836Y0198543D02*
X0306905Y0198543D01*
X0305371Y0198543D02*
X0305371Y0203146D01*
X0303836Y0201612D01*
X0308440Y0202379D02*
X0309207Y0203146D01*
X0310742Y0203146D01*
X0311509Y0202379D01*
X0311509Y0201612D01*
X0308440Y0198543D01*
X0311509Y0198543D01*
X0316540Y0231243D02*
X0316540Y0233045D01*
X0317141Y0233645D01*
X0318342Y0233645D01*
X0318943Y0233045D01*
X0318943Y0231243D01*
X0320144Y0231243D02*
X0316540Y0231243D01*
X0316540Y0234926D02*
X0320144Y0234926D01*
X0318943Y0236127D01*
X0320144Y0237328D01*
X0316540Y0237328D01*
X0316540Y0238609D02*
X0316540Y0240411D01*
X0317141Y0241011D01*
X0318342Y0241011D01*
X0318943Y0240411D01*
X0318943Y0238609D01*
X0320144Y0238609D02*
X0316540Y0238609D01*
X0318943Y0239810D02*
X0320144Y0241011D01*
X0318342Y0242293D02*
X0318342Y0244695D01*
X0317141Y0243494D02*
X0319543Y0243494D01*
X0319543Y0245976D02*
X0317141Y0245976D01*
X0316540Y0246576D01*
X0316540Y0247777D01*
X0317141Y0248378D01*
X0317141Y0249659D02*
X0319543Y0249659D01*
X0320144Y0250259D01*
X0320144Y0251460D01*
X0319543Y0252061D01*
X0317141Y0252061D01*
X0316540Y0251460D01*
X0316540Y0250259D01*
X0317141Y0249659D01*
X0319543Y0248378D02*
X0320144Y0247777D01*
X0320144Y0246576D01*
X0319543Y0245976D01*
X0320144Y0253342D02*
X0316540Y0253342D01*
X0317742Y0254543D01*
X0316540Y0255744D01*
X0320144Y0255744D01*
X0320144Y0257025D02*
X0317742Y0259427D01*
X0317141Y0259427D01*
X0316540Y0258827D01*
X0316540Y0257626D01*
X0317141Y0257025D01*
X0320144Y0257025D02*
X0320144Y0259427D01*
D14*
X0225705Y0182870D02*
X0225705Y0169878D01*
X0206808Y0169878D01*
X0206808Y0182870D01*
X0206808Y0169878D02*
X0206808Y0167909D01*
X0225705Y0167909D02*
X0225705Y0169878D01*
X0182451Y0120417D02*
X0182451Y0115480D01*
X0182451Y0117948D02*
X0175045Y0117948D01*
X0177513Y0115480D01*
X0176279Y0112867D02*
X0175045Y0111632D01*
X0175045Y0109164D01*
X0176279Y0107929D01*
X0177513Y0107929D01*
X0178748Y0109164D01*
X0178748Y0111632D01*
X0179982Y0112867D01*
X0181217Y0112867D01*
X0182451Y0111632D01*
X0182451Y0109164D01*
X0181217Y0107929D01*
X0181217Y0105316D02*
X0175045Y0105316D01*
X0173810Y0110398D02*
X0183685Y0110398D01*
X0181217Y0105316D02*
X0182451Y0104082D01*
X0182451Y0101613D01*
X0181217Y0100379D01*
X0175045Y0100379D01*
X0202910Y0027437D02*
X0202912Y0027601D01*
X0202918Y0027765D01*
X0202928Y0027929D01*
X0202942Y0028093D01*
X0202960Y0028256D01*
X0202982Y0028419D01*
X0203009Y0028581D01*
X0203039Y0028743D01*
X0203073Y0028903D01*
X0203111Y0029063D01*
X0203152Y0029222D01*
X0203198Y0029380D01*
X0203248Y0029536D01*
X0203301Y0029692D01*
X0203358Y0029846D01*
X0203419Y0029998D01*
X0203484Y0030149D01*
X0203553Y0030299D01*
X0203625Y0030446D01*
X0203700Y0030592D01*
X0203780Y0030736D01*
X0203862Y0030878D01*
X0203948Y0031018D01*
X0204038Y0031155D01*
X0204131Y0031291D01*
X0204227Y0031424D01*
X0204327Y0031555D01*
X0204429Y0031683D01*
X0204535Y0031809D01*
X0204644Y0031932D01*
X0204756Y0032052D01*
X0204870Y0032170D01*
X0204988Y0032284D01*
X0205108Y0032396D01*
X0205231Y0032505D01*
X0205357Y0032611D01*
X0205485Y0032713D01*
X0205616Y0032813D01*
X0205749Y0032909D01*
X0205885Y0033002D01*
X0206022Y0033092D01*
X0206162Y0033178D01*
X0206304Y0033260D01*
X0206448Y0033340D01*
X0206594Y0033415D01*
X0206741Y0033487D01*
X0206891Y0033556D01*
X0207042Y0033621D01*
X0207194Y0033682D01*
X0207348Y0033739D01*
X0207504Y0033792D01*
X0207660Y0033842D01*
X0207818Y0033888D01*
X0207977Y0033929D01*
X0208137Y0033967D01*
X0208297Y0034001D01*
X0208459Y0034031D01*
X0208621Y0034058D01*
X0208784Y0034080D01*
X0208947Y0034098D01*
X0209111Y0034112D01*
X0209275Y0034122D01*
X0209439Y0034128D01*
X0209603Y0034130D01*
X0209767Y0034128D01*
X0209931Y0034122D01*
X0210095Y0034112D01*
X0210259Y0034098D01*
X0210422Y0034080D01*
X0210585Y0034058D01*
X0210747Y0034031D01*
X0210909Y0034001D01*
X0211069Y0033967D01*
X0211229Y0033929D01*
X0211388Y0033888D01*
X0211546Y0033842D01*
X0211702Y0033792D01*
X0211858Y0033739D01*
X0212012Y0033682D01*
X0212164Y0033621D01*
X0212315Y0033556D01*
X0212465Y0033487D01*
X0212612Y0033415D01*
X0212758Y0033340D01*
X0212902Y0033260D01*
X0213044Y0033178D01*
X0213184Y0033092D01*
X0213321Y0033002D01*
X0213457Y0032909D01*
X0213590Y0032813D01*
X0213721Y0032713D01*
X0213849Y0032611D01*
X0213975Y0032505D01*
X0214098Y0032396D01*
X0214218Y0032284D01*
X0214336Y0032170D01*
X0214450Y0032052D01*
X0214562Y0031932D01*
X0214671Y0031809D01*
X0214777Y0031683D01*
X0214879Y0031555D01*
X0214979Y0031424D01*
X0215075Y0031291D01*
X0215168Y0031155D01*
X0215258Y0031018D01*
X0215344Y0030878D01*
X0215426Y0030736D01*
X0215506Y0030592D01*
X0215581Y0030446D01*
X0215653Y0030299D01*
X0215722Y0030149D01*
X0215787Y0029998D01*
X0215848Y0029846D01*
X0215905Y0029692D01*
X0215958Y0029536D01*
X0216008Y0029380D01*
X0216054Y0029222D01*
X0216095Y0029063D01*
X0216133Y0028903D01*
X0216167Y0028743D01*
X0216197Y0028581D01*
X0216224Y0028419D01*
X0216246Y0028256D01*
X0216264Y0028093D01*
X0216278Y0027929D01*
X0216288Y0027765D01*
X0216294Y0027601D01*
X0216296Y0027437D01*
X0216294Y0027273D01*
X0216288Y0027109D01*
X0216278Y0026945D01*
X0216264Y0026781D01*
X0216246Y0026618D01*
X0216224Y0026455D01*
X0216197Y0026293D01*
X0216167Y0026131D01*
X0216133Y0025971D01*
X0216095Y0025811D01*
X0216054Y0025652D01*
X0216008Y0025494D01*
X0215958Y0025338D01*
X0215905Y0025182D01*
X0215848Y0025028D01*
X0215787Y0024876D01*
X0215722Y0024725D01*
X0215653Y0024575D01*
X0215581Y0024428D01*
X0215506Y0024282D01*
X0215426Y0024138D01*
X0215344Y0023996D01*
X0215258Y0023856D01*
X0215168Y0023719D01*
X0215075Y0023583D01*
X0214979Y0023450D01*
X0214879Y0023319D01*
X0214777Y0023191D01*
X0214671Y0023065D01*
X0214562Y0022942D01*
X0214450Y0022822D01*
X0214336Y0022704D01*
X0214218Y0022590D01*
X0214098Y0022478D01*
X0213975Y0022369D01*
X0213849Y0022263D01*
X0213721Y0022161D01*
X0213590Y0022061D01*
X0213457Y0021965D01*
X0213321Y0021872D01*
X0213184Y0021782D01*
X0213044Y0021696D01*
X0212902Y0021614D01*
X0212758Y0021534D01*
X0212612Y0021459D01*
X0212465Y0021387D01*
X0212315Y0021318D01*
X0212164Y0021253D01*
X0212012Y0021192D01*
X0211858Y0021135D01*
X0211702Y0021082D01*
X0211546Y0021032D01*
X0211388Y0020986D01*
X0211229Y0020945D01*
X0211069Y0020907D01*
X0210909Y0020873D01*
X0210747Y0020843D01*
X0210585Y0020816D01*
X0210422Y0020794D01*
X0210259Y0020776D01*
X0210095Y0020762D01*
X0209931Y0020752D01*
X0209767Y0020746D01*
X0209603Y0020744D01*
X0209439Y0020746D01*
X0209275Y0020752D01*
X0209111Y0020762D01*
X0208947Y0020776D01*
X0208784Y0020794D01*
X0208621Y0020816D01*
X0208459Y0020843D01*
X0208297Y0020873D01*
X0208137Y0020907D01*
X0207977Y0020945D01*
X0207818Y0020986D01*
X0207660Y0021032D01*
X0207504Y0021082D01*
X0207348Y0021135D01*
X0207194Y0021192D01*
X0207042Y0021253D01*
X0206891Y0021318D01*
X0206741Y0021387D01*
X0206594Y0021459D01*
X0206448Y0021534D01*
X0206304Y0021614D01*
X0206162Y0021696D01*
X0206022Y0021782D01*
X0205885Y0021872D01*
X0205749Y0021965D01*
X0205616Y0022061D01*
X0205485Y0022161D01*
X0205357Y0022263D01*
X0205231Y0022369D01*
X0205108Y0022478D01*
X0204988Y0022590D01*
X0204870Y0022704D01*
X0204756Y0022822D01*
X0204644Y0022942D01*
X0204535Y0023065D01*
X0204429Y0023191D01*
X0204327Y0023319D01*
X0204227Y0023450D01*
X0204131Y0023583D01*
X0204038Y0023719D01*
X0203948Y0023856D01*
X0203862Y0023996D01*
X0203780Y0024138D01*
X0203700Y0024282D01*
X0203625Y0024428D01*
X0203553Y0024575D01*
X0203484Y0024725D01*
X0203419Y0024876D01*
X0203358Y0025028D01*
X0203301Y0025182D01*
X0203248Y0025338D01*
X0203198Y0025494D01*
X0203152Y0025652D01*
X0203111Y0025811D01*
X0203073Y0025971D01*
X0203039Y0026131D01*
X0203009Y0026293D01*
X0202982Y0026455D01*
X0202960Y0026618D01*
X0202942Y0026781D01*
X0202928Y0026945D01*
X0202918Y0027109D01*
X0202912Y0027273D01*
X0202910Y0027437D01*
X0356414Y0122949D02*
X0356416Y0123113D01*
X0356422Y0123277D01*
X0356432Y0123441D01*
X0356446Y0123605D01*
X0356464Y0123768D01*
X0356486Y0123931D01*
X0356513Y0124093D01*
X0356543Y0124255D01*
X0356577Y0124415D01*
X0356615Y0124575D01*
X0356656Y0124734D01*
X0356702Y0124892D01*
X0356752Y0125048D01*
X0356805Y0125204D01*
X0356862Y0125358D01*
X0356923Y0125510D01*
X0356988Y0125661D01*
X0357057Y0125811D01*
X0357129Y0125958D01*
X0357204Y0126104D01*
X0357284Y0126248D01*
X0357366Y0126390D01*
X0357452Y0126530D01*
X0357542Y0126667D01*
X0357635Y0126803D01*
X0357731Y0126936D01*
X0357831Y0127067D01*
X0357933Y0127195D01*
X0358039Y0127321D01*
X0358148Y0127444D01*
X0358260Y0127564D01*
X0358374Y0127682D01*
X0358492Y0127796D01*
X0358612Y0127908D01*
X0358735Y0128017D01*
X0358861Y0128123D01*
X0358989Y0128225D01*
X0359120Y0128325D01*
X0359253Y0128421D01*
X0359389Y0128514D01*
X0359526Y0128604D01*
X0359666Y0128690D01*
X0359808Y0128772D01*
X0359952Y0128852D01*
X0360098Y0128927D01*
X0360245Y0128999D01*
X0360395Y0129068D01*
X0360546Y0129133D01*
X0360698Y0129194D01*
X0360852Y0129251D01*
X0361008Y0129304D01*
X0361164Y0129354D01*
X0361322Y0129400D01*
X0361481Y0129441D01*
X0361641Y0129479D01*
X0361801Y0129513D01*
X0361963Y0129543D01*
X0362125Y0129570D01*
X0362288Y0129592D01*
X0362451Y0129610D01*
X0362615Y0129624D01*
X0362779Y0129634D01*
X0362943Y0129640D01*
X0363107Y0129642D01*
X0363271Y0129640D01*
X0363435Y0129634D01*
X0363599Y0129624D01*
X0363763Y0129610D01*
X0363926Y0129592D01*
X0364089Y0129570D01*
X0364251Y0129543D01*
X0364413Y0129513D01*
X0364573Y0129479D01*
X0364733Y0129441D01*
X0364892Y0129400D01*
X0365050Y0129354D01*
X0365206Y0129304D01*
X0365362Y0129251D01*
X0365516Y0129194D01*
X0365668Y0129133D01*
X0365819Y0129068D01*
X0365969Y0128999D01*
X0366116Y0128927D01*
X0366262Y0128852D01*
X0366406Y0128772D01*
X0366548Y0128690D01*
X0366688Y0128604D01*
X0366825Y0128514D01*
X0366961Y0128421D01*
X0367094Y0128325D01*
X0367225Y0128225D01*
X0367353Y0128123D01*
X0367479Y0128017D01*
X0367602Y0127908D01*
X0367722Y0127796D01*
X0367840Y0127682D01*
X0367954Y0127564D01*
X0368066Y0127444D01*
X0368175Y0127321D01*
X0368281Y0127195D01*
X0368383Y0127067D01*
X0368483Y0126936D01*
X0368579Y0126803D01*
X0368672Y0126667D01*
X0368762Y0126530D01*
X0368848Y0126390D01*
X0368930Y0126248D01*
X0369010Y0126104D01*
X0369085Y0125958D01*
X0369157Y0125811D01*
X0369226Y0125661D01*
X0369291Y0125510D01*
X0369352Y0125358D01*
X0369409Y0125204D01*
X0369462Y0125048D01*
X0369512Y0124892D01*
X0369558Y0124734D01*
X0369599Y0124575D01*
X0369637Y0124415D01*
X0369671Y0124255D01*
X0369701Y0124093D01*
X0369728Y0123931D01*
X0369750Y0123768D01*
X0369768Y0123605D01*
X0369782Y0123441D01*
X0369792Y0123277D01*
X0369798Y0123113D01*
X0369800Y0122949D01*
X0369798Y0122785D01*
X0369792Y0122621D01*
X0369782Y0122457D01*
X0369768Y0122293D01*
X0369750Y0122130D01*
X0369728Y0121967D01*
X0369701Y0121805D01*
X0369671Y0121643D01*
X0369637Y0121483D01*
X0369599Y0121323D01*
X0369558Y0121164D01*
X0369512Y0121006D01*
X0369462Y0120850D01*
X0369409Y0120694D01*
X0369352Y0120540D01*
X0369291Y0120388D01*
X0369226Y0120237D01*
X0369157Y0120087D01*
X0369085Y0119940D01*
X0369010Y0119794D01*
X0368930Y0119650D01*
X0368848Y0119508D01*
X0368762Y0119368D01*
X0368672Y0119231D01*
X0368579Y0119095D01*
X0368483Y0118962D01*
X0368383Y0118831D01*
X0368281Y0118703D01*
X0368175Y0118577D01*
X0368066Y0118454D01*
X0367954Y0118334D01*
X0367840Y0118216D01*
X0367722Y0118102D01*
X0367602Y0117990D01*
X0367479Y0117881D01*
X0367353Y0117775D01*
X0367225Y0117673D01*
X0367094Y0117573D01*
X0366961Y0117477D01*
X0366825Y0117384D01*
X0366688Y0117294D01*
X0366548Y0117208D01*
X0366406Y0117126D01*
X0366262Y0117046D01*
X0366116Y0116971D01*
X0365969Y0116899D01*
X0365819Y0116830D01*
X0365668Y0116765D01*
X0365516Y0116704D01*
X0365362Y0116647D01*
X0365206Y0116594D01*
X0365050Y0116544D01*
X0364892Y0116498D01*
X0364733Y0116457D01*
X0364573Y0116419D01*
X0364413Y0116385D01*
X0364251Y0116355D01*
X0364089Y0116328D01*
X0363926Y0116306D01*
X0363763Y0116288D01*
X0363599Y0116274D01*
X0363435Y0116264D01*
X0363271Y0116258D01*
X0363107Y0116256D01*
X0362943Y0116258D01*
X0362779Y0116264D01*
X0362615Y0116274D01*
X0362451Y0116288D01*
X0362288Y0116306D01*
X0362125Y0116328D01*
X0361963Y0116355D01*
X0361801Y0116385D01*
X0361641Y0116419D01*
X0361481Y0116457D01*
X0361322Y0116498D01*
X0361164Y0116544D01*
X0361008Y0116594D01*
X0360852Y0116647D01*
X0360698Y0116704D01*
X0360546Y0116765D01*
X0360395Y0116830D01*
X0360245Y0116899D01*
X0360098Y0116971D01*
X0359952Y0117046D01*
X0359808Y0117126D01*
X0359666Y0117208D01*
X0359526Y0117294D01*
X0359389Y0117384D01*
X0359253Y0117477D01*
X0359120Y0117573D01*
X0358989Y0117673D01*
X0358861Y0117775D01*
X0358735Y0117881D01*
X0358612Y0117990D01*
X0358492Y0118102D01*
X0358374Y0118216D01*
X0358260Y0118334D01*
X0358148Y0118454D01*
X0358039Y0118577D01*
X0357933Y0118703D01*
X0357831Y0118831D01*
X0357731Y0118962D01*
X0357635Y0119095D01*
X0357542Y0119231D01*
X0357452Y0119368D01*
X0357366Y0119508D01*
X0357284Y0119650D01*
X0357204Y0119794D01*
X0357129Y0119940D01*
X0357057Y0120087D01*
X0356988Y0120237D01*
X0356923Y0120388D01*
X0356862Y0120540D01*
X0356805Y0120694D01*
X0356752Y0120850D01*
X0356702Y0121006D01*
X0356656Y0121164D01*
X0356615Y0121323D01*
X0356577Y0121483D01*
X0356543Y0121643D01*
X0356513Y0121805D01*
X0356486Y0121967D01*
X0356464Y0122130D01*
X0356446Y0122293D01*
X0356432Y0122457D01*
X0356422Y0122621D01*
X0356416Y0122785D01*
X0356414Y0122949D01*
X0336898Y0161335D02*
X0336898Y0166059D01*
X0340835Y0163697D01*
X0336898Y0161335D01*
X0084760Y0178224D02*
X0084762Y0178388D01*
X0084768Y0178552D01*
X0084778Y0178716D01*
X0084792Y0178880D01*
X0084810Y0179043D01*
X0084832Y0179206D01*
X0084859Y0179368D01*
X0084889Y0179530D01*
X0084923Y0179690D01*
X0084961Y0179850D01*
X0085002Y0180009D01*
X0085048Y0180167D01*
X0085098Y0180323D01*
X0085151Y0180479D01*
X0085208Y0180633D01*
X0085269Y0180785D01*
X0085334Y0180936D01*
X0085403Y0181086D01*
X0085475Y0181233D01*
X0085550Y0181379D01*
X0085630Y0181523D01*
X0085712Y0181665D01*
X0085798Y0181805D01*
X0085888Y0181942D01*
X0085981Y0182078D01*
X0086077Y0182211D01*
X0086177Y0182342D01*
X0086279Y0182470D01*
X0086385Y0182596D01*
X0086494Y0182719D01*
X0086606Y0182839D01*
X0086720Y0182957D01*
X0086838Y0183071D01*
X0086958Y0183183D01*
X0087081Y0183292D01*
X0087207Y0183398D01*
X0087335Y0183500D01*
X0087466Y0183600D01*
X0087599Y0183696D01*
X0087735Y0183789D01*
X0087872Y0183879D01*
X0088012Y0183965D01*
X0088154Y0184047D01*
X0088298Y0184127D01*
X0088444Y0184202D01*
X0088591Y0184274D01*
X0088741Y0184343D01*
X0088892Y0184408D01*
X0089044Y0184469D01*
X0089198Y0184526D01*
X0089354Y0184579D01*
X0089510Y0184629D01*
X0089668Y0184675D01*
X0089827Y0184716D01*
X0089987Y0184754D01*
X0090147Y0184788D01*
X0090309Y0184818D01*
X0090471Y0184845D01*
X0090634Y0184867D01*
X0090797Y0184885D01*
X0090961Y0184899D01*
X0091125Y0184909D01*
X0091289Y0184915D01*
X0091453Y0184917D01*
X0091617Y0184915D01*
X0091781Y0184909D01*
X0091945Y0184899D01*
X0092109Y0184885D01*
X0092272Y0184867D01*
X0092435Y0184845D01*
X0092597Y0184818D01*
X0092759Y0184788D01*
X0092919Y0184754D01*
X0093079Y0184716D01*
X0093238Y0184675D01*
X0093396Y0184629D01*
X0093552Y0184579D01*
X0093708Y0184526D01*
X0093862Y0184469D01*
X0094014Y0184408D01*
X0094165Y0184343D01*
X0094315Y0184274D01*
X0094462Y0184202D01*
X0094608Y0184127D01*
X0094752Y0184047D01*
X0094894Y0183965D01*
X0095034Y0183879D01*
X0095171Y0183789D01*
X0095307Y0183696D01*
X0095440Y0183600D01*
X0095571Y0183500D01*
X0095699Y0183398D01*
X0095825Y0183292D01*
X0095948Y0183183D01*
X0096068Y0183071D01*
X0096186Y0182957D01*
X0096300Y0182839D01*
X0096412Y0182719D01*
X0096521Y0182596D01*
X0096627Y0182470D01*
X0096729Y0182342D01*
X0096829Y0182211D01*
X0096925Y0182078D01*
X0097018Y0181942D01*
X0097108Y0181805D01*
X0097194Y0181665D01*
X0097276Y0181523D01*
X0097356Y0181379D01*
X0097431Y0181233D01*
X0097503Y0181086D01*
X0097572Y0180936D01*
X0097637Y0180785D01*
X0097698Y0180633D01*
X0097755Y0180479D01*
X0097808Y0180323D01*
X0097858Y0180167D01*
X0097904Y0180009D01*
X0097945Y0179850D01*
X0097983Y0179690D01*
X0098017Y0179530D01*
X0098047Y0179368D01*
X0098074Y0179206D01*
X0098096Y0179043D01*
X0098114Y0178880D01*
X0098128Y0178716D01*
X0098138Y0178552D01*
X0098144Y0178388D01*
X0098146Y0178224D01*
X0098144Y0178060D01*
X0098138Y0177896D01*
X0098128Y0177732D01*
X0098114Y0177568D01*
X0098096Y0177405D01*
X0098074Y0177242D01*
X0098047Y0177080D01*
X0098017Y0176918D01*
X0097983Y0176758D01*
X0097945Y0176598D01*
X0097904Y0176439D01*
X0097858Y0176281D01*
X0097808Y0176125D01*
X0097755Y0175969D01*
X0097698Y0175815D01*
X0097637Y0175663D01*
X0097572Y0175512D01*
X0097503Y0175362D01*
X0097431Y0175215D01*
X0097356Y0175069D01*
X0097276Y0174925D01*
X0097194Y0174783D01*
X0097108Y0174643D01*
X0097018Y0174506D01*
X0096925Y0174370D01*
X0096829Y0174237D01*
X0096729Y0174106D01*
X0096627Y0173978D01*
X0096521Y0173852D01*
X0096412Y0173729D01*
X0096300Y0173609D01*
X0096186Y0173491D01*
X0096068Y0173377D01*
X0095948Y0173265D01*
X0095825Y0173156D01*
X0095699Y0173050D01*
X0095571Y0172948D01*
X0095440Y0172848D01*
X0095307Y0172752D01*
X0095171Y0172659D01*
X0095034Y0172569D01*
X0094894Y0172483D01*
X0094752Y0172401D01*
X0094608Y0172321D01*
X0094462Y0172246D01*
X0094315Y0172174D01*
X0094165Y0172105D01*
X0094014Y0172040D01*
X0093862Y0171979D01*
X0093708Y0171922D01*
X0093552Y0171869D01*
X0093396Y0171819D01*
X0093238Y0171773D01*
X0093079Y0171732D01*
X0092919Y0171694D01*
X0092759Y0171660D01*
X0092597Y0171630D01*
X0092435Y0171603D01*
X0092272Y0171581D01*
X0092109Y0171563D01*
X0091945Y0171549D01*
X0091781Y0171539D01*
X0091617Y0171533D01*
X0091453Y0171531D01*
X0091289Y0171533D01*
X0091125Y0171539D01*
X0090961Y0171549D01*
X0090797Y0171563D01*
X0090634Y0171581D01*
X0090471Y0171603D01*
X0090309Y0171630D01*
X0090147Y0171660D01*
X0089987Y0171694D01*
X0089827Y0171732D01*
X0089668Y0171773D01*
X0089510Y0171819D01*
X0089354Y0171869D01*
X0089198Y0171922D01*
X0089044Y0171979D01*
X0088892Y0172040D01*
X0088741Y0172105D01*
X0088591Y0172174D01*
X0088444Y0172246D01*
X0088298Y0172321D01*
X0088154Y0172401D01*
X0088012Y0172483D01*
X0087872Y0172569D01*
X0087735Y0172659D01*
X0087599Y0172752D01*
X0087466Y0172848D01*
X0087335Y0172948D01*
X0087207Y0173050D01*
X0087081Y0173156D01*
X0086958Y0173265D01*
X0086838Y0173377D01*
X0086720Y0173491D01*
X0086606Y0173609D01*
X0086494Y0173729D01*
X0086385Y0173852D01*
X0086279Y0173978D01*
X0086177Y0174106D01*
X0086077Y0174237D01*
X0085981Y0174370D01*
X0085888Y0174506D01*
X0085798Y0174643D01*
X0085712Y0174783D01*
X0085630Y0174925D01*
X0085550Y0175069D01*
X0085475Y0175215D01*
X0085403Y0175362D01*
X0085334Y0175512D01*
X0085269Y0175663D01*
X0085208Y0175815D01*
X0085151Y0175969D01*
X0085098Y0176125D01*
X0085048Y0176281D01*
X0085002Y0176439D01*
X0084961Y0176598D01*
X0084923Y0176758D01*
X0084889Y0176918D01*
X0084859Y0177080D01*
X0084832Y0177242D01*
X0084810Y0177405D01*
X0084792Y0177568D01*
X0084778Y0177732D01*
X0084768Y0177896D01*
X0084762Y0178060D01*
X0084760Y0178224D01*
D15*
X0341567Y0163697D03*
D16*
X0160016Y0031433D03*
X0136552Y0031394D03*
X0112890Y0031354D03*
D17*
X0115745Y0029287D03*
X0139406Y0029327D03*
X0162871Y0029366D03*
D18*
X0223893Y0054079D02*
X0224644Y0053329D01*
X0226145Y0053329D01*
X0226896Y0054079D01*
X0226896Y0057082D01*
X0226145Y0057833D01*
X0224644Y0057833D01*
X0223893Y0057082D01*
X0223893Y0054079D01*
X0225394Y0054830D02*
X0226896Y0053329D01*
X0228497Y0053329D02*
X0231500Y0053329D01*
X0229998Y0053329D02*
X0229998Y0057833D01*
X0228497Y0056331D01*
X0235321Y0038032D02*
X0236456Y0038032D01*
X0237023Y0037465D01*
X0237023Y0036898D01*
X0236456Y0036331D01*
X0237023Y0035764D01*
X0237023Y0035197D01*
X0236456Y0034630D01*
X0235321Y0034630D01*
X0234754Y0035197D01*
X0235888Y0036331D02*
X0236456Y0036331D01*
X0235321Y0038032D02*
X0234754Y0037465D01*
X0255754Y0036898D02*
X0256888Y0038032D01*
X0256888Y0034630D01*
X0255754Y0034630D02*
X0258023Y0034630D01*
X0262452Y0035180D02*
X0262452Y0037432D01*
X0263203Y0038182D01*
X0264704Y0038182D01*
X0265455Y0037432D01*
X0265455Y0035180D01*
X0266956Y0035180D02*
X0262452Y0035180D01*
X0262452Y0033579D02*
X0262452Y0030576D01*
X0262452Y0032077D02*
X0266956Y0032077D01*
X0265455Y0036681D02*
X0266956Y0038182D01*
X0266956Y0039784D02*
X0266956Y0041285D01*
X0266956Y0040534D02*
X0262452Y0040534D01*
X0262452Y0039784D02*
X0262452Y0041285D01*
X0262452Y0042853D02*
X0263954Y0044354D01*
X0262452Y0045856D01*
X0266956Y0045856D01*
X0266956Y0042853D02*
X0262452Y0042853D01*
X0298652Y0022050D02*
X0300154Y0020548D01*
X0298652Y0022050D02*
X0303156Y0022050D01*
X0303156Y0023551D02*
X0303156Y0020548D01*
X0303156Y0018947D02*
X0298652Y0018947D01*
X0298652Y0015944D02*
X0303156Y0015944D01*
X0301655Y0017446D01*
X0303156Y0018947D01*
X0302406Y0014343D02*
X0303156Y0013592D01*
X0303156Y0012091D01*
X0302406Y0011341D01*
X0300904Y0012091D02*
X0300904Y0013592D01*
X0301655Y0014343D01*
X0302406Y0014343D01*
X0300904Y0012091D02*
X0300154Y0011341D01*
X0299403Y0011341D01*
X0298652Y0012091D01*
X0298652Y0013592D01*
X0299403Y0014343D01*
X0258744Y0011283D02*
X0258744Y0010532D01*
X0257993Y0009781D01*
X0258744Y0009031D01*
X0258744Y0008280D01*
X0257993Y0007530D01*
X0256492Y0007530D01*
X0255741Y0008280D01*
X0254140Y0007530D02*
X0251137Y0007530D01*
X0252639Y0007530D02*
X0252639Y0012033D01*
X0251137Y0010532D01*
X0249536Y0009781D02*
X0248785Y0009031D01*
X0246533Y0009031D01*
X0246533Y0007530D02*
X0246533Y0012033D01*
X0248785Y0012033D01*
X0249536Y0011283D01*
X0249536Y0009781D01*
X0248035Y0009031D02*
X0249536Y0007530D01*
X0255741Y0011283D02*
X0256492Y0012033D01*
X0257993Y0012033D01*
X0258744Y0011283D01*
X0257993Y0009781D02*
X0257242Y0009781D01*
X0349671Y0026819D02*
X0350422Y0026068D01*
X0351923Y0026068D01*
X0352674Y0026819D01*
X0352674Y0030572D01*
X0354275Y0029821D02*
X0354275Y0029071D01*
X0355026Y0028320D01*
X0356527Y0028320D01*
X0357278Y0027569D01*
X0357278Y0026819D01*
X0356527Y0026068D01*
X0355026Y0026068D01*
X0354275Y0026819D01*
X0354275Y0029821D02*
X0355026Y0030572D01*
X0356527Y0030572D01*
X0357278Y0029821D01*
X0358879Y0029071D02*
X0360380Y0030572D01*
X0361882Y0029071D01*
X0361882Y0026068D01*
X0363483Y0026068D02*
X0363483Y0030572D01*
X0365735Y0030572D01*
X0366485Y0029821D01*
X0366485Y0028320D01*
X0365735Y0027569D01*
X0363483Y0027569D01*
X0364984Y0027569D02*
X0366485Y0026068D01*
X0369588Y0026068D02*
X0369588Y0030572D01*
X0368087Y0030572D02*
X0371089Y0030572D01*
X0372691Y0029821D02*
X0373441Y0030572D01*
X0374943Y0030572D01*
X0375693Y0029821D01*
X0375693Y0029071D01*
X0372691Y0026068D01*
X0375693Y0026068D01*
X0361882Y0028320D02*
X0358879Y0028320D01*
X0358879Y0029071D02*
X0358879Y0026068D01*
X0349671Y0026819D02*
X0349671Y0030572D01*
X0334188Y0109849D02*
X0334939Y0110600D01*
X0334939Y0112101D01*
X0334188Y0112852D01*
X0333438Y0112852D01*
X0332687Y0112101D01*
X0332687Y0110600D01*
X0331936Y0109849D01*
X0331186Y0109849D01*
X0330435Y0110600D01*
X0330435Y0112101D01*
X0331186Y0112852D01*
X0330435Y0114453D02*
X0334939Y0114453D01*
X0334939Y0117456D01*
X0334939Y0119057D02*
X0330435Y0119057D01*
X0330435Y0121309D01*
X0331186Y0122060D01*
X0332687Y0122060D01*
X0333438Y0121309D01*
X0333438Y0119057D01*
X0333438Y0120558D02*
X0334939Y0122060D01*
X0333438Y0123661D02*
X0330435Y0123661D01*
X0330435Y0126664D02*
X0333438Y0126664D01*
X0334939Y0125162D01*
X0333438Y0123661D01*
X0334188Y0128265D02*
X0331186Y0128265D01*
X0330435Y0129016D01*
X0330435Y0130517D01*
X0331186Y0131267D01*
X0334188Y0131267D01*
X0334939Y0130517D01*
X0334939Y0129016D01*
X0334188Y0128265D01*
X0330435Y0117456D02*
X0330435Y0114453D01*
X0332687Y0114453D02*
X0332687Y0115954D01*
X0286733Y0141634D02*
X0286733Y0142634D01*
X0285233Y0142634D01*
X0263733Y0138134D02*
X0263733Y0147634D01*
X0253040Y0127511D02*
X0250037Y0127511D01*
X0250037Y0123007D01*
X0253040Y0123007D01*
X0251539Y0125259D02*
X0250037Y0125259D01*
X0248436Y0126760D02*
X0247685Y0127511D01*
X0245433Y0127511D01*
X0245433Y0123007D01*
X0247685Y0123007D01*
X0248436Y0123757D01*
X0248436Y0126760D01*
X0243832Y0126760D02*
X0243832Y0123757D01*
X0243081Y0123007D01*
X0241580Y0123007D01*
X0240829Y0123757D01*
X0240829Y0126760D01*
X0241580Y0127511D01*
X0243081Y0127511D01*
X0243832Y0126760D01*
X0239228Y0127511D02*
X0239228Y0123007D01*
X0236225Y0123007D02*
X0236225Y0127511D01*
X0237727Y0126009D01*
X0239228Y0127511D01*
X0264087Y0188764D02*
X0264087Y0198264D01*
X0285587Y0193264D02*
X0287087Y0193264D01*
X0287087Y0192264D01*
X0329485Y0192874D02*
X0331985Y0192874D01*
X0336985Y0192874D02*
X0339485Y0192874D01*
X0346985Y0192874D02*
X0348485Y0192874D01*
X0344485Y0171374D02*
X0344485Y0169874D01*
X0343485Y0169874D01*
X0339485Y0169874D02*
X0329485Y0169874D01*
X0347949Y0233614D02*
X0347949Y0234914D01*
X0135981Y0181772D02*
X0135981Y0180272D01*
X0088501Y0225314D02*
X0088501Y0226614D01*
X0062749Y0102201D02*
X0062749Y0092701D01*
X0084249Y0097201D02*
X0085749Y0097201D01*
X0085749Y0096201D01*
D19*
X0081749Y0096201D01*
X0081749Y0068201D01*
X0085749Y0068201D01*
X0085749Y0067201D02*
X0081749Y0067201D01*
X0079749Y0068201D01*
X0079749Y0096201D01*
X0081749Y0097201D01*
X0081749Y0096201D01*
X0081749Y0097201D02*
X0085749Y0097201D01*
X0085749Y0092201D01*
X0085749Y0062201D01*
X0074249Y0062201D01*
X0062749Y0062201D01*
X0062749Y0064701D01*
X0065249Y0064701D01*
X0065249Y0069701D01*
X0062749Y0069701D01*
X0062749Y0074701D01*
X0065249Y0074701D01*
X0065249Y0079701D01*
X0062749Y0079701D01*
X0062749Y0084701D01*
X0062749Y0099701D01*
X0065249Y0099701D01*
X0065249Y0094701D01*
X0062749Y0094701D01*
X0062749Y0089701D01*
X0065249Y0089701D01*
X0065249Y0084701D01*
X0062749Y0084701D01*
X0062749Y0092701D02*
X0062749Y0062201D01*
X0081749Y0067201D02*
X0081749Y0068201D01*
X0085749Y0097201D02*
X0085749Y0102201D01*
X0074249Y0102201D01*
X0062749Y0102201D01*
X0062749Y0101201D02*
X0062749Y0099701D01*
X0130981Y0158772D02*
X0160481Y0158772D01*
X0190981Y0158772D01*
X0188481Y0158772D01*
X0188481Y0161272D01*
X0183481Y0161272D01*
X0183481Y0158772D01*
X0178481Y0158772D01*
X0178481Y0161272D01*
X0173481Y0161272D01*
X0173481Y0158772D01*
X0168481Y0158772D01*
X0168481Y0161272D01*
X0163481Y0161272D01*
X0163481Y0158772D01*
X0158481Y0158772D01*
X0158481Y0161272D01*
X0153481Y0161272D01*
X0153481Y0158772D01*
X0148481Y0158772D01*
X0148481Y0161272D01*
X0143481Y0161272D01*
X0143481Y0158772D01*
X0138481Y0158772D01*
X0138481Y0161272D01*
X0133481Y0161272D01*
X0133481Y0158772D01*
X0131981Y0158772D01*
X0130981Y0158772D02*
X0130981Y0170272D01*
X0130981Y0181772D01*
X0135981Y0181772D01*
X0135981Y0177772D01*
X0136981Y0175772D01*
X0184981Y0175772D01*
X0185981Y0177772D01*
X0185981Y0181772D01*
X0184981Y0181772D02*
X0184981Y0177772D01*
X0185981Y0177772D01*
X0184981Y0177772D02*
X0136981Y0177772D01*
X0136981Y0181772D01*
X0160981Y0181772D01*
X0190981Y0181772D01*
X0190981Y0170272D01*
X0190981Y0158772D01*
X0136981Y0177772D02*
X0135981Y0177772D01*
X0135981Y0181772D02*
X0136981Y0181772D01*
X0101001Y0200114D02*
X0101001Y0202614D01*
X0098501Y0202614D01*
X0098501Y0207614D01*
X0101001Y0207614D01*
X0101001Y0212614D01*
X0098501Y0212614D01*
X0098501Y0217614D01*
X0101001Y0217614D01*
X0101001Y0222614D01*
X0098501Y0222614D01*
X0098501Y0227614D01*
X0101001Y0227614D01*
X0101001Y0232614D01*
X0098501Y0232614D01*
X0098501Y0237614D01*
X0101001Y0237614D01*
X0101001Y0242614D01*
X0098501Y0242614D01*
X0098501Y0247614D01*
X0101001Y0247614D01*
X0101001Y0252614D01*
X0098501Y0252614D01*
X0098501Y0257614D01*
X0101001Y0257614D01*
X0101001Y0260114D01*
X0088501Y0260114D01*
X0088501Y0256614D01*
X0064001Y0256614D01*
X0062601Y0255314D01*
X0057001Y0255114D02*
X0055001Y0254114D01*
X0055001Y0234914D01*
X0088501Y0234914D01*
X0088501Y0233614D02*
X0064001Y0233614D01*
X0062601Y0234914D01*
X0064001Y0226614D02*
X0062601Y0225314D01*
X0088501Y0225314D01*
X0088501Y0205114D01*
X0057001Y0205114D01*
X0055001Y0206114D01*
X0055001Y0225314D01*
X0062601Y0225314D01*
X0064001Y0226614D02*
X0088501Y0226614D01*
X0088501Y0256614D01*
X0088501Y0255114D02*
X0057001Y0255114D01*
X0062601Y0204914D02*
X0064001Y0203614D01*
X0088501Y0203614D01*
X0088501Y0205114D02*
X0088501Y0200114D01*
X0101001Y0200114D01*
X0264087Y0198264D02*
X0275587Y0198264D01*
X0287087Y0198264D01*
X0287087Y0193264D01*
X0283087Y0193264D01*
X0281087Y0192264D01*
X0281087Y0164264D01*
X0283087Y0163264D01*
X0287087Y0163264D01*
X0287087Y0164264D02*
X0283087Y0164264D01*
X0283087Y0163264D01*
X0283087Y0164264D02*
X0283087Y0192264D01*
X0287087Y0192264D01*
X0287087Y0193264D02*
X0287087Y0188264D01*
X0287087Y0158264D01*
X0275587Y0158264D01*
X0264087Y0158264D01*
X0264087Y0160764D01*
X0266587Y0160764D01*
X0266587Y0165764D01*
X0264087Y0165764D01*
X0264087Y0170764D01*
X0266587Y0170764D01*
X0266587Y0175764D01*
X0264087Y0175764D01*
X0264087Y0180764D01*
X0264087Y0195764D01*
X0266587Y0195764D01*
X0266587Y0190764D01*
X0264087Y0190764D01*
X0264087Y0185764D01*
X0266587Y0185764D01*
X0266587Y0180764D01*
X0264087Y0180764D01*
X0264087Y0188764D02*
X0264087Y0158264D01*
X0263733Y0147634D02*
X0275233Y0147634D01*
X0286733Y0147634D01*
X0286733Y0142634D01*
X0282733Y0142634D01*
X0280733Y0141634D01*
X0280733Y0113634D01*
X0282733Y0112634D01*
X0286733Y0112634D01*
X0286733Y0113634D02*
X0282733Y0113634D01*
X0282733Y0112634D01*
X0282733Y0113634D02*
X0282733Y0141634D01*
X0286733Y0141634D01*
X0286733Y0142634D02*
X0286733Y0137634D01*
X0286733Y0107634D01*
X0275233Y0107634D01*
X0263733Y0107634D01*
X0263733Y0110134D01*
X0266233Y0110134D01*
X0266233Y0115134D01*
X0263733Y0115134D01*
X0263733Y0120134D01*
X0266233Y0120134D01*
X0266233Y0125134D01*
X0263733Y0125134D01*
X0263733Y0130134D01*
X0263733Y0145134D01*
X0266233Y0145134D01*
X0266233Y0140134D01*
X0263733Y0140134D01*
X0263733Y0135134D01*
X0266233Y0135134D01*
X0266233Y0130134D01*
X0263733Y0130134D01*
X0263733Y0138134D02*
X0263733Y0107634D01*
X0282733Y0141634D02*
X0282733Y0142634D01*
X0263733Y0145134D02*
X0263733Y0146634D01*
X0283087Y0192264D02*
X0283087Y0193264D01*
X0264087Y0195764D02*
X0264087Y0197264D01*
X0329485Y0192874D02*
X0329485Y0181374D01*
X0329485Y0169874D01*
X0334485Y0169874D02*
X0334485Y0173874D01*
X0335485Y0175874D01*
X0343485Y0175874D01*
X0344485Y0173874D01*
X0343485Y0173874D01*
X0343485Y0169874D01*
X0344485Y0169874D02*
X0344485Y0173874D01*
X0343485Y0173874D02*
X0335485Y0173874D01*
X0335485Y0169874D01*
X0339485Y0169874D02*
X0344485Y0169874D01*
X0349485Y0169874D01*
X0349485Y0181374D01*
X0349485Y0192874D01*
X0346985Y0192874D01*
X0346985Y0190374D01*
X0341985Y0190374D01*
X0341985Y0192874D01*
X0336985Y0192874D01*
X0336985Y0190374D01*
X0331985Y0190374D01*
X0331985Y0192874D01*
X0329485Y0192874D01*
X0331985Y0192874D02*
X0336985Y0192874D01*
X0339485Y0192874D02*
X0349485Y0192874D01*
X0347949Y0200114D02*
X0347949Y0203614D01*
X0372449Y0203614D01*
X0373849Y0204914D01*
X0379449Y0205114D02*
X0381449Y0206114D01*
X0381449Y0225314D01*
X0347949Y0225314D01*
X0347949Y0226614D02*
X0372449Y0226614D01*
X0373849Y0225314D01*
X0372449Y0233614D02*
X0373849Y0234914D01*
X0347949Y0234914D01*
X0347949Y0255114D01*
X0379449Y0255114D01*
X0381449Y0254114D01*
X0381449Y0234914D01*
X0373849Y0234914D01*
X0372449Y0233614D02*
X0347949Y0233614D01*
X0347949Y0203614D01*
X0347949Y0205114D02*
X0379449Y0205114D01*
X0347949Y0200114D02*
X0335449Y0200114D01*
X0335449Y0202614D01*
X0337949Y0202614D01*
X0337949Y0207614D01*
X0335449Y0207614D01*
X0335449Y0212614D01*
X0337949Y0212614D01*
X0337949Y0217614D01*
X0335449Y0217614D01*
X0335449Y0222614D01*
X0337949Y0222614D01*
X0337949Y0227614D01*
X0335449Y0227614D01*
X0335449Y0232614D01*
X0337949Y0232614D01*
X0337949Y0237614D01*
X0335449Y0237614D01*
X0335449Y0242614D01*
X0337949Y0242614D01*
X0337949Y0247614D01*
X0335449Y0247614D01*
X0335449Y0252614D01*
X0337949Y0252614D01*
X0337949Y0257614D01*
X0335449Y0257614D01*
X0335449Y0260114D01*
X0347949Y0260114D01*
X0347949Y0255114D01*
X0347949Y0256614D02*
X0372449Y0256614D01*
X0373849Y0255314D01*
X0335485Y0173874D02*
X0334485Y0173874D01*
D20*
X0325206Y0179130D02*
X0322337Y0179130D01*
X0323771Y0179130D02*
X0323771Y0183434D01*
X0322337Y0181999D01*
X0349837Y0183016D02*
X0350554Y0183734D01*
X0351989Y0183734D01*
X0352706Y0183016D01*
X0352706Y0182299D01*
X0349837Y0179430D01*
X0352706Y0179430D01*
X0343345Y0203758D02*
X0344063Y0204476D01*
X0344063Y0205193D01*
X0343345Y0205910D01*
X0341194Y0205910D01*
X0341194Y0204476D01*
X0341911Y0203758D01*
X0343345Y0203758D01*
X0341194Y0205910D02*
X0342628Y0207345D01*
X0344063Y0208062D01*
X0344563Y0253558D02*
X0341694Y0253558D01*
X0343128Y0253558D02*
X0343128Y0257862D01*
X0341694Y0256427D01*
X0277531Y0200768D02*
X0273228Y0200768D01*
X0275380Y0198616D01*
X0275380Y0201485D01*
X0277331Y0154485D02*
X0277331Y0151616D01*
X0277331Y0153050D02*
X0273028Y0153050D01*
X0274462Y0151616D01*
X0275025Y0150855D02*
X0275025Y0147986D01*
X0272873Y0150138D01*
X0277177Y0150138D01*
X0276977Y0103855D02*
X0276977Y0100986D01*
X0276977Y0102420D02*
X0272673Y0102420D01*
X0274108Y0100986D01*
X0195594Y0169216D02*
X0192725Y0169216D01*
X0194160Y0169216D02*
X0194160Y0173519D01*
X0192725Y0172085D01*
X0129594Y0173219D02*
X0128160Y0172502D01*
X0126725Y0171068D01*
X0128877Y0171068D01*
X0129594Y0170350D01*
X0129594Y0169633D01*
X0128877Y0168916D01*
X0127442Y0168916D01*
X0126725Y0169633D01*
X0126725Y0171068D01*
X0093722Y0202370D02*
X0090853Y0202370D01*
X0092287Y0202370D02*
X0092287Y0206674D01*
X0090853Y0205239D01*
X0092070Y0252170D02*
X0093504Y0252170D01*
X0094222Y0252887D01*
X0094222Y0253605D01*
X0093504Y0254322D01*
X0091353Y0254322D01*
X0091353Y0252887D01*
X0092070Y0252170D01*
X0091353Y0254322D02*
X0092787Y0255756D01*
X0094222Y0256474D01*
X0074041Y0105422D02*
X0074041Y0102553D01*
X0071889Y0104705D01*
X0076193Y0104705D01*
X0075993Y0058422D02*
X0075993Y0055553D01*
X0075993Y0056987D02*
X0071689Y0056987D01*
X0073124Y0055553D01*
D21*
X0101199Y0055247D02*
X0101566Y0054880D01*
X0102300Y0054880D01*
X0102667Y0055247D01*
X0102667Y0055980D01*
X0101933Y0055980D01*
X0101199Y0055247D02*
X0101199Y0056714D01*
X0101566Y0057081D01*
X0102300Y0057081D01*
X0102667Y0056714D01*
X0103409Y0057081D02*
X0104877Y0054880D01*
X0104877Y0057081D01*
X0105619Y0057081D02*
X0106720Y0057081D01*
X0107087Y0056714D01*
X0107087Y0055247D01*
X0106720Y0054880D01*
X0105619Y0054880D01*
X0105619Y0057081D01*
X0103409Y0057081D02*
X0103409Y0054880D01*
X0102667Y0047081D02*
X0102667Y0045613D01*
X0101933Y0044880D01*
X0101199Y0045613D01*
X0101199Y0047081D01*
X0103409Y0046347D02*
X0103409Y0044880D01*
X0104143Y0044880D02*
X0104143Y0045980D01*
X0104510Y0046347D01*
X0104877Y0045980D01*
X0104877Y0044880D01*
X0105619Y0045247D02*
X0105986Y0044880D01*
X0106720Y0044880D01*
X0107087Y0045247D01*
X0107087Y0045980D01*
X0106720Y0046347D01*
X0105986Y0046347D01*
X0105619Y0045980D01*
X0105619Y0045247D01*
X0104143Y0045980D02*
X0103776Y0046347D01*
X0103409Y0046347D01*
X0107829Y0046347D02*
X0108563Y0046347D01*
X0108196Y0046714D02*
X0108196Y0045247D01*
X0108563Y0044880D01*
X0134569Y0057480D02*
X0134569Y0059681D01*
X0135303Y0058947D01*
X0136037Y0059681D01*
X0136037Y0057480D01*
X0136779Y0057847D02*
X0137146Y0057480D01*
X0137880Y0057480D01*
X0138247Y0057847D01*
X0138247Y0058213D01*
X0137880Y0058580D01*
X0137146Y0058580D01*
X0136779Y0058947D01*
X0136779Y0059314D01*
X0137146Y0059681D01*
X0137880Y0059681D01*
X0138247Y0059314D01*
X0138989Y0058947D02*
X0139723Y0059681D01*
X0139723Y0057480D01*
X0138989Y0057480D02*
X0140457Y0057480D01*
X0140457Y0049681D02*
X0140457Y0047480D01*
X0138989Y0049681D01*
X0138989Y0047480D01*
X0138247Y0047480D02*
X0136779Y0047480D01*
X0136779Y0049681D01*
X0138247Y0049681D01*
X0137513Y0048580D02*
X0136779Y0048580D01*
X0137146Y0067480D02*
X0136779Y0067847D01*
X0137146Y0067480D02*
X0137880Y0067480D01*
X0138247Y0067847D01*
X0138247Y0068213D01*
X0137880Y0068580D01*
X0137146Y0068580D01*
X0136779Y0068947D01*
X0136779Y0069314D01*
X0137146Y0069681D01*
X0137880Y0069681D01*
X0138247Y0069314D01*
X0138989Y0069314D02*
X0139356Y0069681D01*
X0140090Y0069681D01*
X0140457Y0069314D01*
X0140457Y0068947D01*
X0138989Y0067480D01*
X0140457Y0067480D01*
X0136037Y0067480D02*
X0136037Y0069681D01*
X0135303Y0068947D01*
X0134569Y0069681D01*
X0134569Y0067480D01*
X0134569Y0077480D02*
X0134569Y0079681D01*
X0135303Y0078947D01*
X0136037Y0079681D01*
X0136037Y0077480D01*
X0136779Y0077847D02*
X0137146Y0077480D01*
X0137880Y0077480D01*
X0138247Y0077847D01*
X0138247Y0078213D01*
X0137880Y0078580D01*
X0137146Y0078580D01*
X0136779Y0078947D01*
X0136779Y0079314D01*
X0137146Y0079681D01*
X0137880Y0079681D01*
X0138247Y0079314D01*
X0138989Y0079314D02*
X0139356Y0079681D01*
X0140090Y0079681D01*
X0140457Y0079314D01*
X0140457Y0078947D01*
X0140090Y0078580D01*
X0140457Y0078213D01*
X0140457Y0077847D01*
X0140090Y0077480D01*
X0139356Y0077480D01*
X0138989Y0077847D01*
X0139723Y0078580D02*
X0140090Y0078580D01*
X0139723Y0087480D02*
X0139723Y0089681D01*
X0138989Y0089681D02*
X0140457Y0089681D01*
X0138247Y0089314D02*
X0137880Y0089681D01*
X0137146Y0089681D01*
X0136779Y0089314D01*
X0136779Y0088947D01*
X0137146Y0088580D01*
X0137880Y0088580D01*
X0138247Y0088213D01*
X0138247Y0087847D01*
X0137880Y0087480D01*
X0137146Y0087480D01*
X0136779Y0087847D01*
X0136037Y0087480D02*
X0135303Y0088213D01*
X0135670Y0088213D02*
X0134569Y0088213D01*
X0134569Y0087480D02*
X0134569Y0089681D01*
X0135670Y0089681D01*
X0136037Y0089314D01*
X0136037Y0088580D01*
X0135670Y0088213D01*
X0135670Y0097480D02*
X0134936Y0097480D01*
X0134569Y0097847D01*
X0134936Y0098580D02*
X0134569Y0098947D01*
X0134569Y0099314D01*
X0134936Y0099681D01*
X0135670Y0099681D01*
X0136037Y0099314D01*
X0135670Y0098580D02*
X0136037Y0098213D01*
X0136037Y0097847D01*
X0135670Y0097480D01*
X0135670Y0098580D02*
X0134936Y0098580D01*
X0136779Y0099681D02*
X0136779Y0097480D01*
X0138247Y0097480D01*
X0138989Y0097480D02*
X0138989Y0099681D01*
X0140090Y0099681D01*
X0140457Y0099314D01*
X0140457Y0098580D01*
X0140090Y0098213D01*
X0138989Y0098213D01*
X0138989Y0107480D02*
X0138989Y0109681D01*
X0140090Y0109681D01*
X0140457Y0109314D01*
X0140457Y0108580D01*
X0140090Y0108213D01*
X0138989Y0108213D01*
X0138247Y0107480D02*
X0136779Y0107480D01*
X0136779Y0109681D01*
X0138247Y0109681D01*
X0137513Y0108580D02*
X0136779Y0108580D01*
X0136037Y0109681D02*
X0134569Y0109681D01*
X0135303Y0109681D02*
X0135303Y0107480D01*
X0133827Y0107847D02*
X0133460Y0107480D01*
X0132727Y0107480D01*
X0132360Y0107847D01*
X0132727Y0108580D02*
X0133460Y0108580D01*
X0133827Y0108213D01*
X0133827Y0107847D01*
X0132727Y0108580D02*
X0132360Y0108947D01*
X0132360Y0109314D01*
X0132727Y0109681D01*
X0133460Y0109681D01*
X0133827Y0109314D01*
X0135306Y0117480D02*
X0136407Y0117480D01*
X0136774Y0117847D01*
X0136774Y0119314D01*
X0136407Y0119681D01*
X0135306Y0119681D01*
X0135306Y0117480D01*
X0137516Y0117480D02*
X0138250Y0117480D01*
X0137883Y0117480D02*
X0137883Y0119681D01*
X0137516Y0119681D02*
X0138250Y0119681D01*
X0138989Y0119681D02*
X0140090Y0119681D01*
X0140457Y0119314D01*
X0140457Y0118580D01*
X0140090Y0118213D01*
X0138989Y0118213D01*
X0138989Y0117480D02*
X0138989Y0119681D01*
X0139723Y0118213D02*
X0140457Y0117480D01*
X0107087Y0116714D02*
X0107087Y0115247D01*
X0106720Y0114880D01*
X0105619Y0114880D01*
X0105619Y0117081D01*
X0106720Y0117081D01*
X0107087Y0116714D01*
X0104877Y0117081D02*
X0104877Y0114880D01*
X0103409Y0117081D01*
X0103409Y0114880D01*
X0102667Y0115247D02*
X0102667Y0115980D01*
X0101933Y0115980D01*
X0101199Y0115247D02*
X0101566Y0114880D01*
X0102300Y0114880D01*
X0102667Y0115247D01*
X0102667Y0116714D02*
X0102300Y0117081D01*
X0101566Y0117081D01*
X0101199Y0116714D01*
X0101199Y0115247D01*
X0101199Y0107081D02*
X0101199Y0105613D01*
X0101933Y0104880D01*
X0102667Y0105613D01*
X0102667Y0107081D01*
X0103409Y0107081D02*
X0104510Y0107081D01*
X0104877Y0106714D01*
X0104877Y0105247D01*
X0104510Y0104880D01*
X0103409Y0104880D01*
X0103409Y0107081D01*
X0105619Y0107081D02*
X0106720Y0107081D01*
X0107087Y0106714D01*
X0107087Y0105247D01*
X0106720Y0104880D01*
X0105619Y0104880D01*
X0105619Y0107081D01*
X0104510Y0097081D02*
X0104877Y0096714D01*
X0104877Y0096347D01*
X0104510Y0095980D01*
X0103409Y0095980D01*
X0103409Y0094880D02*
X0103409Y0097081D01*
X0104510Y0097081D01*
X0104510Y0095980D02*
X0104877Y0095613D01*
X0104877Y0095247D01*
X0104510Y0094880D01*
X0103409Y0094880D01*
X0102667Y0094880D02*
X0101199Y0094880D01*
X0101933Y0094880D02*
X0101933Y0097081D01*
X0101199Y0096347D01*
X0101933Y0087081D02*
X0101933Y0084880D01*
X0101199Y0084880D02*
X0102667Y0084880D01*
X0103409Y0084880D02*
X0103409Y0086347D01*
X0104143Y0087081D01*
X0104877Y0086347D01*
X0104877Y0084880D01*
X0104877Y0085980D02*
X0103409Y0085980D01*
X0101933Y0087081D02*
X0101199Y0086347D01*
X0101566Y0077081D02*
X0101199Y0076714D01*
X0101566Y0077081D02*
X0102300Y0077081D01*
X0102667Y0076714D01*
X0102667Y0076347D01*
X0101199Y0074880D01*
X0102667Y0074880D01*
X0103409Y0074880D02*
X0103409Y0076347D01*
X0104143Y0077081D01*
X0104877Y0076347D01*
X0104877Y0074880D01*
X0104877Y0075980D02*
X0103409Y0075980D01*
X0103409Y0067081D02*
X0104510Y0067081D01*
X0104877Y0066714D01*
X0104877Y0066347D01*
X0104510Y0065980D01*
X0103409Y0065980D01*
X0102667Y0066347D02*
X0102667Y0066714D01*
X0102300Y0067081D01*
X0101566Y0067081D01*
X0101199Y0066714D01*
X0102667Y0066347D02*
X0101199Y0064880D01*
X0102667Y0064880D01*
X0103409Y0064880D02*
X0104510Y0064880D01*
X0104877Y0065247D01*
X0104877Y0065613D01*
X0104510Y0065980D01*
X0103409Y0064880D02*
X0103409Y0067081D01*
X0190237Y0064079D02*
X0190348Y0063919D01*
X0190463Y0063763D01*
X0190582Y0063609D01*
X0190705Y0063457D01*
X0190832Y0063309D01*
X0190962Y0063165D01*
X0191095Y0063023D01*
X0191232Y0062884D01*
X0191372Y0062749D01*
X0191516Y0062618D01*
X0191662Y0062490D01*
X0191812Y0062365D01*
X0191965Y0062245D01*
X0192120Y0062128D01*
X0192279Y0062014D01*
X0192440Y0061905D01*
X0192604Y0061800D01*
X0192770Y0061698D01*
X0192938Y0061601D01*
X0193109Y0061508D01*
X0193283Y0061419D01*
X0193458Y0061334D01*
X0193635Y0061254D01*
X0193814Y0061178D01*
X0193995Y0061106D01*
X0194178Y0061039D01*
X0194362Y0060976D01*
X0194548Y0060918D01*
X0194735Y0060864D01*
X0194924Y0060815D01*
X0195113Y0060770D01*
X0195304Y0060730D01*
X0195495Y0060695D01*
X0195687Y0060664D01*
X0195880Y0060638D01*
X0196074Y0060617D01*
X0196268Y0060600D01*
X0196462Y0060588D01*
X0196657Y0060581D01*
X0196851Y0060579D01*
X0223851Y0060579D01*
X0223851Y0063579D02*
X0196851Y0063579D01*
X0196718Y0063581D01*
X0196586Y0063586D01*
X0196454Y0063595D01*
X0196321Y0063607D01*
X0196190Y0063623D01*
X0196058Y0063642D01*
X0195928Y0063665D01*
X0195798Y0063691D01*
X0195668Y0063721D01*
X0195540Y0063754D01*
X0195412Y0063790D01*
X0195286Y0063830D01*
X0195160Y0063873D01*
X0195036Y0063920D01*
X0194913Y0063970D01*
X0194792Y0064023D01*
X0194672Y0064079D01*
X0194672Y0073079D02*
X0194792Y0073135D01*
X0194913Y0073188D01*
X0195036Y0073238D01*
X0195160Y0073285D01*
X0195286Y0073328D01*
X0195412Y0073368D01*
X0195540Y0073404D01*
X0195668Y0073437D01*
X0195798Y0073467D01*
X0195928Y0073493D01*
X0196058Y0073516D01*
X0196190Y0073535D01*
X0196321Y0073551D01*
X0196454Y0073563D01*
X0196586Y0073572D01*
X0196718Y0073577D01*
X0196851Y0073579D01*
X0223851Y0073579D01*
X0223851Y0076579D02*
X0196851Y0076579D01*
X0196852Y0076579D02*
X0196657Y0076577D01*
X0196462Y0076570D01*
X0196268Y0076558D01*
X0196074Y0076541D01*
X0195881Y0076520D01*
X0195688Y0076494D01*
X0195495Y0076463D01*
X0195304Y0076428D01*
X0195113Y0076388D01*
X0194924Y0076343D01*
X0194736Y0076294D01*
X0194548Y0076240D01*
X0194363Y0076182D01*
X0194178Y0076119D01*
X0193996Y0076052D01*
X0193815Y0075980D01*
X0193636Y0075904D01*
X0193458Y0075824D01*
X0193283Y0075739D01*
X0193110Y0075650D01*
X0192939Y0075557D01*
X0192770Y0075459D01*
X0192604Y0075358D01*
X0192440Y0075253D01*
X0192279Y0075143D01*
X0192121Y0075030D01*
X0191965Y0074913D01*
X0191813Y0074792D01*
X0191663Y0074668D01*
X0191516Y0074540D01*
X0191373Y0074408D01*
X0191233Y0074273D01*
X0191096Y0074135D01*
X0190962Y0073993D01*
X0190832Y0073848D01*
X0190706Y0073700D01*
X0190583Y0073549D01*
X0190464Y0073395D01*
X0190349Y0073238D01*
X0190237Y0073079D01*
X0205851Y0068579D02*
X0207851Y0068579D01*
X0212851Y0068579D02*
X0214851Y0068579D01*
X0223851Y0060579D02*
X0224046Y0060581D01*
X0224240Y0060588D01*
X0224435Y0060600D01*
X0224629Y0060617D01*
X0224822Y0060638D01*
X0225015Y0060664D01*
X0225207Y0060695D01*
X0225399Y0060730D01*
X0225589Y0060770D01*
X0225779Y0060815D01*
X0225967Y0060864D01*
X0226154Y0060918D01*
X0226340Y0060976D01*
X0226524Y0061039D01*
X0226707Y0061106D01*
X0226888Y0061178D01*
X0227067Y0061254D01*
X0227244Y0061334D01*
X0227420Y0061419D01*
X0227593Y0061508D01*
X0227764Y0061601D01*
X0227932Y0061698D01*
X0228099Y0061800D01*
X0228262Y0061905D01*
X0228423Y0062015D01*
X0228582Y0062128D01*
X0228737Y0062245D01*
X0228890Y0062366D01*
X0229040Y0062490D01*
X0229186Y0062618D01*
X0229330Y0062750D01*
X0229470Y0062885D01*
X0229607Y0063023D01*
X0229740Y0063165D01*
X0229870Y0063310D01*
X0229997Y0063458D01*
X0230120Y0063609D01*
X0230239Y0063763D01*
X0230354Y0063920D01*
X0230466Y0064079D01*
X0230465Y0073079D02*
X0230354Y0073239D01*
X0230239Y0073395D01*
X0230120Y0073549D01*
X0229997Y0073701D01*
X0229870Y0073849D01*
X0229740Y0073993D01*
X0229607Y0074135D01*
X0229470Y0074274D01*
X0229330Y0074409D01*
X0229186Y0074540D01*
X0229040Y0074668D01*
X0228890Y0074793D01*
X0228737Y0074913D01*
X0228582Y0075030D01*
X0228423Y0075144D01*
X0228262Y0075253D01*
X0228098Y0075358D01*
X0227932Y0075460D01*
X0227764Y0075557D01*
X0227593Y0075650D01*
X0227419Y0075739D01*
X0227244Y0075824D01*
X0227067Y0075904D01*
X0226888Y0075980D01*
X0226707Y0076052D01*
X0226524Y0076119D01*
X0226340Y0076182D01*
X0226154Y0076240D01*
X0225967Y0076294D01*
X0225778Y0076343D01*
X0225589Y0076388D01*
X0225398Y0076428D01*
X0225207Y0076463D01*
X0225015Y0076494D01*
X0224822Y0076520D01*
X0224628Y0076541D01*
X0224434Y0076558D01*
X0224240Y0076570D01*
X0224045Y0076577D01*
X0223851Y0076579D01*
X0223851Y0073579D02*
X0223984Y0073577D01*
X0224116Y0073572D01*
X0224248Y0073563D01*
X0224381Y0073551D01*
X0224512Y0073535D01*
X0224644Y0073516D01*
X0224774Y0073493D01*
X0224904Y0073467D01*
X0225034Y0073437D01*
X0225162Y0073404D01*
X0225290Y0073368D01*
X0225416Y0073328D01*
X0225542Y0073285D01*
X0225666Y0073238D01*
X0225789Y0073188D01*
X0225910Y0073135D01*
X0226030Y0073079D01*
X0226030Y0064079D02*
X0225910Y0064023D01*
X0225789Y0063970D01*
X0225666Y0063920D01*
X0225542Y0063873D01*
X0225416Y0063830D01*
X0225290Y0063790D01*
X0225162Y0063754D01*
X0225034Y0063721D01*
X0224904Y0063691D01*
X0224774Y0063665D01*
X0224644Y0063642D01*
X0224512Y0063623D01*
X0224381Y0063607D01*
X0224248Y0063595D01*
X0224116Y0063586D01*
X0223984Y0063581D01*
X0223851Y0063579D01*
D22*
X0325156Y0059091D03*
X0327656Y0059091D03*
X0330156Y0059091D03*
X0330156Y0069091D03*
X0327656Y0069091D03*
X0325156Y0069091D03*
X0325156Y0079091D03*
X0327656Y0079091D03*
X0330156Y0079091D03*
X0330156Y0089091D03*
X0327656Y0089091D03*
X0325156Y0089091D03*
X0325156Y0049091D03*
X0327656Y0049091D03*
X0330156Y0049091D03*
X0330156Y0039091D03*
X0327656Y0039091D03*
X0325156Y0039091D03*
X0325156Y0029091D03*
X0327656Y0029091D03*
X0330156Y0029091D03*
X0330156Y0019091D03*
X0327656Y0019091D03*
X0325156Y0019091D03*
D23*
X0258495Y0025780D02*
X0256995Y0025780D01*
X0255095Y0019280D02*
X0256095Y0018280D01*
X0247595Y0016580D02*
X0247595Y0015080D01*
X0240595Y0019280D02*
X0239595Y0018280D01*
X0238195Y0025780D02*
X0236695Y0025780D01*
M02*
