G75*
%MOIN*%
%OFA0B0*%
%FSLAX25Y25*%
%IPPOS*%
%LPD*%
%AMOC8*
5,1,8,0,0,1.08239X$1,22.5*
%
%ADD10R,0.05918X0.06706*%
%ADD11R,0.06312X0.07887*%
%ADD12R,0.06706X0.06706*%
%ADD13R,0.03162X0.06706*%
%ADD14C,0.06800*%
%ADD15R,0.20800X0.07800*%
%ADD16R,0.06706X0.05918*%
%ADD17C,0.06000*%
%ADD18R,0.06312X0.04737*%
%ADD19R,0.01900X0.06600*%
%ADD20R,0.06600X0.01900*%
%ADD21C,0.06343*%
%ADD22OC8,0.06000*%
%ADD23C,0.13398*%
%ADD24C,0.03581*%
D10*
X0108816Y0015902D03*
X0116296Y0015902D03*
X0132595Y0015744D03*
X0140075Y0015744D03*
X0155942Y0015783D03*
X0163422Y0015783D03*
X0192753Y0050154D03*
X0200233Y0050154D03*
X0220469Y0050154D03*
X0227949Y0050154D03*
X0214091Y0083579D03*
X0206611Y0083579D03*
X0217989Y0144799D03*
X0225469Y0144799D03*
X0219957Y0196492D03*
X0212477Y0196492D03*
X0297398Y0142358D03*
X0304879Y0142358D03*
X0305233Y0163303D03*
X0297753Y0163303D03*
X0297792Y0193343D03*
X0305272Y0193343D03*
X0304800Y0112713D03*
X0297320Y0112713D03*
X0274682Y0017240D03*
X0267201Y0017240D03*
D11*
X0332674Y0163697D03*
X0346060Y0163697D03*
D12*
X0169760Y0029366D03*
X0155981Y0029366D03*
X0146296Y0029327D03*
X0132516Y0029327D03*
X0122635Y0029287D03*
X0108855Y0029287D03*
D13*
X0208757Y0164563D03*
X0213757Y0164563D03*
X0218757Y0164563D03*
X0223757Y0164563D03*
X0223757Y0186217D03*
X0218757Y0186217D03*
X0213757Y0186217D03*
X0208757Y0186217D03*
D14*
X0077249Y0067201D02*
X0071249Y0067201D01*
X0071249Y0077201D02*
X0077249Y0077201D01*
X0077249Y0087201D02*
X0071249Y0087201D01*
X0071249Y0097201D02*
X0077249Y0097201D01*
X0135981Y0167272D02*
X0135981Y0173272D01*
X0145981Y0173272D02*
X0145981Y0167272D01*
X0155981Y0167272D02*
X0155981Y0173272D01*
X0165981Y0173272D02*
X0165981Y0167272D01*
X0175981Y0167272D02*
X0175981Y0173272D01*
X0185981Y0173272D02*
X0185981Y0167272D01*
X0239091Y0137957D02*
X0239091Y0131957D01*
X0249091Y0131957D02*
X0249091Y0137957D01*
X0272233Y0142634D02*
X0278233Y0142634D01*
X0278233Y0132634D02*
X0272233Y0132634D01*
X0272233Y0122634D02*
X0278233Y0122634D01*
X0278233Y0112634D02*
X0272233Y0112634D01*
X0319989Y0117319D02*
X0325989Y0117319D01*
X0325989Y0127319D02*
X0319989Y0127319D01*
X0319989Y0107319D02*
X0325989Y0107319D01*
X0278587Y0163264D02*
X0272587Y0163264D01*
X0272587Y0173264D02*
X0278587Y0173264D01*
X0278587Y0183264D02*
X0272587Y0183264D01*
X0272587Y0193264D02*
X0278587Y0193264D01*
X0324949Y0205114D02*
X0330949Y0205114D01*
X0330949Y0215114D02*
X0324949Y0215114D01*
X0324949Y0225114D02*
X0330949Y0225114D01*
X0330949Y0235114D02*
X0324949Y0235114D01*
X0324949Y0245114D02*
X0330949Y0245114D01*
X0330949Y0255114D02*
X0324949Y0255114D01*
X0334485Y0184374D02*
X0334485Y0178374D01*
X0344485Y0178374D02*
X0344485Y0184374D01*
X0277406Y0045626D02*
X0271406Y0045626D01*
X0271406Y0035626D02*
X0277406Y0035626D01*
X0354721Y0021618D02*
X0354721Y0015618D01*
X0364721Y0015618D02*
X0364721Y0021618D01*
X0111501Y0205114D02*
X0105501Y0205114D01*
X0105501Y0215114D02*
X0111501Y0215114D01*
X0111501Y0225114D02*
X0105501Y0225114D01*
X0105501Y0235114D02*
X0111501Y0235114D01*
X0111501Y0245114D02*
X0105501Y0245114D01*
X0105501Y0255114D02*
X0111501Y0255114D01*
D15*
X0191351Y0068579D03*
X0229351Y0068579D03*
D16*
X0251572Y0065114D03*
X0251572Y0072594D03*
X0264288Y0072516D03*
X0264288Y0065035D03*
X0178383Y0103106D03*
X0178383Y0110587D03*
X0208816Y0145232D03*
X0208816Y0152713D03*
X0131572Y0112476D03*
X0131572Y0104996D03*
X0131690Y0092476D03*
X0131690Y0084996D03*
X0131926Y0067870D03*
X0131926Y0060390D03*
X0321532Y0148303D03*
X0321532Y0155783D03*
X0321729Y0167161D03*
X0321729Y0174642D03*
D17*
X0312006Y0089091D02*
X0306806Y0089091D01*
X0306806Y0079091D02*
X0312006Y0079091D01*
X0312006Y0069091D02*
X0306806Y0069091D01*
X0306806Y0059091D02*
X0312006Y0059091D01*
X0312006Y0049091D02*
X0306806Y0049091D01*
X0306806Y0039091D02*
X0312006Y0039091D01*
X0312006Y0029091D02*
X0306806Y0029091D01*
X0306806Y0019091D02*
X0312006Y0019091D01*
X0336806Y0019091D02*
X0342006Y0019091D01*
X0342006Y0029091D02*
X0336806Y0029091D01*
X0336806Y0039091D02*
X0342006Y0039091D01*
X0342006Y0049091D02*
X0336806Y0049091D01*
X0336806Y0059091D02*
X0342006Y0059091D01*
X0342006Y0069091D02*
X0336806Y0069091D01*
X0336806Y0079091D02*
X0342006Y0079091D01*
X0342006Y0089091D02*
X0336806Y0089091D01*
D18*
X0331886Y0148461D03*
X0331886Y0155941D03*
X0340548Y0152201D03*
D19*
X0221151Y0130179D03*
X0219251Y0130179D03*
X0217251Y0130179D03*
X0215251Y0130179D03*
X0213351Y0130179D03*
X0211351Y0130179D03*
X0209351Y0130179D03*
X0207351Y0130179D03*
X0205451Y0130179D03*
X0203451Y0130179D03*
X0201451Y0130179D03*
X0199551Y0130179D03*
X0199551Y0096979D03*
X0201451Y0096979D03*
X0203451Y0096979D03*
X0205451Y0096979D03*
X0207351Y0096979D03*
X0209351Y0096979D03*
X0211351Y0096979D03*
X0213351Y0096979D03*
X0215251Y0096979D03*
X0217251Y0096979D03*
X0219251Y0096979D03*
X0221151Y0096979D03*
D20*
X0226951Y0102779D03*
X0226951Y0104679D03*
X0226951Y0106679D03*
X0226951Y0108679D03*
X0226951Y0110579D03*
X0226951Y0112579D03*
X0226951Y0114579D03*
X0226951Y0116579D03*
X0226951Y0118479D03*
X0226951Y0120479D03*
X0226951Y0122479D03*
X0226951Y0124379D03*
X0193751Y0124379D03*
X0193751Y0122479D03*
X0193751Y0120479D03*
X0193751Y0118479D03*
X0193751Y0116579D03*
X0193751Y0114579D03*
X0193751Y0112579D03*
X0193751Y0110579D03*
X0193751Y0108679D03*
X0193751Y0106679D03*
X0193751Y0104679D03*
X0193751Y0102779D03*
D21*
X0146099Y0107280D03*
X0146099Y0097280D03*
X0146099Y0087280D03*
X0146099Y0077280D03*
X0146099Y0067280D03*
X0146099Y0057280D03*
X0146099Y0047280D03*
X0096099Y0047280D03*
X0096099Y0057280D03*
X0096099Y0067280D03*
X0096099Y0077280D03*
X0096099Y0087280D03*
X0096099Y0097280D03*
X0096099Y0107280D03*
X0096099Y0117280D03*
X0146099Y0117280D03*
D22*
X0237595Y0027280D03*
X0247595Y0017280D03*
X0257595Y0027280D03*
D23*
X0209603Y0027437D03*
X0363107Y0122949D03*
X0091453Y0178224D03*
D24*
X0119406Y0106413D03*
X0139327Y0101689D03*
X0126532Y0080705D03*
X0189052Y0128618D03*
X0212989Y0139406D03*
X0218264Y0153067D03*
X0228816Y0164130D03*
X0228737Y0178618D03*
X0202201Y0186374D03*
X0227123Y0205114D03*
X0247595Y0215114D03*
X0312753Y0174760D03*
X0260272Y0147476D03*
X0228658Y0134602D03*
X0219052Y0121138D03*
X0217713Y0115744D03*
X0211375Y0104091D03*
X0199327Y0107201D03*
X0243579Y0067909D03*
X0271217Y0069287D03*
X0257438Y0117673D03*
X0257556Y0121846D03*
X0338501Y0239248D03*
X0342083Y0238815D03*
M02*
