G75*
%MOIN*%
%OFA0B0*%
%FSLAX25Y25*%
%IPPOS*%
%LPD*%
%AMOC8*
5,1,8,0,0,1.08239X$1,22.5*
%
%ADD10C,0.00000*%
D10*
X0044997Y0001256D02*
X0044997Y0267004D01*
X0395390Y0267004D01*
X0395390Y0001256D01*
X0044997Y0001256D01*
X0203304Y0027437D02*
X0203306Y0027595D01*
X0203312Y0027753D01*
X0203322Y0027911D01*
X0203336Y0028069D01*
X0203354Y0028226D01*
X0203375Y0028383D01*
X0203401Y0028539D01*
X0203431Y0028695D01*
X0203464Y0028850D01*
X0203502Y0029003D01*
X0203543Y0029156D01*
X0203588Y0029308D01*
X0203637Y0029459D01*
X0203690Y0029608D01*
X0203746Y0029756D01*
X0203806Y0029902D01*
X0203870Y0030047D01*
X0203938Y0030190D01*
X0204009Y0030332D01*
X0204083Y0030472D01*
X0204161Y0030609D01*
X0204243Y0030745D01*
X0204327Y0030879D01*
X0204416Y0031010D01*
X0204507Y0031139D01*
X0204602Y0031266D01*
X0204699Y0031391D01*
X0204800Y0031513D01*
X0204904Y0031632D01*
X0205011Y0031749D01*
X0205121Y0031863D01*
X0205234Y0031974D01*
X0205349Y0032083D01*
X0205467Y0032188D01*
X0205588Y0032290D01*
X0205711Y0032390D01*
X0205837Y0032486D01*
X0205965Y0032579D01*
X0206095Y0032669D01*
X0206228Y0032755D01*
X0206363Y0032839D01*
X0206499Y0032918D01*
X0206638Y0032995D01*
X0206779Y0033067D01*
X0206921Y0033137D01*
X0207065Y0033202D01*
X0207211Y0033264D01*
X0207358Y0033322D01*
X0207507Y0033377D01*
X0207657Y0033428D01*
X0207808Y0033475D01*
X0207960Y0033518D01*
X0208113Y0033557D01*
X0208268Y0033593D01*
X0208423Y0033624D01*
X0208579Y0033652D01*
X0208735Y0033676D01*
X0208892Y0033696D01*
X0209050Y0033712D01*
X0209207Y0033724D01*
X0209366Y0033732D01*
X0209524Y0033736D01*
X0209682Y0033736D01*
X0209840Y0033732D01*
X0209999Y0033724D01*
X0210156Y0033712D01*
X0210314Y0033696D01*
X0210471Y0033676D01*
X0210627Y0033652D01*
X0210783Y0033624D01*
X0210938Y0033593D01*
X0211093Y0033557D01*
X0211246Y0033518D01*
X0211398Y0033475D01*
X0211549Y0033428D01*
X0211699Y0033377D01*
X0211848Y0033322D01*
X0211995Y0033264D01*
X0212141Y0033202D01*
X0212285Y0033137D01*
X0212427Y0033067D01*
X0212568Y0032995D01*
X0212707Y0032918D01*
X0212843Y0032839D01*
X0212978Y0032755D01*
X0213111Y0032669D01*
X0213241Y0032579D01*
X0213369Y0032486D01*
X0213495Y0032390D01*
X0213618Y0032290D01*
X0213739Y0032188D01*
X0213857Y0032083D01*
X0213972Y0031974D01*
X0214085Y0031863D01*
X0214195Y0031749D01*
X0214302Y0031632D01*
X0214406Y0031513D01*
X0214507Y0031391D01*
X0214604Y0031266D01*
X0214699Y0031139D01*
X0214790Y0031010D01*
X0214879Y0030879D01*
X0214963Y0030745D01*
X0215045Y0030609D01*
X0215123Y0030472D01*
X0215197Y0030332D01*
X0215268Y0030190D01*
X0215336Y0030047D01*
X0215400Y0029902D01*
X0215460Y0029756D01*
X0215516Y0029608D01*
X0215569Y0029459D01*
X0215618Y0029308D01*
X0215663Y0029156D01*
X0215704Y0029003D01*
X0215742Y0028850D01*
X0215775Y0028695D01*
X0215805Y0028539D01*
X0215831Y0028383D01*
X0215852Y0028226D01*
X0215870Y0028069D01*
X0215884Y0027911D01*
X0215894Y0027753D01*
X0215900Y0027595D01*
X0215902Y0027437D01*
X0215900Y0027279D01*
X0215894Y0027121D01*
X0215884Y0026963D01*
X0215870Y0026805D01*
X0215852Y0026648D01*
X0215831Y0026491D01*
X0215805Y0026335D01*
X0215775Y0026179D01*
X0215742Y0026024D01*
X0215704Y0025871D01*
X0215663Y0025718D01*
X0215618Y0025566D01*
X0215569Y0025415D01*
X0215516Y0025266D01*
X0215460Y0025118D01*
X0215400Y0024972D01*
X0215336Y0024827D01*
X0215268Y0024684D01*
X0215197Y0024542D01*
X0215123Y0024402D01*
X0215045Y0024265D01*
X0214963Y0024129D01*
X0214879Y0023995D01*
X0214790Y0023864D01*
X0214699Y0023735D01*
X0214604Y0023608D01*
X0214507Y0023483D01*
X0214406Y0023361D01*
X0214302Y0023242D01*
X0214195Y0023125D01*
X0214085Y0023011D01*
X0213972Y0022900D01*
X0213857Y0022791D01*
X0213739Y0022686D01*
X0213618Y0022584D01*
X0213495Y0022484D01*
X0213369Y0022388D01*
X0213241Y0022295D01*
X0213111Y0022205D01*
X0212978Y0022119D01*
X0212843Y0022035D01*
X0212707Y0021956D01*
X0212568Y0021879D01*
X0212427Y0021807D01*
X0212285Y0021737D01*
X0212141Y0021672D01*
X0211995Y0021610D01*
X0211848Y0021552D01*
X0211699Y0021497D01*
X0211549Y0021446D01*
X0211398Y0021399D01*
X0211246Y0021356D01*
X0211093Y0021317D01*
X0210938Y0021281D01*
X0210783Y0021250D01*
X0210627Y0021222D01*
X0210471Y0021198D01*
X0210314Y0021178D01*
X0210156Y0021162D01*
X0209999Y0021150D01*
X0209840Y0021142D01*
X0209682Y0021138D01*
X0209524Y0021138D01*
X0209366Y0021142D01*
X0209207Y0021150D01*
X0209050Y0021162D01*
X0208892Y0021178D01*
X0208735Y0021198D01*
X0208579Y0021222D01*
X0208423Y0021250D01*
X0208268Y0021281D01*
X0208113Y0021317D01*
X0207960Y0021356D01*
X0207808Y0021399D01*
X0207657Y0021446D01*
X0207507Y0021497D01*
X0207358Y0021552D01*
X0207211Y0021610D01*
X0207065Y0021672D01*
X0206921Y0021737D01*
X0206779Y0021807D01*
X0206638Y0021879D01*
X0206499Y0021956D01*
X0206363Y0022035D01*
X0206228Y0022119D01*
X0206095Y0022205D01*
X0205965Y0022295D01*
X0205837Y0022388D01*
X0205711Y0022484D01*
X0205588Y0022584D01*
X0205467Y0022686D01*
X0205349Y0022791D01*
X0205234Y0022900D01*
X0205121Y0023011D01*
X0205011Y0023125D01*
X0204904Y0023242D01*
X0204800Y0023361D01*
X0204699Y0023483D01*
X0204602Y0023608D01*
X0204507Y0023735D01*
X0204416Y0023864D01*
X0204327Y0023995D01*
X0204243Y0024129D01*
X0204161Y0024265D01*
X0204083Y0024402D01*
X0204009Y0024542D01*
X0203938Y0024684D01*
X0203870Y0024827D01*
X0203806Y0024972D01*
X0203746Y0025118D01*
X0203690Y0025266D01*
X0203637Y0025415D01*
X0203588Y0025566D01*
X0203543Y0025718D01*
X0203502Y0025871D01*
X0203464Y0026024D01*
X0203431Y0026179D01*
X0203401Y0026335D01*
X0203375Y0026491D01*
X0203354Y0026648D01*
X0203336Y0026805D01*
X0203322Y0026963D01*
X0203312Y0027121D01*
X0203306Y0027279D01*
X0203304Y0027437D01*
X0356808Y0122949D02*
X0356810Y0123107D01*
X0356816Y0123265D01*
X0356826Y0123423D01*
X0356840Y0123581D01*
X0356858Y0123738D01*
X0356879Y0123895D01*
X0356905Y0124051D01*
X0356935Y0124207D01*
X0356968Y0124362D01*
X0357006Y0124515D01*
X0357047Y0124668D01*
X0357092Y0124820D01*
X0357141Y0124971D01*
X0357194Y0125120D01*
X0357250Y0125268D01*
X0357310Y0125414D01*
X0357374Y0125559D01*
X0357442Y0125702D01*
X0357513Y0125844D01*
X0357587Y0125984D01*
X0357665Y0126121D01*
X0357747Y0126257D01*
X0357831Y0126391D01*
X0357920Y0126522D01*
X0358011Y0126651D01*
X0358106Y0126778D01*
X0358203Y0126903D01*
X0358304Y0127025D01*
X0358408Y0127144D01*
X0358515Y0127261D01*
X0358625Y0127375D01*
X0358738Y0127486D01*
X0358853Y0127595D01*
X0358971Y0127700D01*
X0359092Y0127802D01*
X0359215Y0127902D01*
X0359341Y0127998D01*
X0359469Y0128091D01*
X0359599Y0128181D01*
X0359732Y0128267D01*
X0359867Y0128351D01*
X0360003Y0128430D01*
X0360142Y0128507D01*
X0360283Y0128579D01*
X0360425Y0128649D01*
X0360569Y0128714D01*
X0360715Y0128776D01*
X0360862Y0128834D01*
X0361011Y0128889D01*
X0361161Y0128940D01*
X0361312Y0128987D01*
X0361464Y0129030D01*
X0361617Y0129069D01*
X0361772Y0129105D01*
X0361927Y0129136D01*
X0362083Y0129164D01*
X0362239Y0129188D01*
X0362396Y0129208D01*
X0362554Y0129224D01*
X0362711Y0129236D01*
X0362870Y0129244D01*
X0363028Y0129248D01*
X0363186Y0129248D01*
X0363344Y0129244D01*
X0363503Y0129236D01*
X0363660Y0129224D01*
X0363818Y0129208D01*
X0363975Y0129188D01*
X0364131Y0129164D01*
X0364287Y0129136D01*
X0364442Y0129105D01*
X0364597Y0129069D01*
X0364750Y0129030D01*
X0364902Y0128987D01*
X0365053Y0128940D01*
X0365203Y0128889D01*
X0365352Y0128834D01*
X0365499Y0128776D01*
X0365645Y0128714D01*
X0365789Y0128649D01*
X0365931Y0128579D01*
X0366072Y0128507D01*
X0366211Y0128430D01*
X0366347Y0128351D01*
X0366482Y0128267D01*
X0366615Y0128181D01*
X0366745Y0128091D01*
X0366873Y0127998D01*
X0366999Y0127902D01*
X0367122Y0127802D01*
X0367243Y0127700D01*
X0367361Y0127595D01*
X0367476Y0127486D01*
X0367589Y0127375D01*
X0367699Y0127261D01*
X0367806Y0127144D01*
X0367910Y0127025D01*
X0368011Y0126903D01*
X0368108Y0126778D01*
X0368203Y0126651D01*
X0368294Y0126522D01*
X0368383Y0126391D01*
X0368467Y0126257D01*
X0368549Y0126121D01*
X0368627Y0125984D01*
X0368701Y0125844D01*
X0368772Y0125702D01*
X0368840Y0125559D01*
X0368904Y0125414D01*
X0368964Y0125268D01*
X0369020Y0125120D01*
X0369073Y0124971D01*
X0369122Y0124820D01*
X0369167Y0124668D01*
X0369208Y0124515D01*
X0369246Y0124362D01*
X0369279Y0124207D01*
X0369309Y0124051D01*
X0369335Y0123895D01*
X0369356Y0123738D01*
X0369374Y0123581D01*
X0369388Y0123423D01*
X0369398Y0123265D01*
X0369404Y0123107D01*
X0369406Y0122949D01*
X0369404Y0122791D01*
X0369398Y0122633D01*
X0369388Y0122475D01*
X0369374Y0122317D01*
X0369356Y0122160D01*
X0369335Y0122003D01*
X0369309Y0121847D01*
X0369279Y0121691D01*
X0369246Y0121536D01*
X0369208Y0121383D01*
X0369167Y0121230D01*
X0369122Y0121078D01*
X0369073Y0120927D01*
X0369020Y0120778D01*
X0368964Y0120630D01*
X0368904Y0120484D01*
X0368840Y0120339D01*
X0368772Y0120196D01*
X0368701Y0120054D01*
X0368627Y0119914D01*
X0368549Y0119777D01*
X0368467Y0119641D01*
X0368383Y0119507D01*
X0368294Y0119376D01*
X0368203Y0119247D01*
X0368108Y0119120D01*
X0368011Y0118995D01*
X0367910Y0118873D01*
X0367806Y0118754D01*
X0367699Y0118637D01*
X0367589Y0118523D01*
X0367476Y0118412D01*
X0367361Y0118303D01*
X0367243Y0118198D01*
X0367122Y0118096D01*
X0366999Y0117996D01*
X0366873Y0117900D01*
X0366745Y0117807D01*
X0366615Y0117717D01*
X0366482Y0117631D01*
X0366347Y0117547D01*
X0366211Y0117468D01*
X0366072Y0117391D01*
X0365931Y0117319D01*
X0365789Y0117249D01*
X0365645Y0117184D01*
X0365499Y0117122D01*
X0365352Y0117064D01*
X0365203Y0117009D01*
X0365053Y0116958D01*
X0364902Y0116911D01*
X0364750Y0116868D01*
X0364597Y0116829D01*
X0364442Y0116793D01*
X0364287Y0116762D01*
X0364131Y0116734D01*
X0363975Y0116710D01*
X0363818Y0116690D01*
X0363660Y0116674D01*
X0363503Y0116662D01*
X0363344Y0116654D01*
X0363186Y0116650D01*
X0363028Y0116650D01*
X0362870Y0116654D01*
X0362711Y0116662D01*
X0362554Y0116674D01*
X0362396Y0116690D01*
X0362239Y0116710D01*
X0362083Y0116734D01*
X0361927Y0116762D01*
X0361772Y0116793D01*
X0361617Y0116829D01*
X0361464Y0116868D01*
X0361312Y0116911D01*
X0361161Y0116958D01*
X0361011Y0117009D01*
X0360862Y0117064D01*
X0360715Y0117122D01*
X0360569Y0117184D01*
X0360425Y0117249D01*
X0360283Y0117319D01*
X0360142Y0117391D01*
X0360003Y0117468D01*
X0359867Y0117547D01*
X0359732Y0117631D01*
X0359599Y0117717D01*
X0359469Y0117807D01*
X0359341Y0117900D01*
X0359215Y0117996D01*
X0359092Y0118096D01*
X0358971Y0118198D01*
X0358853Y0118303D01*
X0358738Y0118412D01*
X0358625Y0118523D01*
X0358515Y0118637D01*
X0358408Y0118754D01*
X0358304Y0118873D01*
X0358203Y0118995D01*
X0358106Y0119120D01*
X0358011Y0119247D01*
X0357920Y0119376D01*
X0357831Y0119507D01*
X0357747Y0119641D01*
X0357665Y0119777D01*
X0357587Y0119914D01*
X0357513Y0120054D01*
X0357442Y0120196D01*
X0357374Y0120339D01*
X0357310Y0120484D01*
X0357250Y0120630D01*
X0357194Y0120778D01*
X0357141Y0120927D01*
X0357092Y0121078D01*
X0357047Y0121230D01*
X0357006Y0121383D01*
X0356968Y0121536D01*
X0356935Y0121691D01*
X0356905Y0121847D01*
X0356879Y0122003D01*
X0356858Y0122160D01*
X0356840Y0122317D01*
X0356826Y0122475D01*
X0356816Y0122633D01*
X0356810Y0122791D01*
X0356808Y0122949D01*
X0085154Y0178224D02*
X0085156Y0178382D01*
X0085162Y0178540D01*
X0085172Y0178698D01*
X0085186Y0178856D01*
X0085204Y0179013D01*
X0085225Y0179170D01*
X0085251Y0179326D01*
X0085281Y0179482D01*
X0085314Y0179637D01*
X0085352Y0179790D01*
X0085393Y0179943D01*
X0085438Y0180095D01*
X0085487Y0180246D01*
X0085540Y0180395D01*
X0085596Y0180543D01*
X0085656Y0180689D01*
X0085720Y0180834D01*
X0085788Y0180977D01*
X0085859Y0181119D01*
X0085933Y0181259D01*
X0086011Y0181396D01*
X0086093Y0181532D01*
X0086177Y0181666D01*
X0086266Y0181797D01*
X0086357Y0181926D01*
X0086452Y0182053D01*
X0086549Y0182178D01*
X0086650Y0182300D01*
X0086754Y0182419D01*
X0086861Y0182536D01*
X0086971Y0182650D01*
X0087084Y0182761D01*
X0087199Y0182870D01*
X0087317Y0182975D01*
X0087438Y0183077D01*
X0087561Y0183177D01*
X0087687Y0183273D01*
X0087815Y0183366D01*
X0087945Y0183456D01*
X0088078Y0183542D01*
X0088213Y0183626D01*
X0088349Y0183705D01*
X0088488Y0183782D01*
X0088629Y0183854D01*
X0088771Y0183924D01*
X0088915Y0183989D01*
X0089061Y0184051D01*
X0089208Y0184109D01*
X0089357Y0184164D01*
X0089507Y0184215D01*
X0089658Y0184262D01*
X0089810Y0184305D01*
X0089963Y0184344D01*
X0090118Y0184380D01*
X0090273Y0184411D01*
X0090429Y0184439D01*
X0090585Y0184463D01*
X0090742Y0184483D01*
X0090900Y0184499D01*
X0091057Y0184511D01*
X0091216Y0184519D01*
X0091374Y0184523D01*
X0091532Y0184523D01*
X0091690Y0184519D01*
X0091849Y0184511D01*
X0092006Y0184499D01*
X0092164Y0184483D01*
X0092321Y0184463D01*
X0092477Y0184439D01*
X0092633Y0184411D01*
X0092788Y0184380D01*
X0092943Y0184344D01*
X0093096Y0184305D01*
X0093248Y0184262D01*
X0093399Y0184215D01*
X0093549Y0184164D01*
X0093698Y0184109D01*
X0093845Y0184051D01*
X0093991Y0183989D01*
X0094135Y0183924D01*
X0094277Y0183854D01*
X0094418Y0183782D01*
X0094557Y0183705D01*
X0094693Y0183626D01*
X0094828Y0183542D01*
X0094961Y0183456D01*
X0095091Y0183366D01*
X0095219Y0183273D01*
X0095345Y0183177D01*
X0095468Y0183077D01*
X0095589Y0182975D01*
X0095707Y0182870D01*
X0095822Y0182761D01*
X0095935Y0182650D01*
X0096045Y0182536D01*
X0096152Y0182419D01*
X0096256Y0182300D01*
X0096357Y0182178D01*
X0096454Y0182053D01*
X0096549Y0181926D01*
X0096640Y0181797D01*
X0096729Y0181666D01*
X0096813Y0181532D01*
X0096895Y0181396D01*
X0096973Y0181259D01*
X0097047Y0181119D01*
X0097118Y0180977D01*
X0097186Y0180834D01*
X0097250Y0180689D01*
X0097310Y0180543D01*
X0097366Y0180395D01*
X0097419Y0180246D01*
X0097468Y0180095D01*
X0097513Y0179943D01*
X0097554Y0179790D01*
X0097592Y0179637D01*
X0097625Y0179482D01*
X0097655Y0179326D01*
X0097681Y0179170D01*
X0097702Y0179013D01*
X0097720Y0178856D01*
X0097734Y0178698D01*
X0097744Y0178540D01*
X0097750Y0178382D01*
X0097752Y0178224D01*
X0097750Y0178066D01*
X0097744Y0177908D01*
X0097734Y0177750D01*
X0097720Y0177592D01*
X0097702Y0177435D01*
X0097681Y0177278D01*
X0097655Y0177122D01*
X0097625Y0176966D01*
X0097592Y0176811D01*
X0097554Y0176658D01*
X0097513Y0176505D01*
X0097468Y0176353D01*
X0097419Y0176202D01*
X0097366Y0176053D01*
X0097310Y0175905D01*
X0097250Y0175759D01*
X0097186Y0175614D01*
X0097118Y0175471D01*
X0097047Y0175329D01*
X0096973Y0175189D01*
X0096895Y0175052D01*
X0096813Y0174916D01*
X0096729Y0174782D01*
X0096640Y0174651D01*
X0096549Y0174522D01*
X0096454Y0174395D01*
X0096357Y0174270D01*
X0096256Y0174148D01*
X0096152Y0174029D01*
X0096045Y0173912D01*
X0095935Y0173798D01*
X0095822Y0173687D01*
X0095707Y0173578D01*
X0095589Y0173473D01*
X0095468Y0173371D01*
X0095345Y0173271D01*
X0095219Y0173175D01*
X0095091Y0173082D01*
X0094961Y0172992D01*
X0094828Y0172906D01*
X0094693Y0172822D01*
X0094557Y0172743D01*
X0094418Y0172666D01*
X0094277Y0172594D01*
X0094135Y0172524D01*
X0093991Y0172459D01*
X0093845Y0172397D01*
X0093698Y0172339D01*
X0093549Y0172284D01*
X0093399Y0172233D01*
X0093248Y0172186D01*
X0093096Y0172143D01*
X0092943Y0172104D01*
X0092788Y0172068D01*
X0092633Y0172037D01*
X0092477Y0172009D01*
X0092321Y0171985D01*
X0092164Y0171965D01*
X0092006Y0171949D01*
X0091849Y0171937D01*
X0091690Y0171929D01*
X0091532Y0171925D01*
X0091374Y0171925D01*
X0091216Y0171929D01*
X0091057Y0171937D01*
X0090900Y0171949D01*
X0090742Y0171965D01*
X0090585Y0171985D01*
X0090429Y0172009D01*
X0090273Y0172037D01*
X0090118Y0172068D01*
X0089963Y0172104D01*
X0089810Y0172143D01*
X0089658Y0172186D01*
X0089507Y0172233D01*
X0089357Y0172284D01*
X0089208Y0172339D01*
X0089061Y0172397D01*
X0088915Y0172459D01*
X0088771Y0172524D01*
X0088629Y0172594D01*
X0088488Y0172666D01*
X0088349Y0172743D01*
X0088213Y0172822D01*
X0088078Y0172906D01*
X0087945Y0172992D01*
X0087815Y0173082D01*
X0087687Y0173175D01*
X0087561Y0173271D01*
X0087438Y0173371D01*
X0087317Y0173473D01*
X0087199Y0173578D01*
X0087084Y0173687D01*
X0086971Y0173798D01*
X0086861Y0173912D01*
X0086754Y0174029D01*
X0086650Y0174148D01*
X0086549Y0174270D01*
X0086452Y0174395D01*
X0086357Y0174522D01*
X0086266Y0174651D01*
X0086177Y0174782D01*
X0086093Y0174916D01*
X0086011Y0175052D01*
X0085933Y0175189D01*
X0085859Y0175329D01*
X0085788Y0175471D01*
X0085720Y0175614D01*
X0085656Y0175759D01*
X0085596Y0175905D01*
X0085540Y0176053D01*
X0085487Y0176202D01*
X0085438Y0176353D01*
X0085393Y0176505D01*
X0085352Y0176658D01*
X0085314Y0176811D01*
X0085281Y0176966D01*
X0085251Y0177122D01*
X0085225Y0177278D01*
X0085204Y0177435D01*
X0085186Y0177592D01*
X0085172Y0177750D01*
X0085162Y0177908D01*
X0085156Y0178066D01*
X0085154Y0178224D01*
M02*
