G75*
%MOIN*%
%OFA0B0*%
%FSLAX25Y25*%
%IPPOS*%
%LPD*%
%AMOC8*
5,1,8,0,0,1.08239X$1,22.5*
%
%ADD10C,0.06800*%
%ADD11C,0.06000*%
%ADD12C,0.06343*%
%ADD13OC8,0.06000*%
%ADD14C,0.13398*%
%ADD15C,0.03581*%
D10*
X0071249Y0067201D02*
X0077249Y0067201D01*
X0077249Y0077201D02*
X0071249Y0077201D01*
X0071249Y0087201D02*
X0077249Y0087201D01*
X0077249Y0097201D02*
X0071249Y0097201D01*
X0135981Y0167272D02*
X0135981Y0173272D01*
X0145981Y0173272D02*
X0145981Y0167272D01*
X0155981Y0167272D02*
X0155981Y0173272D01*
X0165981Y0173272D02*
X0165981Y0167272D01*
X0175981Y0167272D02*
X0175981Y0173272D01*
X0185981Y0173272D02*
X0185981Y0167272D01*
X0239091Y0137957D02*
X0239091Y0131957D01*
X0249091Y0131957D02*
X0249091Y0137957D01*
X0272233Y0142634D02*
X0278233Y0142634D01*
X0278233Y0132634D02*
X0272233Y0132634D01*
X0272233Y0122634D02*
X0278233Y0122634D01*
X0278233Y0112634D02*
X0272233Y0112634D01*
X0319989Y0117319D02*
X0325989Y0117319D01*
X0325989Y0127319D02*
X0319989Y0127319D01*
X0319989Y0107319D02*
X0325989Y0107319D01*
X0278587Y0163264D02*
X0272587Y0163264D01*
X0272587Y0173264D02*
X0278587Y0173264D01*
X0278587Y0183264D02*
X0272587Y0183264D01*
X0272587Y0193264D02*
X0278587Y0193264D01*
X0324949Y0205114D02*
X0330949Y0205114D01*
X0330949Y0215114D02*
X0324949Y0215114D01*
X0324949Y0225114D02*
X0330949Y0225114D01*
X0330949Y0235114D02*
X0324949Y0235114D01*
X0324949Y0245114D02*
X0330949Y0245114D01*
X0330949Y0255114D02*
X0324949Y0255114D01*
X0334485Y0184374D02*
X0334485Y0178374D01*
X0344485Y0178374D02*
X0344485Y0184374D01*
X0277406Y0045626D02*
X0271406Y0045626D01*
X0271406Y0035626D02*
X0277406Y0035626D01*
X0354721Y0021618D02*
X0354721Y0015618D01*
X0364721Y0015618D02*
X0364721Y0021618D01*
X0111501Y0205114D02*
X0105501Y0205114D01*
X0105501Y0215114D02*
X0111501Y0215114D01*
X0111501Y0225114D02*
X0105501Y0225114D01*
X0105501Y0235114D02*
X0111501Y0235114D01*
X0111501Y0245114D02*
X0105501Y0245114D01*
X0105501Y0255114D02*
X0111501Y0255114D01*
D11*
X0306806Y0089091D02*
X0312006Y0089091D01*
X0312006Y0079091D02*
X0306806Y0079091D01*
X0306806Y0069091D02*
X0312006Y0069091D01*
X0312006Y0059091D02*
X0306806Y0059091D01*
X0306806Y0049091D02*
X0312006Y0049091D01*
X0312006Y0039091D02*
X0306806Y0039091D01*
X0306806Y0029091D02*
X0312006Y0029091D01*
X0312006Y0019091D02*
X0306806Y0019091D01*
X0336806Y0019091D02*
X0342006Y0019091D01*
X0342006Y0029091D02*
X0336806Y0029091D01*
X0336806Y0039091D02*
X0342006Y0039091D01*
X0342006Y0049091D02*
X0336806Y0049091D01*
X0336806Y0059091D02*
X0342006Y0059091D01*
X0342006Y0069091D02*
X0336806Y0069091D01*
X0336806Y0079091D02*
X0342006Y0079091D01*
X0342006Y0089091D02*
X0336806Y0089091D01*
D12*
X0146099Y0087280D03*
X0146099Y0097280D03*
X0146099Y0107280D03*
X0146099Y0117280D03*
X0096099Y0117280D03*
X0096099Y0107280D03*
X0096099Y0097280D03*
X0096099Y0087280D03*
X0096099Y0077280D03*
X0096099Y0067280D03*
X0096099Y0057280D03*
X0096099Y0047280D03*
X0146099Y0047280D03*
X0146099Y0057280D03*
X0146099Y0067280D03*
X0146099Y0077280D03*
D13*
X0237595Y0027280D03*
X0247595Y0017280D03*
X0257595Y0027280D03*
D14*
X0209603Y0027437D03*
X0363107Y0122949D03*
X0091453Y0178224D03*
D15*
X0119406Y0106413D03*
X0139327Y0101689D03*
X0126532Y0080705D03*
X0189052Y0128618D03*
X0212989Y0139406D03*
X0218264Y0153067D03*
X0228816Y0164130D03*
X0228737Y0178618D03*
X0202201Y0186374D03*
X0227123Y0205114D03*
X0247595Y0215114D03*
X0312753Y0174760D03*
X0260272Y0147476D03*
X0228658Y0134602D03*
X0219052Y0121138D03*
X0217713Y0115744D03*
X0211375Y0104091D03*
X0199327Y0107201D03*
X0243579Y0067909D03*
X0271217Y0069287D03*
X0257438Y0117673D03*
X0257556Y0121846D03*
X0338501Y0239248D03*
X0342083Y0238815D03*
M02*
