G75*
%MOIN*%
%OFA0B0*%
%FSLAX25Y25*%
%IPPOS*%
%LPD*%
%AMOC8*
5,1,8,0,0,1.08239X$1,22.5*
%
%ADD10C,0.06000*%
%ADD11C,0.05200*%
%ADD12C,0.05543*%
%ADD13OC8,0.05200*%
%ADD14C,0.02781*%
%ADD15C,0.01600*%
%ADD16C,0.01000*%
%ADD17C,0.06600*%
%ADD18C,0.04000*%
%ADD19C,0.08600*%
D10*
X0071249Y0067201D02*
X0077249Y0067201D01*
X0077249Y0077201D02*
X0071249Y0077201D01*
X0071249Y0087201D02*
X0077249Y0087201D01*
X0077249Y0097201D02*
X0071249Y0097201D01*
X0135981Y0167272D02*
X0135981Y0173272D01*
X0145981Y0173272D02*
X0145981Y0167272D01*
X0155981Y0167272D02*
X0155981Y0173272D01*
X0165981Y0173272D02*
X0165981Y0167272D01*
X0175981Y0167272D02*
X0175981Y0173272D01*
X0185981Y0173272D02*
X0185981Y0167272D01*
X0239091Y0137957D02*
X0239091Y0131957D01*
X0249091Y0131957D02*
X0249091Y0137957D01*
X0272233Y0142634D02*
X0278233Y0142634D01*
X0278233Y0132634D02*
X0272233Y0132634D01*
X0272233Y0122634D02*
X0278233Y0122634D01*
X0278233Y0112634D02*
X0272233Y0112634D01*
X0319989Y0117319D02*
X0325989Y0117319D01*
X0325989Y0127319D02*
X0319989Y0127319D01*
X0319989Y0107319D02*
X0325989Y0107319D01*
X0278587Y0163264D02*
X0272587Y0163264D01*
X0272587Y0173264D02*
X0278587Y0173264D01*
X0278587Y0183264D02*
X0272587Y0183264D01*
X0272587Y0193264D02*
X0278587Y0193264D01*
X0324949Y0205114D02*
X0330949Y0205114D01*
X0330949Y0215114D02*
X0324949Y0215114D01*
X0324949Y0225114D02*
X0330949Y0225114D01*
X0330949Y0235114D02*
X0324949Y0235114D01*
X0324949Y0245114D02*
X0330949Y0245114D01*
X0330949Y0255114D02*
X0324949Y0255114D01*
X0334485Y0184374D02*
X0334485Y0178374D01*
X0344485Y0178374D02*
X0344485Y0184374D01*
X0277406Y0045626D02*
X0271406Y0045626D01*
X0271406Y0035626D02*
X0277406Y0035626D01*
X0354721Y0021618D02*
X0354721Y0015618D01*
X0364721Y0015618D02*
X0364721Y0021618D01*
X0111501Y0205114D02*
X0105501Y0205114D01*
X0105501Y0215114D02*
X0111501Y0215114D01*
X0111501Y0225114D02*
X0105501Y0225114D01*
X0105501Y0235114D02*
X0111501Y0235114D01*
X0111501Y0245114D02*
X0105501Y0245114D01*
X0105501Y0255114D02*
X0111501Y0255114D01*
D11*
X0306806Y0089091D02*
X0312006Y0089091D01*
X0312006Y0079091D02*
X0306806Y0079091D01*
X0306806Y0069091D02*
X0312006Y0069091D01*
X0312006Y0059091D02*
X0306806Y0059091D01*
X0306806Y0049091D02*
X0312006Y0049091D01*
X0312006Y0039091D02*
X0306806Y0039091D01*
X0306806Y0029091D02*
X0312006Y0029091D01*
X0312006Y0019091D02*
X0306806Y0019091D01*
X0336806Y0019091D02*
X0342006Y0019091D01*
X0342006Y0029091D02*
X0336806Y0029091D01*
X0336806Y0039091D02*
X0342006Y0039091D01*
X0342006Y0049091D02*
X0336806Y0049091D01*
X0336806Y0059091D02*
X0342006Y0059091D01*
X0342006Y0069091D02*
X0336806Y0069091D01*
X0336806Y0079091D02*
X0342006Y0079091D01*
X0342006Y0089091D02*
X0336806Y0089091D01*
D12*
X0146099Y0087280D03*
X0146099Y0097280D03*
X0146099Y0107280D03*
X0146099Y0117280D03*
X0096099Y0117280D03*
X0096099Y0107280D03*
X0096099Y0097280D03*
X0096099Y0087280D03*
X0096099Y0077280D03*
X0096099Y0067280D03*
X0096099Y0057280D03*
X0096099Y0047280D03*
X0146099Y0047280D03*
X0146099Y0057280D03*
X0146099Y0067280D03*
X0146099Y0077280D03*
D13*
X0237595Y0027280D03*
X0247595Y0017280D03*
X0257595Y0027280D03*
D14*
X0243579Y0067909D03*
X0271217Y0069287D03*
X0211375Y0104091D03*
X0199327Y0107201D03*
X0217713Y0115744D03*
X0219052Y0121138D03*
X0228658Y0134602D03*
X0212989Y0139406D03*
X0218264Y0153067D03*
X0228816Y0164130D03*
X0228737Y0178618D03*
X0202201Y0186374D03*
X0227123Y0205114D03*
X0247595Y0215114D03*
X0312753Y0174760D03*
X0260272Y0147476D03*
X0257556Y0121846D03*
X0257438Y0117673D03*
X0189052Y0128618D03*
X0139327Y0101689D03*
X0119406Y0106413D03*
X0126532Y0080705D03*
X0338501Y0239248D03*
X0342083Y0238815D03*
D15*
X0338776Y0235075D02*
X0327989Y0235075D01*
X0338776Y0235075D02*
X0344367Y0229484D01*
X0344406Y0201059D01*
X0344485Y0181374D01*
X0327949Y0205114D02*
X0227123Y0205114D01*
X0234170Y0205114D01*
X0227123Y0205114D02*
X0108501Y0205114D01*
X0108501Y0215114D02*
X0247595Y0215114D01*
X0257792Y0215114D01*
X0327949Y0215114D01*
X0321020Y0048815D02*
X0309682Y0048815D01*
X0321020Y0048815D02*
X0328619Y0041217D01*
X0328619Y0017634D01*
X0335351Y0010902D01*
X0346257Y0010902D01*
X0353973Y0018618D01*
X0354721Y0018618D01*
X0364721Y0018618D02*
X0364721Y0013697D01*
X0360902Y0009878D01*
X0351965Y0009878D01*
X0349170Y0007083D01*
X0332516Y0007083D01*
X0323186Y0016413D01*
X0323186Y0034524D01*
X0318579Y0039130D01*
X0309446Y0039130D01*
D16*
X0049839Y0005665D02*
X0050036Y0261965D01*
X0391296Y0261965D01*
X0391099Y0005665D01*
X0351261Y0005665D01*
X0351273Y0005677D01*
X0352993Y0007397D01*
X0361396Y0007397D01*
X0362308Y0007775D01*
X0363006Y0008473D01*
X0365470Y0010937D01*
X0365652Y0010937D01*
X0367373Y0011650D01*
X0368690Y0012966D01*
X0369402Y0014687D01*
X0369402Y0022549D01*
X0368690Y0024270D01*
X0367373Y0025587D01*
X0365652Y0026299D01*
X0363790Y0026299D01*
X0362069Y0025587D01*
X0360753Y0024270D01*
X0360040Y0022549D01*
X0360040Y0014687D01*
X0360673Y0013158D01*
X0359875Y0012359D01*
X0358082Y0012359D01*
X0358690Y0012966D01*
X0359402Y0014687D01*
X0359402Y0022549D01*
X0358690Y0024270D01*
X0357373Y0025587D01*
X0355652Y0026299D01*
X0353790Y0026299D01*
X0352069Y0025587D01*
X0350753Y0024270D01*
X0350040Y0022549D01*
X0350040Y0018194D01*
X0345229Y0013383D01*
X0336379Y0013383D01*
X0331100Y0018662D01*
X0331100Y0041710D01*
X0330722Y0042622D01*
X0323124Y0050220D01*
X0322426Y0050918D01*
X0321514Y0051296D01*
X0315726Y0051296D01*
X0315635Y0051516D01*
X0314431Y0052720D01*
X0312858Y0053372D01*
X0305955Y0053372D01*
X0304381Y0052720D01*
X0303177Y0051516D01*
X0302525Y0049942D01*
X0302525Y0048239D01*
X0303177Y0046666D01*
X0304381Y0045461D01*
X0305955Y0044809D01*
X0312858Y0044809D01*
X0314431Y0045461D01*
X0315304Y0046334D01*
X0319993Y0046334D01*
X0326138Y0040189D01*
X0326138Y0017140D01*
X0326258Y0016850D01*
X0325667Y0017441D01*
X0325667Y0035017D01*
X0325289Y0035929D01*
X0320683Y0040535D01*
X0319985Y0041233D01*
X0319073Y0041611D01*
X0315540Y0041611D01*
X0314431Y0042720D01*
X0312858Y0043372D01*
X0305955Y0043372D01*
X0304381Y0042720D01*
X0303177Y0041516D01*
X0302525Y0039942D01*
X0302525Y0038239D01*
X0303177Y0036666D01*
X0304381Y0035461D01*
X0305955Y0034809D01*
X0312858Y0034809D01*
X0314431Y0035461D01*
X0315619Y0036649D01*
X0317552Y0036649D01*
X0320705Y0033496D01*
X0320705Y0015920D01*
X0321082Y0015008D01*
X0321780Y0014310D01*
X0330425Y0005665D01*
X0049839Y0005665D01*
X0049840Y0006248D02*
X0329842Y0006248D01*
X0328843Y0007247D02*
X0049840Y0007247D01*
X0049841Y0008245D02*
X0327845Y0008245D01*
X0326846Y0009244D02*
X0049842Y0009244D01*
X0049843Y0010243D02*
X0206042Y0010243D01*
X0207087Y0009936D02*
X0202258Y0011354D01*
X0202258Y0011354D01*
X0198024Y0014075D01*
X0198024Y0014075D01*
X0194729Y0017878D01*
X0194729Y0017878D01*
X0192638Y0022456D01*
X0192638Y0022456D01*
X0191922Y0027437D01*
X0191922Y0027437D01*
X0192638Y0032418D01*
X0192638Y0032418D01*
X0194729Y0036996D01*
X0194729Y0036996D01*
X0198024Y0040799D01*
X0198024Y0040799D01*
X0198024Y0040799D01*
X0202258Y0043520D01*
X0202258Y0043520D01*
X0207087Y0044938D01*
X0212119Y0044938D01*
X0216948Y0043520D01*
X0216948Y0043520D01*
X0221182Y0040799D01*
X0221182Y0040799D01*
X0224477Y0036996D01*
X0226568Y0032418D01*
X0227284Y0027437D01*
X0227284Y0027437D01*
X0226568Y0022456D01*
X0226568Y0022456D01*
X0224477Y0017878D01*
X0224477Y0017878D01*
X0221182Y0014075D01*
X0221182Y0014075D01*
X0221182Y0014075D01*
X0216948Y0011354D01*
X0216948Y0011354D01*
X0212119Y0009936D01*
X0207087Y0009936D01*
X0202642Y0011241D02*
X0049844Y0011241D01*
X0049844Y0012240D02*
X0200880Y0012240D01*
X0199326Y0013238D02*
X0049845Y0013238D01*
X0049846Y0014237D02*
X0197884Y0014237D01*
X0197019Y0015235D02*
X0049847Y0015235D01*
X0049847Y0016234D02*
X0196154Y0016234D01*
X0195288Y0017232D02*
X0049848Y0017232D01*
X0049849Y0018231D02*
X0194568Y0018231D01*
X0194112Y0019229D02*
X0049850Y0019229D01*
X0049850Y0020228D02*
X0193656Y0020228D01*
X0193200Y0021226D02*
X0049851Y0021226D01*
X0049852Y0022225D02*
X0192744Y0022225D01*
X0192528Y0023223D02*
X0049853Y0023223D01*
X0049853Y0024222D02*
X0192384Y0024222D01*
X0192241Y0025220D02*
X0049854Y0025220D01*
X0049855Y0026219D02*
X0192097Y0026219D01*
X0191954Y0027217D02*
X0049856Y0027217D01*
X0049857Y0028216D02*
X0192034Y0028216D01*
X0192177Y0029214D02*
X0049857Y0029214D01*
X0049858Y0030213D02*
X0192321Y0030213D01*
X0192465Y0031211D02*
X0049859Y0031211D01*
X0049860Y0032210D02*
X0192608Y0032210D01*
X0192999Y0033208D02*
X0049860Y0033208D01*
X0049861Y0034207D02*
X0193455Y0034207D01*
X0193911Y0035205D02*
X0049862Y0035205D01*
X0049863Y0036204D02*
X0194367Y0036204D01*
X0194907Y0037202D02*
X0049863Y0037202D01*
X0049864Y0038201D02*
X0195773Y0038201D01*
X0196638Y0039199D02*
X0049865Y0039199D01*
X0049866Y0040198D02*
X0197503Y0040198D01*
X0198642Y0041196D02*
X0049867Y0041196D01*
X0049867Y0042195D02*
X0200196Y0042195D01*
X0201749Y0043193D02*
X0147870Y0043193D01*
X0148621Y0043505D02*
X0149874Y0044757D01*
X0150552Y0046394D01*
X0150552Y0048165D01*
X0149874Y0049802D01*
X0148621Y0051054D01*
X0146985Y0051732D01*
X0145213Y0051732D01*
X0144872Y0051591D01*
X0141509Y0054955D01*
X0141509Y0099526D01*
X0141931Y0099949D01*
X0142399Y0101078D01*
X0142399Y0102300D01*
X0141931Y0103429D01*
X0141067Y0104293D01*
X0139938Y0104761D01*
X0138716Y0104761D01*
X0137587Y0104293D01*
X0136723Y0103429D01*
X0136256Y0102300D01*
X0136256Y0101078D01*
X0136723Y0099949D01*
X0137146Y0099526D01*
X0137146Y0053148D01*
X0141788Y0048506D01*
X0141646Y0048165D01*
X0141646Y0046394D01*
X0142324Y0044757D01*
X0143577Y0043505D01*
X0145213Y0042827D01*
X0146985Y0042827D01*
X0148621Y0043505D01*
X0149309Y0044192D02*
X0204545Y0044192D01*
X0214661Y0044192D02*
X0266933Y0044192D01*
X0266725Y0044695D02*
X0267438Y0042974D01*
X0268755Y0041658D01*
X0270475Y0040945D01*
X0278337Y0040945D01*
X0280058Y0041658D01*
X0281375Y0042974D01*
X0282087Y0044695D01*
X0282087Y0046557D01*
X0281375Y0048278D01*
X0280058Y0049594D01*
X0278337Y0050307D01*
X0270475Y0050307D01*
X0268755Y0049594D01*
X0267438Y0048278D01*
X0266725Y0046557D01*
X0266725Y0044695D01*
X0266725Y0045190D02*
X0150053Y0045190D01*
X0150467Y0046189D02*
X0266725Y0046189D01*
X0266986Y0047187D02*
X0150552Y0047187D01*
X0150543Y0048186D02*
X0267400Y0048186D01*
X0268345Y0049184D02*
X0150130Y0049184D01*
X0149493Y0050183D02*
X0270175Y0050183D01*
X0267347Y0043193D02*
X0217457Y0043193D01*
X0219010Y0042195D02*
X0268217Y0042195D01*
X0269868Y0041196D02*
X0220564Y0041196D01*
X0221703Y0040198D02*
X0270211Y0040198D01*
X0270475Y0040307D02*
X0268755Y0039594D01*
X0267438Y0038278D01*
X0266725Y0036557D01*
X0266725Y0034695D01*
X0267438Y0032974D01*
X0268755Y0031658D01*
X0270475Y0030945D01*
X0278337Y0030945D01*
X0280058Y0031658D01*
X0281375Y0032974D01*
X0282087Y0034695D01*
X0282087Y0036557D01*
X0281375Y0038278D01*
X0280058Y0039594D01*
X0278337Y0040307D01*
X0270475Y0040307D01*
X0268359Y0039199D02*
X0222568Y0039199D01*
X0223433Y0038201D02*
X0267406Y0038201D01*
X0266992Y0037202D02*
X0224299Y0037202D01*
X0224839Y0036204D02*
X0266725Y0036204D01*
X0266725Y0035205D02*
X0225295Y0035205D01*
X0225751Y0034207D02*
X0266927Y0034207D01*
X0267341Y0033208D02*
X0226207Y0033208D01*
X0226598Y0032210D02*
X0268202Y0032210D01*
X0269832Y0031211D02*
X0259462Y0031211D01*
X0259293Y0031380D02*
X0257895Y0031380D01*
X0257895Y0027580D01*
X0257295Y0027580D01*
X0257295Y0031380D01*
X0255897Y0031380D01*
X0253495Y0028978D01*
X0253495Y0027580D01*
X0257295Y0027580D01*
X0257295Y0026980D01*
X0253495Y0026980D01*
X0253495Y0025581D01*
X0255897Y0023180D01*
X0257295Y0023180D01*
X0257295Y0026979D01*
X0257895Y0026979D01*
X0257895Y0023180D01*
X0259293Y0023180D01*
X0261695Y0025581D01*
X0261695Y0026980D01*
X0257895Y0026980D01*
X0257895Y0027580D01*
X0261695Y0027580D01*
X0261695Y0028978D01*
X0259293Y0031380D01*
X0257895Y0031211D02*
X0257295Y0031211D01*
X0257295Y0030213D02*
X0257895Y0030213D01*
X0257895Y0029214D02*
X0257295Y0029214D01*
X0257295Y0028216D02*
X0257895Y0028216D01*
X0257895Y0027217D02*
X0302948Y0027217D01*
X0303177Y0026666D02*
X0304381Y0025461D01*
X0305955Y0024809D01*
X0312858Y0024809D01*
X0314431Y0025461D01*
X0315635Y0026666D01*
X0316287Y0028239D01*
X0316287Y0029942D01*
X0315635Y0031516D01*
X0314431Y0032720D01*
X0312858Y0033372D01*
X0305955Y0033372D01*
X0304381Y0032720D01*
X0303177Y0031516D01*
X0302525Y0029942D01*
X0302525Y0028239D01*
X0303177Y0026666D01*
X0303624Y0026219D02*
X0261695Y0026219D01*
X0261334Y0025220D02*
X0304963Y0025220D01*
X0305596Y0023223D02*
X0259337Y0023223D01*
X0260336Y0024222D02*
X0320705Y0024222D01*
X0320705Y0025220D02*
X0313849Y0025220D01*
X0315189Y0026219D02*
X0320705Y0026219D01*
X0320705Y0027217D02*
X0315864Y0027217D01*
X0316278Y0028216D02*
X0320705Y0028216D01*
X0320705Y0029214D02*
X0316287Y0029214D01*
X0316175Y0030213D02*
X0320705Y0030213D01*
X0320705Y0031211D02*
X0315762Y0031211D01*
X0314941Y0032210D02*
X0320705Y0032210D01*
X0320705Y0033208D02*
X0313252Y0033208D01*
X0313813Y0035205D02*
X0318995Y0035205D01*
X0319994Y0034207D02*
X0281885Y0034207D01*
X0282087Y0035205D02*
X0304999Y0035205D01*
X0303639Y0036204D02*
X0282087Y0036204D01*
X0281820Y0037202D02*
X0302954Y0037202D01*
X0302541Y0038201D02*
X0281406Y0038201D01*
X0280453Y0039199D02*
X0302525Y0039199D01*
X0302631Y0040198D02*
X0278601Y0040198D01*
X0278944Y0041196D02*
X0303045Y0041196D01*
X0303856Y0042195D02*
X0280595Y0042195D01*
X0281465Y0043193D02*
X0305524Y0043193D01*
X0305035Y0045190D02*
X0282087Y0045190D01*
X0282087Y0046189D02*
X0303653Y0046189D01*
X0302961Y0047187D02*
X0281826Y0047187D01*
X0281413Y0048186D02*
X0302547Y0048186D01*
X0302525Y0049184D02*
X0280468Y0049184D01*
X0278637Y0050183D02*
X0302625Y0050183D01*
X0303038Y0051181D02*
X0148315Y0051181D01*
X0147834Y0053178D02*
X0305488Y0053178D01*
X0305955Y0054809D02*
X0304381Y0055461D01*
X0303177Y0056666D01*
X0302525Y0058239D01*
X0302525Y0059942D01*
X0303177Y0061516D01*
X0304381Y0062720D01*
X0305955Y0063372D01*
X0312858Y0063372D01*
X0314431Y0062720D01*
X0315635Y0061516D01*
X0316287Y0059942D01*
X0316287Y0058239D01*
X0315635Y0056666D01*
X0314431Y0055461D01*
X0312858Y0054809D01*
X0305955Y0054809D01*
X0305071Y0055176D02*
X0150047Y0055176D01*
X0149874Y0054757D02*
X0150552Y0056394D01*
X0150552Y0058165D01*
X0149874Y0059802D01*
X0148621Y0061054D01*
X0146985Y0061732D01*
X0145213Y0061732D01*
X0143577Y0061054D01*
X0142324Y0059802D01*
X0141646Y0058165D01*
X0141646Y0056394D01*
X0142324Y0054757D01*
X0143577Y0053505D01*
X0145213Y0052827D01*
X0146985Y0052827D01*
X0148621Y0053505D01*
X0149874Y0054757D01*
X0149294Y0054177D02*
X0391136Y0054177D01*
X0391137Y0055176D02*
X0343225Y0055176D01*
X0342966Y0055092D02*
X0343580Y0055291D01*
X0344155Y0055584D01*
X0344677Y0055963D01*
X0345133Y0056420D01*
X0345513Y0056942D01*
X0345806Y0057517D01*
X0346005Y0058130D01*
X0346106Y0058768D01*
X0346106Y0058791D01*
X0339706Y0058791D01*
X0339706Y0059391D01*
X0339106Y0059391D01*
X0339106Y0063191D01*
X0336483Y0063191D01*
X0335846Y0063090D01*
X0335232Y0062890D01*
X0334657Y0062597D01*
X0334135Y0062218D01*
X0333679Y0061762D01*
X0333300Y0061239D01*
X0333007Y0060664D01*
X0332807Y0060051D01*
X0332706Y0059413D01*
X0332706Y0059391D01*
X0339106Y0059391D01*
X0339106Y0058791D01*
X0332706Y0058791D01*
X0332706Y0058768D01*
X0332807Y0058130D01*
X0333007Y0057517D01*
X0333300Y0056942D01*
X0333679Y0056420D01*
X0334135Y0055963D01*
X0334657Y0055584D01*
X0335232Y0055291D01*
X0335846Y0055092D01*
X0336483Y0054991D01*
X0339106Y0054991D01*
X0339106Y0058790D01*
X0339706Y0058790D01*
X0339706Y0054991D01*
X0342329Y0054991D01*
X0342966Y0055092D01*
X0342405Y0053178D02*
X0391136Y0053178D01*
X0391135Y0052180D02*
X0344715Y0052180D01*
X0344677Y0052218D02*
X0344155Y0052597D01*
X0343580Y0052890D01*
X0342966Y0053090D01*
X0342329Y0053191D01*
X0339706Y0053191D01*
X0339706Y0049391D01*
X0339106Y0049391D01*
X0339106Y0053191D01*
X0336483Y0053191D01*
X0335846Y0053090D01*
X0335232Y0052890D01*
X0334657Y0052597D01*
X0334135Y0052218D01*
X0333679Y0051762D01*
X0333300Y0051239D01*
X0333007Y0050664D01*
X0332807Y0050051D01*
X0332706Y0049413D01*
X0332706Y0049391D01*
X0339106Y0049391D01*
X0339106Y0048791D01*
X0332706Y0048791D01*
X0332706Y0048768D01*
X0332807Y0048130D01*
X0333007Y0047517D01*
X0333300Y0046942D01*
X0333679Y0046420D01*
X0334135Y0045963D01*
X0334657Y0045584D01*
X0335232Y0045291D01*
X0335846Y0045092D01*
X0336483Y0044991D01*
X0339106Y0044991D01*
X0339106Y0048790D01*
X0339706Y0048790D01*
X0339706Y0044991D01*
X0342329Y0044991D01*
X0342966Y0045092D01*
X0343580Y0045291D01*
X0344155Y0045584D01*
X0344677Y0045963D01*
X0345133Y0046420D01*
X0345513Y0046942D01*
X0345806Y0047517D01*
X0346005Y0048130D01*
X0346106Y0048768D01*
X0346106Y0048791D01*
X0339706Y0048791D01*
X0339706Y0049391D01*
X0346106Y0049391D01*
X0346106Y0049413D01*
X0346005Y0050051D01*
X0345806Y0050664D01*
X0345513Y0051239D01*
X0345133Y0051762D01*
X0344677Y0052218D01*
X0345542Y0051181D02*
X0391134Y0051181D01*
X0391133Y0050183D02*
X0345962Y0050183D01*
X0346014Y0048186D02*
X0391132Y0048186D01*
X0391133Y0049184D02*
X0339706Y0049184D01*
X0339106Y0049184D02*
X0324160Y0049184D01*
X0325158Y0048186D02*
X0332798Y0048186D01*
X0333174Y0047187D02*
X0326157Y0047187D01*
X0327155Y0046189D02*
X0333910Y0046189D01*
X0335542Y0045190D02*
X0328154Y0045190D01*
X0329152Y0044192D02*
X0391129Y0044192D01*
X0391129Y0045190D02*
X0343271Y0045190D01*
X0344903Y0046189D02*
X0391130Y0046189D01*
X0391131Y0047187D02*
X0345638Y0047187D01*
X0343580Y0042890D02*
X0342966Y0043090D01*
X0342329Y0043191D01*
X0339706Y0043191D01*
X0339706Y0039391D01*
X0339106Y0039391D01*
X0339106Y0043191D01*
X0336483Y0043191D01*
X0335846Y0043090D01*
X0335232Y0042890D01*
X0334657Y0042597D01*
X0334135Y0042218D01*
X0333679Y0041762D01*
X0333300Y0041239D01*
X0333007Y0040664D01*
X0332807Y0040051D01*
X0332706Y0039413D01*
X0332706Y0039391D01*
X0339106Y0039391D01*
X0339106Y0038791D01*
X0332706Y0038791D01*
X0332706Y0038768D01*
X0332807Y0038130D01*
X0333007Y0037517D01*
X0333300Y0036942D01*
X0333679Y0036420D01*
X0334135Y0035963D01*
X0334657Y0035584D01*
X0335232Y0035291D01*
X0335846Y0035092D01*
X0336483Y0034991D01*
X0339106Y0034991D01*
X0339106Y0038790D01*
X0339706Y0038790D01*
X0339706Y0034991D01*
X0342329Y0034991D01*
X0342966Y0035092D01*
X0343580Y0035291D01*
X0344155Y0035584D01*
X0344677Y0035963D01*
X0345133Y0036420D01*
X0345513Y0036942D01*
X0345806Y0037517D01*
X0346005Y0038130D01*
X0346106Y0038768D01*
X0346106Y0038791D01*
X0339706Y0038791D01*
X0339706Y0039391D01*
X0346106Y0039391D01*
X0346106Y0039413D01*
X0346005Y0040051D01*
X0345806Y0040664D01*
X0345513Y0041239D01*
X0345133Y0041762D01*
X0344677Y0042218D01*
X0344155Y0042597D01*
X0343580Y0042890D01*
X0344700Y0042195D02*
X0391127Y0042195D01*
X0391128Y0043193D02*
X0330151Y0043193D01*
X0330899Y0042195D02*
X0334112Y0042195D01*
X0333278Y0041196D02*
X0331100Y0041196D01*
X0331100Y0040198D02*
X0332855Y0040198D01*
X0332796Y0038201D02*
X0331100Y0038201D01*
X0331100Y0039199D02*
X0339106Y0039199D01*
X0339706Y0039199D02*
X0391125Y0039199D01*
X0391124Y0038201D02*
X0346016Y0038201D01*
X0345646Y0037202D02*
X0391123Y0037202D01*
X0391123Y0036204D02*
X0344918Y0036204D01*
X0343316Y0035205D02*
X0391122Y0035205D01*
X0391121Y0034207D02*
X0331100Y0034207D01*
X0331100Y0035205D02*
X0335496Y0035205D01*
X0333895Y0036204D02*
X0331100Y0036204D01*
X0331100Y0037202D02*
X0333167Y0037202D01*
X0326138Y0037202D02*
X0324016Y0037202D01*
X0325014Y0036204D02*
X0326138Y0036204D01*
X0326138Y0035205D02*
X0325589Y0035205D01*
X0325667Y0034207D02*
X0326138Y0034207D01*
X0326138Y0033208D02*
X0325667Y0033208D01*
X0325667Y0032210D02*
X0326138Y0032210D01*
X0326138Y0031211D02*
X0325667Y0031211D01*
X0325667Y0030213D02*
X0326138Y0030213D01*
X0326138Y0029214D02*
X0325667Y0029214D01*
X0325667Y0028216D02*
X0326138Y0028216D01*
X0326138Y0027217D02*
X0325667Y0027217D01*
X0325667Y0026219D02*
X0326138Y0026219D01*
X0326138Y0025220D02*
X0325667Y0025220D01*
X0325667Y0024222D02*
X0326138Y0024222D01*
X0326138Y0023223D02*
X0325667Y0023223D01*
X0325667Y0022225D02*
X0326138Y0022225D01*
X0326138Y0021226D02*
X0325667Y0021226D01*
X0325667Y0020228D02*
X0326138Y0020228D01*
X0326138Y0019229D02*
X0325667Y0019229D01*
X0325667Y0018231D02*
X0326138Y0018231D01*
X0326138Y0017232D02*
X0325876Y0017232D01*
X0322852Y0013238D02*
X0249608Y0013238D01*
X0249368Y0012998D02*
X0251876Y0015506D01*
X0251876Y0019053D01*
X0249368Y0021561D01*
X0245822Y0021561D01*
X0243314Y0019053D01*
X0243314Y0015506D01*
X0245822Y0012998D01*
X0249368Y0012998D01*
X0250607Y0014237D02*
X0321854Y0014237D01*
X0320988Y0015235D02*
X0313885Y0015235D01*
X0314431Y0015461D02*
X0315635Y0016666D01*
X0316287Y0018239D01*
X0316287Y0019942D01*
X0315635Y0021516D01*
X0314431Y0022720D01*
X0312858Y0023372D01*
X0305955Y0023372D01*
X0304381Y0022720D01*
X0303177Y0021516D01*
X0302525Y0019942D01*
X0302525Y0018239D01*
X0303177Y0016666D01*
X0304381Y0015461D01*
X0305955Y0014809D01*
X0312858Y0014809D01*
X0314431Y0015461D01*
X0315204Y0016234D02*
X0320705Y0016234D01*
X0320705Y0017232D02*
X0315870Y0017232D01*
X0316284Y0018231D02*
X0320705Y0018231D01*
X0320705Y0019229D02*
X0316287Y0019229D01*
X0316169Y0020228D02*
X0320705Y0020228D01*
X0320705Y0021226D02*
X0315755Y0021226D01*
X0314926Y0022225D02*
X0320705Y0022225D01*
X0320705Y0023223D02*
X0313216Y0023223D01*
X0303886Y0022225D02*
X0226462Y0022225D01*
X0226678Y0023223D02*
X0235597Y0023223D01*
X0235822Y0022998D02*
X0239368Y0022998D01*
X0241876Y0025506D01*
X0241876Y0029053D01*
X0239368Y0031561D01*
X0235822Y0031561D01*
X0233314Y0029053D01*
X0233314Y0025506D01*
X0235822Y0022998D01*
X0234599Y0024222D02*
X0226822Y0024222D01*
X0226965Y0025220D02*
X0233600Y0025220D01*
X0233314Y0026219D02*
X0227109Y0026219D01*
X0227252Y0027217D02*
X0233314Y0027217D01*
X0233314Y0028216D02*
X0227172Y0028216D01*
X0227029Y0029214D02*
X0233475Y0029214D01*
X0234474Y0030213D02*
X0226885Y0030213D01*
X0226741Y0031211D02*
X0235472Y0031211D01*
X0239718Y0031211D02*
X0255729Y0031211D01*
X0254730Y0030213D02*
X0240716Y0030213D01*
X0241715Y0029214D02*
X0253732Y0029214D01*
X0253495Y0028216D02*
X0241876Y0028216D01*
X0241876Y0027217D02*
X0257295Y0027217D01*
X0257295Y0026219D02*
X0257895Y0026219D01*
X0257895Y0025220D02*
X0257295Y0025220D01*
X0257295Y0024222D02*
X0257895Y0024222D01*
X0257895Y0023223D02*
X0257295Y0023223D01*
X0255853Y0023223D02*
X0239593Y0023223D01*
X0240592Y0024222D02*
X0254855Y0024222D01*
X0253856Y0025220D02*
X0241590Y0025220D01*
X0241876Y0026219D02*
X0253495Y0026219D01*
X0249703Y0021226D02*
X0303057Y0021226D01*
X0302643Y0020228D02*
X0250701Y0020228D01*
X0251700Y0019229D02*
X0302525Y0019229D01*
X0302529Y0018231D02*
X0251876Y0018231D01*
X0251876Y0017232D02*
X0302942Y0017232D01*
X0303609Y0016234D02*
X0251876Y0016234D01*
X0251605Y0015235D02*
X0304927Y0015235D01*
X0302535Y0028216D02*
X0261695Y0028216D01*
X0261459Y0029214D02*
X0302525Y0029214D01*
X0302637Y0030213D02*
X0260460Y0030213D01*
X0245487Y0021226D02*
X0226006Y0021226D01*
X0225550Y0020228D02*
X0244489Y0020228D01*
X0243490Y0019229D02*
X0225094Y0019229D01*
X0224638Y0018231D02*
X0243314Y0018231D01*
X0243314Y0017232D02*
X0223918Y0017232D01*
X0223052Y0016234D02*
X0243314Y0016234D01*
X0243585Y0015235D02*
X0222187Y0015235D01*
X0221322Y0014237D02*
X0244584Y0014237D01*
X0245582Y0013238D02*
X0219880Y0013238D01*
X0218326Y0012240D02*
X0323851Y0012240D01*
X0324849Y0011241D02*
X0216564Y0011241D01*
X0213164Y0010243D02*
X0325848Y0010243D01*
X0332529Y0017232D02*
X0333152Y0017232D01*
X0333007Y0017517D02*
X0333300Y0016942D01*
X0333679Y0016420D01*
X0334135Y0015963D01*
X0334657Y0015584D01*
X0335232Y0015291D01*
X0335846Y0015092D01*
X0336483Y0014991D01*
X0339106Y0014991D01*
X0339106Y0018790D01*
X0339706Y0018790D01*
X0339706Y0014991D01*
X0342329Y0014991D01*
X0342966Y0015092D01*
X0343580Y0015291D01*
X0344155Y0015584D01*
X0344677Y0015963D01*
X0345133Y0016420D01*
X0345513Y0016942D01*
X0345806Y0017517D01*
X0346005Y0018130D01*
X0346106Y0018768D01*
X0346106Y0018791D01*
X0339706Y0018791D01*
X0339706Y0019391D01*
X0339106Y0019391D01*
X0339106Y0023191D01*
X0336483Y0023191D01*
X0335846Y0023090D01*
X0335232Y0022890D01*
X0334657Y0022597D01*
X0334135Y0022218D01*
X0333679Y0021762D01*
X0333300Y0021239D01*
X0333007Y0020664D01*
X0332807Y0020051D01*
X0332706Y0019413D01*
X0332706Y0019391D01*
X0339106Y0019391D01*
X0339106Y0018791D01*
X0332706Y0018791D01*
X0332706Y0018768D01*
X0332807Y0018130D01*
X0333007Y0017517D01*
X0332791Y0018231D02*
X0331531Y0018231D01*
X0331100Y0019229D02*
X0339106Y0019229D01*
X0339706Y0019229D02*
X0350040Y0019229D01*
X0350040Y0018231D02*
X0346021Y0018231D01*
X0345661Y0017232D02*
X0349078Y0017232D01*
X0348080Y0016234D02*
X0344947Y0016234D01*
X0343408Y0015235D02*
X0347081Y0015235D01*
X0346083Y0014237D02*
X0335525Y0014237D01*
X0335404Y0015235D02*
X0334526Y0015235D01*
X0333865Y0016234D02*
X0333528Y0016234D01*
X0332865Y0020228D02*
X0331100Y0020228D01*
X0331100Y0021226D02*
X0333293Y0021226D01*
X0334145Y0022225D02*
X0331100Y0022225D01*
X0331100Y0023223D02*
X0350319Y0023223D01*
X0350040Y0022225D02*
X0344668Y0022225D01*
X0344677Y0022218D02*
X0344155Y0022597D01*
X0343580Y0022890D01*
X0342966Y0023090D01*
X0342329Y0023191D01*
X0339706Y0023191D01*
X0339706Y0019391D01*
X0346106Y0019391D01*
X0346106Y0019413D01*
X0346005Y0020051D01*
X0345806Y0020664D01*
X0345513Y0021239D01*
X0345133Y0021762D01*
X0344677Y0022218D01*
X0345520Y0021226D02*
X0350040Y0021226D01*
X0350040Y0020228D02*
X0345948Y0020228D01*
X0350733Y0024222D02*
X0331100Y0024222D01*
X0331100Y0025220D02*
X0335450Y0025220D01*
X0335232Y0025291D02*
X0335846Y0025092D01*
X0336483Y0024991D01*
X0339106Y0024991D01*
X0339106Y0028790D01*
X0339706Y0028790D01*
X0339706Y0024991D01*
X0342329Y0024991D01*
X0342966Y0025092D01*
X0343580Y0025291D01*
X0344155Y0025584D01*
X0344677Y0025963D01*
X0345133Y0026420D01*
X0345513Y0026942D01*
X0345806Y0027517D01*
X0346005Y0028130D01*
X0346106Y0028768D01*
X0346106Y0028791D01*
X0339706Y0028791D01*
X0339706Y0029391D01*
X0339106Y0029391D01*
X0339106Y0033191D01*
X0336483Y0033191D01*
X0335846Y0033090D01*
X0335232Y0032890D01*
X0334657Y0032597D01*
X0334135Y0032218D01*
X0333679Y0031762D01*
X0333300Y0031239D01*
X0333007Y0030664D01*
X0332807Y0030051D01*
X0332706Y0029413D01*
X0332706Y0029391D01*
X0339106Y0029391D01*
X0339106Y0028791D01*
X0332706Y0028791D01*
X0332706Y0028768D01*
X0332807Y0028130D01*
X0333007Y0027517D01*
X0333300Y0026942D01*
X0333679Y0026420D01*
X0334135Y0025963D01*
X0334657Y0025584D01*
X0335232Y0025291D01*
X0333880Y0026219D02*
X0331100Y0026219D01*
X0331100Y0027217D02*
X0333159Y0027217D01*
X0332794Y0028216D02*
X0331100Y0028216D01*
X0331100Y0029214D02*
X0339106Y0029214D01*
X0339706Y0029214D02*
X0391117Y0029214D01*
X0391116Y0028216D02*
X0346019Y0028216D01*
X0345653Y0027217D02*
X0391116Y0027217D01*
X0391115Y0026219D02*
X0365847Y0026219D01*
X0367739Y0025220D02*
X0391114Y0025220D01*
X0391113Y0024222D02*
X0368709Y0024222D01*
X0369123Y0023223D02*
X0391113Y0023223D01*
X0391112Y0022225D02*
X0369402Y0022225D01*
X0369402Y0021226D02*
X0391111Y0021226D01*
X0391110Y0020228D02*
X0369402Y0020228D01*
X0369402Y0019229D02*
X0391109Y0019229D01*
X0391109Y0018231D02*
X0369402Y0018231D01*
X0369402Y0017232D02*
X0391108Y0017232D01*
X0391107Y0016234D02*
X0369402Y0016234D01*
X0369402Y0015235D02*
X0391106Y0015235D01*
X0391106Y0014237D02*
X0369216Y0014237D01*
X0368802Y0013238D02*
X0391105Y0013238D01*
X0391104Y0012240D02*
X0367963Y0012240D01*
X0366386Y0011241D02*
X0391103Y0011241D01*
X0391103Y0010243D02*
X0364776Y0010243D01*
X0363777Y0009244D02*
X0391102Y0009244D01*
X0391101Y0008245D02*
X0362779Y0008245D01*
X0360640Y0013238D02*
X0358802Y0013238D01*
X0359216Y0014237D02*
X0360227Y0014237D01*
X0360040Y0015235D02*
X0359402Y0015235D01*
X0359402Y0016234D02*
X0360040Y0016234D01*
X0360040Y0017232D02*
X0359402Y0017232D01*
X0359402Y0018231D02*
X0360040Y0018231D01*
X0360040Y0019229D02*
X0359402Y0019229D01*
X0359402Y0020228D02*
X0360040Y0020228D01*
X0360040Y0021226D02*
X0359402Y0021226D01*
X0359402Y0022225D02*
X0360040Y0022225D01*
X0360319Y0023223D02*
X0359123Y0023223D01*
X0358709Y0024222D02*
X0360733Y0024222D01*
X0361703Y0025220D02*
X0357739Y0025220D01*
X0355847Y0026219D02*
X0363596Y0026219D01*
X0353596Y0026219D02*
X0344933Y0026219D01*
X0343362Y0025220D02*
X0351703Y0025220D01*
X0346106Y0029391D02*
X0346106Y0029413D01*
X0346005Y0030051D01*
X0345806Y0030664D01*
X0345513Y0031239D01*
X0345133Y0031762D01*
X0344677Y0032218D01*
X0344155Y0032597D01*
X0343580Y0032890D01*
X0342966Y0033090D01*
X0342329Y0033191D01*
X0339706Y0033191D01*
X0339706Y0029391D01*
X0346106Y0029391D01*
X0345953Y0030213D02*
X0391118Y0030213D01*
X0391119Y0031211D02*
X0345527Y0031211D01*
X0344685Y0032210D02*
X0391119Y0032210D01*
X0391120Y0033208D02*
X0331100Y0033208D01*
X0331100Y0032210D02*
X0334127Y0032210D01*
X0333285Y0031211D02*
X0331100Y0031211D01*
X0331100Y0030213D02*
X0332860Y0030213D01*
X0339106Y0030213D02*
X0339706Y0030213D01*
X0339706Y0031211D02*
X0339106Y0031211D01*
X0339106Y0032210D02*
X0339706Y0032210D01*
X0339706Y0035205D02*
X0339106Y0035205D01*
X0339106Y0036204D02*
X0339706Y0036204D01*
X0339706Y0037202D02*
X0339106Y0037202D01*
X0339106Y0038201D02*
X0339706Y0038201D01*
X0339706Y0040198D02*
X0339106Y0040198D01*
X0339106Y0041196D02*
X0339706Y0041196D01*
X0339706Y0042195D02*
X0339106Y0042195D01*
X0339106Y0045190D02*
X0339706Y0045190D01*
X0339706Y0046189D02*
X0339106Y0046189D01*
X0339106Y0047187D02*
X0339706Y0047187D01*
X0339706Y0048186D02*
X0339106Y0048186D01*
X0339106Y0050183D02*
X0339706Y0050183D01*
X0339706Y0051181D02*
X0339106Y0051181D01*
X0339106Y0052180D02*
X0339706Y0052180D01*
X0339706Y0053178D02*
X0339106Y0053178D01*
X0339106Y0055176D02*
X0339706Y0055176D01*
X0339706Y0056174D02*
X0339106Y0056174D01*
X0339106Y0057173D02*
X0339706Y0057173D01*
X0339706Y0058171D02*
X0339106Y0058171D01*
X0339106Y0059170D02*
X0316287Y0059170D01*
X0316259Y0058171D02*
X0332801Y0058171D01*
X0333182Y0057173D02*
X0315846Y0057173D01*
X0315144Y0056174D02*
X0333924Y0056174D01*
X0335588Y0055176D02*
X0313741Y0055176D01*
X0313324Y0053178D02*
X0336407Y0053178D01*
X0334097Y0052180D02*
X0314971Y0052180D01*
X0315159Y0046189D02*
X0320138Y0046189D01*
X0321136Y0045190D02*
X0313777Y0045190D01*
X0313288Y0043193D02*
X0323133Y0043193D01*
X0324132Y0042195D02*
X0314956Y0042195D01*
X0320022Y0041196D02*
X0325130Y0041196D01*
X0326129Y0040198D02*
X0321020Y0040198D01*
X0322019Y0039199D02*
X0326138Y0039199D01*
X0326138Y0038201D02*
X0323017Y0038201D01*
X0317997Y0036204D02*
X0315174Y0036204D01*
X0305560Y0033208D02*
X0281471Y0033208D01*
X0280610Y0032210D02*
X0303871Y0032210D01*
X0303051Y0031211D02*
X0278980Y0031211D01*
X0281879Y0044192D02*
X0322135Y0044192D01*
X0323161Y0050183D02*
X0332850Y0050183D01*
X0333270Y0051181D02*
X0321790Y0051181D01*
X0316194Y0060168D02*
X0332845Y0060168D01*
X0333262Y0061167D02*
X0315780Y0061167D01*
X0314986Y0062165D02*
X0334082Y0062165D01*
X0336313Y0063164D02*
X0313360Y0063164D01*
X0312858Y0064809D02*
X0314431Y0065461D01*
X0315635Y0066666D01*
X0316287Y0068239D01*
X0316287Y0069942D01*
X0315635Y0071516D01*
X0314431Y0072720D01*
X0312858Y0073372D01*
X0305955Y0073372D01*
X0304381Y0072720D01*
X0303177Y0071516D01*
X0302525Y0069942D01*
X0302525Y0068239D01*
X0303177Y0066666D01*
X0304381Y0065461D01*
X0305955Y0064809D01*
X0312858Y0064809D01*
X0313706Y0065161D02*
X0335633Y0065161D01*
X0335846Y0065092D02*
X0336483Y0064991D01*
X0339106Y0064991D01*
X0339106Y0068790D01*
X0339706Y0068790D01*
X0339706Y0064991D01*
X0342329Y0064991D01*
X0342966Y0065092D01*
X0343580Y0065291D01*
X0344155Y0065584D01*
X0344677Y0065963D01*
X0345133Y0066420D01*
X0345513Y0066942D01*
X0345806Y0067517D01*
X0346005Y0068130D01*
X0346106Y0068768D01*
X0346106Y0068791D01*
X0339706Y0068791D01*
X0339706Y0069391D01*
X0339106Y0069391D01*
X0339106Y0073191D01*
X0336483Y0073191D01*
X0335846Y0073090D01*
X0335232Y0072890D01*
X0334657Y0072597D01*
X0334135Y0072218D01*
X0333679Y0071762D01*
X0333300Y0071239D01*
X0333007Y0070664D01*
X0332807Y0070051D01*
X0332706Y0069413D01*
X0332706Y0069391D01*
X0339106Y0069391D01*
X0339106Y0068791D01*
X0332706Y0068791D01*
X0332706Y0068768D01*
X0332807Y0068130D01*
X0333007Y0067517D01*
X0333300Y0066942D01*
X0333679Y0066420D01*
X0334135Y0065963D01*
X0334657Y0065584D01*
X0335232Y0065291D01*
X0335846Y0065092D01*
X0333939Y0066159D02*
X0315129Y0066159D01*
X0315839Y0067158D02*
X0333189Y0067158D01*
X0332803Y0068156D02*
X0316253Y0068156D01*
X0316287Y0069155D02*
X0339106Y0069155D01*
X0339706Y0069155D02*
X0391148Y0069155D01*
X0391149Y0070153D02*
X0345972Y0070153D01*
X0346005Y0070051D02*
X0345806Y0070664D01*
X0345513Y0071239D01*
X0345133Y0071762D01*
X0344677Y0072218D01*
X0344155Y0072597D01*
X0343580Y0072890D01*
X0342966Y0073090D01*
X0342329Y0073191D01*
X0339706Y0073191D01*
X0339706Y0069391D01*
X0346106Y0069391D01*
X0346106Y0069413D01*
X0346005Y0070051D01*
X0345557Y0071152D02*
X0391149Y0071152D01*
X0391150Y0072150D02*
X0344745Y0072150D01*
X0342593Y0073149D02*
X0391151Y0073149D01*
X0391152Y0074147D02*
X0273280Y0074147D01*
X0273280Y0073149D02*
X0305416Y0073149D01*
X0305955Y0074809D02*
X0304381Y0075461D01*
X0303177Y0076666D01*
X0302525Y0078239D01*
X0302525Y0079942D01*
X0303177Y0081516D01*
X0304381Y0082720D01*
X0305955Y0083372D01*
X0312858Y0083372D01*
X0314431Y0082720D01*
X0315635Y0081516D01*
X0316287Y0079942D01*
X0316287Y0078239D01*
X0315635Y0076666D01*
X0314431Y0075461D01*
X0312858Y0074809D01*
X0305955Y0074809D01*
X0305143Y0075146D02*
X0273280Y0075146D01*
X0273280Y0076144D02*
X0303698Y0076144D01*
X0302979Y0077143D02*
X0273280Y0077143D01*
X0273280Y0078141D02*
X0302566Y0078141D01*
X0302525Y0079140D02*
X0273280Y0079140D01*
X0273280Y0080138D02*
X0302606Y0080138D01*
X0303020Y0081137D02*
X0272374Y0081137D01*
X0272003Y0081508D02*
X0261548Y0091962D01*
X0261548Y0108856D01*
X0270837Y0118145D01*
X0271302Y0117953D01*
X0279164Y0117953D01*
X0280885Y0118665D01*
X0282201Y0119982D01*
X0282914Y0121703D01*
X0282914Y0123565D01*
X0282201Y0125285D01*
X0280885Y0126602D01*
X0279164Y0127315D01*
X0272999Y0127315D01*
X0273636Y0127953D01*
X0279164Y0127953D01*
X0280885Y0128665D01*
X0282201Y0129982D01*
X0282914Y0131703D01*
X0282914Y0133565D01*
X0282201Y0135285D01*
X0282113Y0135374D01*
X0291928Y0135374D01*
X0300886Y0126415D01*
X0302164Y0125138D01*
X0315825Y0125138D01*
X0316020Y0124667D01*
X0317337Y0123350D01*
X0319058Y0122638D01*
X0326920Y0122638D01*
X0328640Y0123350D01*
X0329957Y0124667D01*
X0330670Y0126388D01*
X0330670Y0128250D01*
X0329957Y0129971D01*
X0328640Y0131287D01*
X0326920Y0132000D01*
X0319058Y0132000D01*
X0317337Y0131287D01*
X0316020Y0129971D01*
X0315825Y0129500D01*
X0303971Y0129500D01*
X0293735Y0139736D01*
X0281955Y0139736D01*
X0282201Y0139982D01*
X0282914Y0141703D01*
X0282914Y0143565D01*
X0282201Y0145285D01*
X0280885Y0146602D01*
X0279164Y0147315D01*
X0271302Y0147315D01*
X0269581Y0146602D01*
X0268264Y0145285D01*
X0267552Y0143565D01*
X0267552Y0141703D01*
X0268264Y0139982D01*
X0268644Y0139602D01*
X0267501Y0138459D01*
X0255375Y0126333D01*
X0255375Y0124009D01*
X0254952Y0123586D01*
X0254484Y0122457D01*
X0254484Y0121235D01*
X0254952Y0120106D01*
X0255239Y0119819D01*
X0254834Y0119413D01*
X0254366Y0118284D01*
X0254366Y0117062D01*
X0254834Y0115933D01*
X0255698Y0115069D01*
X0256827Y0114602D01*
X0258049Y0114602D01*
X0259178Y0115069D01*
X0259601Y0115492D01*
X0261176Y0115492D01*
X0267552Y0121868D01*
X0267552Y0121703D01*
X0267749Y0121227D01*
X0258463Y0111941D01*
X0256924Y0111941D01*
X0249304Y0119561D01*
X0249304Y0127276D01*
X0250022Y0127276D01*
X0251743Y0127988D01*
X0253060Y0129305D01*
X0253772Y0131026D01*
X0253772Y0138888D01*
X0253060Y0140608D01*
X0251743Y0141925D01*
X0250022Y0142638D01*
X0249857Y0142638D01*
X0252514Y0145295D01*
X0258109Y0145295D01*
X0258532Y0144872D01*
X0259661Y0144405D01*
X0260883Y0144405D01*
X0262012Y0144872D01*
X0262876Y0145736D01*
X0263344Y0146865D01*
X0263344Y0148087D01*
X0262876Y0149216D01*
X0262388Y0149705D01*
X0305310Y0149705D01*
X0313656Y0158051D01*
X0314934Y0159329D01*
X0314934Y0172597D01*
X0315357Y0173020D01*
X0315824Y0174149D01*
X0315824Y0175371D01*
X0315357Y0176500D01*
X0314493Y0177364D01*
X0313364Y0177831D01*
X0312142Y0177831D01*
X0311013Y0177364D01*
X0310149Y0176500D01*
X0309681Y0175371D01*
X0309681Y0174149D01*
X0310149Y0173020D01*
X0310572Y0172597D01*
X0310572Y0161136D01*
X0303503Y0154067D01*
X0244999Y0154067D01*
X0243721Y0152789D01*
X0234697Y0143766D01*
X0234697Y0161333D01*
X0231887Y0164143D01*
X0231887Y0164741D01*
X0231420Y0165870D01*
X0230556Y0166734D01*
X0229427Y0167202D01*
X0228205Y0167202D01*
X0227076Y0166734D01*
X0226212Y0165870D01*
X0225744Y0164741D01*
X0225744Y0163519D01*
X0226212Y0162390D01*
X0227076Y0161526D01*
X0228205Y0161058D01*
X0228803Y0161058D01*
X0230335Y0159526D01*
X0230335Y0142576D01*
X0229387Y0141661D01*
X0215142Y0141596D01*
X0214729Y0142010D01*
X0213600Y0142477D01*
X0212378Y0142477D01*
X0211249Y0142010D01*
X0210385Y0141145D01*
X0209917Y0140016D01*
X0209917Y0138795D01*
X0210385Y0137666D01*
X0211249Y0136801D01*
X0212378Y0136334D01*
X0213600Y0136334D01*
X0214729Y0136801D01*
X0215162Y0137234D01*
X0227117Y0137289D01*
X0226918Y0137206D01*
X0226054Y0136342D01*
X0225586Y0135213D01*
X0225586Y0133991D01*
X0226054Y0132862D01*
X0226918Y0131998D01*
X0228047Y0131531D01*
X0229269Y0131531D01*
X0230398Y0131998D01*
X0231262Y0132862D01*
X0231730Y0133991D01*
X0231730Y0134629D01*
X0234410Y0137309D01*
X0234410Y0131026D01*
X0235123Y0129305D01*
X0236440Y0127988D01*
X0238160Y0127276D01*
X0240022Y0127276D01*
X0241743Y0127988D01*
X0241949Y0128195D01*
X0241949Y0127159D01*
X0232715Y0117925D01*
X0219876Y0117925D01*
X0219453Y0118348D01*
X0218324Y0118816D01*
X0217102Y0118816D01*
X0215973Y0118348D01*
X0215109Y0117484D01*
X0214642Y0116355D01*
X0214642Y0115133D01*
X0215109Y0114004D01*
X0215973Y0113140D01*
X0217102Y0112672D01*
X0218324Y0112672D01*
X0219453Y0113140D01*
X0219876Y0113563D01*
X0234522Y0113563D01*
X0235800Y0114841D01*
X0244942Y0123982D01*
X0244942Y0117754D01*
X0246219Y0116476D01*
X0255117Y0107579D01*
X0257186Y0107579D01*
X0257186Y0090156D01*
X0268918Y0078423D01*
X0268918Y0071332D01*
X0268613Y0071027D01*
X0268146Y0069898D01*
X0268146Y0068676D01*
X0268613Y0067547D01*
X0269477Y0066683D01*
X0270606Y0066216D01*
X0271828Y0066216D01*
X0272957Y0066683D01*
X0273821Y0067547D01*
X0274289Y0068676D01*
X0274289Y0069898D01*
X0273821Y0071027D01*
X0273280Y0071568D01*
X0273280Y0080230D01*
X0272003Y0081508D01*
X0271375Y0082135D02*
X0303797Y0082135D01*
X0305380Y0083134D02*
X0270377Y0083134D01*
X0269378Y0084132D02*
X0391159Y0084132D01*
X0391159Y0083134D02*
X0342687Y0083134D01*
X0342966Y0083090D02*
X0342329Y0083191D01*
X0339706Y0083191D01*
X0339706Y0079391D01*
X0339106Y0079391D01*
X0339106Y0083191D01*
X0336483Y0083191D01*
X0335846Y0083090D01*
X0335232Y0082890D01*
X0334657Y0082597D01*
X0334135Y0082218D01*
X0333679Y0081762D01*
X0333300Y0081239D01*
X0333007Y0080664D01*
X0332807Y0080051D01*
X0332706Y0079413D01*
X0332706Y0079391D01*
X0339106Y0079391D01*
X0339106Y0078791D01*
X0332706Y0078791D01*
X0332706Y0078768D01*
X0332807Y0078130D01*
X0333007Y0077517D01*
X0333300Y0076942D01*
X0333679Y0076420D01*
X0334135Y0075963D01*
X0334657Y0075584D01*
X0335232Y0075291D01*
X0335846Y0075092D01*
X0336483Y0074991D01*
X0339106Y0074991D01*
X0339106Y0078790D01*
X0339706Y0078790D01*
X0339706Y0074991D01*
X0342329Y0074991D01*
X0342966Y0075092D01*
X0343580Y0075291D01*
X0344155Y0075584D01*
X0344677Y0075963D01*
X0345133Y0076420D01*
X0345513Y0076942D01*
X0345806Y0077517D01*
X0346005Y0078130D01*
X0346106Y0078768D01*
X0346106Y0078791D01*
X0339706Y0078791D01*
X0339706Y0079391D01*
X0346106Y0079391D01*
X0346106Y0079413D01*
X0346005Y0080051D01*
X0345806Y0080664D01*
X0345513Y0081239D01*
X0345133Y0081762D01*
X0344677Y0082218D01*
X0344155Y0082597D01*
X0343580Y0082890D01*
X0342966Y0083090D01*
X0342966Y0085092D02*
X0343580Y0085291D01*
X0344155Y0085584D01*
X0344677Y0085963D01*
X0345133Y0086420D01*
X0345513Y0086942D01*
X0345806Y0087517D01*
X0346005Y0088130D01*
X0346106Y0088768D01*
X0346106Y0088791D01*
X0339706Y0088791D01*
X0339706Y0089391D01*
X0339106Y0089391D01*
X0339106Y0093191D01*
X0336483Y0093191D01*
X0335846Y0093090D01*
X0335232Y0092890D01*
X0334657Y0092597D01*
X0334135Y0092218D01*
X0333679Y0091762D01*
X0333300Y0091239D01*
X0333007Y0090664D01*
X0332807Y0090051D01*
X0332706Y0089413D01*
X0332706Y0089391D01*
X0339106Y0089391D01*
X0339106Y0088791D01*
X0332706Y0088791D01*
X0332706Y0088768D01*
X0332807Y0088130D01*
X0333007Y0087517D01*
X0333300Y0086942D01*
X0333679Y0086420D01*
X0334135Y0085963D01*
X0334657Y0085584D01*
X0335232Y0085291D01*
X0335846Y0085092D01*
X0336483Y0084991D01*
X0339106Y0084991D01*
X0339106Y0088790D01*
X0339706Y0088790D01*
X0339706Y0084991D01*
X0342329Y0084991D01*
X0342966Y0085092D01*
X0343087Y0085131D02*
X0391160Y0085131D01*
X0391161Y0086129D02*
X0344843Y0086129D01*
X0345608Y0087128D02*
X0391162Y0087128D01*
X0391162Y0088126D02*
X0346004Y0088126D01*
X0346106Y0089391D02*
X0346106Y0089413D01*
X0346005Y0090051D01*
X0345806Y0090664D01*
X0345513Y0091239D01*
X0345133Y0091762D01*
X0344677Y0092218D01*
X0344155Y0092597D01*
X0343580Y0092890D01*
X0342966Y0093090D01*
X0342329Y0093191D01*
X0339706Y0093191D01*
X0339706Y0089391D01*
X0346106Y0089391D01*
X0345982Y0090123D02*
X0391164Y0090123D01*
X0391163Y0089125D02*
X0339706Y0089125D01*
X0339106Y0089125D02*
X0316287Y0089125D01*
X0316287Y0089942D02*
X0315635Y0091516D01*
X0314431Y0092720D01*
X0312858Y0093372D01*
X0305955Y0093372D01*
X0304381Y0092720D01*
X0303177Y0091516D01*
X0302525Y0089942D01*
X0302525Y0088239D01*
X0303177Y0086666D01*
X0304381Y0085461D01*
X0305955Y0084809D01*
X0312858Y0084809D01*
X0314431Y0085461D01*
X0315635Y0086666D01*
X0316287Y0088239D01*
X0316287Y0089942D01*
X0316212Y0090123D02*
X0332831Y0090123D01*
X0333240Y0091122D02*
X0315799Y0091122D01*
X0315031Y0092120D02*
X0334038Y0092120D01*
X0336031Y0093119D02*
X0313468Y0093119D01*
X0316241Y0088126D02*
X0332808Y0088126D01*
X0333205Y0087128D02*
X0315827Y0087128D01*
X0315099Y0086129D02*
X0333969Y0086129D01*
X0335725Y0085131D02*
X0313634Y0085131D01*
X0313432Y0083134D02*
X0336125Y0083134D01*
X0334053Y0082135D02*
X0315016Y0082135D01*
X0315792Y0081137D02*
X0333247Y0081137D01*
X0332836Y0080138D02*
X0316206Y0080138D01*
X0316287Y0079140D02*
X0339106Y0079140D01*
X0339706Y0079140D02*
X0391156Y0079140D01*
X0391156Y0080138D02*
X0345977Y0080138D01*
X0345565Y0081137D02*
X0391157Y0081137D01*
X0391158Y0082135D02*
X0344760Y0082135D01*
X0346007Y0078141D02*
X0391155Y0078141D01*
X0391154Y0077143D02*
X0345615Y0077143D01*
X0344858Y0076144D02*
X0391153Y0076144D01*
X0391152Y0075146D02*
X0343133Y0075146D01*
X0339706Y0075146D02*
X0339106Y0075146D01*
X0339106Y0076144D02*
X0339706Y0076144D01*
X0339706Y0077143D02*
X0339106Y0077143D01*
X0339106Y0078141D02*
X0339706Y0078141D01*
X0339706Y0080138D02*
X0339106Y0080138D01*
X0339106Y0081137D02*
X0339706Y0081137D01*
X0339706Y0082135D02*
X0339106Y0082135D01*
X0339106Y0083134D02*
X0339706Y0083134D01*
X0339706Y0085131D02*
X0339106Y0085131D01*
X0339106Y0086129D02*
X0339706Y0086129D01*
X0339706Y0087128D02*
X0339106Y0087128D01*
X0339106Y0088126D02*
X0339706Y0088126D01*
X0339706Y0090123D02*
X0339106Y0090123D01*
X0339106Y0091122D02*
X0339706Y0091122D01*
X0339706Y0092120D02*
X0339106Y0092120D01*
X0339106Y0093119D02*
X0339706Y0093119D01*
X0342781Y0093119D02*
X0391166Y0093119D01*
X0391167Y0094117D02*
X0261548Y0094117D01*
X0261548Y0093119D02*
X0305345Y0093119D01*
X0303782Y0092120D02*
X0261548Y0092120D01*
X0262388Y0091122D02*
X0303014Y0091122D01*
X0302600Y0090123D02*
X0263387Y0090123D01*
X0264385Y0089125D02*
X0302525Y0089125D01*
X0302572Y0088126D02*
X0265384Y0088126D01*
X0266382Y0087128D02*
X0302985Y0087128D01*
X0303713Y0086129D02*
X0267381Y0086129D01*
X0268380Y0085131D02*
X0305179Y0085131D01*
X0316247Y0078141D02*
X0332805Y0078141D01*
X0333197Y0077143D02*
X0315833Y0077143D01*
X0315114Y0076144D02*
X0333954Y0076144D01*
X0335679Y0075146D02*
X0313670Y0075146D01*
X0313396Y0073149D02*
X0336219Y0073149D01*
X0334068Y0072150D02*
X0315001Y0072150D01*
X0315786Y0071152D02*
X0333255Y0071152D01*
X0332840Y0070153D02*
X0316200Y0070153D01*
X0305452Y0063164D02*
X0241998Y0063164D01*
X0243163Y0064162D02*
X0391144Y0064162D01*
X0391143Y0063164D02*
X0342499Y0063164D01*
X0342329Y0063191D02*
X0339706Y0063191D01*
X0339706Y0059391D01*
X0346106Y0059391D01*
X0346106Y0059413D01*
X0346005Y0060051D01*
X0345806Y0060664D01*
X0345513Y0061239D01*
X0345133Y0061762D01*
X0344677Y0062218D01*
X0344155Y0062597D01*
X0343580Y0062890D01*
X0342966Y0063090D01*
X0342329Y0063191D01*
X0343179Y0065161D02*
X0391145Y0065161D01*
X0391146Y0066159D02*
X0344873Y0066159D01*
X0345623Y0067158D02*
X0391146Y0067158D01*
X0391147Y0068156D02*
X0346009Y0068156D01*
X0344730Y0062165D02*
X0391142Y0062165D01*
X0391142Y0061167D02*
X0345550Y0061167D01*
X0345967Y0060168D02*
X0391141Y0060168D01*
X0391140Y0059170D02*
X0339706Y0059170D01*
X0339706Y0060168D02*
X0339106Y0060168D01*
X0339106Y0061167D02*
X0339706Y0061167D01*
X0339706Y0062165D02*
X0339106Y0062165D01*
X0339106Y0063164D02*
X0339706Y0063164D01*
X0339706Y0065161D02*
X0339106Y0065161D01*
X0339106Y0066159D02*
X0339706Y0066159D01*
X0339706Y0067158D02*
X0339106Y0067158D01*
X0339106Y0068156D02*
X0339706Y0068156D01*
X0339706Y0070153D02*
X0339106Y0070153D01*
X0339106Y0071152D02*
X0339706Y0071152D01*
X0339706Y0072150D02*
X0339106Y0072150D01*
X0339106Y0073149D02*
X0339706Y0073149D01*
X0346012Y0058171D02*
X0391139Y0058171D01*
X0391139Y0057173D02*
X0345630Y0057173D01*
X0344888Y0056174D02*
X0391138Y0056174D01*
X0391126Y0041196D02*
X0345535Y0041196D01*
X0345957Y0040198D02*
X0391126Y0040198D01*
X0391100Y0007247D02*
X0352843Y0007247D01*
X0351845Y0006248D02*
X0391100Y0006248D01*
X0339706Y0015235D02*
X0339106Y0015235D01*
X0339106Y0016234D02*
X0339706Y0016234D01*
X0339706Y0017232D02*
X0339106Y0017232D01*
X0339106Y0018231D02*
X0339706Y0018231D01*
X0339706Y0020228D02*
X0339106Y0020228D01*
X0339106Y0021226D02*
X0339706Y0021226D01*
X0339706Y0022225D02*
X0339106Y0022225D01*
X0339106Y0025220D02*
X0339706Y0025220D01*
X0339706Y0026219D02*
X0339106Y0026219D01*
X0339106Y0027217D02*
X0339706Y0027217D01*
X0339706Y0028216D02*
X0339106Y0028216D01*
X0303841Y0052180D02*
X0144283Y0052180D01*
X0144364Y0053178D02*
X0143285Y0053178D01*
X0142904Y0054177D02*
X0142286Y0054177D01*
X0142151Y0055176D02*
X0141509Y0055176D01*
X0141509Y0056174D02*
X0141737Y0056174D01*
X0141646Y0057173D02*
X0141509Y0057173D01*
X0141509Y0058171D02*
X0141649Y0058171D01*
X0141509Y0059170D02*
X0142062Y0059170D01*
X0141509Y0060168D02*
X0142690Y0060168D01*
X0143848Y0061167D02*
X0141509Y0061167D01*
X0141509Y0062165D02*
X0173242Y0062165D01*
X0174824Y0061167D02*
X0148350Y0061167D01*
X0149508Y0060168D02*
X0176406Y0060168D01*
X0177988Y0059170D02*
X0150136Y0059170D01*
X0150549Y0058171D02*
X0179570Y0058171D01*
X0181152Y0057173D02*
X0150552Y0057173D01*
X0150461Y0056174D02*
X0182734Y0056174D01*
X0183076Y0055959D02*
X0183542Y0055492D01*
X0183815Y0055492D01*
X0184045Y0055347D01*
X0184689Y0055492D01*
X0232157Y0055492D01*
X0232974Y0055429D01*
X0233048Y0055492D01*
X0233144Y0055492D01*
X0233724Y0056072D01*
X0243951Y0064838D01*
X0244190Y0064838D01*
X0245319Y0065305D01*
X0246183Y0066169D01*
X0246651Y0067298D01*
X0246651Y0068520D01*
X0246183Y0069649D01*
X0245319Y0070513D01*
X0244190Y0070981D01*
X0242968Y0070981D01*
X0241839Y0070513D01*
X0240975Y0069649D01*
X0240508Y0068520D01*
X0240508Y0067632D01*
X0231434Y0059854D01*
X0185076Y0059854D01*
X0168162Y0070529D01*
X0168162Y0163108D01*
X0168633Y0163303D01*
X0169949Y0164620D01*
X0170662Y0166341D01*
X0170662Y0174203D01*
X0169949Y0175923D01*
X0168633Y0177240D01*
X0166912Y0177953D01*
X0165050Y0177953D01*
X0163329Y0177240D01*
X0162013Y0175923D01*
X0161300Y0174203D01*
X0161300Y0166341D01*
X0162013Y0164620D01*
X0163329Y0163303D01*
X0163800Y0163108D01*
X0163800Y0069957D01*
X0163654Y0069727D01*
X0163800Y0069083D01*
X0163800Y0068423D01*
X0163993Y0068230D01*
X0164053Y0067964D01*
X0164611Y0067612D01*
X0165078Y0067146D01*
X0165350Y0067146D01*
X0183076Y0055959D01*
X0184446Y0057673D02*
X0232241Y0057673D01*
X0243540Y0067358D01*
X0243540Y0067870D01*
X0243579Y0067909D01*
X0240770Y0069155D02*
X0170340Y0069155D01*
X0168758Y0070153D02*
X0241479Y0070153D01*
X0240508Y0068156D02*
X0171922Y0068156D01*
X0173504Y0067158D02*
X0239955Y0067158D01*
X0238790Y0066159D02*
X0175087Y0066159D01*
X0176669Y0065161D02*
X0237625Y0065161D01*
X0236460Y0064162D02*
X0178251Y0064162D01*
X0179833Y0063164D02*
X0235295Y0063164D01*
X0234130Y0062165D02*
X0181415Y0062165D01*
X0182997Y0061167D02*
X0232965Y0061167D01*
X0231800Y0060168D02*
X0184579Y0060168D01*
X0184446Y0057673D02*
X0165981Y0069327D01*
X0165981Y0170272D01*
X0161300Y0170004D02*
X0156481Y0170004D01*
X0156481Y0169772D02*
X0156481Y0170772D01*
X0155481Y0170772D01*
X0155481Y0177749D01*
X0154927Y0177661D01*
X0154254Y0177442D01*
X0153622Y0177120D01*
X0153049Y0176704D01*
X0152549Y0176203D01*
X0152132Y0175630D01*
X0151811Y0174999D01*
X0151592Y0174325D01*
X0151481Y0173626D01*
X0151481Y0170772D01*
X0155481Y0170772D01*
X0155481Y0169772D01*
X0151481Y0169772D01*
X0151481Y0166917D01*
X0151592Y0166218D01*
X0151811Y0165544D01*
X0152132Y0164913D01*
X0152549Y0164340D01*
X0153049Y0163839D01*
X0153622Y0163423D01*
X0154254Y0163101D01*
X0154927Y0162882D01*
X0155481Y0162795D01*
X0155481Y0169772D01*
X0156481Y0169772D01*
X0160481Y0169772D01*
X0160481Y0166917D01*
X0160370Y0166218D01*
X0160151Y0165544D01*
X0159830Y0164913D01*
X0159413Y0164340D01*
X0158913Y0163839D01*
X0158339Y0163423D01*
X0157708Y0163101D01*
X0157035Y0162882D01*
X0156481Y0162795D01*
X0156481Y0169772D01*
X0156481Y0169006D02*
X0155481Y0169006D01*
X0155481Y0170004D02*
X0150662Y0170004D01*
X0150662Y0169006D02*
X0151481Y0169006D01*
X0151481Y0168007D02*
X0150662Y0168007D01*
X0150662Y0167009D02*
X0151481Y0167009D01*
X0151659Y0166010D02*
X0150525Y0166010D01*
X0150662Y0166341D02*
X0150662Y0174203D01*
X0149949Y0175923D01*
X0148633Y0177240D01*
X0146912Y0177953D01*
X0146747Y0177953D01*
X0152987Y0184193D01*
X0200039Y0184193D01*
X0200461Y0183770D01*
X0201590Y0183302D01*
X0202812Y0183302D01*
X0203941Y0183770D01*
X0204805Y0184634D01*
X0205273Y0185763D01*
X0205273Y0186985D01*
X0204805Y0188114D01*
X0203941Y0188978D01*
X0202812Y0189446D01*
X0201590Y0189446D01*
X0200461Y0188978D01*
X0200039Y0188555D01*
X0151180Y0188555D01*
X0139249Y0176624D01*
X0138633Y0177240D01*
X0136912Y0177953D01*
X0135050Y0177953D01*
X0133329Y0177240D01*
X0132013Y0175923D01*
X0131300Y0174203D01*
X0131300Y0170796D01*
X0116464Y0155961D01*
X0087388Y0155961D01*
X0073166Y0170182D01*
X0073166Y0186582D01*
X0100820Y0214235D01*
X0100820Y0214183D01*
X0101532Y0212463D01*
X0102849Y0211146D01*
X0104570Y0210433D01*
X0112432Y0210433D01*
X0114152Y0211146D01*
X0115469Y0212463D01*
X0115540Y0212633D01*
X0245732Y0212633D01*
X0245855Y0212510D01*
X0246984Y0212043D01*
X0248206Y0212043D01*
X0249335Y0212510D01*
X0249458Y0212633D01*
X0320910Y0212633D01*
X0320981Y0212463D01*
X0322298Y0211146D01*
X0324018Y0210433D01*
X0331881Y0210433D01*
X0333601Y0211146D01*
X0334918Y0212463D01*
X0335631Y0214183D01*
X0335631Y0216045D01*
X0334918Y0217766D01*
X0333601Y0219083D01*
X0331881Y0219795D01*
X0324018Y0219795D01*
X0322298Y0219083D01*
X0320981Y0217766D01*
X0320910Y0217595D01*
X0249458Y0217595D01*
X0249335Y0217718D01*
X0248206Y0218186D01*
X0246984Y0218186D01*
X0245855Y0217718D01*
X0245732Y0217595D01*
X0115540Y0217595D01*
X0115469Y0217766D01*
X0114152Y0219083D01*
X0112432Y0219795D01*
X0106380Y0219795D01*
X0106950Y0220365D01*
X0107510Y0220133D01*
X0328940Y0220133D01*
X0329665Y0220433D01*
X0331881Y0220433D01*
X0333601Y0221146D01*
X0334918Y0222463D01*
X0335631Y0224183D01*
X0335631Y0226045D01*
X0334918Y0227766D01*
X0333601Y0229083D01*
X0331881Y0229795D01*
X0329665Y0229795D01*
X0328940Y0230095D01*
X0107510Y0230095D01*
X0106786Y0229795D01*
X0104570Y0229795D01*
X0102849Y0229083D01*
X0101532Y0227766D01*
X0100820Y0226045D01*
X0100820Y0224647D01*
X0067400Y0191227D01*
X0066364Y0190191D01*
X0065804Y0188839D01*
X0065804Y0167925D01*
X0066364Y0166572D01*
X0082742Y0150194D01*
X0083778Y0149159D01*
X0085131Y0148598D01*
X0118721Y0148598D01*
X0120074Y0149159D01*
X0133958Y0163043D01*
X0135050Y0162591D01*
X0136912Y0162591D01*
X0138594Y0163287D01*
X0119889Y0144583D01*
X0087427Y0144583D01*
X0063835Y0168174D01*
X0063835Y0201739D01*
X0092821Y0230724D01*
X0103866Y0230724D01*
X0104570Y0230433D01*
X0106786Y0230433D01*
X0107510Y0230133D01*
X0328940Y0230133D01*
X0329665Y0230433D01*
X0331881Y0230433D01*
X0333601Y0231146D01*
X0334918Y0232463D01*
X0334972Y0232594D01*
X0337749Y0232594D01*
X0341887Y0228455D01*
X0341924Y0201546D01*
X0341923Y0201543D01*
X0341925Y0201050D01*
X0341925Y0200996D01*
X0333240Y0200996D01*
X0333601Y0201146D01*
X0334918Y0202463D01*
X0335631Y0204183D01*
X0335631Y0206045D01*
X0334918Y0207766D01*
X0333601Y0209083D01*
X0331881Y0209795D01*
X0324018Y0209795D01*
X0322298Y0209083D01*
X0320981Y0207766D01*
X0320910Y0207595D01*
X0228986Y0207595D01*
X0228863Y0207718D01*
X0227734Y0208186D01*
X0226512Y0208186D01*
X0225383Y0207718D01*
X0225260Y0207595D01*
X0115540Y0207595D01*
X0115469Y0207766D01*
X0114152Y0209083D01*
X0112432Y0209795D01*
X0104570Y0209795D01*
X0102849Y0209083D01*
X0101532Y0207766D01*
X0100820Y0206045D01*
X0100820Y0204183D01*
X0101532Y0202463D01*
X0102849Y0201146D01*
X0104570Y0200433D01*
X0112432Y0200433D01*
X0114152Y0201146D01*
X0115469Y0202463D01*
X0115540Y0202633D01*
X0225260Y0202633D01*
X0225383Y0202510D01*
X0226512Y0202043D01*
X0227734Y0202043D01*
X0228863Y0202510D01*
X0228986Y0202633D01*
X0320910Y0202633D01*
X0320981Y0202463D01*
X0322298Y0201146D01*
X0322977Y0200864D01*
X0322505Y0200392D01*
X0295175Y0175445D01*
X0282751Y0175445D01*
X0282556Y0175915D01*
X0281239Y0177232D01*
X0279518Y0177945D01*
X0271656Y0177945D01*
X0269936Y0177232D01*
X0268619Y0175915D01*
X0267906Y0174195D01*
X0267906Y0172333D01*
X0268619Y0170612D01*
X0269936Y0169295D01*
X0271656Y0168583D01*
X0279518Y0168583D01*
X0281239Y0169295D01*
X0282556Y0170612D01*
X0282751Y0171083D01*
X0295971Y0171083D01*
X0296824Y0171044D01*
X0296866Y0171083D01*
X0296924Y0171083D01*
X0297527Y0171686D01*
X0324858Y0196634D01*
X0341943Y0196634D01*
X0341976Y0188401D01*
X0341833Y0188342D01*
X0340516Y0187026D01*
X0339804Y0185305D01*
X0339804Y0177443D01*
X0340516Y0175722D01*
X0341833Y0174406D01*
X0343554Y0173693D01*
X0345416Y0173693D01*
X0347137Y0174406D01*
X0348453Y0175722D01*
X0349166Y0177443D01*
X0349166Y0185305D01*
X0348453Y0187026D01*
X0347137Y0188342D01*
X0346938Y0188425D01*
X0346887Y0201068D01*
X0346849Y0228844D01*
X0353246Y0222447D01*
X0353283Y0156914D01*
X0338805Y0142436D01*
X0338245Y0141083D01*
X0338245Y0129474D01*
X0329771Y0121000D01*
X0328928Y0121000D01*
X0328640Y0121287D01*
X0326920Y0122000D01*
X0319058Y0122000D01*
X0317337Y0121287D01*
X0316020Y0119971D01*
X0315308Y0118250D01*
X0315308Y0116388D01*
X0316020Y0114667D01*
X0317337Y0113350D01*
X0319058Y0112638D01*
X0326920Y0112638D01*
X0328640Y0113350D01*
X0328928Y0113638D01*
X0332028Y0113638D01*
X0333381Y0114198D01*
X0344011Y0124828D01*
X0345047Y0125864D01*
X0345607Y0127217D01*
X0345607Y0138826D01*
X0359051Y0152270D01*
X0359052Y0152270D01*
X0359560Y0152778D01*
X0360086Y0153305D01*
X0360086Y0153306D01*
X0360087Y0153306D01*
X0360366Y0153981D01*
X0360646Y0154658D01*
X0360646Y0154659D01*
X0360647Y0154660D01*
X0360646Y0155389D01*
X0360646Y0156122D01*
X0360646Y0156123D01*
X0360607Y0223978D01*
X0360607Y0224705D01*
X0360607Y0224706D01*
X0360607Y0224707D01*
X0360329Y0225377D01*
X0360047Y0226058D01*
X0360046Y0226058D01*
X0360045Y0226059D01*
X0359538Y0226566D01*
X0344791Y0241313D01*
X0344461Y0241726D01*
X0344277Y0241827D01*
X0344169Y0241936D01*
X0344129Y0241975D01*
X0343641Y0242177D01*
X0343178Y0242432D01*
X0342970Y0242455D01*
X0342776Y0242535D01*
X0342248Y0242535D01*
X0338179Y0242987D01*
X0336773Y0242580D01*
X0335629Y0241665D01*
X0334923Y0240382D01*
X0334761Y0238927D01*
X0335158Y0237556D01*
X0335005Y0237556D01*
X0334918Y0237766D01*
X0333601Y0239083D01*
X0331881Y0239795D01*
X0329665Y0239795D01*
X0328940Y0240095D01*
X0107510Y0240095D01*
X0106786Y0239795D01*
X0104570Y0239795D01*
X0102849Y0239083D01*
X0101853Y0238087D01*
X0090564Y0238087D01*
X0089211Y0237526D01*
X0088175Y0236491D01*
X0088175Y0236491D01*
X0058069Y0206384D01*
X0057034Y0205349D01*
X0056473Y0203996D01*
X0056473Y0165917D01*
X0057034Y0164564D01*
X0058069Y0163529D01*
X0083817Y0137781D01*
X0085170Y0137220D01*
X0122146Y0137220D01*
X0123499Y0137781D01*
X0124535Y0138816D01*
X0149102Y0163383D01*
X0149377Y0164047D01*
X0149949Y0164620D01*
X0150662Y0166341D01*
X0150112Y0165012D02*
X0152082Y0165012D01*
X0152875Y0164013D02*
X0149363Y0164013D01*
X0148733Y0163015D02*
X0154520Y0163015D01*
X0155481Y0163015D02*
X0156481Y0163015D01*
X0157442Y0163015D02*
X0163800Y0163015D01*
X0163800Y0162016D02*
X0147735Y0162016D01*
X0146736Y0161018D02*
X0163800Y0161018D01*
X0163800Y0160019D02*
X0145738Y0160019D01*
X0144739Y0159021D02*
X0163800Y0159021D01*
X0163800Y0158022D02*
X0143741Y0158022D01*
X0142742Y0157024D02*
X0163800Y0157024D01*
X0163800Y0156025D02*
X0141743Y0156025D01*
X0140745Y0155027D02*
X0163800Y0155027D01*
X0163800Y0154028D02*
X0139746Y0154028D01*
X0138748Y0153030D02*
X0163800Y0153030D01*
X0163800Y0152031D02*
X0137749Y0152031D01*
X0136751Y0151033D02*
X0163800Y0151033D01*
X0163800Y0150034D02*
X0135752Y0150034D01*
X0134754Y0149036D02*
X0163800Y0149036D01*
X0163800Y0148037D02*
X0133755Y0148037D01*
X0132757Y0147039D02*
X0163800Y0147039D01*
X0163800Y0146040D02*
X0131758Y0146040D01*
X0130760Y0145042D02*
X0163800Y0145042D01*
X0163800Y0144043D02*
X0129761Y0144043D01*
X0128763Y0143045D02*
X0163800Y0143045D01*
X0163800Y0142046D02*
X0127764Y0142046D01*
X0126766Y0141047D02*
X0163800Y0141047D01*
X0163800Y0140049D02*
X0125767Y0140049D01*
X0124769Y0139050D02*
X0163800Y0139050D01*
X0163800Y0138052D02*
X0123770Y0138052D01*
X0120348Y0145042D02*
X0086968Y0145042D01*
X0085970Y0146040D02*
X0121347Y0146040D01*
X0122345Y0147039D02*
X0084971Y0147039D01*
X0083973Y0148037D02*
X0123344Y0148037D01*
X0124342Y0149036D02*
X0119776Y0149036D01*
X0120949Y0150034D02*
X0125341Y0150034D01*
X0126339Y0151033D02*
X0121948Y0151033D01*
X0122946Y0152031D02*
X0127338Y0152031D01*
X0128336Y0153030D02*
X0123945Y0153030D01*
X0124943Y0154028D02*
X0129335Y0154028D01*
X0130333Y0155027D02*
X0125942Y0155027D01*
X0126940Y0156025D02*
X0131332Y0156025D01*
X0132330Y0157024D02*
X0127939Y0157024D01*
X0128937Y0158022D02*
X0133329Y0158022D01*
X0134327Y0159021D02*
X0129936Y0159021D01*
X0130934Y0160019D02*
X0135326Y0160019D01*
X0136324Y0161018D02*
X0131933Y0161018D01*
X0132931Y0162016D02*
X0137323Y0162016D01*
X0137936Y0163015D02*
X0138321Y0163015D01*
X0134026Y0163015D02*
X0133930Y0163015D01*
X0128511Y0168007D02*
X0105758Y0168007D01*
X0106328Y0168665D02*
X0108418Y0173243D01*
X0109134Y0178224D01*
X0108418Y0183206D01*
X0106328Y0187784D01*
X0103032Y0191587D01*
X0098798Y0194308D01*
X0093970Y0195726D01*
X0088937Y0195726D01*
X0084108Y0194308D01*
X0079875Y0191587D01*
X0079875Y0191587D01*
X0079875Y0191587D01*
X0076579Y0187784D01*
X0076579Y0187784D01*
X0074489Y0183206D01*
X0073772Y0178224D01*
X0074489Y0173243D01*
X0076579Y0168665D01*
X0079875Y0164862D01*
X0084108Y0162141D01*
X0084108Y0162141D01*
X0088937Y0160723D01*
X0093970Y0160723D01*
X0098798Y0162141D01*
X0098798Y0162141D01*
X0103032Y0164862D01*
X0106328Y0168665D01*
X0106328Y0168665D01*
X0106483Y0169006D02*
X0129509Y0169006D01*
X0130508Y0170004D02*
X0106939Y0170004D01*
X0107395Y0171003D02*
X0131300Y0171003D01*
X0131300Y0172001D02*
X0107851Y0172001D01*
X0108307Y0173000D02*
X0131300Y0173000D01*
X0131300Y0173998D02*
X0108527Y0173998D01*
X0108418Y0173243D02*
X0108418Y0173243D01*
X0108670Y0174997D02*
X0131629Y0174997D01*
X0132085Y0175995D02*
X0108814Y0175995D01*
X0108958Y0176994D02*
X0133083Y0176994D01*
X0138879Y0176994D02*
X0139619Y0176994D01*
X0140617Y0177992D02*
X0109101Y0177992D01*
X0109024Y0178991D02*
X0141616Y0178991D01*
X0142614Y0179989D02*
X0108881Y0179989D01*
X0108737Y0180988D02*
X0143613Y0180988D01*
X0144611Y0181986D02*
X0108594Y0181986D01*
X0108450Y0182985D02*
X0145610Y0182985D01*
X0146608Y0183983D02*
X0108063Y0183983D01*
X0108418Y0183206D02*
X0108418Y0183206D01*
X0107607Y0184982D02*
X0147607Y0184982D01*
X0148605Y0185980D02*
X0107151Y0185980D01*
X0106695Y0186979D02*
X0149604Y0186979D01*
X0150602Y0187978D02*
X0106160Y0187978D01*
X0106328Y0187784D02*
X0106328Y0187784D01*
X0105294Y0188976D02*
X0200459Y0188976D01*
X0202201Y0186374D02*
X0152083Y0186374D01*
X0135981Y0170272D01*
X0127512Y0167009D02*
X0104892Y0167009D01*
X0104027Y0166010D02*
X0126514Y0166010D01*
X0125515Y0165012D02*
X0103162Y0165012D01*
X0103032Y0164862D02*
X0103032Y0164862D01*
X0103032Y0164862D01*
X0101711Y0164013D02*
X0124517Y0164013D01*
X0123518Y0163015D02*
X0100158Y0163015D01*
X0098373Y0162016D02*
X0122520Y0162016D01*
X0121521Y0161018D02*
X0094972Y0161018D01*
X0087934Y0161018D02*
X0082331Y0161018D01*
X0083329Y0160019D02*
X0120523Y0160019D01*
X0119524Y0159021D02*
X0084328Y0159021D01*
X0085326Y0158022D02*
X0118526Y0158022D01*
X0117527Y0157024D02*
X0086325Y0157024D01*
X0087323Y0156025D02*
X0116529Y0156025D01*
X0084534Y0162016D02*
X0081332Y0162016D01*
X0080334Y0163015D02*
X0082749Y0163015D01*
X0081195Y0164013D02*
X0079335Y0164013D01*
X0079875Y0164862D02*
X0079875Y0164862D01*
X0079745Y0165012D02*
X0078336Y0165012D01*
X0078880Y0166010D02*
X0077338Y0166010D01*
X0078014Y0167009D02*
X0076339Y0167009D01*
X0077149Y0168007D02*
X0075341Y0168007D01*
X0076579Y0168665D02*
X0076579Y0168665D01*
X0076424Y0169006D02*
X0074342Y0169006D01*
X0073344Y0170004D02*
X0075968Y0170004D01*
X0075512Y0171003D02*
X0073166Y0171003D01*
X0073166Y0172001D02*
X0075056Y0172001D01*
X0074600Y0173000D02*
X0073166Y0173000D01*
X0073166Y0173998D02*
X0074380Y0173998D01*
X0074489Y0173243D02*
X0074489Y0173243D01*
X0074236Y0174997D02*
X0073166Y0174997D01*
X0073166Y0175995D02*
X0074093Y0175995D01*
X0073949Y0176994D02*
X0073166Y0176994D01*
X0073166Y0177992D02*
X0073806Y0177992D01*
X0073772Y0178224D02*
X0073772Y0178224D01*
X0073883Y0178991D02*
X0073166Y0178991D01*
X0073166Y0179989D02*
X0074026Y0179989D01*
X0074170Y0180988D02*
X0073166Y0180988D01*
X0073166Y0181986D02*
X0074313Y0181986D01*
X0074457Y0182985D02*
X0073166Y0182985D01*
X0073166Y0183983D02*
X0074844Y0183983D01*
X0074489Y0183206D02*
X0074489Y0183206D01*
X0075300Y0184982D02*
X0073166Y0184982D01*
X0073166Y0185980D02*
X0075756Y0185980D01*
X0076212Y0186979D02*
X0073563Y0186979D01*
X0074562Y0187978D02*
X0076747Y0187978D01*
X0077612Y0188976D02*
X0075560Y0188976D01*
X0076559Y0189975D02*
X0078478Y0189975D01*
X0079343Y0190973D02*
X0077558Y0190973D01*
X0078556Y0191972D02*
X0080473Y0191972D01*
X0079555Y0192970D02*
X0082027Y0192970D01*
X0080553Y0193969D02*
X0083581Y0193969D01*
X0084108Y0194308D02*
X0084108Y0194308D01*
X0082550Y0195966D02*
X0268669Y0195966D01*
X0268619Y0195915D02*
X0267906Y0194195D01*
X0267906Y0192333D01*
X0268619Y0190612D01*
X0269936Y0189295D01*
X0271656Y0188583D01*
X0279518Y0188583D01*
X0281239Y0189295D01*
X0282556Y0190612D01*
X0283268Y0192333D01*
X0283268Y0194195D01*
X0282556Y0195915D01*
X0281239Y0197232D01*
X0279518Y0197945D01*
X0271656Y0197945D01*
X0269936Y0197232D01*
X0268619Y0195915D01*
X0268226Y0194967D02*
X0096553Y0194967D01*
X0098798Y0194308D02*
X0098798Y0194308D01*
X0099326Y0193969D02*
X0267906Y0193969D01*
X0267906Y0192970D02*
X0100880Y0192970D01*
X0102433Y0191972D02*
X0268056Y0191972D01*
X0268469Y0190973D02*
X0103564Y0190973D01*
X0103032Y0191587D02*
X0103032Y0191587D01*
X0104429Y0189975D02*
X0269256Y0189975D01*
X0270706Y0188976D02*
X0203943Y0188976D01*
X0204862Y0187978D02*
X0308904Y0187978D01*
X0307811Y0186979D02*
X0281492Y0186979D01*
X0281239Y0187232D02*
X0279518Y0187945D01*
X0271656Y0187945D01*
X0269936Y0187232D01*
X0268619Y0185915D01*
X0267906Y0184195D01*
X0267906Y0182333D01*
X0268619Y0180612D01*
X0269936Y0179295D01*
X0271656Y0178583D01*
X0279518Y0178583D01*
X0281239Y0179295D01*
X0282556Y0180612D01*
X0283268Y0182333D01*
X0283268Y0184195D01*
X0282556Y0185915D01*
X0281239Y0187232D01*
X0282491Y0185980D02*
X0306717Y0185980D01*
X0305623Y0184982D02*
X0282942Y0184982D01*
X0283268Y0183983D02*
X0304529Y0183983D01*
X0303435Y0182985D02*
X0283268Y0182985D01*
X0283125Y0181986D02*
X0302341Y0181986D01*
X0301247Y0180988D02*
X0282711Y0180988D01*
X0281933Y0179989D02*
X0300153Y0179989D01*
X0299059Y0178991D02*
X0280504Y0178991D01*
X0281477Y0176994D02*
X0296872Y0176994D01*
X0297965Y0177992D02*
X0146786Y0177992D01*
X0147785Y0178991D02*
X0270671Y0178991D01*
X0269242Y0179989D02*
X0148783Y0179989D01*
X0149782Y0180988D02*
X0268463Y0180988D01*
X0268050Y0181986D02*
X0150780Y0181986D01*
X0151779Y0182985D02*
X0267906Y0182985D01*
X0267906Y0183983D02*
X0204155Y0183983D01*
X0204950Y0184982D02*
X0268232Y0184982D01*
X0268684Y0185980D02*
X0205273Y0185980D01*
X0205273Y0186979D02*
X0269682Y0186979D01*
X0269697Y0176994D02*
X0188879Y0176994D01*
X0188633Y0177240D02*
X0186912Y0177953D01*
X0185050Y0177953D01*
X0183329Y0177240D01*
X0182013Y0175923D01*
X0181300Y0174203D01*
X0181300Y0166341D01*
X0182013Y0164620D01*
X0183329Y0163303D01*
X0185050Y0162591D01*
X0186912Y0162591D01*
X0188633Y0163303D01*
X0189949Y0164620D01*
X0190662Y0166341D01*
X0190662Y0174203D01*
X0189949Y0175923D01*
X0188633Y0177240D01*
X0189877Y0175995D02*
X0268699Y0175995D01*
X0268238Y0174997D02*
X0190333Y0174997D01*
X0190662Y0173998D02*
X0267906Y0173998D01*
X0267906Y0173000D02*
X0190662Y0173000D01*
X0190662Y0172001D02*
X0268043Y0172001D01*
X0268457Y0171003D02*
X0190662Y0171003D01*
X0190662Y0170004D02*
X0269227Y0170004D01*
X0270635Y0169006D02*
X0190662Y0169006D01*
X0190662Y0168007D02*
X0310572Y0168007D01*
X0310572Y0167009D02*
X0281462Y0167009D01*
X0281239Y0167232D02*
X0279518Y0167945D01*
X0271656Y0167945D01*
X0269936Y0167232D01*
X0268619Y0165915D01*
X0267906Y0164195D01*
X0267906Y0162333D01*
X0268619Y0160612D01*
X0269936Y0159295D01*
X0271656Y0158583D01*
X0279518Y0158583D01*
X0281239Y0159295D01*
X0282556Y0160612D01*
X0283268Y0162333D01*
X0283268Y0164195D01*
X0282556Y0165915D01*
X0281239Y0167232D01*
X0282461Y0166010D02*
X0310572Y0166010D01*
X0310572Y0165012D02*
X0282930Y0165012D01*
X0283268Y0164013D02*
X0310572Y0164013D01*
X0310572Y0163015D02*
X0283268Y0163015D01*
X0283137Y0162016D02*
X0310572Y0162016D01*
X0310454Y0161018D02*
X0282724Y0161018D01*
X0281963Y0160019D02*
X0309455Y0160019D01*
X0308456Y0159021D02*
X0280576Y0159021D01*
X0270599Y0159021D02*
X0234697Y0159021D01*
X0234697Y0160019D02*
X0269212Y0160019D01*
X0268451Y0161018D02*
X0234697Y0161018D01*
X0234014Y0162016D02*
X0268037Y0162016D01*
X0267906Y0163015D02*
X0233015Y0163015D01*
X0232017Y0164013D02*
X0267906Y0164013D01*
X0268245Y0165012D02*
X0231775Y0165012D01*
X0231279Y0166010D02*
X0268714Y0166010D01*
X0269712Y0167009D02*
X0229892Y0167009D01*
X0227739Y0167009D02*
X0190662Y0167009D01*
X0190525Y0166010D02*
X0226352Y0166010D01*
X0225856Y0165012D02*
X0190112Y0165012D01*
X0189343Y0164013D02*
X0225744Y0164013D01*
X0225953Y0163015D02*
X0187936Y0163015D01*
X0184026Y0163015D02*
X0178162Y0163015D01*
X0178162Y0163108D02*
X0178633Y0163303D01*
X0179949Y0164620D01*
X0180662Y0166341D01*
X0180662Y0174203D01*
X0179949Y0175923D01*
X0178633Y0177240D01*
X0176912Y0177953D01*
X0175050Y0177953D01*
X0173329Y0177240D01*
X0172013Y0175923D01*
X0171300Y0174203D01*
X0171300Y0166341D01*
X0172013Y0164620D01*
X0173329Y0163303D01*
X0173800Y0163108D01*
X0173800Y0140786D01*
X0185980Y0128605D01*
X0185980Y0128007D01*
X0186448Y0126878D01*
X0187312Y0126014D01*
X0188441Y0125546D01*
X0189663Y0125546D01*
X0190792Y0126014D01*
X0191656Y0126878D01*
X0192123Y0128007D01*
X0192123Y0129229D01*
X0191656Y0130358D01*
X0190792Y0131222D01*
X0189663Y0131690D01*
X0189065Y0131690D01*
X0178162Y0142592D01*
X0178162Y0163108D01*
X0178162Y0162016D02*
X0226585Y0162016D01*
X0228843Y0161018D02*
X0178162Y0161018D01*
X0178162Y0160019D02*
X0229842Y0160019D01*
X0230335Y0159021D02*
X0178162Y0159021D01*
X0178162Y0158022D02*
X0230335Y0158022D01*
X0230335Y0157024D02*
X0178162Y0157024D01*
X0178162Y0156025D02*
X0230335Y0156025D01*
X0230335Y0155027D02*
X0178162Y0155027D01*
X0178162Y0154028D02*
X0230335Y0154028D01*
X0230335Y0153030D02*
X0178162Y0153030D01*
X0178162Y0152031D02*
X0230335Y0152031D01*
X0230335Y0151033D02*
X0178162Y0151033D01*
X0178162Y0150034D02*
X0230335Y0150034D01*
X0230335Y0149036D02*
X0178162Y0149036D01*
X0178162Y0148037D02*
X0230335Y0148037D01*
X0230335Y0147039D02*
X0178162Y0147039D01*
X0178162Y0146040D02*
X0230335Y0146040D01*
X0230335Y0145042D02*
X0178162Y0145042D01*
X0178162Y0144043D02*
X0230335Y0144043D01*
X0230335Y0143045D02*
X0178162Y0143045D01*
X0178708Y0142046D02*
X0211337Y0142046D01*
X0210344Y0141047D02*
X0179707Y0141047D01*
X0180705Y0140049D02*
X0209931Y0140049D01*
X0209917Y0139050D02*
X0181704Y0139050D01*
X0182703Y0138052D02*
X0210225Y0138052D01*
X0210997Y0137053D02*
X0183701Y0137053D01*
X0184700Y0136055D02*
X0225935Y0136055D01*
X0225586Y0135056D02*
X0185698Y0135056D01*
X0186697Y0134058D02*
X0225586Y0134058D01*
X0225973Y0133059D02*
X0187695Y0133059D01*
X0188694Y0132061D02*
X0226856Y0132061D01*
X0228658Y0134602D02*
X0228658Y0134642D01*
X0245902Y0151886D01*
X0304406Y0151886D01*
X0312753Y0160232D01*
X0312753Y0174760D01*
X0315566Y0175995D02*
X0330403Y0175995D01*
X0330516Y0175722D02*
X0331833Y0174406D01*
X0333554Y0173693D01*
X0335416Y0173693D01*
X0337137Y0174406D01*
X0338453Y0175722D01*
X0339166Y0177443D01*
X0339166Y0185305D01*
X0338453Y0187026D01*
X0337137Y0188342D01*
X0335416Y0189055D01*
X0333554Y0189055D01*
X0331833Y0188342D01*
X0330516Y0187026D01*
X0329804Y0185305D01*
X0329804Y0177443D01*
X0330516Y0175722D01*
X0331242Y0174997D02*
X0315824Y0174997D01*
X0315762Y0173998D02*
X0332816Y0173998D01*
X0336153Y0173998D02*
X0342816Y0173998D01*
X0341242Y0174997D02*
X0337728Y0174997D01*
X0338566Y0175995D02*
X0340403Y0175995D01*
X0339990Y0176994D02*
X0338980Y0176994D01*
X0339166Y0177992D02*
X0339804Y0177992D01*
X0339804Y0178991D02*
X0339166Y0178991D01*
X0339166Y0179989D02*
X0339804Y0179989D01*
X0339804Y0180988D02*
X0339166Y0180988D01*
X0339166Y0181986D02*
X0339804Y0181986D01*
X0339804Y0182985D02*
X0339166Y0182985D01*
X0339166Y0183983D02*
X0339804Y0183983D01*
X0339804Y0184982D02*
X0339166Y0184982D01*
X0338886Y0185980D02*
X0340084Y0185980D01*
X0340497Y0186979D02*
X0338473Y0186979D01*
X0337501Y0187978D02*
X0341468Y0187978D01*
X0341973Y0188976D02*
X0335607Y0188976D01*
X0333363Y0188976D02*
X0316469Y0188976D01*
X0317563Y0189975D02*
X0341969Y0189975D01*
X0341965Y0190973D02*
X0318657Y0190973D01*
X0319751Y0191972D02*
X0341961Y0191972D01*
X0341957Y0192970D02*
X0320844Y0192970D01*
X0321938Y0193969D02*
X0341953Y0193969D01*
X0341949Y0194967D02*
X0323032Y0194967D01*
X0324126Y0195966D02*
X0341945Y0195966D01*
X0344367Y0198815D02*
X0344406Y0201059D01*
X0344367Y0198815D02*
X0324012Y0198815D01*
X0296020Y0173264D01*
X0275587Y0173264D01*
X0280540Y0169006D02*
X0310572Y0169006D01*
X0310572Y0170004D02*
X0281948Y0170004D01*
X0282718Y0171003D02*
X0310572Y0171003D01*
X0310572Y0172001D02*
X0297873Y0172001D01*
X0298966Y0173000D02*
X0310169Y0173000D01*
X0309743Y0173998D02*
X0300060Y0173998D01*
X0301154Y0174997D02*
X0309681Y0174997D01*
X0309940Y0175995D02*
X0302248Y0175995D01*
X0303342Y0176994D02*
X0310643Y0176994D01*
X0314863Y0176994D02*
X0329990Y0176994D01*
X0329804Y0177992D02*
X0304436Y0177992D01*
X0305530Y0178991D02*
X0329804Y0178991D01*
X0329804Y0179989D02*
X0306624Y0179989D01*
X0307718Y0180988D02*
X0329804Y0180988D01*
X0329804Y0181986D02*
X0308812Y0181986D01*
X0309905Y0182985D02*
X0329804Y0182985D01*
X0329804Y0183983D02*
X0310999Y0183983D01*
X0312093Y0184982D02*
X0329804Y0184982D01*
X0330084Y0185980D02*
X0313187Y0185980D01*
X0314281Y0186979D02*
X0330497Y0186979D01*
X0331468Y0187978D02*
X0315375Y0187978D01*
X0312186Y0190973D02*
X0282705Y0190973D01*
X0283119Y0191972D02*
X0313280Y0191972D01*
X0314374Y0192970D02*
X0283268Y0192970D01*
X0283268Y0193969D02*
X0315468Y0193969D01*
X0316562Y0194967D02*
X0282949Y0194967D01*
X0282505Y0195966D02*
X0317656Y0195966D01*
X0318750Y0196964D02*
X0281507Y0196964D01*
X0281918Y0189975D02*
X0311092Y0189975D01*
X0309998Y0188976D02*
X0280468Y0188976D01*
X0269668Y0196964D02*
X0083549Y0196964D01*
X0084547Y0197963D02*
X0319844Y0197963D01*
X0320937Y0198961D02*
X0085546Y0198961D01*
X0086544Y0199960D02*
X0322031Y0199960D01*
X0322751Y0200958D02*
X0113699Y0200958D01*
X0114963Y0201957D02*
X0321487Y0201957D01*
X0321163Y0207948D02*
X0228308Y0207948D01*
X0225937Y0207948D02*
X0115287Y0207948D01*
X0114289Y0208946D02*
X0322161Y0208946D01*
X0322787Y0210943D02*
X0113664Y0210943D01*
X0114948Y0211942D02*
X0321502Y0211942D01*
X0321148Y0217933D02*
X0248817Y0217933D01*
X0246373Y0217933D02*
X0115302Y0217933D01*
X0114304Y0218931D02*
X0322147Y0218931D01*
X0333076Y0220928D02*
X0341898Y0220928D01*
X0341899Y0219930D02*
X0106514Y0219930D01*
X0100097Y0223924D02*
X0086020Y0223924D01*
X0085022Y0222925D02*
X0099098Y0222925D01*
X0098100Y0221927D02*
X0084023Y0221927D01*
X0083025Y0220928D02*
X0097101Y0220928D01*
X0096103Y0219930D02*
X0082026Y0219930D01*
X0081028Y0218931D02*
X0095104Y0218931D01*
X0094106Y0217933D02*
X0080029Y0217933D01*
X0079031Y0216934D02*
X0093107Y0216934D01*
X0092109Y0215936D02*
X0078032Y0215936D01*
X0077034Y0214937D02*
X0091110Y0214937D01*
X0090112Y0213939D02*
X0076035Y0213939D01*
X0075037Y0212940D02*
X0089113Y0212940D01*
X0088115Y0211942D02*
X0074038Y0211942D01*
X0073040Y0210943D02*
X0087116Y0210943D01*
X0086118Y0209945D02*
X0072041Y0209945D01*
X0071043Y0208946D02*
X0085119Y0208946D01*
X0084120Y0207948D02*
X0070044Y0207948D01*
X0069046Y0206949D02*
X0083122Y0206949D01*
X0082123Y0205951D02*
X0068047Y0205951D01*
X0067048Y0204952D02*
X0081125Y0204952D01*
X0080126Y0203954D02*
X0066050Y0203954D01*
X0065051Y0202955D02*
X0079128Y0202955D01*
X0078129Y0201957D02*
X0064053Y0201957D01*
X0063835Y0200958D02*
X0077131Y0200958D01*
X0076132Y0199960D02*
X0063835Y0199960D01*
X0063835Y0198961D02*
X0075134Y0198961D01*
X0074135Y0197963D02*
X0063835Y0197963D01*
X0063835Y0196964D02*
X0073137Y0196964D01*
X0072138Y0195966D02*
X0063835Y0195966D01*
X0063835Y0194967D02*
X0071140Y0194967D01*
X0070141Y0193969D02*
X0063835Y0193969D01*
X0063835Y0192970D02*
X0069143Y0192970D01*
X0068144Y0191972D02*
X0063835Y0191972D01*
X0063835Y0190973D02*
X0067146Y0190973D01*
X0066274Y0189975D02*
X0063835Y0189975D01*
X0063835Y0188976D02*
X0065861Y0188976D01*
X0065804Y0187978D02*
X0063835Y0187978D01*
X0063835Y0186979D02*
X0065804Y0186979D01*
X0065804Y0185980D02*
X0063835Y0185980D01*
X0063835Y0184982D02*
X0065804Y0184982D01*
X0065804Y0183983D02*
X0063835Y0183983D01*
X0063835Y0182985D02*
X0065804Y0182985D01*
X0065804Y0181986D02*
X0063835Y0181986D01*
X0063835Y0180988D02*
X0065804Y0180988D01*
X0065804Y0179989D02*
X0063835Y0179989D01*
X0063835Y0178991D02*
X0065804Y0178991D01*
X0065804Y0177992D02*
X0063835Y0177992D01*
X0063835Y0176994D02*
X0065804Y0176994D01*
X0065804Y0175995D02*
X0063835Y0175995D01*
X0063835Y0174997D02*
X0065804Y0174997D01*
X0065804Y0173998D02*
X0063835Y0173998D01*
X0063835Y0173000D02*
X0065804Y0173000D01*
X0065804Y0172001D02*
X0063835Y0172001D01*
X0063835Y0171003D02*
X0065804Y0171003D01*
X0065804Y0170004D02*
X0063835Y0170004D01*
X0063835Y0169006D02*
X0065804Y0169006D01*
X0065804Y0168007D02*
X0064002Y0168007D01*
X0065001Y0167009D02*
X0066183Y0167009D01*
X0065999Y0166010D02*
X0066926Y0166010D01*
X0066998Y0165012D02*
X0067925Y0165012D01*
X0067996Y0164013D02*
X0068923Y0164013D01*
X0068995Y0163015D02*
X0069922Y0163015D01*
X0069993Y0162016D02*
X0070920Y0162016D01*
X0070992Y0161018D02*
X0071919Y0161018D01*
X0071990Y0160019D02*
X0072917Y0160019D01*
X0072989Y0159021D02*
X0073916Y0159021D01*
X0073987Y0158022D02*
X0074914Y0158022D01*
X0074986Y0157024D02*
X0075913Y0157024D01*
X0075984Y0156025D02*
X0076911Y0156025D01*
X0076983Y0155027D02*
X0077910Y0155027D01*
X0077982Y0154028D02*
X0078908Y0154028D01*
X0078980Y0153030D02*
X0079907Y0153030D01*
X0079979Y0152031D02*
X0080905Y0152031D01*
X0080977Y0151033D02*
X0081904Y0151033D01*
X0081976Y0150034D02*
X0082902Y0150034D01*
X0082974Y0149036D02*
X0084075Y0149036D01*
X0078553Y0143045D02*
X0049945Y0143045D01*
X0049946Y0144043D02*
X0077555Y0144043D01*
X0076556Y0145042D02*
X0049946Y0145042D01*
X0049947Y0146040D02*
X0075558Y0146040D01*
X0074559Y0147039D02*
X0049948Y0147039D01*
X0049949Y0148037D02*
X0073561Y0148037D01*
X0072562Y0149036D02*
X0049949Y0149036D01*
X0049950Y0150034D02*
X0071564Y0150034D01*
X0070565Y0151033D02*
X0049951Y0151033D01*
X0049952Y0152031D02*
X0069567Y0152031D01*
X0068568Y0153030D02*
X0049952Y0153030D01*
X0049953Y0154028D02*
X0067570Y0154028D01*
X0066571Y0155027D02*
X0049954Y0155027D01*
X0049955Y0156025D02*
X0065573Y0156025D01*
X0064574Y0157024D02*
X0049955Y0157024D01*
X0049956Y0158022D02*
X0063576Y0158022D01*
X0062577Y0159021D02*
X0049957Y0159021D01*
X0049958Y0160019D02*
X0061579Y0160019D01*
X0060580Y0161018D02*
X0049959Y0161018D01*
X0049959Y0162016D02*
X0059582Y0162016D01*
X0058583Y0163015D02*
X0049960Y0163015D01*
X0049961Y0164013D02*
X0057585Y0164013D01*
X0056848Y0165012D02*
X0049962Y0165012D01*
X0049962Y0166010D02*
X0056473Y0166010D01*
X0056473Y0167009D02*
X0049963Y0167009D01*
X0049964Y0168007D02*
X0056473Y0168007D01*
X0056473Y0169006D02*
X0049965Y0169006D01*
X0049965Y0170004D02*
X0056473Y0170004D01*
X0056473Y0171003D02*
X0049966Y0171003D01*
X0049967Y0172001D02*
X0056473Y0172001D01*
X0056473Y0173000D02*
X0049968Y0173000D01*
X0049969Y0173998D02*
X0056473Y0173998D01*
X0056473Y0174997D02*
X0049969Y0174997D01*
X0049970Y0175995D02*
X0056473Y0175995D01*
X0056473Y0176994D02*
X0049971Y0176994D01*
X0049972Y0177992D02*
X0056473Y0177992D01*
X0056473Y0178991D02*
X0049972Y0178991D01*
X0049973Y0179989D02*
X0056473Y0179989D01*
X0056473Y0180988D02*
X0049974Y0180988D01*
X0049975Y0181986D02*
X0056473Y0181986D01*
X0056473Y0182985D02*
X0049975Y0182985D01*
X0049976Y0183983D02*
X0056473Y0183983D01*
X0056473Y0184982D02*
X0049977Y0184982D01*
X0049978Y0185980D02*
X0056473Y0185980D01*
X0056473Y0186979D02*
X0049978Y0186979D01*
X0049979Y0187978D02*
X0056473Y0187978D01*
X0056473Y0188976D02*
X0049980Y0188976D01*
X0049981Y0189975D02*
X0056473Y0189975D01*
X0056473Y0190973D02*
X0049982Y0190973D01*
X0049982Y0191972D02*
X0056473Y0191972D01*
X0056473Y0192970D02*
X0049983Y0192970D01*
X0049984Y0193969D02*
X0056473Y0193969D01*
X0056473Y0194967D02*
X0049985Y0194967D01*
X0049985Y0195966D02*
X0056473Y0195966D01*
X0056473Y0196964D02*
X0049986Y0196964D01*
X0049987Y0197963D02*
X0056473Y0197963D01*
X0056473Y0198961D02*
X0049988Y0198961D01*
X0049988Y0199960D02*
X0056473Y0199960D01*
X0056473Y0200958D02*
X0049989Y0200958D01*
X0049990Y0201957D02*
X0056473Y0201957D01*
X0056473Y0202955D02*
X0049991Y0202955D01*
X0049992Y0203954D02*
X0056473Y0203954D01*
X0056869Y0204952D02*
X0049992Y0204952D01*
X0049993Y0205951D02*
X0057635Y0205951D01*
X0058069Y0206384D02*
X0058069Y0206384D01*
X0058634Y0206949D02*
X0049994Y0206949D01*
X0049995Y0207948D02*
X0059632Y0207948D01*
X0060631Y0208946D02*
X0049995Y0208946D01*
X0049996Y0209945D02*
X0061629Y0209945D01*
X0062628Y0210943D02*
X0049997Y0210943D01*
X0049998Y0211942D02*
X0063626Y0211942D01*
X0064625Y0212940D02*
X0049998Y0212940D01*
X0049999Y0213939D02*
X0065623Y0213939D01*
X0066622Y0214937D02*
X0050000Y0214937D01*
X0050001Y0215936D02*
X0067620Y0215936D01*
X0068619Y0216934D02*
X0050001Y0216934D01*
X0050002Y0217933D02*
X0069617Y0217933D01*
X0070616Y0218931D02*
X0050003Y0218931D01*
X0050004Y0219930D02*
X0071614Y0219930D01*
X0072613Y0220928D02*
X0050005Y0220928D01*
X0050005Y0221927D02*
X0073611Y0221927D01*
X0074610Y0222925D02*
X0050006Y0222925D01*
X0050007Y0223924D02*
X0075608Y0223924D01*
X0076607Y0224922D02*
X0050008Y0224922D01*
X0050008Y0225921D02*
X0077606Y0225921D01*
X0078604Y0226919D02*
X0050009Y0226919D01*
X0050010Y0227918D02*
X0079603Y0227918D01*
X0080601Y0228916D02*
X0050011Y0228916D01*
X0050011Y0229915D02*
X0081600Y0229915D01*
X0082598Y0230914D02*
X0050012Y0230914D01*
X0050013Y0231912D02*
X0083597Y0231912D01*
X0084595Y0232911D02*
X0050014Y0232911D01*
X0050015Y0233909D02*
X0085594Y0233909D01*
X0086592Y0234908D02*
X0050015Y0234908D01*
X0050016Y0235906D02*
X0087591Y0235906D01*
X0088589Y0236905D02*
X0050017Y0236905D01*
X0050018Y0237903D02*
X0090121Y0237903D01*
X0092011Y0229915D02*
X0107075Y0229915D01*
X0102683Y0228916D02*
X0091013Y0228916D01*
X0090014Y0227918D02*
X0101684Y0227918D01*
X0101182Y0226919D02*
X0089016Y0226919D01*
X0088017Y0225921D02*
X0100820Y0225921D01*
X0100820Y0224922D02*
X0087019Y0224922D01*
X0099525Y0212940D02*
X0101334Y0212940D01*
X0100921Y0213939D02*
X0100523Y0213939D01*
X0102053Y0211942D02*
X0098526Y0211942D01*
X0097528Y0210943D02*
X0103338Y0210943D01*
X0102713Y0208946D02*
X0095531Y0208946D01*
X0096529Y0209945D02*
X0341913Y0209945D01*
X0341911Y0210943D02*
X0333112Y0210943D01*
X0334397Y0211942D02*
X0341910Y0211942D01*
X0341909Y0212940D02*
X0335116Y0212940D01*
X0335529Y0213939D02*
X0341907Y0213939D01*
X0341906Y0214937D02*
X0335631Y0214937D01*
X0335631Y0215936D02*
X0341904Y0215936D01*
X0341903Y0216934D02*
X0335262Y0216934D01*
X0334751Y0217933D02*
X0341902Y0217933D01*
X0341900Y0218931D02*
X0333752Y0218931D01*
X0334382Y0221927D02*
X0341896Y0221927D01*
X0341895Y0222925D02*
X0335110Y0222925D01*
X0335523Y0223924D02*
X0341893Y0223924D01*
X0341892Y0224922D02*
X0335631Y0224922D01*
X0335631Y0225921D02*
X0341891Y0225921D01*
X0341889Y0226919D02*
X0335268Y0226919D01*
X0334766Y0227918D02*
X0341888Y0227918D01*
X0341426Y0228916D02*
X0333767Y0228916D01*
X0333040Y0230914D02*
X0339429Y0230914D01*
X0338430Y0231912D02*
X0334367Y0231912D01*
X0329375Y0229915D02*
X0340427Y0229915D01*
X0346850Y0227918D02*
X0347774Y0227918D01*
X0346851Y0226919D02*
X0348773Y0226919D01*
X0349771Y0225921D02*
X0346853Y0225921D01*
X0346854Y0224922D02*
X0350770Y0224922D01*
X0351768Y0223924D02*
X0346856Y0223924D01*
X0346857Y0222925D02*
X0352767Y0222925D01*
X0353246Y0221927D02*
X0346858Y0221927D01*
X0346860Y0220928D02*
X0353246Y0220928D01*
X0353247Y0219930D02*
X0346861Y0219930D01*
X0346862Y0218931D02*
X0353248Y0218931D01*
X0353248Y0217933D02*
X0346864Y0217933D01*
X0346865Y0216934D02*
X0353249Y0216934D01*
X0353249Y0215936D02*
X0346867Y0215936D01*
X0346868Y0214937D02*
X0353250Y0214937D01*
X0353251Y0213939D02*
X0346869Y0213939D01*
X0346871Y0212940D02*
X0353251Y0212940D01*
X0353252Y0211942D02*
X0346872Y0211942D01*
X0346874Y0210943D02*
X0353252Y0210943D01*
X0353253Y0209945D02*
X0346875Y0209945D01*
X0346876Y0208946D02*
X0353253Y0208946D01*
X0353254Y0207948D02*
X0346878Y0207948D01*
X0346879Y0206949D02*
X0353255Y0206949D01*
X0353255Y0205951D02*
X0346880Y0205951D01*
X0346882Y0204952D02*
X0353256Y0204952D01*
X0353256Y0203954D02*
X0346883Y0203954D01*
X0346885Y0202955D02*
X0353257Y0202955D01*
X0353257Y0201957D02*
X0346886Y0201957D01*
X0346888Y0200958D02*
X0353258Y0200958D01*
X0353259Y0199960D02*
X0346892Y0199960D01*
X0346896Y0198961D02*
X0353259Y0198961D01*
X0353260Y0197963D02*
X0346900Y0197963D01*
X0346904Y0196964D02*
X0353260Y0196964D01*
X0353261Y0195966D02*
X0346908Y0195966D01*
X0346912Y0194967D02*
X0353261Y0194967D01*
X0353262Y0193969D02*
X0346916Y0193969D01*
X0346920Y0192970D02*
X0353263Y0192970D01*
X0353263Y0191972D02*
X0346924Y0191972D01*
X0346928Y0190973D02*
X0353264Y0190973D01*
X0353264Y0189975D02*
X0346932Y0189975D01*
X0346936Y0188976D02*
X0353265Y0188976D01*
X0353265Y0187978D02*
X0347501Y0187978D01*
X0348473Y0186979D02*
X0353266Y0186979D01*
X0353267Y0185980D02*
X0348886Y0185980D01*
X0349166Y0184982D02*
X0353267Y0184982D01*
X0353268Y0183983D02*
X0349166Y0183983D01*
X0349166Y0182985D02*
X0353268Y0182985D01*
X0353269Y0181986D02*
X0349166Y0181986D01*
X0349166Y0180988D02*
X0353269Y0180988D01*
X0353270Y0179989D02*
X0349166Y0179989D01*
X0349166Y0178991D02*
X0353271Y0178991D01*
X0353271Y0177992D02*
X0349166Y0177992D01*
X0348980Y0176994D02*
X0353272Y0176994D01*
X0353272Y0175995D02*
X0348566Y0175995D01*
X0347728Y0174997D02*
X0353273Y0174997D01*
X0353273Y0173998D02*
X0346153Y0173998D01*
X0353274Y0173000D02*
X0315337Y0173000D01*
X0314934Y0172001D02*
X0353275Y0172001D01*
X0353275Y0171003D02*
X0314934Y0171003D01*
X0314934Y0170004D02*
X0353276Y0170004D01*
X0353276Y0169006D02*
X0314934Y0169006D01*
X0314934Y0168007D02*
X0353277Y0168007D01*
X0353277Y0167009D02*
X0314934Y0167009D01*
X0314934Y0166010D02*
X0353278Y0166010D01*
X0353279Y0165012D02*
X0314934Y0165012D01*
X0314934Y0164013D02*
X0353279Y0164013D01*
X0353280Y0163015D02*
X0314934Y0163015D01*
X0314934Y0162016D02*
X0353280Y0162016D01*
X0353281Y0161018D02*
X0314934Y0161018D01*
X0314934Y0160019D02*
X0353281Y0160019D01*
X0353282Y0159021D02*
X0314626Y0159021D01*
X0313627Y0158022D02*
X0353283Y0158022D01*
X0353283Y0157024D02*
X0312629Y0157024D01*
X0311630Y0156025D02*
X0352395Y0156025D01*
X0351396Y0155027D02*
X0310632Y0155027D01*
X0309633Y0154028D02*
X0350398Y0154028D01*
X0349399Y0153030D02*
X0308634Y0153030D01*
X0307636Y0152031D02*
X0348401Y0152031D01*
X0347402Y0151033D02*
X0306637Y0151033D01*
X0305639Y0150034D02*
X0346404Y0150034D01*
X0345405Y0149036D02*
X0262951Y0149036D01*
X0263344Y0148037D02*
X0344407Y0148037D01*
X0343408Y0147039D02*
X0279831Y0147039D01*
X0281447Y0146040D02*
X0342410Y0146040D01*
X0341411Y0145042D02*
X0282302Y0145042D01*
X0282716Y0144043D02*
X0340413Y0144043D01*
X0339414Y0143045D02*
X0282914Y0143045D01*
X0282914Y0142046D02*
X0338644Y0142046D01*
X0338245Y0141047D02*
X0282643Y0141047D01*
X0282229Y0140049D02*
X0338245Y0140049D01*
X0338245Y0139050D02*
X0294421Y0139050D01*
X0295419Y0138052D02*
X0338245Y0138052D01*
X0338245Y0137053D02*
X0296418Y0137053D01*
X0297416Y0136055D02*
X0338245Y0136055D01*
X0338245Y0135056D02*
X0298415Y0135056D01*
X0299413Y0134058D02*
X0338245Y0134058D01*
X0338245Y0133059D02*
X0300412Y0133059D01*
X0301410Y0132061D02*
X0338245Y0132061D01*
X0338245Y0131062D02*
X0328865Y0131062D01*
X0329864Y0130064D02*
X0338245Y0130064D01*
X0337837Y0129065D02*
X0330332Y0129065D01*
X0330670Y0128067D02*
X0336838Y0128067D01*
X0335839Y0127068D02*
X0330670Y0127068D01*
X0330538Y0126070D02*
X0334841Y0126070D01*
X0333842Y0125071D02*
X0330125Y0125071D01*
X0329363Y0124073D02*
X0332844Y0124073D01*
X0331845Y0123074D02*
X0327974Y0123074D01*
X0328851Y0121077D02*
X0329848Y0121077D01*
X0330847Y0122076D02*
X0282914Y0122076D01*
X0282914Y0123074D02*
X0318004Y0123074D01*
X0316615Y0124073D02*
X0282704Y0124073D01*
X0282290Y0125071D02*
X0315853Y0125071D01*
X0317127Y0121077D02*
X0282655Y0121077D01*
X0282241Y0120079D02*
X0316129Y0120079D01*
X0315652Y0119080D02*
X0281299Y0119080D01*
X0279475Y0118082D02*
X0315308Y0118082D01*
X0315308Y0117083D02*
X0279724Y0117083D01*
X0279164Y0117315D02*
X0280885Y0116602D01*
X0282201Y0115285D01*
X0282914Y0113565D01*
X0282914Y0111703D01*
X0282201Y0109982D01*
X0280885Y0108665D01*
X0279164Y0107953D01*
X0271302Y0107953D01*
X0269581Y0108665D01*
X0268264Y0109982D01*
X0267552Y0111703D01*
X0267552Y0113565D01*
X0268264Y0115285D01*
X0269581Y0116602D01*
X0271302Y0117315D01*
X0279164Y0117315D01*
X0281402Y0116085D02*
X0315433Y0116085D01*
X0315847Y0115086D02*
X0282284Y0115086D01*
X0282698Y0114088D02*
X0316600Y0114088D01*
X0317968Y0113089D02*
X0282914Y0113089D01*
X0282914Y0112091D02*
X0349358Y0112091D01*
X0348493Y0113089D02*
X0328010Y0113089D01*
X0327716Y0111489D02*
X0327043Y0111708D01*
X0326343Y0111819D01*
X0323489Y0111819D01*
X0323489Y0107819D01*
X0330466Y0107819D01*
X0330378Y0108373D01*
X0330159Y0109046D01*
X0329838Y0109677D01*
X0329421Y0110250D01*
X0328920Y0110751D01*
X0328347Y0111168D01*
X0327716Y0111489D01*
X0328451Y0111092D02*
X0350223Y0111092D01*
X0351089Y0110094D02*
X0329535Y0110094D01*
X0330134Y0109095D02*
X0352293Y0109095D01*
X0351528Y0109586D02*
X0355762Y0106866D01*
X0355762Y0106866D01*
X0360591Y0105448D01*
X0365623Y0105448D01*
X0370452Y0106866D01*
X0374686Y0109586D01*
X0374686Y0109586D01*
X0374686Y0109586D01*
X0377981Y0113390D01*
X0380072Y0117967D01*
X0380072Y0117967D01*
X0380788Y0122949D01*
X0380072Y0127930D01*
X0380072Y0127930D01*
X0377981Y0132508D01*
X0374686Y0136311D01*
X0370452Y0139032D01*
X0370452Y0139032D01*
X0365623Y0140450D01*
X0360591Y0140450D01*
X0355762Y0139032D01*
X0351528Y0136311D01*
X0348233Y0132508D01*
X0346142Y0127930D01*
X0345426Y0122949D01*
X0345426Y0122949D01*
X0346142Y0117967D01*
X0348233Y0113390D01*
X0351528Y0109586D01*
X0351528Y0109586D01*
X0353846Y0108097D02*
X0330422Y0108097D01*
X0330466Y0106819D02*
X0323489Y0106819D01*
X0323489Y0107819D01*
X0322489Y0107819D01*
X0322489Y0111819D01*
X0319635Y0111819D01*
X0318935Y0111708D01*
X0318261Y0111489D01*
X0317630Y0111168D01*
X0317057Y0110751D01*
X0316556Y0110250D01*
X0316140Y0109677D01*
X0315819Y0109046D01*
X0315600Y0108373D01*
X0315512Y0107819D01*
X0322489Y0107819D01*
X0322489Y0106819D01*
X0323489Y0106819D01*
X0323489Y0102819D01*
X0326343Y0102819D01*
X0327043Y0102930D01*
X0327716Y0103149D01*
X0328347Y0103470D01*
X0328920Y0103886D01*
X0329421Y0104387D01*
X0329838Y0104960D01*
X0330159Y0105591D01*
X0330378Y0106265D01*
X0330466Y0106819D01*
X0330324Y0106100D02*
X0358370Y0106100D01*
X0355400Y0107098D02*
X0323489Y0107098D01*
X0323489Y0106100D02*
X0322489Y0106100D01*
X0322489Y0106819D02*
X0322489Y0102819D01*
X0319635Y0102819D01*
X0318935Y0102930D01*
X0318261Y0103149D01*
X0317630Y0103470D01*
X0317057Y0103886D01*
X0316556Y0104387D01*
X0316140Y0104960D01*
X0315819Y0105591D01*
X0315600Y0106265D01*
X0315512Y0106819D01*
X0322489Y0106819D01*
X0322489Y0107098D02*
X0261548Y0107098D01*
X0261548Y0106100D02*
X0315653Y0106100D01*
X0316068Y0105101D02*
X0261548Y0105101D01*
X0261548Y0104103D02*
X0316841Y0104103D01*
X0318398Y0103104D02*
X0261548Y0103104D01*
X0261548Y0102106D02*
X0391173Y0102106D01*
X0391174Y0103104D02*
X0327579Y0103104D01*
X0329136Y0104103D02*
X0391175Y0104103D01*
X0391175Y0105101D02*
X0329909Y0105101D01*
X0323489Y0105101D02*
X0322489Y0105101D01*
X0322489Y0104103D02*
X0323489Y0104103D01*
X0323489Y0103104D02*
X0322489Y0103104D01*
X0322489Y0108097D02*
X0323489Y0108097D01*
X0323489Y0109095D02*
X0322489Y0109095D01*
X0322489Y0110094D02*
X0323489Y0110094D01*
X0323489Y0111092D02*
X0322489Y0111092D01*
X0317526Y0111092D02*
X0282661Y0111092D01*
X0282248Y0110094D02*
X0316443Y0110094D01*
X0315843Y0109095D02*
X0281314Y0109095D01*
X0279511Y0108097D02*
X0315556Y0108097D01*
X0333114Y0114088D02*
X0347914Y0114088D01*
X0348233Y0113390D02*
X0348233Y0113390D01*
X0347458Y0115086D02*
X0334269Y0115086D01*
X0335268Y0116085D02*
X0347002Y0116085D01*
X0346546Y0117083D02*
X0336266Y0117083D01*
X0337265Y0118082D02*
X0346126Y0118082D01*
X0345982Y0119080D02*
X0338263Y0119080D01*
X0339262Y0120079D02*
X0345838Y0120079D01*
X0345695Y0121077D02*
X0340260Y0121077D01*
X0341259Y0122076D02*
X0345551Y0122076D01*
X0345444Y0123074D02*
X0342257Y0123074D01*
X0343256Y0124073D02*
X0345587Y0124073D01*
X0345731Y0125071D02*
X0344254Y0125071D01*
X0345132Y0126070D02*
X0345875Y0126070D01*
X0346018Y0127068D02*
X0345546Y0127068D01*
X0345607Y0128067D02*
X0346204Y0128067D01*
X0346142Y0127930D02*
X0346142Y0127930D01*
X0346660Y0129065D02*
X0345607Y0129065D01*
X0345607Y0130064D02*
X0347116Y0130064D01*
X0347573Y0131062D02*
X0345607Y0131062D01*
X0345607Y0132061D02*
X0348029Y0132061D01*
X0348233Y0132508D02*
X0348233Y0132508D01*
X0348711Y0133059D02*
X0345607Y0133059D01*
X0345607Y0134058D02*
X0349576Y0134058D01*
X0350441Y0135056D02*
X0345607Y0135056D01*
X0345607Y0136055D02*
X0351306Y0136055D01*
X0351528Y0136311D02*
X0351528Y0136311D01*
X0351528Y0136311D01*
X0352683Y0137053D02*
X0345607Y0137053D01*
X0345607Y0138052D02*
X0354237Y0138052D01*
X0355762Y0139032D02*
X0355762Y0139032D01*
X0355825Y0139050D02*
X0345832Y0139050D01*
X0346830Y0140049D02*
X0359225Y0140049D01*
X0366989Y0140049D02*
X0391202Y0140049D01*
X0391203Y0141047D02*
X0347829Y0141047D01*
X0348827Y0142046D02*
X0391204Y0142046D01*
X0391205Y0143045D02*
X0349826Y0143045D01*
X0350824Y0144043D02*
X0391205Y0144043D01*
X0391206Y0145042D02*
X0351823Y0145042D01*
X0352821Y0146040D02*
X0391207Y0146040D01*
X0391208Y0147039D02*
X0353820Y0147039D01*
X0354818Y0148037D02*
X0391208Y0148037D01*
X0391209Y0149036D02*
X0355817Y0149036D01*
X0356815Y0150034D02*
X0391210Y0150034D01*
X0391211Y0151033D02*
X0357814Y0151033D01*
X0358812Y0152031D02*
X0391212Y0152031D01*
X0391212Y0153030D02*
X0359811Y0153030D01*
X0360386Y0154028D02*
X0391213Y0154028D01*
X0391214Y0155027D02*
X0360647Y0155027D01*
X0360646Y0156025D02*
X0391215Y0156025D01*
X0391215Y0157024D02*
X0360645Y0157024D01*
X0360645Y0158022D02*
X0391216Y0158022D01*
X0391217Y0159021D02*
X0360644Y0159021D01*
X0360644Y0160019D02*
X0391218Y0160019D01*
X0391218Y0161018D02*
X0360643Y0161018D01*
X0360643Y0162016D02*
X0391219Y0162016D01*
X0391220Y0163015D02*
X0360642Y0163015D01*
X0360641Y0164013D02*
X0391221Y0164013D01*
X0391221Y0165012D02*
X0360641Y0165012D01*
X0360640Y0166010D02*
X0391222Y0166010D01*
X0391223Y0167009D02*
X0360640Y0167009D01*
X0360639Y0168007D02*
X0391224Y0168007D01*
X0391225Y0169006D02*
X0360638Y0169006D01*
X0360638Y0170004D02*
X0391225Y0170004D01*
X0391226Y0171003D02*
X0360637Y0171003D01*
X0360637Y0172001D02*
X0391227Y0172001D01*
X0391228Y0173000D02*
X0360636Y0173000D01*
X0360636Y0173998D02*
X0391228Y0173998D01*
X0391229Y0174997D02*
X0360635Y0174997D01*
X0360634Y0175995D02*
X0391230Y0175995D01*
X0391231Y0176994D02*
X0360634Y0176994D01*
X0360633Y0177992D02*
X0391231Y0177992D01*
X0391232Y0178991D02*
X0360633Y0178991D01*
X0360632Y0179989D02*
X0391233Y0179989D01*
X0391234Y0180988D02*
X0360632Y0180988D01*
X0360631Y0181986D02*
X0391235Y0181986D01*
X0391235Y0182985D02*
X0360630Y0182985D01*
X0360630Y0183983D02*
X0391236Y0183983D01*
X0391237Y0184982D02*
X0360629Y0184982D01*
X0360629Y0185980D02*
X0391238Y0185980D01*
X0391238Y0186979D02*
X0360628Y0186979D01*
X0360628Y0187978D02*
X0391239Y0187978D01*
X0391240Y0188976D02*
X0360627Y0188976D01*
X0360626Y0189975D02*
X0391241Y0189975D01*
X0391241Y0190973D02*
X0360626Y0190973D01*
X0360625Y0191972D02*
X0391242Y0191972D01*
X0391243Y0192970D02*
X0360625Y0192970D01*
X0360624Y0193969D02*
X0391244Y0193969D01*
X0391244Y0194967D02*
X0360624Y0194967D01*
X0360623Y0195966D02*
X0391245Y0195966D01*
X0391246Y0196964D02*
X0360622Y0196964D01*
X0360622Y0197963D02*
X0391247Y0197963D01*
X0391248Y0198961D02*
X0360621Y0198961D01*
X0360621Y0199960D02*
X0391248Y0199960D01*
X0391249Y0200958D02*
X0360620Y0200958D01*
X0360620Y0201957D02*
X0391250Y0201957D01*
X0391251Y0202955D02*
X0360619Y0202955D01*
X0360618Y0203954D02*
X0391251Y0203954D01*
X0391252Y0204952D02*
X0360618Y0204952D01*
X0360617Y0205951D02*
X0391253Y0205951D01*
X0391254Y0206949D02*
X0360617Y0206949D01*
X0360616Y0207948D02*
X0391254Y0207948D01*
X0391255Y0208946D02*
X0360616Y0208946D01*
X0360615Y0209945D02*
X0391256Y0209945D01*
X0391257Y0210943D02*
X0360614Y0210943D01*
X0360614Y0211942D02*
X0391258Y0211942D01*
X0391258Y0212940D02*
X0360613Y0212940D01*
X0360613Y0213939D02*
X0391259Y0213939D01*
X0391260Y0214937D02*
X0360612Y0214937D01*
X0360612Y0215936D02*
X0391261Y0215936D01*
X0391261Y0216934D02*
X0360611Y0216934D01*
X0360610Y0217933D02*
X0391262Y0217933D01*
X0391263Y0218931D02*
X0360610Y0218931D01*
X0360609Y0219930D02*
X0391264Y0219930D01*
X0391264Y0220928D02*
X0360609Y0220928D01*
X0360608Y0221927D02*
X0391265Y0221927D01*
X0391266Y0222925D02*
X0360608Y0222925D01*
X0360607Y0223924D02*
X0391267Y0223924D01*
X0391267Y0224922D02*
X0360517Y0224922D01*
X0360103Y0225921D02*
X0391268Y0225921D01*
X0391269Y0226919D02*
X0359185Y0226919D01*
X0358186Y0227918D02*
X0391270Y0227918D01*
X0391271Y0228916D02*
X0357188Y0228916D01*
X0356189Y0229915D02*
X0391271Y0229915D01*
X0391272Y0230914D02*
X0355191Y0230914D01*
X0354192Y0231912D02*
X0391273Y0231912D01*
X0391274Y0232911D02*
X0353194Y0232911D01*
X0352195Y0233909D02*
X0391274Y0233909D01*
X0391275Y0234908D02*
X0351197Y0234908D01*
X0350198Y0235906D02*
X0391276Y0235906D01*
X0391277Y0236905D02*
X0349200Y0236905D01*
X0348201Y0237903D02*
X0391277Y0237903D01*
X0391278Y0238902D02*
X0347203Y0238902D01*
X0346204Y0239900D02*
X0391279Y0239900D01*
X0391280Y0240899D02*
X0345206Y0240899D01*
X0344207Y0241897D02*
X0391281Y0241897D01*
X0391281Y0242896D02*
X0339006Y0242896D01*
X0337863Y0242896D02*
X0334870Y0242896D01*
X0334798Y0242756D02*
X0335120Y0243387D01*
X0335339Y0244060D01*
X0335426Y0244614D01*
X0328450Y0244614D01*
X0328450Y0245614D01*
X0335426Y0245614D01*
X0335339Y0246168D01*
X0335120Y0246842D01*
X0334798Y0247473D01*
X0334382Y0248046D01*
X0333881Y0248547D01*
X0333308Y0248963D01*
X0332677Y0249284D01*
X0332003Y0249503D01*
X0331304Y0249614D01*
X0330301Y0249614D01*
X0331337Y0250044D01*
X0331727Y0250433D01*
X0331881Y0250433D01*
X0333601Y0251146D01*
X0334918Y0252463D01*
X0335631Y0254183D01*
X0335631Y0256045D01*
X0334918Y0257766D01*
X0333601Y0259083D01*
X0331881Y0259795D01*
X0331727Y0259795D01*
X0331337Y0260185D01*
X0329139Y0261095D01*
X0107311Y0261095D01*
X0105113Y0260185D01*
X0104723Y0259795D01*
X0104570Y0259795D01*
X0102849Y0259083D01*
X0101532Y0257766D01*
X0100820Y0256045D01*
X0100820Y0254183D01*
X0101532Y0252463D01*
X0102849Y0251146D01*
X0104570Y0250433D01*
X0104723Y0250433D01*
X0105113Y0250044D01*
X0106149Y0249614D01*
X0105146Y0249614D01*
X0104447Y0249503D01*
X0103773Y0249284D01*
X0103142Y0248963D01*
X0102569Y0248547D01*
X0102068Y0248046D01*
X0101652Y0247473D01*
X0101330Y0246842D01*
X0101111Y0246168D01*
X0101024Y0245614D01*
X0108001Y0245614D01*
X0108001Y0244614D01*
X0109001Y0244614D01*
X0109001Y0245614D01*
X0115978Y0245614D01*
X0115890Y0246168D01*
X0115671Y0246842D01*
X0115349Y0247473D01*
X0114933Y0248046D01*
X0114432Y0248547D01*
X0113859Y0248963D01*
X0113525Y0249133D01*
X0322925Y0249133D01*
X0322591Y0248963D01*
X0322018Y0248547D01*
X0321517Y0248046D01*
X0321101Y0247473D01*
X0320779Y0246842D01*
X0320560Y0246168D01*
X0320473Y0245614D01*
X0327449Y0245614D01*
X0327449Y0244614D01*
X0320473Y0244614D01*
X0320560Y0244060D01*
X0320779Y0243387D01*
X0321101Y0242756D01*
X0321517Y0242183D01*
X0322018Y0241682D01*
X0322591Y0241265D01*
X0323222Y0240944D01*
X0323896Y0240725D01*
X0324595Y0240614D01*
X0327449Y0240614D01*
X0327449Y0244614D01*
X0328449Y0244614D01*
X0328449Y0240614D01*
X0331304Y0240614D01*
X0332003Y0240725D01*
X0332677Y0240944D01*
X0333308Y0241265D01*
X0333881Y0241682D01*
X0334382Y0242183D01*
X0334798Y0242756D01*
X0334096Y0241897D02*
X0335919Y0241897D01*
X0335207Y0240899D02*
X0332538Y0240899D01*
X0333782Y0238902D02*
X0334769Y0238902D01*
X0334781Y0237903D02*
X0335058Y0237903D01*
X0334869Y0239900D02*
X0329411Y0239900D01*
X0328449Y0240899D02*
X0327449Y0240899D01*
X0327449Y0241897D02*
X0328449Y0241897D01*
X0328449Y0242896D02*
X0327449Y0242896D01*
X0327449Y0243894D02*
X0328449Y0243894D01*
X0328450Y0244893D02*
X0391283Y0244893D01*
X0391284Y0245891D02*
X0335382Y0245891D01*
X0335095Y0246890D02*
X0391284Y0246890D01*
X0391285Y0247888D02*
X0334496Y0247888D01*
X0333413Y0248887D02*
X0391286Y0248887D01*
X0391287Y0249885D02*
X0330955Y0249885D01*
X0332969Y0250884D02*
X0391287Y0250884D01*
X0391288Y0251882D02*
X0334338Y0251882D01*
X0335091Y0252881D02*
X0391289Y0252881D01*
X0391290Y0253879D02*
X0335505Y0253879D01*
X0335631Y0254878D02*
X0391290Y0254878D01*
X0391291Y0255876D02*
X0335631Y0255876D01*
X0335287Y0256875D02*
X0391292Y0256875D01*
X0391293Y0257873D02*
X0334810Y0257873D01*
X0333812Y0258872D02*
X0391294Y0258872D01*
X0391294Y0259870D02*
X0331652Y0259870D01*
X0329686Y0260869D02*
X0391295Y0260869D01*
X0391296Y0261867D02*
X0050036Y0261867D01*
X0050035Y0260869D02*
X0106764Y0260869D01*
X0104798Y0259870D02*
X0050034Y0259870D01*
X0050034Y0258872D02*
X0102638Y0258872D01*
X0101640Y0257873D02*
X0050033Y0257873D01*
X0050032Y0256875D02*
X0101163Y0256875D01*
X0100820Y0255876D02*
X0050031Y0255876D01*
X0050031Y0254878D02*
X0100820Y0254878D01*
X0100945Y0253879D02*
X0050030Y0253879D01*
X0050029Y0252881D02*
X0101359Y0252881D01*
X0102112Y0251882D02*
X0050028Y0251882D01*
X0050028Y0250884D02*
X0103481Y0250884D01*
X0103037Y0248887D02*
X0050026Y0248887D01*
X0050027Y0249885D02*
X0105495Y0249885D01*
X0101954Y0247888D02*
X0050025Y0247888D01*
X0050024Y0246890D02*
X0101355Y0246890D01*
X0101068Y0245891D02*
X0050024Y0245891D01*
X0050023Y0244893D02*
X0108001Y0244893D01*
X0108001Y0244614D02*
X0101024Y0244614D01*
X0101111Y0244060D01*
X0101330Y0243387D01*
X0101652Y0242756D01*
X0102068Y0242183D01*
X0102569Y0241682D01*
X0103142Y0241265D01*
X0103773Y0240944D01*
X0104447Y0240725D01*
X0105146Y0240614D01*
X0108001Y0240614D01*
X0108001Y0244614D01*
X0108001Y0243894D02*
X0109001Y0243894D01*
X0109001Y0244614D02*
X0109001Y0240614D01*
X0111855Y0240614D01*
X0112554Y0240725D01*
X0113228Y0240944D01*
X0113859Y0241265D01*
X0114432Y0241682D01*
X0114933Y0242183D01*
X0115349Y0242756D01*
X0115671Y0243387D01*
X0115890Y0244060D01*
X0115978Y0244614D01*
X0109001Y0244614D01*
X0109001Y0244893D02*
X0327449Y0244893D01*
X0323361Y0240899D02*
X0113089Y0240899D01*
X0114648Y0241897D02*
X0321803Y0241897D01*
X0321029Y0242896D02*
X0115421Y0242896D01*
X0115836Y0243894D02*
X0320614Y0243894D01*
X0320516Y0245891D02*
X0115934Y0245891D01*
X0115646Y0246890D02*
X0320804Y0246890D01*
X0321403Y0247888D02*
X0115047Y0247888D01*
X0113964Y0248887D02*
X0322486Y0248887D01*
X0335285Y0243894D02*
X0391282Y0243894D01*
X0341914Y0208946D02*
X0333737Y0208946D01*
X0334736Y0207948D02*
X0341916Y0207948D01*
X0341917Y0206949D02*
X0335256Y0206949D01*
X0335631Y0205951D02*
X0341918Y0205951D01*
X0341920Y0204952D02*
X0335631Y0204952D01*
X0335536Y0203954D02*
X0341921Y0203954D01*
X0341922Y0202955D02*
X0335122Y0202955D01*
X0334412Y0201957D02*
X0341924Y0201957D01*
X0327989Y0235075D02*
X0327949Y0235114D01*
X0295778Y0175995D02*
X0282476Y0175995D01*
X0306459Y0157024D02*
X0234697Y0157024D01*
X0234697Y0158022D02*
X0307458Y0158022D01*
X0305461Y0156025D02*
X0234697Y0156025D01*
X0234697Y0155027D02*
X0304462Y0155027D01*
X0292831Y0137555D02*
X0303068Y0127319D01*
X0322989Y0127319D01*
X0317112Y0131062D02*
X0302409Y0131062D01*
X0303407Y0130064D02*
X0316114Y0130064D01*
X0301232Y0126070D02*
X0281417Y0126070D01*
X0279759Y0127068D02*
X0300234Y0127068D01*
X0299235Y0128067D02*
X0279439Y0128067D01*
X0281285Y0129065D02*
X0298237Y0129065D01*
X0297238Y0130064D02*
X0282235Y0130064D01*
X0282649Y0131062D02*
X0296240Y0131062D01*
X0295241Y0132061D02*
X0282914Y0132061D01*
X0282914Y0133059D02*
X0294243Y0133059D01*
X0293244Y0134058D02*
X0282710Y0134058D01*
X0282296Y0135056D02*
X0292246Y0135056D01*
X0292831Y0137555D02*
X0269682Y0137555D01*
X0257556Y0125429D01*
X0257556Y0121846D01*
X0254740Y0123074D02*
X0249304Y0123074D01*
X0249304Y0122076D02*
X0254484Y0122076D01*
X0254550Y0121077D02*
X0249304Y0121077D01*
X0249304Y0120079D02*
X0254979Y0120079D01*
X0254696Y0119080D02*
X0249784Y0119080D01*
X0250783Y0118082D02*
X0254366Y0118082D01*
X0254366Y0117083D02*
X0251781Y0117083D01*
X0252780Y0116085D02*
X0254771Y0116085D01*
X0255681Y0115086D02*
X0253779Y0115086D01*
X0254777Y0114088D02*
X0260610Y0114088D01*
X0261609Y0115086D02*
X0259195Y0115086D01*
X0259612Y0113089D02*
X0255776Y0113089D01*
X0256774Y0112091D02*
X0258613Y0112091D01*
X0259367Y0109760D02*
X0256020Y0109760D01*
X0247123Y0118657D01*
X0247123Y0132988D01*
X0249091Y0134957D01*
X0253772Y0135056D02*
X0264099Y0135056D01*
X0265097Y0136055D02*
X0253772Y0136055D01*
X0253772Y0137053D02*
X0266096Y0137053D01*
X0267094Y0138052D02*
X0253772Y0138052D01*
X0253705Y0139050D02*
X0268093Y0139050D01*
X0268237Y0140049D02*
X0253291Y0140049D01*
X0252620Y0141047D02*
X0267823Y0141047D01*
X0267552Y0142046D02*
X0251451Y0142046D01*
X0250264Y0143045D02*
X0267552Y0143045D01*
X0267750Y0144043D02*
X0251262Y0144043D01*
X0252261Y0145042D02*
X0258363Y0145042D01*
X0260272Y0147476D02*
X0251611Y0147476D01*
X0244131Y0139996D01*
X0244131Y0126256D01*
X0233619Y0115744D01*
X0217713Y0115744D01*
X0214943Y0117083D02*
X0168162Y0117083D01*
X0168162Y0116085D02*
X0214642Y0116085D01*
X0214661Y0115086D02*
X0168162Y0115086D01*
X0168162Y0114088D02*
X0215075Y0114088D01*
X0216096Y0113089D02*
X0168162Y0113089D01*
X0168162Y0112091D02*
X0250605Y0112091D01*
X0249606Y0113089D02*
X0219330Y0113089D01*
X0219720Y0118082D02*
X0232872Y0118082D01*
X0233870Y0119080D02*
X0168162Y0119080D01*
X0168162Y0118082D02*
X0215707Y0118082D01*
X0217477Y0121768D02*
X0205587Y0109878D01*
X0211375Y0104091D01*
X0205587Y0109878D02*
X0202398Y0109878D01*
X0199721Y0107201D01*
X0199327Y0107201D01*
X0217477Y0121768D02*
X0219052Y0121138D01*
X0230461Y0132061D02*
X0234410Y0132061D01*
X0234410Y0133059D02*
X0231344Y0133059D01*
X0231730Y0134058D02*
X0234410Y0134058D01*
X0234410Y0135056D02*
X0232157Y0135056D01*
X0233156Y0136055D02*
X0234410Y0136055D01*
X0234410Y0137053D02*
X0234154Y0137053D01*
X0230272Y0139484D02*
X0232516Y0141650D01*
X0232516Y0160429D01*
X0228816Y0164130D01*
X0224603Y0174484D02*
X0228737Y0178618D01*
X0224603Y0174484D02*
X0204012Y0174484D01*
X0200548Y0171020D01*
X0200548Y0163264D01*
X0205194Y0158618D01*
X0214249Y0158618D01*
X0218264Y0154602D01*
X0218264Y0153067D01*
X0214641Y0142046D02*
X0229786Y0142046D01*
X0230272Y0139484D02*
X0212989Y0139406D01*
X0214981Y0137053D02*
X0226765Y0137053D01*
X0234410Y0131062D02*
X0190952Y0131062D01*
X0191778Y0130064D02*
X0234808Y0130064D01*
X0235362Y0129065D02*
X0192123Y0129065D01*
X0192123Y0128067D02*
X0236361Y0128067D01*
X0239861Y0125071D02*
X0168162Y0125071D01*
X0168162Y0124073D02*
X0238863Y0124073D01*
X0237864Y0123074D02*
X0168162Y0123074D01*
X0168162Y0122076D02*
X0236866Y0122076D01*
X0235867Y0121077D02*
X0168162Y0121077D01*
X0168162Y0120079D02*
X0234869Y0120079D01*
X0238042Y0117083D02*
X0245612Y0117083D01*
X0244942Y0118082D02*
X0239041Y0118082D01*
X0240039Y0119080D02*
X0244942Y0119080D01*
X0244942Y0120079D02*
X0241038Y0120079D01*
X0242036Y0121077D02*
X0244942Y0121077D01*
X0244942Y0122076D02*
X0243035Y0122076D01*
X0244033Y0123074D02*
X0244942Y0123074D01*
X0249304Y0124073D02*
X0255375Y0124073D01*
X0255375Y0125071D02*
X0249304Y0125071D01*
X0249304Y0126070D02*
X0255375Y0126070D01*
X0256110Y0127068D02*
X0249304Y0127068D01*
X0251821Y0128067D02*
X0257109Y0128067D01*
X0258107Y0129065D02*
X0252820Y0129065D01*
X0253374Y0130064D02*
X0259106Y0130064D01*
X0260104Y0131062D02*
X0253772Y0131062D01*
X0253772Y0132061D02*
X0261103Y0132061D01*
X0262102Y0133059D02*
X0253772Y0133059D01*
X0253772Y0134058D02*
X0263100Y0134058D01*
X0275233Y0132634D02*
X0260272Y0117673D01*
X0257438Y0117673D01*
X0261768Y0116085D02*
X0262607Y0116085D01*
X0262767Y0117083D02*
X0263606Y0117083D01*
X0263765Y0118082D02*
X0264604Y0118082D01*
X0264764Y0119080D02*
X0265603Y0119080D01*
X0265762Y0120079D02*
X0266601Y0120079D01*
X0266761Y0121077D02*
X0267600Y0121077D01*
X0270773Y0118082D02*
X0270990Y0118082D01*
X0270742Y0117083D02*
X0269775Y0117083D01*
X0269064Y0116085D02*
X0268776Y0116085D01*
X0268182Y0115086D02*
X0267778Y0115086D01*
X0267768Y0114088D02*
X0266779Y0114088D01*
X0267552Y0113089D02*
X0265781Y0113089D01*
X0264782Y0112091D02*
X0267552Y0112091D01*
X0267805Y0111092D02*
X0263784Y0111092D01*
X0262785Y0110094D02*
X0268218Y0110094D01*
X0269152Y0109095D02*
X0261787Y0109095D01*
X0261548Y0108097D02*
X0270954Y0108097D01*
X0259367Y0109760D02*
X0259367Y0091059D01*
X0271099Y0079327D01*
X0271099Y0069406D01*
X0271217Y0069287D01*
X0268361Y0068156D02*
X0246651Y0068156D01*
X0246593Y0067158D02*
X0269003Y0067158D01*
X0268146Y0069155D02*
X0246388Y0069155D01*
X0245680Y0070153D02*
X0268251Y0070153D01*
X0268738Y0071152D02*
X0168162Y0071152D01*
X0168162Y0072150D02*
X0268918Y0072150D01*
X0268918Y0073149D02*
X0168162Y0073149D01*
X0168162Y0074147D02*
X0268918Y0074147D01*
X0268918Y0075146D02*
X0168162Y0075146D01*
X0168162Y0076144D02*
X0268918Y0076144D01*
X0268918Y0077143D02*
X0168162Y0077143D01*
X0168162Y0078141D02*
X0268918Y0078141D01*
X0268202Y0079140D02*
X0168162Y0079140D01*
X0168162Y0080138D02*
X0267203Y0080138D01*
X0266204Y0081137D02*
X0168162Y0081137D01*
X0168162Y0082135D02*
X0265206Y0082135D01*
X0264207Y0083134D02*
X0168162Y0083134D01*
X0168162Y0084132D02*
X0263209Y0084132D01*
X0262210Y0085131D02*
X0168162Y0085131D01*
X0168162Y0086129D02*
X0261212Y0086129D01*
X0260213Y0087128D02*
X0168162Y0087128D01*
X0168162Y0088126D02*
X0259215Y0088126D01*
X0258216Y0089125D02*
X0168162Y0089125D01*
X0168162Y0090123D02*
X0257218Y0090123D01*
X0257186Y0091122D02*
X0168162Y0091122D01*
X0168162Y0092120D02*
X0257186Y0092120D01*
X0257186Y0093119D02*
X0168162Y0093119D01*
X0168162Y0094117D02*
X0257186Y0094117D01*
X0257186Y0095116D02*
X0168162Y0095116D01*
X0168162Y0096114D02*
X0257186Y0096114D01*
X0257186Y0097113D02*
X0168162Y0097113D01*
X0168162Y0098112D02*
X0257186Y0098112D01*
X0257186Y0099110D02*
X0168162Y0099110D01*
X0168162Y0100109D02*
X0257186Y0100109D01*
X0257186Y0101107D02*
X0168162Y0101107D01*
X0168162Y0102106D02*
X0257186Y0102106D01*
X0257186Y0103104D02*
X0168162Y0103104D01*
X0168162Y0104103D02*
X0257186Y0104103D01*
X0257186Y0105101D02*
X0168162Y0105101D01*
X0168162Y0106100D02*
X0257186Y0106100D01*
X0257186Y0107098D02*
X0168162Y0107098D01*
X0168162Y0108097D02*
X0254599Y0108097D01*
X0253601Y0109095D02*
X0168162Y0109095D01*
X0168162Y0110094D02*
X0252602Y0110094D01*
X0251603Y0111092D02*
X0168162Y0111092D01*
X0163800Y0111092D02*
X0148530Y0111092D01*
X0148621Y0111054D02*
X0146985Y0111732D01*
X0145213Y0111732D01*
X0143577Y0111054D01*
X0142324Y0109802D01*
X0141646Y0108165D01*
X0141646Y0106394D01*
X0142324Y0104757D01*
X0143577Y0103505D01*
X0145213Y0102827D01*
X0146985Y0102827D01*
X0148621Y0103505D01*
X0149874Y0104757D01*
X0150552Y0106394D01*
X0150552Y0108165D01*
X0149874Y0109802D01*
X0148621Y0111054D01*
X0149582Y0110094D02*
X0163800Y0110094D01*
X0163800Y0109095D02*
X0150167Y0109095D01*
X0150552Y0108097D02*
X0163800Y0108097D01*
X0163800Y0107098D02*
X0150552Y0107098D01*
X0150430Y0106100D02*
X0163800Y0106100D01*
X0163800Y0105101D02*
X0150016Y0105101D01*
X0149219Y0104103D02*
X0163800Y0104103D01*
X0163800Y0103104D02*
X0147654Y0103104D01*
X0146985Y0101732D02*
X0145213Y0101732D01*
X0143577Y0101054D01*
X0142324Y0099802D01*
X0141646Y0098165D01*
X0141646Y0096394D01*
X0142324Y0094757D01*
X0143577Y0093505D01*
X0145213Y0092827D01*
X0146985Y0092827D01*
X0148621Y0093505D01*
X0149874Y0094757D01*
X0150552Y0096394D01*
X0150552Y0098165D01*
X0149874Y0099802D01*
X0148621Y0101054D01*
X0146985Y0101732D01*
X0148494Y0101107D02*
X0163800Y0101107D01*
X0163800Y0100109D02*
X0149567Y0100109D01*
X0150160Y0099110D02*
X0163800Y0099110D01*
X0163800Y0098112D02*
X0150552Y0098112D01*
X0150552Y0097113D02*
X0163800Y0097113D01*
X0163800Y0096114D02*
X0150436Y0096114D01*
X0150023Y0095116D02*
X0163800Y0095116D01*
X0163800Y0094117D02*
X0149234Y0094117D01*
X0147690Y0093119D02*
X0163800Y0093119D01*
X0163800Y0092120D02*
X0141509Y0092120D01*
X0141509Y0091122D02*
X0143740Y0091122D01*
X0143577Y0091054D02*
X0142324Y0089802D01*
X0141646Y0088165D01*
X0141646Y0086394D01*
X0142324Y0084757D01*
X0143577Y0083505D01*
X0145213Y0082827D01*
X0146985Y0082827D01*
X0148621Y0083505D01*
X0149874Y0084757D01*
X0150552Y0086394D01*
X0150552Y0088165D01*
X0149874Y0089802D01*
X0148621Y0091054D01*
X0146985Y0091732D01*
X0145213Y0091732D01*
X0143577Y0091054D01*
X0142646Y0090123D02*
X0141509Y0090123D01*
X0141509Y0089125D02*
X0142044Y0089125D01*
X0141646Y0088126D02*
X0141509Y0088126D01*
X0141509Y0087128D02*
X0141646Y0087128D01*
X0141756Y0086129D02*
X0141509Y0086129D01*
X0141509Y0085131D02*
X0142169Y0085131D01*
X0141509Y0084132D02*
X0142949Y0084132D01*
X0141509Y0083134D02*
X0144472Y0083134D01*
X0145213Y0081732D02*
X0143577Y0081054D01*
X0142324Y0079802D01*
X0141646Y0078165D01*
X0141646Y0076394D01*
X0142324Y0074757D01*
X0143577Y0073505D01*
X0145213Y0072827D01*
X0146985Y0072827D01*
X0148621Y0073505D01*
X0149874Y0074757D01*
X0150552Y0076394D01*
X0150552Y0078165D01*
X0149874Y0079802D01*
X0148621Y0081054D01*
X0146985Y0081732D01*
X0145213Y0081732D01*
X0143776Y0081137D02*
X0141509Y0081137D01*
X0141509Y0082135D02*
X0163800Y0082135D01*
X0163800Y0081137D02*
X0148422Y0081137D01*
X0149537Y0080138D02*
X0163800Y0080138D01*
X0163800Y0079140D02*
X0150148Y0079140D01*
X0150552Y0078141D02*
X0163800Y0078141D01*
X0163800Y0077143D02*
X0150552Y0077143D01*
X0150448Y0076144D02*
X0163800Y0076144D01*
X0163800Y0075146D02*
X0150035Y0075146D01*
X0149264Y0074147D02*
X0163800Y0074147D01*
X0163800Y0073149D02*
X0147762Y0073149D01*
X0146985Y0071732D02*
X0145213Y0071732D01*
X0143577Y0071054D01*
X0142324Y0069802D01*
X0141646Y0068165D01*
X0141646Y0066394D01*
X0142324Y0064757D01*
X0143577Y0063505D01*
X0145213Y0062827D01*
X0146985Y0062827D01*
X0148621Y0063505D01*
X0149874Y0064757D01*
X0150552Y0066394D01*
X0150552Y0068165D01*
X0149874Y0069802D01*
X0148621Y0071054D01*
X0146985Y0071732D01*
X0148386Y0071152D02*
X0163800Y0071152D01*
X0163800Y0072150D02*
X0141509Y0072150D01*
X0141509Y0071152D02*
X0143812Y0071152D01*
X0142676Y0070153D02*
X0141509Y0070153D01*
X0141509Y0069155D02*
X0142056Y0069155D01*
X0141646Y0068156D02*
X0141509Y0068156D01*
X0141509Y0067158D02*
X0141646Y0067158D01*
X0141744Y0066159D02*
X0141509Y0066159D01*
X0141509Y0065161D02*
X0142157Y0065161D01*
X0141509Y0064162D02*
X0142919Y0064162D01*
X0141509Y0063164D02*
X0144400Y0063164D01*
X0147798Y0063164D02*
X0171660Y0063164D01*
X0170078Y0064162D02*
X0149279Y0064162D01*
X0150041Y0065161D02*
X0168495Y0065161D01*
X0166913Y0066159D02*
X0150455Y0066159D01*
X0150552Y0067158D02*
X0165066Y0067158D01*
X0164010Y0068156D02*
X0150552Y0068156D01*
X0150142Y0069155D02*
X0163784Y0069155D01*
X0163800Y0070153D02*
X0149523Y0070153D01*
X0144436Y0073149D02*
X0141509Y0073149D01*
X0141509Y0074147D02*
X0142934Y0074147D01*
X0142163Y0075146D02*
X0141509Y0075146D01*
X0141509Y0076144D02*
X0141750Y0076144D01*
X0141646Y0077143D02*
X0141509Y0077143D01*
X0141509Y0078141D02*
X0141646Y0078141D01*
X0141509Y0079140D02*
X0142050Y0079140D01*
X0141509Y0080138D02*
X0142661Y0080138D01*
X0137146Y0080138D02*
X0101430Y0080138D01*
X0101430Y0079140D02*
X0137146Y0079140D01*
X0137146Y0078141D02*
X0101430Y0078141D01*
X0101430Y0077143D02*
X0137146Y0077143D01*
X0137146Y0076144D02*
X0101430Y0076144D01*
X0101430Y0075146D02*
X0137146Y0075146D01*
X0137146Y0074147D02*
X0101430Y0074147D01*
X0101430Y0073149D02*
X0137146Y0073149D01*
X0137146Y0072150D02*
X0101430Y0072150D01*
X0101430Y0071152D02*
X0137146Y0071152D01*
X0137146Y0070153D02*
X0101430Y0070153D01*
X0101430Y0069155D02*
X0137146Y0069155D01*
X0137146Y0068156D02*
X0101430Y0068156D01*
X0101430Y0067158D02*
X0137146Y0067158D01*
X0137146Y0066159D02*
X0101430Y0066159D01*
X0101430Y0065161D02*
X0137146Y0065161D01*
X0137146Y0064162D02*
X0101430Y0064162D01*
X0101430Y0063164D02*
X0137146Y0063164D01*
X0137146Y0062165D02*
X0101430Y0062165D01*
X0101430Y0061905D02*
X0101430Y0102891D01*
X0100844Y0103476D01*
X0098553Y0103476D01*
X0098621Y0103505D01*
X0099349Y0104232D01*
X0117243Y0104232D01*
X0117666Y0103809D01*
X0118795Y0103342D01*
X0120017Y0103342D01*
X0121146Y0103809D01*
X0122010Y0104673D01*
X0122478Y0105802D01*
X0122478Y0107024D01*
X0122010Y0108153D01*
X0121146Y0109017D01*
X0120017Y0109485D01*
X0118795Y0109485D01*
X0117666Y0109017D01*
X0117243Y0108594D01*
X0100374Y0108594D01*
X0099874Y0109802D01*
X0098621Y0111054D01*
X0096985Y0111732D01*
X0095213Y0111732D01*
X0093577Y0111054D01*
X0092324Y0109802D01*
X0091646Y0108165D01*
X0091646Y0106394D01*
X0092324Y0104757D01*
X0093577Y0103505D01*
X0093645Y0103476D01*
X0066157Y0103476D01*
X0065572Y0102891D01*
X0065572Y0061905D01*
X0066157Y0061319D01*
X0066986Y0061319D01*
X0094708Y0061319D01*
X0094459Y0061238D01*
X0093860Y0060933D01*
X0093316Y0060538D01*
X0092841Y0060062D01*
X0092446Y0059518D01*
X0092140Y0058919D01*
X0091933Y0058280D01*
X0091835Y0057665D01*
X0095713Y0057665D01*
X0095713Y0056894D01*
X0091835Y0056894D01*
X0091933Y0056279D01*
X0092140Y0055640D01*
X0092446Y0055041D01*
X0092841Y0054497D01*
X0093316Y0054021D01*
X0093860Y0053626D01*
X0094459Y0053321D01*
X0095099Y0053113D01*
X0095713Y0053016D01*
X0095713Y0056894D01*
X0096485Y0056894D01*
X0096485Y0057665D01*
X0100363Y0057665D01*
X0100266Y0058280D01*
X0100058Y0058919D01*
X0099753Y0059518D01*
X0099357Y0060062D01*
X0098882Y0060538D01*
X0098338Y0060933D01*
X0097739Y0061238D01*
X0097490Y0061319D01*
X0100844Y0061319D01*
X0101430Y0061905D01*
X0099252Y0060168D02*
X0137146Y0060168D01*
X0137146Y0059170D02*
X0099930Y0059170D01*
X0100283Y0058171D02*
X0137146Y0058171D01*
X0137146Y0057173D02*
X0096485Y0057173D01*
X0096485Y0056894D02*
X0100363Y0056894D01*
X0100266Y0056279D01*
X0100058Y0055640D01*
X0099753Y0055041D01*
X0099357Y0054497D01*
X0098882Y0054021D01*
X0098338Y0053626D01*
X0097739Y0053321D01*
X0097099Y0053113D01*
X0096485Y0053016D01*
X0096485Y0056894D01*
X0096099Y0057280D02*
X0121493Y0076768D01*
X0126532Y0080705D01*
X0137146Y0081137D02*
X0101430Y0081137D01*
X0101430Y0082135D02*
X0137146Y0082135D01*
X0137146Y0083134D02*
X0101430Y0083134D01*
X0101430Y0084132D02*
X0137146Y0084132D01*
X0137146Y0085131D02*
X0101430Y0085131D01*
X0101430Y0086129D02*
X0137146Y0086129D01*
X0137146Y0087128D02*
X0101430Y0087128D01*
X0101430Y0088126D02*
X0137146Y0088126D01*
X0137146Y0089125D02*
X0101430Y0089125D01*
X0101430Y0090123D02*
X0137146Y0090123D01*
X0137146Y0091122D02*
X0101430Y0091122D01*
X0101430Y0092120D02*
X0137146Y0092120D01*
X0137146Y0093119D02*
X0101430Y0093119D01*
X0101430Y0094117D02*
X0137146Y0094117D01*
X0137146Y0095116D02*
X0101430Y0095116D01*
X0101430Y0096114D02*
X0137146Y0096114D01*
X0137146Y0097113D02*
X0101430Y0097113D01*
X0101430Y0098112D02*
X0137146Y0098112D01*
X0137146Y0099110D02*
X0101430Y0099110D01*
X0101430Y0100109D02*
X0136657Y0100109D01*
X0136256Y0101107D02*
X0101430Y0101107D01*
X0101430Y0102106D02*
X0136256Y0102106D01*
X0136589Y0103104D02*
X0101216Y0103104D01*
X0099219Y0104103D02*
X0117373Y0104103D01*
X0119406Y0106413D02*
X0096965Y0106413D01*
X0096099Y0107280D01*
X0092979Y0104103D02*
X0049915Y0104103D01*
X0049916Y0105101D02*
X0092182Y0105101D01*
X0091768Y0106100D02*
X0049916Y0106100D01*
X0049917Y0107098D02*
X0091646Y0107098D01*
X0091646Y0108097D02*
X0049918Y0108097D01*
X0049919Y0109095D02*
X0092032Y0109095D01*
X0092616Y0110094D02*
X0049919Y0110094D01*
X0049920Y0111092D02*
X0093668Y0111092D01*
X0094459Y0113321D02*
X0095099Y0113113D01*
X0095713Y0113016D01*
X0095713Y0116894D01*
X0091835Y0116894D01*
X0091933Y0116279D01*
X0092140Y0115640D01*
X0092446Y0115041D01*
X0092841Y0114497D01*
X0093316Y0114021D01*
X0093860Y0113626D01*
X0094459Y0113321D01*
X0095250Y0113089D02*
X0049922Y0113089D01*
X0049921Y0112091D02*
X0163800Y0112091D01*
X0163800Y0113089D02*
X0147618Y0113089D01*
X0146985Y0112827D02*
X0148621Y0113505D01*
X0149874Y0114757D01*
X0150552Y0116394D01*
X0150552Y0118165D01*
X0149874Y0119802D01*
X0148621Y0121054D01*
X0146985Y0121732D01*
X0145213Y0121732D01*
X0143577Y0121054D01*
X0142324Y0119802D01*
X0141646Y0118165D01*
X0141646Y0116394D01*
X0142324Y0114757D01*
X0143577Y0113505D01*
X0145213Y0112827D01*
X0146985Y0112827D01*
X0144580Y0113089D02*
X0096949Y0113089D01*
X0097099Y0113113D02*
X0097739Y0113321D01*
X0098338Y0113626D01*
X0098882Y0114021D01*
X0099357Y0114497D01*
X0099753Y0115041D01*
X0100058Y0115640D01*
X0100266Y0116279D01*
X0100363Y0116894D01*
X0096485Y0116894D01*
X0096485Y0117665D01*
X0100363Y0117665D01*
X0100266Y0118280D01*
X0100058Y0118919D01*
X0099753Y0119518D01*
X0099357Y0120062D01*
X0098882Y0120538D01*
X0098338Y0120933D01*
X0097739Y0121238D01*
X0097099Y0121446D01*
X0096485Y0121543D01*
X0096485Y0117665D01*
X0095713Y0117665D01*
X0095713Y0116894D01*
X0096485Y0116894D01*
X0096485Y0113016D01*
X0097099Y0113113D01*
X0096485Y0113089D02*
X0095713Y0113089D01*
X0095713Y0114088D02*
X0096485Y0114088D01*
X0096485Y0115086D02*
X0095713Y0115086D01*
X0095713Y0116085D02*
X0096485Y0116085D01*
X0096485Y0117083D02*
X0141646Y0117083D01*
X0141646Y0118082D02*
X0100297Y0118082D01*
X0099976Y0119080D02*
X0142025Y0119080D01*
X0142601Y0120079D02*
X0099341Y0120079D01*
X0098055Y0121077D02*
X0143632Y0121077D01*
X0148566Y0121077D02*
X0163800Y0121077D01*
X0163800Y0120079D02*
X0149597Y0120079D01*
X0150173Y0119080D02*
X0163800Y0119080D01*
X0163800Y0118082D02*
X0150552Y0118082D01*
X0150552Y0117083D02*
X0163800Y0117083D01*
X0163800Y0116085D02*
X0150424Y0116085D01*
X0150010Y0115086D02*
X0163800Y0115086D01*
X0163800Y0114088D02*
X0149204Y0114088D01*
X0142994Y0114088D02*
X0098948Y0114088D01*
X0099776Y0115086D02*
X0142188Y0115086D01*
X0141774Y0116085D02*
X0100202Y0116085D01*
X0096485Y0118082D02*
X0095713Y0118082D01*
X0095713Y0117665D02*
X0095713Y0121543D01*
X0095099Y0121446D01*
X0094459Y0121238D01*
X0093860Y0120933D01*
X0093316Y0120538D01*
X0092841Y0120062D01*
X0092446Y0119518D01*
X0092140Y0118919D01*
X0091933Y0118280D01*
X0091835Y0117665D01*
X0095713Y0117665D01*
X0095713Y0117083D02*
X0049925Y0117083D01*
X0049924Y0116085D02*
X0091996Y0116085D01*
X0092422Y0115086D02*
X0049923Y0115086D01*
X0049923Y0114088D02*
X0093250Y0114088D01*
X0091901Y0118082D02*
X0049926Y0118082D01*
X0049926Y0119080D02*
X0092222Y0119080D01*
X0092857Y0120079D02*
X0049927Y0120079D01*
X0049928Y0121077D02*
X0094143Y0121077D01*
X0095713Y0121077D02*
X0096485Y0121077D01*
X0096485Y0120079D02*
X0095713Y0120079D01*
X0095713Y0119080D02*
X0096485Y0119080D01*
X0098530Y0111092D02*
X0143668Y0111092D01*
X0142616Y0110094D02*
X0099582Y0110094D01*
X0100167Y0109095D02*
X0117854Y0109095D01*
X0120958Y0109095D02*
X0142032Y0109095D01*
X0141646Y0108097D02*
X0122034Y0108097D01*
X0122447Y0107098D02*
X0141646Y0107098D01*
X0141768Y0106100D02*
X0122478Y0106100D01*
X0122187Y0105101D02*
X0142182Y0105101D01*
X0142979Y0104103D02*
X0141258Y0104103D01*
X0142066Y0103104D02*
X0144544Y0103104D01*
X0143704Y0101107D02*
X0142399Y0101107D01*
X0142399Y0102106D02*
X0163800Y0102106D01*
X0163800Y0091122D02*
X0148458Y0091122D01*
X0149552Y0090123D02*
X0163800Y0090123D01*
X0163800Y0089125D02*
X0150154Y0089125D01*
X0150552Y0088126D02*
X0163800Y0088126D01*
X0163800Y0087128D02*
X0150552Y0087128D01*
X0150442Y0086129D02*
X0163800Y0086129D01*
X0163800Y0085131D02*
X0150029Y0085131D01*
X0149249Y0084132D02*
X0163800Y0084132D01*
X0163800Y0083134D02*
X0147726Y0083134D01*
X0144508Y0093119D02*
X0141509Y0093119D01*
X0141509Y0094117D02*
X0142964Y0094117D01*
X0142176Y0095116D02*
X0141509Y0095116D01*
X0141509Y0096114D02*
X0141762Y0096114D01*
X0141646Y0097113D02*
X0141509Y0097113D01*
X0141509Y0098112D02*
X0141646Y0098112D01*
X0141509Y0099110D02*
X0142038Y0099110D01*
X0141998Y0100109D02*
X0142631Y0100109D01*
X0139327Y0101689D02*
X0139327Y0054051D01*
X0146099Y0047280D01*
X0141646Y0047187D02*
X0100552Y0047187D01*
X0100552Y0046394D02*
X0099874Y0044757D01*
X0098621Y0043505D01*
X0096985Y0042827D01*
X0095213Y0042827D01*
X0093577Y0043505D01*
X0092324Y0044757D01*
X0091646Y0046394D01*
X0091646Y0048165D01*
X0092324Y0049802D01*
X0093577Y0051054D01*
X0095213Y0051732D01*
X0096985Y0051732D01*
X0098621Y0051054D01*
X0099874Y0049802D01*
X0100552Y0048165D01*
X0100552Y0046394D01*
X0100467Y0046189D02*
X0141731Y0046189D01*
X0142145Y0045190D02*
X0100053Y0045190D01*
X0099309Y0044192D02*
X0142890Y0044192D01*
X0144328Y0043193D02*
X0097870Y0043193D01*
X0094328Y0043193D02*
X0049868Y0043193D01*
X0049869Y0044192D02*
X0092890Y0044192D01*
X0092145Y0045190D02*
X0049870Y0045190D01*
X0049870Y0046189D02*
X0091731Y0046189D01*
X0091646Y0047187D02*
X0049871Y0047187D01*
X0049872Y0048186D02*
X0091655Y0048186D01*
X0092069Y0049184D02*
X0049873Y0049184D01*
X0049873Y0050183D02*
X0092705Y0050183D01*
X0093884Y0051181D02*
X0049874Y0051181D01*
X0049875Y0052180D02*
X0138114Y0052180D01*
X0137146Y0053178D02*
X0097301Y0053178D01*
X0096485Y0053178D02*
X0095713Y0053178D01*
X0094897Y0053178D02*
X0049876Y0053178D01*
X0049876Y0054177D02*
X0093161Y0054177D01*
X0092377Y0055176D02*
X0049877Y0055176D01*
X0049878Y0056174D02*
X0091967Y0056174D01*
X0091915Y0058171D02*
X0049880Y0058171D01*
X0049879Y0057173D02*
X0095713Y0057173D01*
X0095713Y0056174D02*
X0096485Y0056174D01*
X0096485Y0055176D02*
X0095713Y0055176D01*
X0095713Y0054177D02*
X0096485Y0054177D01*
X0099038Y0054177D02*
X0137146Y0054177D01*
X0137146Y0055176D02*
X0099821Y0055176D01*
X0100231Y0056174D02*
X0137146Y0056174D01*
X0137146Y0061167D02*
X0097879Y0061167D01*
X0094319Y0061167D02*
X0049882Y0061167D01*
X0049883Y0062165D02*
X0065572Y0062165D01*
X0065572Y0063164D02*
X0049883Y0063164D01*
X0049884Y0064162D02*
X0065572Y0064162D01*
X0065572Y0065161D02*
X0049885Y0065161D01*
X0049886Y0066159D02*
X0065572Y0066159D01*
X0065572Y0067158D02*
X0049886Y0067158D01*
X0049887Y0068156D02*
X0065572Y0068156D01*
X0065572Y0069155D02*
X0049888Y0069155D01*
X0049889Y0070153D02*
X0065572Y0070153D01*
X0065572Y0071152D02*
X0049890Y0071152D01*
X0049890Y0072150D02*
X0065572Y0072150D01*
X0065572Y0073149D02*
X0049891Y0073149D01*
X0049892Y0074147D02*
X0065572Y0074147D01*
X0065572Y0075146D02*
X0049893Y0075146D01*
X0049893Y0076144D02*
X0065572Y0076144D01*
X0065572Y0077143D02*
X0049894Y0077143D01*
X0049895Y0078141D02*
X0065572Y0078141D01*
X0065572Y0079140D02*
X0049896Y0079140D01*
X0049896Y0080138D02*
X0065572Y0080138D01*
X0065572Y0081137D02*
X0049897Y0081137D01*
X0049898Y0082135D02*
X0065572Y0082135D01*
X0065572Y0083134D02*
X0049899Y0083134D01*
X0049899Y0084132D02*
X0065572Y0084132D01*
X0065572Y0085131D02*
X0049900Y0085131D01*
X0049901Y0086129D02*
X0065572Y0086129D01*
X0065572Y0087128D02*
X0049902Y0087128D01*
X0049903Y0088126D02*
X0065572Y0088126D01*
X0065572Y0089125D02*
X0049903Y0089125D01*
X0049904Y0090123D02*
X0065572Y0090123D01*
X0065572Y0091122D02*
X0049905Y0091122D01*
X0049906Y0092120D02*
X0065572Y0092120D01*
X0065572Y0093119D02*
X0049906Y0093119D01*
X0049907Y0094117D02*
X0065572Y0094117D01*
X0065572Y0095116D02*
X0049908Y0095116D01*
X0049909Y0096114D02*
X0065572Y0096114D01*
X0065572Y0097113D02*
X0049909Y0097113D01*
X0049910Y0098112D02*
X0065572Y0098112D01*
X0065572Y0099110D02*
X0049911Y0099110D01*
X0049912Y0100109D02*
X0065572Y0100109D01*
X0065572Y0101107D02*
X0049913Y0101107D01*
X0049913Y0102106D02*
X0065572Y0102106D01*
X0065785Y0103104D02*
X0049914Y0103104D01*
X0049929Y0122076D02*
X0163800Y0122076D01*
X0163800Y0123074D02*
X0049929Y0123074D01*
X0049930Y0124073D02*
X0163800Y0124073D01*
X0163800Y0125071D02*
X0049931Y0125071D01*
X0049932Y0126070D02*
X0163800Y0126070D01*
X0163800Y0127068D02*
X0049932Y0127068D01*
X0049933Y0128067D02*
X0163800Y0128067D01*
X0163800Y0129065D02*
X0049934Y0129065D01*
X0049935Y0130064D02*
X0163800Y0130064D01*
X0163800Y0131062D02*
X0049936Y0131062D01*
X0049936Y0132061D02*
X0163800Y0132061D01*
X0163800Y0133059D02*
X0049937Y0133059D01*
X0049938Y0134058D02*
X0163800Y0134058D01*
X0163800Y0135056D02*
X0049939Y0135056D01*
X0049939Y0136055D02*
X0163800Y0136055D01*
X0163800Y0137053D02*
X0049940Y0137053D01*
X0049941Y0138052D02*
X0083546Y0138052D01*
X0082547Y0139050D02*
X0049942Y0139050D01*
X0049942Y0140049D02*
X0081549Y0140049D01*
X0080550Y0141047D02*
X0049943Y0141047D01*
X0049944Y0142046D02*
X0079552Y0142046D01*
X0121439Y0104103D02*
X0137397Y0104103D01*
X0168162Y0126070D02*
X0187256Y0126070D01*
X0186369Y0127068D02*
X0168162Y0127068D01*
X0168162Y0128067D02*
X0185980Y0128067D01*
X0185520Y0129065D02*
X0168162Y0129065D01*
X0168162Y0130064D02*
X0184522Y0130064D01*
X0183523Y0131062D02*
X0168162Y0131062D01*
X0168162Y0132061D02*
X0182525Y0132061D01*
X0181526Y0133059D02*
X0168162Y0133059D01*
X0168162Y0134058D02*
X0180527Y0134058D01*
X0179529Y0135056D02*
X0168162Y0135056D01*
X0168162Y0136055D02*
X0178530Y0136055D01*
X0177532Y0137053D02*
X0168162Y0137053D01*
X0168162Y0138052D02*
X0176533Y0138052D01*
X0175535Y0139050D02*
X0168162Y0139050D01*
X0168162Y0140049D02*
X0174536Y0140049D01*
X0173800Y0141047D02*
X0168162Y0141047D01*
X0168162Y0142046D02*
X0173800Y0142046D01*
X0173800Y0143045D02*
X0168162Y0143045D01*
X0168162Y0144043D02*
X0173800Y0144043D01*
X0173800Y0145042D02*
X0168162Y0145042D01*
X0168162Y0146040D02*
X0173800Y0146040D01*
X0173800Y0147039D02*
X0168162Y0147039D01*
X0168162Y0148037D02*
X0173800Y0148037D01*
X0173800Y0149036D02*
X0168162Y0149036D01*
X0168162Y0150034D02*
X0173800Y0150034D01*
X0173800Y0151033D02*
X0168162Y0151033D01*
X0168162Y0152031D02*
X0173800Y0152031D01*
X0173800Y0153030D02*
X0168162Y0153030D01*
X0168162Y0154028D02*
X0173800Y0154028D01*
X0173800Y0155027D02*
X0168162Y0155027D01*
X0168162Y0156025D02*
X0173800Y0156025D01*
X0173800Y0157024D02*
X0168162Y0157024D01*
X0168162Y0158022D02*
X0173800Y0158022D01*
X0173800Y0159021D02*
X0168162Y0159021D01*
X0168162Y0160019D02*
X0173800Y0160019D01*
X0173800Y0161018D02*
X0168162Y0161018D01*
X0168162Y0162016D02*
X0173800Y0162016D01*
X0173800Y0163015D02*
X0168162Y0163015D01*
X0169343Y0164013D02*
X0172619Y0164013D01*
X0171850Y0165012D02*
X0170112Y0165012D01*
X0170525Y0166010D02*
X0171437Y0166010D01*
X0171300Y0167009D02*
X0170662Y0167009D01*
X0170662Y0168007D02*
X0171300Y0168007D01*
X0171300Y0169006D02*
X0170662Y0169006D01*
X0170662Y0170004D02*
X0171300Y0170004D01*
X0171300Y0171003D02*
X0170662Y0171003D01*
X0170662Y0172001D02*
X0171300Y0172001D01*
X0171300Y0173000D02*
X0170662Y0173000D01*
X0170662Y0173998D02*
X0171300Y0173998D01*
X0171629Y0174997D02*
X0170333Y0174997D01*
X0169877Y0175995D02*
X0172085Y0175995D01*
X0173083Y0176994D02*
X0168879Y0176994D01*
X0163083Y0176994D02*
X0158514Y0176994D01*
X0158339Y0177120D02*
X0157708Y0177442D01*
X0157035Y0177661D01*
X0156481Y0177749D01*
X0156481Y0170772D01*
X0160481Y0170772D01*
X0160481Y0173626D01*
X0160370Y0174325D01*
X0160151Y0174999D01*
X0159830Y0175630D01*
X0159413Y0176203D01*
X0158913Y0176704D01*
X0158339Y0177120D01*
X0159564Y0175995D02*
X0162085Y0175995D01*
X0161629Y0174997D02*
X0160152Y0174997D01*
X0160422Y0173998D02*
X0161300Y0173998D01*
X0161300Y0173000D02*
X0160481Y0173000D01*
X0160481Y0172001D02*
X0161300Y0172001D01*
X0161300Y0171003D02*
X0160481Y0171003D01*
X0160481Y0169006D02*
X0161300Y0169006D01*
X0161300Y0168007D02*
X0160481Y0168007D01*
X0160481Y0167009D02*
X0161300Y0167009D01*
X0161437Y0166010D02*
X0160303Y0166010D01*
X0159880Y0165012D02*
X0161850Y0165012D01*
X0162619Y0164013D02*
X0159087Y0164013D01*
X0156481Y0164013D02*
X0155481Y0164013D01*
X0155481Y0165012D02*
X0156481Y0165012D01*
X0156481Y0166010D02*
X0155481Y0166010D01*
X0155481Y0167009D02*
X0156481Y0167009D01*
X0156481Y0168007D02*
X0155481Y0168007D01*
X0155481Y0171003D02*
X0156481Y0171003D01*
X0156481Y0172001D02*
X0155481Y0172001D01*
X0155481Y0173000D02*
X0156481Y0173000D01*
X0156481Y0173998D02*
X0155481Y0173998D01*
X0155481Y0174997D02*
X0156481Y0174997D01*
X0156481Y0175995D02*
X0155481Y0175995D01*
X0155481Y0176994D02*
X0156481Y0176994D01*
X0153448Y0176994D02*
X0148879Y0176994D01*
X0149877Y0175995D02*
X0152398Y0175995D01*
X0151810Y0174997D02*
X0150333Y0174997D01*
X0150662Y0173998D02*
X0151540Y0173998D01*
X0151481Y0173000D02*
X0150662Y0173000D01*
X0150662Y0172001D02*
X0151481Y0172001D01*
X0151481Y0171003D02*
X0150662Y0171003D01*
X0152777Y0183983D02*
X0200248Y0183983D01*
X0183083Y0176994D02*
X0178879Y0176994D01*
X0179877Y0175995D02*
X0182085Y0175995D01*
X0181629Y0174997D02*
X0180333Y0174997D01*
X0180662Y0173998D02*
X0181300Y0173998D01*
X0181300Y0173000D02*
X0180662Y0173000D01*
X0180662Y0172001D02*
X0181300Y0172001D01*
X0181300Y0171003D02*
X0180662Y0171003D01*
X0180662Y0170004D02*
X0181300Y0170004D01*
X0181300Y0169006D02*
X0180662Y0169006D01*
X0180662Y0168007D02*
X0181300Y0168007D01*
X0181300Y0167009D02*
X0180662Y0167009D01*
X0180525Y0166010D02*
X0181437Y0166010D01*
X0181850Y0165012D02*
X0180112Y0165012D01*
X0179343Y0164013D02*
X0182619Y0164013D01*
X0175981Y0170272D02*
X0175981Y0141689D01*
X0189052Y0128618D01*
X0191735Y0127068D02*
X0241858Y0127068D01*
X0241821Y0128067D02*
X0241949Y0128067D01*
X0240860Y0126070D02*
X0190848Y0126070D01*
X0235047Y0114088D02*
X0248608Y0114088D01*
X0247609Y0115086D02*
X0236045Y0115086D01*
X0237044Y0116085D02*
X0246611Y0116085D01*
X0259367Y0109760D02*
X0272241Y0122634D01*
X0275233Y0122634D01*
X0261548Y0101107D02*
X0391172Y0101107D01*
X0391172Y0100109D02*
X0261548Y0100109D01*
X0261548Y0099110D02*
X0391171Y0099110D01*
X0391170Y0098112D02*
X0261548Y0098112D01*
X0261548Y0097113D02*
X0391169Y0097113D01*
X0391169Y0096114D02*
X0261548Y0096114D01*
X0261548Y0095116D02*
X0391168Y0095116D01*
X0391165Y0092120D02*
X0344775Y0092120D01*
X0345573Y0091122D02*
X0391165Y0091122D01*
X0391176Y0106100D02*
X0367843Y0106100D01*
X0370452Y0106866D02*
X0370452Y0106866D01*
X0370814Y0107098D02*
X0391177Y0107098D01*
X0391178Y0108097D02*
X0372368Y0108097D01*
X0373921Y0109095D02*
X0391179Y0109095D01*
X0391179Y0110094D02*
X0375125Y0110094D01*
X0375990Y0111092D02*
X0391180Y0111092D01*
X0391181Y0112091D02*
X0376856Y0112091D01*
X0377721Y0113089D02*
X0391182Y0113089D01*
X0391182Y0114088D02*
X0378300Y0114088D01*
X0377981Y0113390D02*
X0377981Y0113390D01*
X0378756Y0115086D02*
X0391183Y0115086D01*
X0391184Y0116085D02*
X0379212Y0116085D01*
X0379668Y0117083D02*
X0391185Y0117083D01*
X0391185Y0118082D02*
X0380088Y0118082D01*
X0380232Y0119080D02*
X0391186Y0119080D01*
X0391187Y0120079D02*
X0380375Y0120079D01*
X0380519Y0121077D02*
X0391188Y0121077D01*
X0391188Y0122076D02*
X0380663Y0122076D01*
X0380770Y0123074D02*
X0391189Y0123074D01*
X0391190Y0124073D02*
X0380626Y0124073D01*
X0380483Y0125071D02*
X0391191Y0125071D01*
X0391192Y0126070D02*
X0380339Y0126070D01*
X0380196Y0127068D02*
X0391192Y0127068D01*
X0391193Y0128067D02*
X0380009Y0128067D01*
X0379553Y0129065D02*
X0391194Y0129065D01*
X0391195Y0130064D02*
X0379097Y0130064D01*
X0378641Y0131062D02*
X0391195Y0131062D01*
X0391196Y0132061D02*
X0378185Y0132061D01*
X0377981Y0132508D02*
X0377981Y0132508D01*
X0377503Y0133059D02*
X0391197Y0133059D01*
X0391198Y0134058D02*
X0376638Y0134058D01*
X0375773Y0135056D02*
X0391198Y0135056D01*
X0391199Y0136055D02*
X0374908Y0136055D01*
X0374686Y0136311D02*
X0374686Y0136311D01*
X0373531Y0137053D02*
X0391200Y0137053D01*
X0391201Y0138052D02*
X0371977Y0138052D01*
X0370389Y0139050D02*
X0391202Y0139050D01*
X0303811Y0072150D02*
X0273280Y0072150D01*
X0273697Y0071152D02*
X0303026Y0071152D01*
X0302613Y0070153D02*
X0274183Y0070153D01*
X0274289Y0069155D02*
X0302525Y0069155D01*
X0302559Y0068156D02*
X0274073Y0068156D01*
X0273431Y0067158D02*
X0302973Y0067158D01*
X0303683Y0066159D02*
X0246173Y0066159D01*
X0244970Y0065161D02*
X0305107Y0065161D01*
X0303826Y0062165D02*
X0240833Y0062165D01*
X0239668Y0061167D02*
X0303032Y0061167D01*
X0302619Y0060168D02*
X0238503Y0060168D01*
X0237338Y0059170D02*
X0302525Y0059170D01*
X0302553Y0058171D02*
X0236173Y0058171D01*
X0235008Y0057173D02*
X0302967Y0057173D01*
X0303668Y0056174D02*
X0233843Y0056174D01*
X0141655Y0048186D02*
X0100543Y0048186D01*
X0100130Y0049184D02*
X0141110Y0049184D01*
X0140111Y0050183D02*
X0099493Y0050183D01*
X0098315Y0051181D02*
X0139113Y0051181D01*
X0092947Y0060168D02*
X0049881Y0060168D01*
X0049880Y0059170D02*
X0092268Y0059170D01*
X0234697Y0144043D02*
X0234975Y0144043D01*
X0234697Y0145042D02*
X0235973Y0145042D01*
X0236972Y0146040D02*
X0234697Y0146040D01*
X0234697Y0147039D02*
X0237970Y0147039D01*
X0238969Y0148037D02*
X0234697Y0148037D01*
X0234697Y0149036D02*
X0239967Y0149036D01*
X0240966Y0150034D02*
X0234697Y0150034D01*
X0234697Y0151033D02*
X0241964Y0151033D01*
X0242963Y0152031D02*
X0234697Y0152031D01*
X0234697Y0153030D02*
X0243961Y0153030D01*
X0244960Y0154028D02*
X0234697Y0154028D01*
X0262181Y0145042D02*
X0268163Y0145042D01*
X0269019Y0146040D02*
X0263002Y0146040D01*
X0263344Y0147039D02*
X0270635Y0147039D01*
X0109001Y0240899D02*
X0108001Y0240899D01*
X0108001Y0241897D02*
X0109001Y0241897D01*
X0109001Y0242896D02*
X0108001Y0242896D01*
X0107039Y0239900D02*
X0050019Y0239900D01*
X0050018Y0238902D02*
X0102668Y0238902D01*
X0103912Y0240899D02*
X0050020Y0240899D01*
X0050021Y0241897D02*
X0102354Y0241897D01*
X0101581Y0242896D02*
X0050021Y0242896D01*
X0050022Y0243894D02*
X0101165Y0243894D01*
X0101714Y0207948D02*
X0094532Y0207948D01*
X0093534Y0206949D02*
X0101194Y0206949D01*
X0100820Y0205951D02*
X0092535Y0205951D01*
X0091537Y0204952D02*
X0100820Y0204952D01*
X0100915Y0203954D02*
X0090538Y0203954D01*
X0089540Y0202955D02*
X0101328Y0202955D01*
X0102038Y0201957D02*
X0088541Y0201957D01*
X0087543Y0200958D02*
X0103302Y0200958D01*
X0086354Y0194967D02*
X0081552Y0194967D01*
D17*
X0108501Y0225114D02*
X0327949Y0225114D01*
X0327949Y0235114D02*
X0108501Y0235114D01*
X0108501Y0245114D02*
X0327949Y0245114D01*
D18*
X0338501Y0239248D02*
X0342044Y0238854D01*
X0342083Y0238815D01*
X0356926Y0223972D01*
X0356965Y0155390D01*
X0341926Y0140350D01*
X0341926Y0127949D01*
X0331296Y0117319D01*
X0322989Y0117319D01*
X0145981Y0165469D02*
X0121414Y0140902D01*
X0085902Y0140902D01*
X0060154Y0166650D01*
X0060154Y0203264D01*
X0091296Y0234406D01*
X0107792Y0234406D01*
X0108501Y0235114D01*
X0108501Y0225114D02*
X0106493Y0225114D01*
X0069485Y0188106D01*
X0069485Y0168657D01*
X0085863Y0152280D01*
X0117989Y0152280D01*
X0135981Y0170272D01*
X0145981Y0170272D02*
X0145981Y0165469D01*
D19*
X0108501Y0255114D02*
X0327949Y0255114D01*
M02*
